<svg width="280" height="280" viewBox="0 0 280 280" fill="none" xmlns="http://www.w3.org/2000/svg">
<path d="M280 0H0V280H280V0Z" fill="white"/>
<path d="M138.717 235.911C161.322 226.553 163.17 203.411 183.613 201.138C201.424 199.158 208.443 215.788 220.912 212.614C239.912 207.778 251.252 162.159 243.066 124.897C234.613 86.4205 200.67 35.5941 145.591 32.8733C83.7517 29.819 37.8415 89.5042 35.7215 141.34C35.4951 146.947 34.3343 193.905 70.609 221.122C72.4211 222.482 108.156 248.566 138.717 235.911Z" fill="#F4F7FA"/>
<path d="M110.293 231.946L97.2294 221.132C97.2294 221.132 100.316 212.395 107.432 210.316C121.95 206.072 117.22 193.654 116.017 188.156C114.206 179.864 116.244 172.78 125.232 174.527C135.401 176.504 137.644 161.221 132.784 148.253C128.029 135.562 147.844 119.787 160.658 146.308C168.311 162.147 155.568 173.614 150.511 180.934C145.454 188.254 155.141 197.225 144.761 202.69C135.894 207.359 125.953 207.885 126.204 216.35C126.454 224.815 122.354 230.672 110.293 231.946Z" fill="url(#paint0_linear_154_2377)"/>
<g style="mix-blend-mode:soft-light" opacity="0.5">
<g style="mix-blend-mode:soft-light" opacity="0.5">
<path d="M103.635 228.48L103.405 228.205C103.575 228.063 120.529 213.732 133.053 194.457C144.591 176.701 154.619 150.993 136.875 129.356L137.152 129.13C145.05 138.761 148.198 149.986 146.51 162.488C145.158 172.479 140.732 183.301 133.353 194.657C120.795 213.977 103.805 228.337 103.635 228.48Z" fill="#BEB8F2"/>
</g>
<g style="mix-blend-mode:soft-light" opacity="0.5">
<path d="M145.574 167.686L145.328 167.425C154.001 159.255 161.239 143.444 161.312 143.285L161.638 143.436C161.565 143.592 154.297 159.472 145.574 167.686Z" fill="#BEB8F2"/>
</g>
<g style="mix-blend-mode:soft-light" opacity="0.5">
<path d="M146.472 159.321C141.976 145.853 131.005 141.45 130.895 141.407L131.024 141.073C131.137 141.116 142.26 145.574 146.812 159.208L146.472 159.321Z" fill="#BEB8F2"/>
</g>
<g style="mix-blend-mode:soft-light" opacity="0.5">
<path d="M124.179 206.613C131.857 191.058 116.811 173.232 116.651 173.071L116.887 172.802C117.06 172.946 132.246 191.078 124.5 206.771L124.179 206.613Z" fill="#BEB8F2"/>
</g>
<g style="mix-blend-mode:soft-light" opacity="0.5">
<path d="M128.824 201.173L128.598 200.893C137.244 193.982 151.053 195.733 151.192 195.751L151.145 196.106C151.011 196.087 137.349 194.358 128.824 201.173Z" fill="#BEB8F2"/>
</g>
<g style="mix-blend-mode:soft-light" opacity="0.5">
<path d="M106.023 225.892C109.814 220.502 105.906 210.514 105.866 210.415L106.199 210.282C106.365 210.698 110.219 220.546 106.316 226.098L106.023 225.892Z" fill="#BEB8F2"/>
</g>
<g style="mix-blend-mode:soft-light" opacity="0.5">
<path d="M110.084 222.552L109.851 222.281C113.801 218.884 123.429 219.426 126.593 219.604C127.041 219.629 127.423 219.65 127.499 219.641L127.553 219.995C127.455 220.01 127.198 219.995 126.577 219.961C123.445 219.785 113.925 219.245 110.084 222.552Z" fill="#BEB8F2"/>
</g>
</g>
<path d="M90.3721 205.52C94.1683 204.966 96.8679 207.526 98.5321 209.684C98.4113 210.033 98.4309 210.264 98.3871 210.641C97.9947 214.046 97.1041 215.414 96.1849 218.708C95.9871 219.417 94.7751 221.322 94.2294 222.068L93.1909 223.444C93.1909 223.444 84.3607 223.639 83.6989 218.658C83.037 213.676 74.6272 212.798 70.2302 211.783C67.5298 211.16 66.4951 210.011 65.5396 209.622C55.4264 205.513 51.314 207.584 48.8461 204.231C46.1223 200.526 50.3555 196.938 47.603 192.75C44.4974 188.023 37.0159 189.423 35.0748 184.292C34.7427 183.412 34.4249 182.499 34.4778 181.246C34.6076 178.152 37.0234 176.423 35.3895 173.63C32.1065 168.015 32.7525 160.825 39.0121 158.43C45.1902 156.064 53.0725 163.888 56.5917 178.165C60.2544 188.033 62.1306 188.772 67.0189 189.661C70.4445 190.283 80.1449 189.702 81.8868 195.528C83.6287 201.353 86.0317 206.153 90.3721 205.52Z" fill="url(#paint1_linear_154_2377)"/>
<g style="mix-blend-mode:soft-light" opacity="0.5">
<g style="mix-blend-mode:soft-light" opacity="0.5">
<path d="M96.8981 217.069L96.7872 217.295C95.5314 216.697 94.2732 216.076 93.0476 215.451C83.9698 210.824 75.6891 205.453 68.4438 199.485C62.3027 194.429 56.8129 188.874 52.1276 182.977C48.3593 178.235 45.0883 173.245 42.4061 168.147C40.5804 164.702 39.0126 161.126 37.7155 157.449C37.5019 156.836 37.317 156.195 37.1381 155.575C36.8997 154.749 36.6536 153.894 36.3366 153.101L36.5578 152.993C36.8785 153.798 37.1268 154.654 37.3668 155.49C37.5442 156.106 37.7283 156.745 37.9397 157.351C39.2338 161.017 40.7978 164.583 42.6189 168.018C45.2944 173.103 48.5578 178.08 52.317 182.811C56.9963 188.697 62.4717 194.239 68.6015 199.285C75.837 205.243 84.1012 210.606 93.1646 215.226C94.3872 215.849 95.6438 216.471 96.8981 217.069Z" fill="#FCFDFE"/>
</g>
<g style="mix-blend-mode:soft-light" opacity="0.5">
<path d="M58.3162 189.721L58.1464 189.905C51.0113 182.796 33.677 181.452 33.5027 181.436L33.5344 181.188C33.7094 181.201 51.1245 182.555 58.3162 189.721Z" fill="#FCFDFE"/>
</g>
<g style="mix-blend-mode:soft-light" opacity="0.5">
<path d="M80.0671 207.667L79.9162 207.87C74.4823 203.667 74.0537 189.756 74.0499 189.618L74.2884 189.594C74.2937 189.736 74.7223 203.531 80.0671 207.667Z" fill="#FCFDFE"/>
</g>
<g style="mix-blend-mode:soft-light" opacity="0.5">
<path d="M83.3645 209.76L83.2491 209.986C79.2491 207.972 72.6264 207.523 64.5917 208.724C64.1872 208.784 64.1872 208.784 64.1472 208.765L64.2597 208.538L64.2038 208.651L64.2166 208.528C64.2431 208.528 64.3963 208.505 64.5729 208.478C72.6536 207.269 79.3268 207.725 83.3645 209.76Z" fill="#FCFDFE"/>
</g>
<g style="mix-blend-mode:soft-light" opacity="0.5">
<path d="M94.6234 215.941L94.4536 216.126C90.9291 212.644 91.7857 204.894 91.7947 204.816L92.031 204.831C92.0219 204.905 91.1796 212.539 94.6234 215.941Z" fill="#FCFDFE"/>
</g>
<g style="mix-blend-mode:soft-light" opacity="0.5">
<path d="M96.7887 217.434C92.7744 217.137 88.4702 218.038 83.6317 220.192L83.551 219.966C88.4264 217.797 92.7668 216.888 96.8212 217.188L96.7887 217.434Z" fill="#FCFDFE"/>
</g>
<g style="mix-blend-mode:soft-light" opacity="0.5">
<path d="M44.2461 170.99L44.0672 171.165C40.3268 166.967 35.4038 163.525 33.7864 162.395C33.3947 162.121 33.2581 162.024 33.2151 161.981L33.3879 161.799C33.4204 161.832 33.6446 161.988 33.9276 162.186C35.5472 163.321 40.4891 166.773 44.2461 170.99Z" fill="#FCFDFE"/>
</g>
<g style="mix-blend-mode:soft-light" opacity="0.5">
<path d="M49.2967 178.819L49.0793 178.934C46.911 174.019 50.7699 163.425 50.9351 162.977L51.1563 163.052C51.1163 163.161 47.1699 173.995 49.2967 178.819Z" fill="#FCFDFE"/>
</g>
</g>
<path d="M104.343 198.013C103.836 198.722 100.394 195.707 94.1736 195.207C92.6196 195.083 84.191 193.815 80.9494 199.344C80.321 200.417 79.6921 201.49 79.0626 202.563C76.0966 202.178 73.3728 201.266 74.2226 197.438C75.5426 191.494 66.9411 186.846 63.1079 186.665C58.3638 186.439 47.3396 185.684 49.24 176.477C50.8249 168.805 53.3645 164.099 45.486 159.394C37.6075 154.689 35.049 147.381 39.7124 139.893C44.6181 132.012 37.9011 119.945 44.9562 115.073C57.2581 106.584 69.4845 126.464 67.0362 143.314C64.5879 160.164 73.8249 154.584 80.6838 157.672C81.596 158.146 82.4488 158.726 83.2242 159.4C89.277 164.677 86.5819 172.514 89.4491 180.707C93.3585 191.88 105.197 196.819 104.343 198.013Z" fill="url(#paint2_linear_154_2377)"/>
<g style="mix-blend-mode:soft-light" opacity="0.5">
<g style="mix-blend-mode:soft-light" opacity="0.5">
<path d="M83.8333 192.211L83.5563 192.55C60.3676 173.216 47.1231 141.969 48.9902 111.003H49.4106C47.551 141.841 60.7412 172.958 83.8333 192.211Z" fill="#FCFDFE"/>
</g>
<g style="mix-blend-mode:soft-light" opacity="0.5">
<path d="M72.1366 180.515L71.9283 180.899C61.4226 175.371 48.0944 180.506 47.9608 180.558L47.8279 180.159C47.963 180.105 61.4656 174.9 72.1366 180.515Z" fill="#FCFDFE"/>
</g>
<g style="mix-blend-mode:soft-light" opacity="0.5">
<path d="M79.6694 188.529L79.3117 188.775C72.8286 178.532 82.557 157.511 82.6596 157.3L83.037 157.468C82.9434 157.679 73.3094 178.482 79.6694 188.529Z" fill="#FCFDFE"/>
</g>
<g style="mix-blend-mode:soft-light" opacity="0.5">
<path d="M56.8015 154.902L56.4642 155.178C50.634 147.568 35.8159 146.604 35.6672 146.595L35.714 146.166C35.8649 146.175 50.8679 147.151 56.8015 154.902Z" fill="#FCFDFE"/>
</g>
<g style="mix-blend-mode:soft-light" opacity="0.5">
<path d="M51.1299 136.162L50.7088 136.199C50.3548 124.933 60.3993 113.058 60.5012 112.939L60.8121 113.211C60.711 113.328 50.7812 125.071 51.1299 136.162Z" fill="#FCFDFE"/>
</g>
</g>
<path d="M124.107 75.5904C130.265 127.629 136.422 179.124 142.579 230.076C142.855 232.361 141.277 234.378 139.069 234.569C114.324 236.917 89.5778 239.316 64.8302 241.766C60.4166 241.981 57.9924 239.514 57.7079 237.045C51.3683 182.042 45.0309 126.463 38.6959 70.3073C38.4113 67.7851 40.5479 65.6175 44.96 65.8326C69.8269 67.6057 94.6941 69.3554 119.561 71.0817C121.789 71.2281 123.832 73.256 124.107 75.5904Z" fill="#26264F"/>
<path d="M127.547 75.4835C133.743 127.749 139.939 179.464 146.135 230.63C146.413 232.922 144.825 234.954 142.603 235.143C116.908 237.32 91.2131 239.539 65.5185 241.801C63.1736 242.01 61.0181 240.152 60.7321 237.671C54.3527 182.416 47.9743 126.578 41.597 70.1568C41.3109 67.6239 43.0106 65.6798 45.3706 65.8398C71.2377 67.5656 97.1054 69.2705 122.974 70.9545C125.211 71.1032 127.266 73.1386 127.547 75.4835Z" fill="url(#paint3_linear_154_2377)"/>
<path d="M126.051 84.0337C131.79 132.458 137.529 180.409 143.268 227.888C143.528 230.034 142.044 231.929 139.968 232.098C115.803 234.074 91.6382 236.087 67.4732 238.136C65.2898 238.323 63.283 236.585 63.0159 234.279C57.1195 183.245 51.2229 131.712 45.326 79.679C45.0596 77.3251 46.6408 75.5032 48.8385 75.633C73.1535 77.0488 97.4684 78.4498 121.783 79.836C123.872 79.9553 125.792 81.8466 126.051 84.0337Z" fill="url(#paint4_linear_154_2377)"/>
<path style="mix-blend-mode:multiply" opacity="0.3" d="M121.783 79.836C97.7568 78.4669 73.7298 77.0833 49.7026 75.6851C50.5109 80.4009 51.9299 84.9915 53.9238 89.3409C61.8936 106.631 73.6015 107.583 78.1827 122.651C82.9019 138.174 72.2589 143.032 77.4581 157.048C83.1004 172.256 96.9381 170.056 104.251 186.738C110.555 201.117 102.439 207.69 108.958 216.428C116.103 226.005 129.32 222.758 143.039 226.002C137.377 179.139 131.714 131.816 126.051 84.0352C125.793 81.8466 123.872 79.9552 121.783 79.836Z" fill="url(#paint5_linear_154_2377)"/>
<path d="M86.689 73.4538C86.7864 74.2953 86.2211 74.9406 85.4249 74.8946C84.6287 74.8485 83.9034 74.1225 83.8053 73.2764C83.7072 72.4304 84.2747 71.7844 85.0709 71.8364C85.8671 71.8885 86.5909 72.61 86.689 73.4538Z" fill="#DE8BDF"/>
<path d="M95.3691 120.248C98.4406 120.248 100.931 117.311 100.931 113.687C100.931 110.064 98.4406 107.126 95.3691 107.126C92.2975 107.126 89.8076 110.064 89.8076 113.687C89.8076 117.311 92.2975 120.248 95.3691 120.248Z" fill="url(#paint6_linear_154_2377)"/>
<path d="M117.506 120.248C120.578 120.248 123.068 117.311 123.068 113.687C123.068 110.064 120.578 107.126 117.506 107.126C114.435 107.126 111.945 110.064 111.945 113.687C111.945 117.311 114.435 120.248 117.506 120.248Z" fill="url(#paint7_linear_154_2377)"/>
<path d="M106.377 120.248C109.492 120.248 112.017 117.311 112.017 113.687C112.017 110.064 109.492 107.126 106.377 107.126C103.261 107.126 100.736 110.064 100.736 113.687C100.736 117.311 103.261 120.248 106.377 120.248Z" fill="#D8DEE8"/>
<path d="M139.644 120.248C142.715 120.248 145.205 117.311 145.205 113.687C145.205 110.064 142.715 107.126 139.644 107.126C136.572 107.126 134.082 110.064 134.082 113.687C134.082 117.311 136.572 120.248 139.644 120.248Z" fill="url(#paint8_linear_154_2377)"/>
<path d="M128.514 120.248C131.629 120.248 134.155 117.311 134.155 113.687C134.155 110.064 131.629 107.126 128.514 107.126C125.399 107.126 122.873 110.064 122.873 113.687C122.873 117.311 125.399 120.248 128.514 120.248Z" fill="#D8DEE8"/>
<path d="M150.651 120.248C153.766 120.248 156.291 117.311 156.291 113.687C156.291 110.064 153.766 107.126 150.651 107.126C147.535 107.126 145.01 110.064 145.01 113.687C145.01 117.311 147.535 120.248 150.651 120.248Z" fill="#D8DEE8"/>
<path d="M84.2393 120.248C87.3546 120.248 89.88 117.311 89.88 113.687C89.88 110.064 87.3546 107.126 84.2393 107.126C81.124 107.126 78.5985 110.064 78.5985 113.687C78.5985 117.311 81.124 120.248 84.2393 120.248Z" fill="#D8DEE8"/>
<path d="M44.2098 74.9844L78.72 114.577H167.789L124.629 79.9987L44.2098 74.9844Z" fill="url(#paint9_linear_154_2377)"/>
<path d="M44.2098 74.9844L78.72 114.577H89.88L53.4928 75.5632L44.2098 74.9844Z" fill="#F4F7FA"/>
<path d="M63.4604 76.1841L100.878 114.576H111.902L73.5011 76.8105L63.4604 76.1841Z" fill="#F4F7FA"/>
<path d="M83.6166 77.4414L122.952 114.576H134.029L93.8091 78.0769L83.6166 77.4414Z" fill="#F4F7FA"/>
<path d="M114.427 79.3621L104.078 78.7168L145.134 114.576H156.266L114.427 79.3621Z" fill="#F4F7FA"/>
<path d="M156.276 114.577C156.645 117.778 158.965 120.249 161.78 120.249C164.596 120.249 166.912 117.778 167.285 114.577H156.276Z" fill="url(#paint10_linear_154_2377)"/>
<path opacity="0.63" d="M113.943 139.31C109.125 128.208 96.9049 122.816 86.6475 127.267C76.3902 131.719 71.9789 144.324 76.7962 155.427C81.6136 166.531 93.834 171.92 104.091 167.472C114.349 163.024 118.76 150.411 113.943 139.31ZM98.8166 155.129L99.2279 158.256L96.2234 158.651L95.84 155.738C93.7743 155.917 91.7094 155.627 90.4551 155.106L90.9034 151.398C92.2838 151.933 94.1774 152.34 96.1706 152.077C97.9177 151.851 99.0249 151.015 98.8634 149.79C98.7124 148.624 97.6324 148.018 95.2634 147.549C91.8377 146.876 89.3985 145.637 89.0075 142.664C88.6528 139.966 90.2755 137.6 93.4717 136.526L93.0891 133.613L96.0936 133.218L96.4475 135.916C98.514 135.738 99.9502 135.986 101.026 136.344L100.592 139.925C99.7509 139.693 98.2483 139.17 96.0408 139.463C94.0475 139.725 93.517 140.67 93.6257 141.526C93.7592 142.538 94.9162 143.041 97.6513 143.679C101.469 144.488 103.161 145.981 103.525 148.736C103.888 151.472 102.264 154.052 98.8166 155.129Z" fill="#F4F7FA"/>
<g opacity="0.63">
<path opacity="0.63" d="M124.949 199.589L77.997 201.012C77.1813 201.037 76.3849 200.762 75.758 200.239C75.1312 199.717 74.7174 198.983 74.5947 198.176L72.6913 185.66C72.6201 185.191 72.6496 184.712 72.778 184.256C72.9063 183.799 73.1304 183.375 73.4355 183.011C73.7405 182.648 74.1195 182.354 74.5471 182.149C74.9747 181.943 75.4412 181.831 75.9155 181.82L122.918 180.732C123.729 180.713 124.52 180.99 125.142 181.512C125.764 182.035 126.175 182.765 126.297 183.568L128.151 195.75C128.222 196.217 128.193 196.694 128.066 197.149C127.939 197.604 127.716 198.027 127.414 198.39C127.111 198.753 126.735 199.048 126.31 199.254C125.885 199.461 125.421 199.575 124.949 199.589Z" fill="#F4F7FA"/>
<path opacity="0.63" d="M126.526 209.879L79.6022 211.485C78.7843 211.513 77.9846 211.239 77.355 210.717C76.7253 210.194 76.3094 209.458 76.1864 208.649L76.169 208.531C76.098 208.065 76.1268 207.588 76.2534 207.134C76.3801 206.679 76.6017 206.256 76.9036 205.893C77.2056 205.531 77.5811 205.236 78.0052 205.029C78.4294 204.822 78.8927 204.707 79.3645 204.692L126.308 203.205C127.124 203.18 127.92 203.454 128.548 203.976C129.175 204.497 129.59 205.231 129.713 206.038C129.784 206.504 129.756 206.98 129.63 207.434C129.504 207.889 129.283 208.311 128.982 208.674C128.681 209.037 128.307 209.332 127.883 209.54C127.46 209.748 126.997 209.863 126.526 209.879Z" fill="#F4F7FA"/>
</g>
<path d="M228.641 140.161C229.454 140.366 230.304 140.381 231.125 140.205C232.253 139.957 233.878 139.202 233.881 138.311C233.881 137.884 233.51 137.737 232.994 137.116C231.922 135.823 232.184 134.833 231.623 133.851C230.389 131.697 226.137 131.254 225.469 132.308C225.192 132.747 225.536 133.446 226.169 134.734C226.818 136.055 227.279 136.356 227.829 137.462C228.244 138.312 228.518 139.223 228.641 140.161Z" fill="url(#paint11_linear_154_2377)"/>
<path d="M251.315 213.016L251.541 212.622C251.541 212.622 251.949 212.377 252.145 212.883C252.34 213.388 253.433 216.031 253.492 217.231C253.205 217.948 252.391 217.34 252.223 216.853C252.056 216.367 251.474 214.557 251.474 214.557L251.315 213.016Z" fill="url(#paint12_linear_154_2377)"/>
<path d="M248.728 214.902C249.068 214.898 249.408 214.902 249.748 214.885C250.371 214.857 250.998 214.812 251.627 214.749C251.522 214.095 251.416 213.441 251.312 212.787C250.991 212.665 250.677 212.542 250.371 212.419C250.214 212.355 250.064 212.292 249.911 212.228C249.758 212.165 249.62 212.109 249.478 212.049C249.271 211.962 249.07 211.873 248.87 211.785C248.79 211.75 248.707 211.715 248.629 211.68C248.393 211.574 248.165 211.468 247.938 211.363L247.823 211.31C247.578 211.195 247.339 211.079 247.106 210.963C247.089 210.954 247.071 210.946 247.054 210.938C246.808 210.816 246.568 210.693 246.334 210.57L246.324 210.566C245.847 210.314 245.394 210.063 244.965 209.811C239.647 206.703 237.888 203.547 237.343 201.066C235.818 194.084 243.283 189.601 241.355 182.03C239.902 176.325 233.769 171.44 229.992 172.579C225.727 173.862 225.059 182.133 224.648 187.221C224.184 192.949 223.666 199.33 227.332 205.047C230.804 210.459 237.068 213.79 244.28 214.677C244.452 214.697 244.627 214.707 244.8 214.725C245.218 214.769 245.635 214.816 246.06 214.843C246.254 214.856 246.451 214.857 246.645 214.867C247.059 214.886 247.471 214.909 247.888 214.914C248.169 214.92 248.453 214.907 248.728 214.902Z" fill="url(#paint13_linear_154_2377)"/>
<path style="mix-blend-mode:multiply" opacity="0.25" d="M248.728 214.902C249.068 214.898 249.408 214.902 249.748 214.885C250.371 214.857 250.998 214.812 251.627 214.749C251.522 214.095 251.416 213.441 251.312 212.787C250.991 212.665 250.677 212.542 250.371 212.419C250.214 212.355 250.064 212.292 249.911 212.228C249.758 212.165 249.62 212.109 249.478 212.049C249.271 211.962 249.07 211.873 248.87 211.785C248.79 211.75 248.707 211.715 248.629 211.68C248.393 211.574 248.165 211.468 247.938 211.363L247.823 211.31C247.578 211.195 247.339 211.079 247.106 210.963C247.089 210.954 247.071 210.946 247.054 210.938C246.808 210.816 246.568 210.693 246.334 210.57L246.324 210.566C245.847 210.314 245.394 210.063 244.965 209.811C239.647 206.703 237.888 203.547 237.343 201.066C235.818 194.084 243.283 189.601 241.355 182.03C239.902 176.325 233.769 171.44 229.992 172.579C225.727 173.862 225.059 182.133 224.648 187.221C224.184 192.949 223.666 199.33 227.332 205.047C230.804 210.459 237.068 213.79 244.28 214.677C244.452 214.697 244.627 214.707 244.8 214.725C245.218 214.769 245.635 214.816 246.06 214.843C246.254 214.856 246.451 214.857 246.645 214.867C247.059 214.886 247.471 214.909 247.888 214.914C248.169 214.92 248.453 214.907 248.728 214.902Z" fill="url(#paint14_linear_154_2377)"/>
<path d="M213.997 174.322C213.182 173.028 216.983 171.12 218.22 165.811C219.263 161.329 217.134 160.194 218.295 154.193C218.943 150.851 220.047 148.91 221.334 147.501C222.395 146.34 223.773 144.831 225.015 145.029C228.91 145.647 233.524 163.364 225.741 171.089C221.741 175.059 214.98 175.883 213.997 174.322Z" fill="url(#paint15_linear_154_2377)"/>
<path d="M234.442 230.415C234.265 230.007 233.291 231.033 232.382 232.118L232.733 236.797C232.37 236.554 231.968 236.373 231.545 236.262C230.994 236.135 230.042 236.334 229.968 236.597C229.515 238.224 233.572 238.579 234.017 238.068C234.147 237.917 234.245 237.74 234.304 237.549C234.363 237.358 234.382 237.157 234.359 236.959C233.947 234.615 234.002 233.028 234.197 231.932C234.334 231.17 234.54 230.642 234.442 230.415Z" fill="url(#paint16_linear_154_2377)"/>
<path d="M244.83 178.078C242.515 174.666 240.26 171.21 237.999 167.767C237.554 167.088 237.297 166.303 237.168 165.479C236.223 166.234 235.367 167.095 234.618 168.045C233.981 171.237 232.998 176.037 231.7 181.856C228.403 196.639 227.015 200.341 226.315 204.991C225.24 212.146 225.621 222.688 232.727 236.804L234.353 236.965C235.495 224.89 236.805 213.992 237.466 208.392C237.693 206.491 238.352 200.791 241.405 196.199C241.454 196.124 245.971 189.949 247.528 187.482C248.048 186.66 248.697 185.595 249.434 184.17C247.691 182.328 246.288 180.226 244.83 178.078Z" fill="url(#paint17_linear_154_2377)"/>
<path style="mix-blend-mode:multiply" opacity="0.25" d="M244.83 178.078C242.515 174.666 240.26 171.21 237.998 167.767C237.554 167.088 237.297 166.303 237.168 165.479C236.223 166.234 235.367 167.095 234.618 168.045C233.608 171.948 232.889 175.29 232.385 177.841C230.988 184.923 231.067 186.882 232.069 188.64C233.445 191.055 235.029 190.404 236.035 192.507C237.797 196.196 233.077 198.716 233.12 205.829C233.144 209.774 234.554 210.764 233.912 214.384C233.747 215.319 233.277 217.371 233.485 220.195C233.576 221.434 233.675 221.165 233.752 222.284C233.968 225.472 233.207 228.404 233.537 230.395C233.614 230.881 233.766 231.353 233.989 231.792C234.191 232.179 234.447 232.535 234.749 232.848C235.785 222.454 236.878 213.351 237.466 208.395C237.693 206.495 238.352 200.795 241.405 196.203C241.454 196.128 245.971 189.953 247.528 187.486C248.048 186.664 248.697 185.599 249.434 184.174C247.691 182.328 246.288 180.226 244.83 178.078Z" fill="url(#paint18_linear_154_2377)"/>
<path d="M220.884 148.241C219.429 150.909 219.595 153.566 219.752 154.732C220.231 158.23 222.274 160.56 222.96 161.442C225.26 164.397 227.054 170.243 224.199 183.055C225.801 182.799 228.438 182.552 231.509 183.192C239.323 184.821 242.442 190.623 246.191 189.566C247.575 189.175 249.454 187.734 250.765 182.352C251.911 179.553 255.48 169.843 251.822 158.427C249.207 150.255 244.171 145.208 241.678 143.019C239.534 142.297 232.838 140.346 226.469 143.43C224.882 144.195 222.415 145.434 220.884 148.241Z" fill="url(#paint19_linear_154_2377)"/>
<path d="M229.503 137.67C229.503 138.234 229.523 141.253 230.862 141.746C231.155 141.855 231.39 141.785 232.691 141.821C233.432 141.841 234.036 141.88 234.427 141.91C234.341 142.585 234.183 143.249 233.956 143.89C232.287 148.586 226.885 151.848 225.055 150.673C224.103 150.061 224.029 148.225 223.998 147.464C223.965 146.586 224.112 145.712 224.429 144.894C225.1 144.408 225.785 143.92 226.486 143.432C226.944 143.112 227.4 142.8 227.852 142.494C227.822 141.917 227.791 141.338 227.761 140.758L229.503 137.67Z" fill="url(#paint20_linear_154_2377)"/>
<path d="M229.989 139.698C229.989 139.698 228.375 141.585 226.344 140.906C224.525 140.297 225.474 135.617 226.888 135.048C227.359 134.858 228.236 134.912 228.831 135.261C229.249 135.507 230.76 136.788 230.172 138.334C230.62 138.07 231.078 138.045 231.342 138.265C231.43 138.347 231.493 138.451 231.525 138.567C231.659 139.113 231.067 139.604 229.989 139.698Z" fill="url(#paint21_linear_154_2377)"/>
<path style="mix-blend-mode:multiply" opacity="0.3" d="M251.823 158.421C249.775 152.031 246.252 147.561 243.62 144.864C240.601 146.858 237.531 149.562 237.787 152.461C238.079 155.759 242.485 157.122 242.074 159.208C241.478 162.231 231.879 161.086 230.759 164.415C229.439 168.336 240.82 175.71 240.211 176.544C239.776 177.142 234.541 172.922 228.6 173.903C227.491 174.096 226.434 174.515 225.494 175.135C225.282 177.427 224.871 180.045 224.202 183.051C225.803 182.794 228.44 182.547 231.512 183.187C239.325 184.816 242.444 190.618 246.193 189.561C247.577 189.17 249.457 187.729 250.767 182.347C251.913 179.547 255.482 169.84 251.823 158.421Z" fill="url(#paint22_linear_154_2377)"/>
<path d="M237.429 143.241C239.24 142.788 239.251 142.199 241.678 143.015C248.644 145.36 256.017 155.873 252.207 163.297C250.087 167.426 245.007 171.146 239.407 170.29C234.849 169.591 232.171 166.197 231.491 165.276C231.226 164.219 230.962 163.163 230.699 162.106C233.669 163.79 235.762 163.79 237.164 163.426C239.552 162.806 240.081 161.095 244.026 159.6C245.562 159.016 246.486 158.895 246.533 158.412C246.63 157.412 242.767 157.079 240.331 154.981C238.555 153.455 236.784 150.34 237.429 143.241Z" fill="url(#paint23_linear_154_2377)"/>
<path d="M230.909 162.95L230.078 162.711C230.078 162.711 229.017 161.967 228.334 161.667C228.089 161.552 227.82 161.494 227.549 161.499C227.549 161.499 225.091 160.481 225.62 161.072C225.95 161.433 226.336 161.739 226.764 161.977C226.76 161.996 226.752 162.013 226.741 162.029C226.731 162.043 226.726 162.053 226.715 162.069C226.66 162.151 226.623 162.245 226.605 162.343C226.454 162.809 226.484 163.607 228.114 164.041C228.506 164.144 228.998 164.152 229.424 164.13C229.869 164.106 231.332 164.64 231.332 164.64L230.909 162.95Z" fill="url(#paint24_linear_154_2377)"/>
<path d="M149.11 238.654C149.11 240.43 148.017 241.868 146.667 241.868C145.318 241.868 144.224 240.43 144.224 238.654C144.224 236.879 145.318 235.441 146.667 235.441C148.016 235.441 149.11 236.879 149.11 238.654Z" fill="url(#paint25_linear_154_2377)"/>
<path d="M149.791 239.019C149.791 240.794 148.697 242.232 147.348 242.232C145.999 242.232 144.906 240.792 144.906 239.019C144.906 237.245 145.999 235.805 147.349 235.805C148.698 235.805 149.791 237.242 149.791 239.019Z" fill="url(#paint26_linear_154_2377)"/>
<path d="M148.371 239.082C148.371 239.825 147.913 240.428 147.348 240.428C146.783 240.428 146.324 239.825 146.324 239.082C146.324 238.339 146.783 237.735 147.348 237.735C147.913 237.735 148.371 238.339 148.371 239.082Z" fill="url(#paint27_linear_154_2377)"/>
<path d="M146.667 235.094V238.624C146.667 238.872 146.766 239.111 146.942 239.287C147.118 239.463 147.356 239.562 147.605 239.562C147.752 239.561 147.897 239.526 148.028 239.459C148.16 239.392 148.273 239.296 148.36 239.177L151.53 234.831L146.667 235.094Z" fill="#C2C2C2"/>
<path d="M175.266 235.836C175.266 237.611 174.172 239.05 172.823 239.05C171.473 239.05 170.38 237.611 170.38 235.836C170.38 234.061 171.474 232.623 172.823 232.623C174.171 232.623 175.266 234.062 175.266 235.836Z" fill="url(#paint28_linear_154_2377)"/>
<path d="M175.946 236.199C175.946 237.974 174.853 239.413 173.503 239.413C172.154 239.413 171.06 237.974 171.06 236.199C171.06 234.424 172.154 232.986 173.503 232.986C174.853 232.986 175.946 234.424 175.946 236.199Z" fill="url(#paint29_linear_154_2377)"/>
<path d="M174.527 236.264C174.527 237.008 174.069 237.611 173.503 237.611C172.938 237.611 172.479 237.007 172.479 236.264C172.479 235.522 172.938 234.917 173.503 234.917C174.069 234.917 174.527 235.52 174.527 236.264Z" fill="url(#paint30_linear_154_2377)"/>
<path d="M172.823 232.276V235.805C172.823 236.054 172.921 236.293 173.097 236.469C173.273 236.644 173.512 236.743 173.761 236.743C173.908 236.743 174.053 236.708 174.184 236.641C174.315 236.574 174.429 236.477 174.515 236.358L177.69 232.013L172.823 232.276Z" fill="#C2C2C2"/>
<path d="M146.303 235.307C146.223 235.311 146.145 235.284 146.085 235.23C146.025 235.177 145.989 235.102 145.985 235.022C145.98 234.942 146.008 234.863 146.061 234.803C146.114 234.743 146.189 234.707 146.269 234.703L177.245 231.212C178.151 231.053 178.992 230.638 179.671 230.017C180.349 229.396 180.837 228.594 181.076 227.706L194.052 179.396C194.371 178.209 195.053 177.151 196.002 176.37C196.952 175.589 198.121 175.123 199.347 175.039L208.765 174.477C208.845 174.472 208.924 174.499 208.984 174.553C209.044 174.606 209.081 174.681 209.085 174.761C209.09 174.841 209.063 174.92 209.01 174.98C208.957 175.04 208.882 175.076 208.802 175.081L199.386 175.642C198.286 175.719 197.238 176.137 196.387 176.837C195.536 177.538 194.925 178.487 194.639 179.551L181.664 227.858C181.393 228.861 180.841 229.766 180.073 230.466C179.305 231.165 178.354 231.631 177.33 231.809L146.34 235.305L146.303 235.307Z" fill="#C2C2C2"/>
<path d="M167.849 216.29C167.783 216.29 167.719 216.268 167.666 216.229C167.613 216.189 167.575 216.133 167.557 216.069L160.263 190.546C160.252 190.508 160.249 190.468 160.254 190.428C160.258 190.388 160.271 190.35 160.29 190.315C160.309 190.28 160.336 190.249 160.367 190.225C160.398 190.2 160.434 190.181 160.472 190.17C160.511 190.159 160.551 190.156 160.591 190.161C160.63 190.165 160.669 190.178 160.704 190.197C160.739 190.216 160.769 190.243 160.794 190.274C160.819 190.305 160.837 190.341 160.848 190.379L168.142 215.902C168.153 215.941 168.157 215.981 168.153 216.021C168.148 216.061 168.136 216.1 168.117 216.135C168.097 216.17 168.071 216.201 168.039 216.226C168.008 216.251 167.972 216.269 167.933 216.28C167.905 216.287 167.877 216.29 167.849 216.29Z" fill="#C2C2C2"/>
<path d="M175.315 215.223C175.243 215.224 175.173 215.199 175.117 215.153C175.062 215.107 175.025 215.043 175.013 214.972L170.513 189.689C170.499 189.61 170.517 189.528 170.563 189.462C170.609 189.396 170.68 189.351 170.759 189.337C170.839 189.323 170.92 189.341 170.986 189.387C171.053 189.433 171.098 189.503 171.112 189.583L175.611 214.866C175.618 214.905 175.618 214.945 175.609 214.984C175.601 215.024 175.585 215.061 175.562 215.093C175.539 215.126 175.51 215.154 175.476 215.175C175.442 215.197 175.405 215.211 175.365 215.218C175.348 215.221 175.332 215.223 175.315 215.223Z" fill="#C2C2C2"/>
<path d="M179.95 214.394H179.937C179.897 214.392 179.858 214.383 179.822 214.366C179.786 214.349 179.753 214.326 179.726 214.296C179.699 214.267 179.678 214.232 179.664 214.195C179.651 214.157 179.645 214.117 179.647 214.078L180.685 189.062C180.685 189.022 180.694 188.983 180.711 188.946C180.727 188.909 180.751 188.876 180.78 188.849C180.81 188.822 180.845 188.801 180.883 188.788C180.92 188.774 180.961 188.769 181.001 188.771C181.041 188.772 181.08 188.782 181.117 188.799C181.153 188.815 181.186 188.839 181.213 188.869C181.24 188.898 181.261 188.933 181.275 188.97C181.288 189.008 181.294 189.048 181.292 189.088L180.254 214.102C180.251 214.181 180.218 214.255 180.161 214.31C180.104 214.364 180.029 214.394 179.95 214.394Z" fill="#C2C2C2"/>
<path d="M157.675 217.224C157.611 217.225 157.549 217.205 157.497 217.168C157.445 217.13 157.406 217.078 157.386 217.017L148.822 191.483C148.796 191.406 148.802 191.323 148.838 191.251C148.874 191.178 148.937 191.123 149.014 191.098C149.09 191.072 149.174 191.078 149.246 191.114C149.318 191.15 149.373 191.213 149.399 191.289L157.962 216.824C157.975 216.862 157.98 216.902 157.978 216.942C157.975 216.981 157.965 217.02 157.947 217.056C157.929 217.092 157.904 217.124 157.874 217.15C157.844 217.176 157.808 217.196 157.77 217.209C157.74 217.219 157.707 217.224 157.675 217.224Z" fill="#C2C2C2"/>
<path d="M230.772 176.971C230.755 176.971 230.738 176.971 230.72 176.971L209.165 175.235C209.084 175.23 209.005 175.209 208.932 175.173C208.86 175.137 208.795 175.087 208.742 175.026C208.69 174.964 208.65 174.893 208.625 174.816C208.6 174.739 208.59 174.658 208.597 174.577C208.604 174.497 208.627 174.418 208.664 174.347C208.701 174.275 208.753 174.211 208.815 174.16C208.878 174.108 208.95 174.069 209.027 174.046C209.105 174.023 209.186 174.015 209.266 174.023L230.822 175.759C230.983 175.766 231.135 175.836 231.244 175.955C231.353 176.073 231.411 176.23 231.404 176.391C231.398 176.552 231.327 176.704 231.209 176.813C231.09 176.923 230.933 176.98 230.772 176.974V176.971Z" fill="url(#paint31_linear_154_2377)"/>
<path d="M172.058 247.419C172.058 249.194 170.964 250.633 169.615 250.633C168.266 250.633 167.17 249.194 167.17 247.419C167.17 245.644 168.263 244.206 169.613 244.206C170.962 244.206 172.058 245.645 172.058 247.419Z" fill="url(#paint32_linear_154_2377)"/>
<path d="M172.739 247.781C172.739 249.557 171.645 250.995 170.296 250.995C168.947 250.995 167.853 249.557 167.853 247.781C167.853 246.006 168.946 244.568 170.296 244.568C171.645 244.568 172.739 246.007 172.739 247.781Z" fill="url(#paint33_linear_154_2377)"/>
<path d="M171.321 247.849C171.321 248.592 170.863 249.195 170.297 249.195C169.731 249.195 169.273 248.592 169.273 247.849C169.273 247.106 169.731 246.502 170.297 246.502C170.862 246.502 171.321 247.103 171.321 247.849Z" fill="url(#paint34_linear_154_2377)"/>
<path d="M169.615 243.86V247.388C169.615 247.511 169.639 247.633 169.686 247.747C169.733 247.861 169.803 247.965 169.89 248.052C169.977 248.139 170.08 248.208 170.194 248.255C170.308 248.302 170.43 248.326 170.553 248.326C170.7 248.326 170.845 248.291 170.977 248.224C171.108 248.157 171.221 248.06 171.308 247.941L174.482 243.596L169.615 243.86Z" fill="#999999"/>
<path d="M194.703 245.153C194.703 246.927 193.609 248.366 192.26 248.366C190.912 248.366 189.817 246.927 189.817 245.153C189.817 243.378 190.911 241.939 192.26 241.939C193.61 241.939 194.703 243.377 194.703 245.153Z" fill="url(#paint35_linear_154_2377)"/>
<path d="M195.383 245.514C195.383 247.289 194.29 248.729 192.941 248.729C191.592 248.729 190.497 247.289 190.497 245.514C190.497 243.739 191.592 242.301 192.941 242.301C194.291 242.301 195.383 243.74 195.383 245.514Z" fill="url(#paint36_linear_154_2377)"/>
<path d="M193.962 245.58C193.962 246.323 193.504 246.926 192.939 246.926C192.374 246.926 191.915 246.322 191.915 245.58C191.915 244.837 192.374 244.233 192.939 244.233C193.504 244.233 193.962 244.836 193.962 245.58Z" fill="url(#paint37_linear_154_2377)"/>
<path d="M192.26 241.592V245.121C192.26 245.37 192.359 245.609 192.535 245.785C192.711 245.961 192.95 246.059 193.198 246.059C193.346 246.059 193.491 246.024 193.622 245.957C193.753 245.89 193.866 245.793 193.953 245.675L197.123 241.328L192.26 241.592Z" fill="#999999"/>
<path d="M136.666 192.274C136.627 192.276 136.587 192.27 136.55 192.256C136.513 192.242 136.479 192.221 136.45 192.194C136.421 192.167 136.397 192.134 136.381 192.098C136.364 192.062 136.355 192.023 136.354 191.984C136.352 191.944 136.359 191.904 136.372 191.867C136.386 191.83 136.407 191.796 136.434 191.767C136.461 191.738 136.494 191.714 136.53 191.698C136.566 191.681 136.605 191.672 136.645 191.671L191.811 187.698C191.836 187.696 191.861 187.698 191.886 187.702L214.724 191.591C214.763 191.598 214.801 191.613 214.835 191.634C214.868 191.655 214.898 191.683 214.921 191.715C214.944 191.748 214.96 191.785 214.969 191.824C214.978 191.862 214.979 191.903 214.972 191.942C214.966 191.981 214.951 192.019 214.93 192.053C214.909 192.087 214.881 192.116 214.849 192.139C214.816 192.162 214.779 192.179 214.74 192.187C214.702 192.196 214.661 192.197 214.622 192.191L191.82 188.307L136.691 192.275L136.666 192.274Z" fill="#C2C2C2"/>
<path d="M155.411 197.966C155.381 197.966 155.351 197.962 155.322 197.953L136.578 192.262C136.501 192.239 136.436 192.186 136.398 192.114C136.36 192.043 136.352 191.96 136.375 191.883C136.399 191.806 136.452 191.741 136.523 191.703C136.594 191.665 136.678 191.657 136.755 191.68L155.441 197.354L214.641 191.587C214.68 191.584 214.72 191.587 214.758 191.599C214.797 191.611 214.832 191.63 214.863 191.655C214.893 191.68 214.919 191.711 214.938 191.747C214.956 191.782 214.968 191.82 214.972 191.86C214.976 191.899 214.972 191.939 214.96 191.978C214.949 192.016 214.93 192.051 214.904 192.082C214.879 192.113 214.848 192.138 214.813 192.157C214.778 192.176 214.739 192.187 214.7 192.191L155.44 197.963L155.411 197.966Z" fill="#999999"/>
<path d="M207.534 218.101C207.519 218.102 207.503 218.102 207.488 218.101L184.973 214.641L150.741 217.936C150.661 217.944 150.581 217.92 150.519 217.869C150.457 217.817 150.418 217.744 150.41 217.664C150.402 217.584 150.427 217.504 150.478 217.442C150.529 217.38 150.603 217.34 150.683 217.333L184.952 214.035C184.977 214.031 185.003 214.031 185.028 214.035L207.58 217.494C207.62 217.497 207.659 217.508 207.694 217.526C207.73 217.544 207.761 217.569 207.787 217.599C207.813 217.629 207.833 217.664 207.845 217.702C207.858 217.74 207.862 217.779 207.859 217.819C207.856 217.859 207.845 217.897 207.828 217.933C207.81 217.968 207.785 218 207.755 218.026C207.724 218.052 207.689 218.071 207.652 218.084C207.614 218.096 207.574 218.101 207.534 218.098V218.101Z" fill="#C2C2C2"/>
<path d="M166.786 221.976C166.729 221.976 166.672 221.96 166.624 221.929C166.575 221.898 166.536 221.854 166.512 221.802L155.136 197.792C155.119 197.756 155.109 197.716 155.107 197.677C155.105 197.637 155.111 197.597 155.124 197.559C155.151 197.483 155.208 197.421 155.28 197.387C155.353 197.352 155.437 197.348 155.513 197.375C155.589 197.402 155.651 197.458 155.685 197.531L166.971 221.348L207.505 217.494C207.545 217.49 207.585 217.494 207.623 217.506C207.661 217.518 207.696 217.537 207.727 217.562C207.758 217.587 207.783 217.618 207.802 217.654C207.821 217.689 207.832 217.727 207.836 217.767C207.84 217.807 207.836 217.847 207.824 217.885C207.812 217.923 207.793 217.958 207.768 217.989C207.743 218.02 207.712 218.045 207.676 218.064C207.641 218.083 207.603 218.094 207.563 218.098L166.816 221.973L166.786 221.976Z" fill="#999999"/>
<path d="M166.787 221.976C166.762 221.976 166.736 221.973 166.712 221.967L150.636 217.93C150.595 217.92 150.557 217.902 150.524 217.876C150.49 217.85 150.463 217.817 150.443 217.78L136.398 192.115C136.379 192.08 136.366 192.041 136.362 192.002C136.358 191.962 136.361 191.922 136.373 191.883C136.384 191.845 136.402 191.809 136.428 191.778C136.453 191.747 136.483 191.721 136.518 191.702C136.554 191.683 136.592 191.671 136.632 191.666C136.671 191.662 136.712 191.666 136.75 191.677C136.788 191.688 136.824 191.707 136.855 191.732C136.886 191.757 136.912 191.788 136.931 191.823L150.913 217.371L166.859 221.371C166.938 221.381 167.01 221.422 167.06 221.486C167.109 221.549 167.131 221.629 167.121 221.709C167.111 221.788 167.069 221.86 167.006 221.909C166.943 221.959 166.863 221.98 166.783 221.97L166.787 221.976Z" fill="#999999"/>
<path d="M159.547 206.699C159.518 206.699 159.49 206.695 159.462 206.687L141.811 201.51C141.734 201.487 141.669 201.435 141.63 201.364C141.592 201.293 141.583 201.21 141.605 201.132C141.628 201.055 141.681 200.99 141.751 200.951C141.822 200.913 141.905 200.904 141.983 200.926L159.581 206.084L211.774 201.535C211.854 201.528 211.933 201.554 211.995 201.605C212.056 201.657 212.095 201.731 212.102 201.811C212.109 201.891 212.084 201.971 212.032 202.032C211.98 202.094 211.906 202.132 211.826 202.139L159.578 206.696L159.547 206.699Z" fill="#999999"/>
<path d="M163.861 215.802C163.833 215.802 163.806 215.798 163.78 215.79L146.868 211.052C146.829 211.041 146.793 211.023 146.762 210.999C146.731 210.974 146.705 210.943 146.685 210.909C146.665 210.874 146.653 210.836 146.648 210.796C146.643 210.756 146.646 210.716 146.657 210.678C146.668 210.639 146.686 210.604 146.711 210.572C146.735 210.541 146.766 210.515 146.801 210.495C146.836 210.476 146.874 210.463 146.913 210.458C146.953 210.453 146.993 210.457 147.032 210.467L163.89 215.19L209.218 211.225C209.258 211.222 209.298 211.226 209.336 211.238C209.373 211.25 209.409 211.269 209.439 211.295C209.47 211.32 209.495 211.352 209.513 211.387C209.532 211.422 209.543 211.461 209.546 211.5C209.55 211.54 209.545 211.58 209.533 211.618C209.521 211.656 209.502 211.691 209.477 211.722C209.451 211.752 209.42 211.777 209.384 211.796C209.349 211.814 209.31 211.825 209.271 211.829L163.889 215.799L163.861 215.802Z" fill="#999999"/>
<path d="M175.107 221.185C175.042 221.185 174.978 221.164 174.925 221.125C174.873 221.085 174.834 221.03 174.816 220.967L167.561 196.628C167.538 196.55 167.547 196.467 167.585 196.396C167.624 196.325 167.689 196.272 167.766 196.249C167.843 196.226 167.927 196.235 167.997 196.273C168.068 196.312 168.121 196.377 168.144 196.454L175.398 220.794C175.41 220.832 175.414 220.872 175.41 220.912C175.406 220.951 175.394 220.99 175.375 221.025C175.356 221.06 175.33 221.091 175.299 221.116C175.268 221.141 175.232 221.16 175.194 221.171C175.166 221.18 175.137 221.184 175.107 221.185Z" fill="#999999"/>
<path d="M183.133 220.421C183.061 220.422 182.991 220.397 182.936 220.351C182.88 220.305 182.843 220.241 182.831 220.17L178.48 195.511C178.473 195.471 178.474 195.431 178.483 195.392C178.491 195.353 178.507 195.316 178.53 195.283C178.553 195.251 178.582 195.223 178.616 195.201C178.65 195.18 178.687 195.165 178.726 195.158C178.766 195.151 178.806 195.152 178.845 195.161C178.884 195.17 178.921 195.186 178.954 195.209C178.986 195.232 179.014 195.261 179.035 195.294C179.057 195.328 179.072 195.366 179.079 195.405L183.43 220.065C183.438 220.104 183.437 220.144 183.428 220.183C183.42 220.222 183.403 220.259 183.38 220.292C183.357 220.325 183.328 220.353 183.294 220.374C183.261 220.395 183.223 220.41 183.184 220.416C183.167 220.419 183.15 220.421 183.133 220.421Z" fill="#999999"/>
<path d="M192.183 219.392C192.106 219.392 192.031 219.362 191.975 219.309C191.919 219.255 191.885 219.182 191.881 219.105L190.51 194.619C190.508 194.579 190.514 194.539 190.527 194.502C190.54 194.464 190.561 194.429 190.587 194.399C190.614 194.37 190.646 194.345 190.682 194.328C190.718 194.311 190.757 194.301 190.797 194.298C190.837 194.296 190.877 194.302 190.914 194.315C190.952 194.328 190.987 194.349 191.017 194.375C191.046 194.402 191.071 194.434 191.088 194.47C191.105 194.506 191.115 194.545 191.118 194.585L192.488 219.071C192.491 219.111 192.485 219.151 192.472 219.189C192.459 219.226 192.439 219.261 192.412 219.291C192.385 219.321 192.353 219.345 192.317 219.362C192.281 219.379 192.242 219.389 192.202 219.391L192.183 219.392Z" fill="#999999"/>
<path d="M200.759 218.431H200.743C200.703 218.429 200.663 218.419 200.627 218.403C200.591 218.386 200.558 218.362 200.531 218.332C200.504 218.303 200.483 218.268 200.47 218.23C200.457 218.193 200.451 218.153 200.453 218.113L201.758 193.237C201.762 193.157 201.798 193.081 201.857 193.028C201.917 192.974 201.996 192.946 202.076 192.951C202.156 192.955 202.231 192.991 202.284 193.05C202.338 193.11 202.366 193.188 202.362 193.268L201.057 218.144C201.053 218.221 201.02 218.293 200.964 218.346C200.909 218.399 200.836 218.429 200.759 218.431Z" fill="#999999"/>
<path d="M161.925 220.754C161.868 220.755 161.812 220.738 161.763 220.708C161.715 220.677 161.676 220.633 161.651 220.582L149.926 196.211C149.891 196.138 149.886 196.055 149.913 195.979C149.94 195.903 149.996 195.84 150.068 195.805C150.141 195.77 150.225 195.766 150.301 195.793C150.377 195.819 150.439 195.875 150.474 195.948L162.199 220.319C162.222 220.365 162.233 220.417 162.23 220.468C162.228 220.52 162.212 220.57 162.185 220.614C162.157 220.658 162.119 220.694 162.073 220.718C162.028 220.743 161.977 220.756 161.925 220.755V220.754Z" fill="#999999"/>
<path d="M155.411 219.119C155.355 219.119 155.299 219.104 155.251 219.074C155.203 219.044 155.164 219.001 155.139 218.951L142.692 194.019C142.674 193.983 142.664 193.944 142.661 193.904C142.658 193.864 142.663 193.824 142.676 193.786C142.688 193.749 142.708 193.713 142.735 193.683C142.761 193.653 142.793 193.628 142.828 193.611C142.864 193.593 142.903 193.582 142.943 193.579C142.983 193.577 143.023 193.582 143.061 193.594C143.098 193.607 143.133 193.627 143.164 193.653C143.194 193.679 143.218 193.711 143.236 193.747L155.683 218.68C155.701 218.715 155.712 218.754 155.715 218.794C155.718 218.834 155.713 218.874 155.7 218.912C155.687 218.95 155.667 218.985 155.641 219.015C155.614 219.045 155.582 219.07 155.546 219.087C155.504 219.108 155.458 219.119 155.411 219.119Z" fill="#999999"/>
<path d="M169.492 244.51C169.454 244.51 169.416 244.503 169.38 244.489L146.189 235.286C146.114 235.256 146.054 235.197 146.022 235.123C145.99 235.049 145.989 234.965 146.019 234.89C146.049 234.815 146.108 234.755 146.182 234.723C146.256 234.691 146.34 234.69 146.415 234.72L169.532 243.895L197.59 240.467C198.627 240.343 199.603 239.912 200.394 239.23C201.185 238.548 201.754 237.645 202.029 236.638L217.363 180.97C217.688 179.795 218.368 178.75 219.311 177.976C220.253 177.203 221.411 176.74 222.627 176.65L230.763 176.06C230.843 176.054 230.922 176.08 230.983 176.133C231.044 176.185 231.081 176.26 231.087 176.34C231.093 176.42 231.066 176.499 231.014 176.56C230.961 176.62 230.887 176.658 230.807 176.664L222.671 177.254C221.58 177.334 220.542 177.75 219.696 178.443C218.851 179.137 218.241 180.075 217.949 181.129L202.615 236.797C202.308 237.92 201.673 238.927 200.791 239.688C199.91 240.448 198.821 240.929 197.664 241.067L169.529 244.504C169.517 244.507 169.505 244.509 169.492 244.51Z" fill="#999999"/>
<path d="M216.048 174.367C216.048 174.367 213.898 172.474 211.787 173.167C211.485 173.265 210.957 173.473 210.674 174.007C210.372 174.583 210.482 175.333 210.863 175.806C211.409 176.485 212.457 176.485 213.476 175.579C213.386 175.556 212.792 175.839 212.646 175.341C212.606 175.186 212.608 175.023 212.653 174.869C212.919 174.038 215.849 174.36 216.048 174.367Z" fill="url(#paint38_linear_154_2377)"/>
<path d="M70.8483 207.076C70.7129 207.076 70.5823 207.025 70.4822 206.934C70.382 206.843 70.3194 206.718 70.3064 206.583C69.8295 201.574 68.1932 196.815 65.7087 193.183C63.5042 189.965 60.8785 188.044 58.6898 188.044H58.6823C50.6974 188.06 49.0272 206.393 49.0113 206.577C49.0052 206.649 48.9851 206.718 48.9522 206.782C48.9193 206.845 48.8742 206.902 48.8195 206.948C48.7647 206.994 48.7014 207.029 48.6332 207.051C48.565 207.072 48.4932 207.08 48.4219 207.074C48.3506 207.068 48.2812 207.048 48.2176 207.015C48.1541 206.982 48.0976 206.937 48.0515 206.882C48.0054 206.828 47.9705 206.764 47.9489 206.696C47.9272 206.628 47.9192 206.556 47.9253 206.485C47.9932 205.688 49.7027 186.971 58.68 186.954H58.6898C61.28 186.954 64.1661 188.999 66.6098 192.567C69.2 196.349 70.8989 201.29 71.3932 206.479C71.4001 206.551 71.3929 206.623 71.3719 206.691C71.351 206.76 71.3168 206.823 71.2712 206.878C71.2256 206.934 71.1697 206.979 71.1064 207.013C71.0432 207.047 70.974 207.067 70.9027 207.074C70.8838 207.076 70.868 207.076 70.8483 207.076Z" fill="url(#paint39_linear_154_2377)"/>
<path d="M37.5849 244.807L48.0966 250.128L54.4656 230.585L43.9751 204.383L40.9992 205.112L36.4845 242.743C36.4338 243.158 36.5122 243.579 36.709 243.948C36.9059 244.318 37.2117 244.617 37.5849 244.807Z" fill="url(#paint40_linear_154_2377)"/>
<path style="mix-blend-mode:multiply" opacity="0.52" d="M54.4633 230.584L43.9728 204.383L42.2173 204.813C42.0173 207.635 42.0272 210.467 42.2468 213.287C42.9434 222.208 45.283 224.69 44.1509 230.914C43.2098 236.088 41.1547 236.791 41.3343 240.272C41.5298 244.064 44.1743 247.24 47.3185 249.737L48.0943 250.129L54.4633 230.584Z" fill="url(#paint41_linear_154_2377)"/>
<path d="M43.9691 204.383H83.1615L96.1328 246.257L48.0943 250.128L43.9691 204.383Z" fill="url(#paint42_linear_154_2377)"/>
<path d="M56.1102 207.972C55.9877 207.972 55.8688 207.93 55.7729 207.854C55.6771 207.778 55.6097 207.671 55.5819 207.552C55.4702 207.076 52.8951 195.854 56.526 190.35C57.5668 188.771 59.0166 187.808 60.8475 187.482C70.2332 185.828 76.0121 205.987 76.2536 206.846C76.2927 206.985 76.275 207.134 76.2042 207.261C76.1334 207.387 76.0155 207.479 75.8762 207.519C75.737 207.558 75.588 207.54 75.4619 207.469C75.3358 207.398 75.2429 207.28 75.2038 207.141C75.1472 206.941 69.4589 187.066 61.037 188.556C59.4951 188.827 58.32 189.612 57.4362 190.946C54.0611 196.065 56.6166 207.187 56.643 207.299C56.6617 207.379 56.6622 207.462 56.6444 207.542C56.6267 207.622 56.591 207.697 56.5403 207.761C56.4895 207.825 56.4249 207.878 56.3512 207.913C56.2775 207.949 56.1967 207.968 56.1147 207.968L56.1102 207.972Z" fill="url(#paint43_linear_154_2377)"/>
<g style="mix-blend-mode:multiply" opacity="0.3">
<path style="mix-blend-mode:multiply" opacity="0.3" d="M83.1615 204.383H63.7185C62.76 205.358 62.0793 206.483 62.0143 207.743C61.7087 213.669 75.3291 215.614 76.6423 223.735C77.5902 229.592 71.7593 236.351 66.557 239.362C61.0762 242.532 57.3623 240.928 53.6513 244.45C52.0227 245.998 51.031 247.933 50.4408 249.939L96.1291 246.257L83.1615 204.383Z" fill="url(#paint44_linear_154_2377)"/>
</g>
<path d="M56.114 209.578C56.9555 209.578 57.6377 208.896 57.6377 208.054C57.6377 207.212 56.9555 206.53 56.114 206.53C55.2724 206.53 54.5902 207.212 54.5902 208.054C54.5902 208.896 55.2724 209.578 56.114 209.578Z" fill="url(#paint45_linear_154_2377)"/>
<path d="M76.5657 209.321C77.3432 208.999 77.7124 208.108 77.3904 207.33C77.0683 206.553 76.177 206.184 75.3995 206.506C74.622 206.828 74.2528 207.719 74.5749 208.497C74.8969 209.274 75.7883 209.643 76.5657 209.321Z" fill="url(#paint46_linear_154_2377)"/>
<path d="M120.709 69.4385L185.69 70.7525L200.432 71.0483C203.485 71.1102 205.964 68.6332 205.964 65.6596V49.9766C205.964 47.0023 203.506 44.4906 200.454 44.3728L120.851 41.3049C119.823 41.2649 118.732 41.4611 117.876 41.8423C115.894 42.7245 114.419 44.5925 114.419 46.7985V63.4717C114.419 66.631 117.298 69.3691 120.709 69.4385Z" fill="#97A6B7"/>
<path d="M207.152 49.9391V65.6373C207.152 68.6139 204.673 70.9852 201.615 70.9203L121.928 69.3029C118.512 69.2335 115.721 66.6018 115.721 63.438V46.7535C115.721 44.5459 117.079 42.678 119.066 41.7935C119.966 41.3967 120.945 41.2121 121.928 41.2538L201.615 44.327C204.673 44.4455 207.152 46.9625 207.152 49.9391Z" fill="#D8DEE8"/>
<path d="M206.509 49.7705C206.509 47.1772 204.183 44.9931 201.519 44.8912L121.701 41.8535C118.728 41.7395 116.058 43.8784 116.058 46.6323V63.0988C116.058 65.852 118.638 68.135 121.613 68.1976L201.441 69.8701C204.104 69.9267 206.509 67.8693 206.509 65.2769V49.7705Z" fill="white"/>
<path d="M149.369 52.6521L150.932 55.4967L154.399 56.0053C154.771 56.0597 154.919 56.471 154.65 56.7019L152.151 58.8461L152.743 61.9336C152.807 62.2664 152.416 62.5178 152.08 62.3585L148.958 60.8755L145.804 62.3193C145.461 62.4755 145.06 62.2166 145.125 61.88L145.728 58.7699L143.153 56.5238C142.873 56.28 143.027 55.8657 143.414 55.8227L146.961 55.428L148.536 52.6355C148.709 52.3336 149.199 52.3442 149.369 52.6521Z" fill="url(#paint47_linear_154_2377)"/>
<path d="M162.398 52.9367L163.896 55.7216L167.221 56.2175C167.578 56.2711 167.72 56.6703 167.462 56.8967L165.062 58.9978L165.63 62.0167C165.691 62.3435 165.316 62.5895 164.994 62.4333L162.001 60.982L158.977 62.3956C158.648 62.5465 158.264 62.2952 158.327 61.9661L158.908 58.9201L156.439 56.7224C156.172 56.4839 156.319 56.0786 156.69 56.0363L160.093 55.6484L161.602 52.9126C161.765 52.6243 162.235 52.6348 162.398 52.9367Z" fill="url(#paint48_linear_154_2377)"/>
<path d="M174.894 53.2074L176.332 55.935L179.523 56.4202C179.866 56.4723 180.002 56.867 179.755 57.0882L177.451 59.147L177.996 62.1086C178.055 62.4286 177.694 62.6693 177.386 62.5169L174.513 61.095L171.612 62.4806C171.297 62.6316 170.928 62.3818 170.989 62.0595L171.546 59.0769L169.178 56.9244C168.922 56.6912 169.063 56.2934 169.418 56.2527L172.683 55.8753L174.131 53.1946C174.288 52.9055 174.738 52.9138 174.894 53.2074Z" fill="url(#paint49_linear_154_2377)"/>
<path d="M186.891 53.471L188.272 56.1427L191.337 56.6174C191.666 56.6687 191.798 57.0552 191.559 57.2725L189.346 59.2914L189.87 62.1933C189.927 62.5065 189.58 62.7435 189.284 62.5933L186.525 61.2008L183.739 62.5593C183.437 62.7103 183.083 62.4635 183.14 62.1473L183.675 59.2242L181.402 57.1163C181.346 57.0666 181.306 57.0014 181.288 56.9291C181.269 56.8567 181.272 56.7804 181.297 56.7098C181.321 56.6392 181.366 56.5775 181.426 56.5326C181.486 56.4876 181.558 56.4615 181.632 56.4574L184.767 56.0801L186.158 53.4529C186.308 53.1714 186.741 53.1812 186.891 53.471Z" fill="url(#paint50_linear_154_2377)"/>
<path d="M198.415 53.7225L199.743 56.3414L202.686 56.8063C202.756 56.816 202.822 56.8449 202.876 56.8899C202.93 56.935 202.97 56.9942 202.993 57.0611C203.015 57.1279 203.018 57.1996 203.001 57.2681C202.985 57.3366 202.95 57.3991 202.9 57.4486L200.772 59.4282L201.276 62.2735C201.286 62.344 201.276 62.416 201.248 62.4815C201.22 62.5469 201.174 62.6032 201.115 62.644C201.057 62.6847 200.988 62.7084 200.917 62.7123C200.846 62.7161 200.775 62.7001 200.712 62.6659L198.06 61.3007L195.383 62.632C195.092 62.7769 194.752 62.5384 194.808 62.2282L195.322 59.3603L193.137 57.2954C193.084 57.2464 193.046 57.183 193.028 57.1129C193.01 57.0427 193.013 56.9689 193.037 56.9004C193.06 56.8319 193.103 56.7717 193.16 56.7271C193.217 56.6825 193.286 56.6555 193.358 56.6493L196.371 56.281L197.707 53.7044C197.743 53.6408 197.795 53.5881 197.858 53.552C197.922 53.5159 197.994 53.4978 198.067 53.4996C198.14 53.5015 198.211 53.5233 198.272 53.5625C198.333 53.6018 198.383 53.6572 198.415 53.7225Z" fill="#D8DEE8"/>
<path d="M184.648 49.8708C184.648 50.4595 184.221 50.9206 183.61 50.9002L144.919 49.6014C144.275 49.5795 143.658 49.0731 143.658 48.4693V48.2731C143.658 47.6693 144.311 47.1961 144.955 47.2165L183.546 48.5749C183.836 48.5826 184.112 48.7016 184.317 48.9072C184.522 49.1129 184.641 49.3895 184.648 49.6798V49.8708Z" fill="url(#paint51_linear_154_2377)"/>
<path d="M130.434 64.6463C124.97 64.518 120.495 60.269 120.495 55.1739C120.495 50.0788 124.97 46.0931 130.434 46.2871C135.86 46.4795 140.245 50.7271 140.245 55.7558C140.245 60.7845 135.86 64.7739 130.434 64.6463Z" fill="url(#paint52_linear_154_2377)"/>
<path d="M139.454 55.7329C139.454 60.3638 135.429 64.0219 130.434 63.9027C125.406 63.7819 121.302 59.8846 121.302 55.1978C121.302 50.511 125.402 46.8551 130.434 47.031C135.429 47.2053 139.454 51.1012 139.454 55.7329Z" fill="url(#paint53_linear_154_2377)"/>
<path d="M134.778 53.796C134.778 56.0148 132.846 57.7597 130.457 57.6926C128.067 57.6254 126.113 55.762 126.113 53.5303C126.113 51.2986 128.062 49.5545 130.46 49.6345C132.857 49.7145 134.778 51.5771 134.778 53.796Z" fill="white"/>
<path d="M136.693 64.3127C136.403 61.3066 133.718 58.9225 130.434 58.8327C127.136 58.7429 124.418 60.998 124.124 64.0138L136.693 64.3127Z" fill="white"/>
<g style="mix-blend-mode:multiply" opacity="0.3">
<g style="mix-blend-mode:multiply" opacity="0.3">
<path d="M186.968 70.6232L121.928 69.3024C118.512 69.233 115.721 66.6013 115.721 63.4375V46.753C115.721 44.5454 117.079 42.6775 119.066 41.793C119.277 41.9303 119.487 42.0722 119.692 42.2186L119.826 42.316C121.808 43.7499 123.49 45.5839 124.485 47.9235C124.586 48.1658 124.684 48.4133 124.771 48.6677L124.775 48.679C125.251 50.0533 125.756 51.356 126.324 52.5779C128.078 56.3779 130.349 59.3824 133.72 61.2571C134.44 61.6566 135.191 61.9973 135.965 62.276C136.255 62.3809 136.552 62.4798 136.857 62.5696C140.141 63.556 144.253 63.7296 149.494 62.9152C149.882 62.8556 150.263 62.7952 150.648 62.7364C150.863 62.7024 151.078 62.67 151.293 62.6375C153.703 62.27 156.063 61.9311 158.378 61.6949L158.861 61.6473C159.559 61.5809 160.253 61.5253 160.943 61.4805C161.464 61.4466 161.982 61.4201 162.499 61.3998C162.608 61.396 162.718 61.3922 162.828 61.3899C163.381 61.3723 163.929 61.3648 164.471 61.3673C164.817 61.3673 165.163 61.3728 165.509 61.3839C166.384 61.4088 167.256 61.4594 168.122 61.5454C169.089 61.6398 170.05 61.7718 171.006 61.9552C171.401 62.0292 171.795 62.1117 172.19 62.2028C176.935 63.2986 181.572 65.6066 186.195 69.8896C186.443 70.116 186.692 70.3537 186.94 70.5945C186.949 70.605 186.959 70.6133 186.968 70.6232Z" fill="#D8DEE8"/>
</g>
</g>
<path d="M206.468 126.012L126.614 127.275C125.623 127.289 124.649 127.527 123.764 127.971C121.774 128.962 120.43 130.909 120.43 133.119V149.818C120.43 152.988 123.218 155.574 126.641 155.457L191.756 153.233L206.433 152.732C209.497 152.627 211.974 150.015 211.974 147.036V131.327C211.974 128.349 209.531 125.962 206.468 126.012Z" fill="#97A6B7"/>
<path d="M213.509 131.351V147.072C213.509 150.053 211.023 152.564 207.955 152.669L128 155.396C124.572 155.512 121.771 153.029 121.771 149.859V133.143C121.771 130.932 123.136 128.984 125.128 127.992C126.02 127.549 127 127.311 127.996 127.296L207.949 126.031C211.019 125.983 213.509 128.37 213.509 131.351Z" fill="#D8DEE8"/>
<path d="M212.52 131.234C212.52 128.637 210.358 126.567 207.69 126.611L127.807 127.906C124.823 127.954 122.347 130.23 122.347 132.988V149.482C122.347 152.24 124.82 154.395 127.805 154.295L207.667 151.63C210.34 151.541 212.524 149.366 212.524 146.765L212.52 131.234Z" fill="white"/>
<path d="M155.535 137.218L157.103 139.983L160.582 140.303C160.955 140.337 161.105 140.741 160.835 140.986L158.324 143.271L158.918 146.331C158.982 146.661 158.589 146.935 158.253 146.793L155.12 145.479L151.956 147.094C151.611 147.27 151.209 147.032 151.276 146.691L151.885 143.543L149.299 141.434C149.019 141.208 149.174 140.781 149.561 140.717L153.124 140.128L154.704 137.244C154.874 136.935 155.365 136.919 155.535 137.218Z" fill="url(#paint54_linear_154_2377)"/>
<path d="M168.608 136.793L170.111 139.501L173.447 139.817C173.805 139.851 173.948 140.246 173.689 140.487L171.281 142.723L171.851 145.719C171.912 146.043 171.536 146.31 171.213 146.172L168.209 144.881L165.176 146.462C164.846 146.634 164.46 146.4 164.524 146.067L165.106 142.985L162.629 140.918C162.361 140.692 162.509 140.279 162.881 140.217L166.295 139.643L167.811 136.82C167.974 136.515 168.445 136.5 168.608 136.793Z" fill="url(#paint55_linear_154_2377)"/>
<path d="M181.146 136.385L182.589 139.038L185.79 139.35C185.865 139.355 185.936 139.381 185.996 139.425C186.055 139.47 186.1 139.531 186.125 139.601C186.15 139.672 186.154 139.747 186.135 139.82C186.117 139.892 186.078 139.957 186.023 140.007L183.711 142.196L184.258 145.132C184.317 145.449 183.956 145.71 183.646 145.575L180.763 144.307L177.853 145.852C177.537 146.021 177.167 145.792 177.227 145.465L177.786 142.446L175.411 140.42C175.153 140.2 175.295 139.794 175.651 139.733L178.927 139.174L180.38 136.41C180.537 136.112 180.989 136.098 181.146 136.385Z" fill="url(#paint56_linear_154_2377)"/>
<path d="M193.181 135.992L194.567 138.594L197.642 138.903C197.715 138.907 197.785 138.932 197.843 138.976C197.901 139.02 197.946 139.08 197.97 139.149C197.994 139.218 197.997 139.292 197.979 139.363C197.961 139.434 197.923 139.498 197.869 139.546L195.648 141.689L196.177 144.568C196.233 144.878 195.886 145.134 195.588 145L192.82 143.755L190.027 145.265C189.725 145.429 189.368 145.205 189.423 144.888L189.961 141.931L187.679 139.943C187.432 139.728 187.569 139.331 187.91 139.271L191.056 138.725L192.451 136.017C192.597 135.725 193.032 135.711 193.181 135.992Z" fill="#D8DEE8"/>
<path d="M204.745 135.617L206.077 138.167L209.033 138.469C209.104 138.475 209.171 138.502 209.227 138.546C209.282 138.589 209.324 138.648 209.347 138.715C209.37 138.782 209.372 138.854 209.355 138.923C209.337 138.991 209.3 139.053 209.248 139.101L207.113 141.2L207.619 144.023C207.629 144.094 207.619 144.167 207.591 144.233C207.564 144.3 207.518 144.357 207.461 144.401C207.403 144.444 207.335 144.471 207.263 144.479C207.192 144.487 207.119 144.476 207.054 144.447L204.392 143.224L201.706 144.703C201.415 144.864 201.074 144.644 201.129 144.33L201.645 141.432L199.457 139.482C199.219 139.271 199.35 138.878 199.678 138.823L202.697 138.29L204.039 135.637C204.183 135.353 204.604 135.34 204.745 135.617Z" fill="#D8DEE8"/>
<path d="M190.932 132.507C190.932 133.097 190.504 133.583 189.891 133.596L151.277 134.398C150.63 134.412 150.216 133.93 150.216 133.324V133.132C150.213 132.986 150.239 132.841 150.293 132.705C150.347 132.569 150.427 132.446 150.529 132.341C150.631 132.237 150.753 132.154 150.888 132.097C151.022 132.041 151.167 132.011 151.313 132.011L189.928 131.271C190.542 131.259 190.932 131.73 190.932 132.32V132.507Z" fill="url(#paint57_linear_154_2377)"/>
<path d="M136.537 150.264C131.054 150.434 126.564 146.42 126.564 141.318C126.564 136.215 131.054 131.977 136.537 131.874C141.98 131.771 146.38 135.786 146.38 140.824C146.38 145.862 141.98 150.097 136.537 150.264Z" fill="url(#paint58_linear_154_2377)"/>
<path d="M145.585 140.844C145.585 145.484 141.546 149.367 136.534 149.524C131.488 149.675 127.374 145.996 127.374 141.302C127.374 136.607 131.488 132.721 136.534 132.623C141.549 132.522 145.585 136.205 145.585 140.844Z" fill="url(#paint59_linear_154_2377)"/>
<path d="M140.895 139.16C140.895 141.383 138.957 143.235 136.559 143.298C134.16 143.361 132.198 141.602 132.198 139.366C132.198 137.131 134.153 135.278 136.559 135.227C138.964 135.177 140.895 136.937 140.895 139.16Z" fill="white"/>
<path d="M142.817 149.59C142.526 146.595 139.832 144.353 136.537 144.443C133.227 144.532 130.499 146.939 130.205 149.976L142.817 149.59Z" fill="white"/>
<g style="mix-blend-mode:multiply" opacity="0.3">
<g style="mix-blend-mode:multiply" opacity="0.3">
<path d="M193.26 153.169L128 155.397C124.572 155.513 121.771 153.03 121.771 149.86V133.144C121.771 130.932 123.136 128.984 125.128 127.993C125.34 128.119 125.55 128.25 125.756 128.385C125.801 128.415 125.846 128.445 125.891 128.476C127.88 129.805 129.567 131.55 130.565 133.839C130.668 134.076 130.765 134.318 130.853 134.568C130.852 134.572 130.852 134.575 130.853 134.579C131.305 135.879 131.824 137.154 132.407 138.401C134.167 142.111 136.445 144.998 139.83 146.693C140.555 147.055 141.308 147.355 142.082 147.591C142.374 147.68 142.672 147.762 142.977 147.836C146.272 148.646 150.398 148.595 155.657 147.494L156.814 147.252L157.461 147.117C159.876 146.618 162.247 146.15 164.571 145.787C164.731 145.763 164.894 145.737 165.055 145.711C165.755 145.606 166.452 145.512 167.143 145.43C167.666 145.368 168.186 145.313 168.704 145.264C168.814 145.255 168.925 145.245 169.035 145.236C169.587 145.19 170.137 145.15 170.683 145.125C171.031 145.107 171.379 145.094 171.725 145.084C172.603 145.062 173.478 145.066 174.346 145.104C175.316 145.145 176.281 145.227 177.24 145.356C177.636 145.409 178.033 145.47 178.428 145.54C183.189 146.379 187.841 148.438 192.48 152.476C192.728 152.692 192.978 152.913 193.226 153.142C193.241 153.152 193.251 153.16 193.26 153.169Z" fill="#D8DEE8"/>
</g>
</g>
<path d="M233.736 85.9817L157.462 85.2073C156.481 85.1975 155.435 85.4172 154.616 85.8111C152.719 86.7289 151.309 88.5945 151.309 90.753V107.059C151.309 110.154 154.063 112.754 157.327 112.728L219.576 112.222L233.716 112.108C236.645 112.084 239.027 109.594 239.027 106.681V91.3205C239.025 89.9136 238.468 88.5642 237.477 87.5649C236.487 86.5656 235.143 85.9968 233.736 85.9817Z" fill="#97A6B7"/>
<path d="M240.264 91.3121V106.686C240.264 109.601 237.886 111.993 234.953 112.017L158.598 112.633C155.329 112.659 152.658 110.162 152.658 107.067V90.7453C152.658 88.5853 153.959 86.7182 155.859 85.7997C156.713 85.3894 157.651 85.1828 158.598 85.1959L234.953 85.974C237.887 86.0004 240.264 88.3967 240.264 91.3121Z" fill="#D8DEE8"/>
<path d="M239.3 91.1752C239.297 89.9497 238.811 88.7748 237.947 87.9054C237.084 87.0359 235.912 86.542 234.687 86.5306L158.549 85.7835C155.703 85.7555 153.492 87.9163 153.492 90.6091V106.717C153.492 109.41 155.705 111.577 158.549 111.556L234.732 110.997C237.288 110.978 239.295 108.905 239.295 106.365L239.3 91.1752Z" fill="white"/>
<path d="M184.873 95.5801L186.37 98.3205L189.691 98.7213C190.048 98.7643 190.19 99.1628 189.931 99.396L187.534 101.565L188.102 104.57C188.163 104.894 187.788 105.151 187.467 105.004L184.476 103.64L181.457 105.139C181.128 105.302 180.744 105.059 180.807 104.729L181.388 101.668L178.921 99.5416C178.654 99.3107 178.801 98.9009 179.171 98.848L182.571 98.3635L184.081 95.5854C184.241 95.2858 184.71 95.2828 184.873 95.5801Z" fill="url(#paint60_linear_154_2377)"/>
<path d="M197.354 95.4957L198.788 98.1795L201.974 98.5727C202.048 98.5776 202.12 98.6044 202.179 98.6496C202.239 98.6948 202.283 98.7566 202.308 98.8271C202.333 98.8976 202.336 98.9739 202.318 99.0463C202.3 99.1188 202.26 99.1842 202.205 99.2346L199.907 101.358L200.451 104.302C200.51 104.62 200.149 104.871 199.842 104.727L196.974 103.389L194.078 104.856C193.763 105.016 193.395 104.781 193.455 104.454L194.011 101.457L191.647 99.3742C191.39 99.1478 191.531 98.7471 191.886 98.695L195.146 98.221L196.593 95.504C196.631 95.4372 196.686 95.3816 196.753 95.3426C196.819 95.3036 196.894 95.2826 196.971 95.2818C197.048 95.2809 197.124 95.3002 197.191 95.3378C197.258 95.3753 197.314 95.4298 197.354 95.4957Z" fill="url(#paint61_linear_154_2377)"/>
<path d="M209.33 95.4144L210.709 98.0445L213.767 98.4309C213.839 98.4385 213.907 98.4663 213.963 98.5111C214.019 98.5559 214.062 98.6159 214.085 98.6839C214.108 98.752 214.112 98.8253 214.095 98.8952C214.078 98.9651 214.041 99.0287 213.989 99.0785L211.781 101.158L212.304 104.043C212.361 104.354 212.015 104.601 211.719 104.46L208.965 103.147L206.185 104.581C205.883 104.737 205.529 104.506 205.587 104.186L206.122 101.251L203.852 99.2128C203.605 98.9909 203.741 98.5985 204.079 98.5479L207.208 98.0838L208.596 95.4197C208.632 95.3536 208.685 95.2983 208.749 95.2596C208.813 95.221 208.887 95.2003 208.962 95.1997C209.037 95.1992 209.111 95.2188 209.176 95.2566C209.24 95.2943 209.294 95.3488 209.33 95.4144Z" fill="url(#paint62_linear_154_2377)"/>
<path d="M220.83 95.3367L222.155 97.9148L225.098 98.2922C225.168 98.2996 225.235 98.3269 225.29 98.371C225.345 98.4151 225.386 98.4741 225.408 98.541C225.431 98.6078 225.434 98.6797 225.417 98.7481C225.399 98.8166 225.363 98.8786 225.311 98.9269L223.189 100.965L223.691 103.792C223.701 103.862 223.692 103.935 223.664 104C223.637 104.066 223.591 104.123 223.534 104.165C223.476 104.207 223.408 104.233 223.336 104.239C223.265 104.245 223.194 104.232 223.13 104.2L220.484 102.917L217.811 104.322C217.521 104.473 217.182 104.247 217.237 103.936L217.75 101.059L215.571 99.0582C215.517 99.0087 215.479 98.9449 215.462 98.8744C215.444 98.8039 215.447 98.7298 215.47 98.6609C215.493 98.592 215.536 98.5313 215.593 98.4861C215.65 98.4409 215.719 98.4131 215.791 98.4061L218.797 97.9533L220.13 95.342C220.164 95.2787 220.214 95.2256 220.276 95.1885C220.337 95.1513 220.407 95.1314 220.479 95.1309C220.55 95.1303 220.621 95.1492 220.683 95.1854C220.745 95.2216 220.795 95.2739 220.83 95.3367Z" fill="url(#paint63_linear_154_2377)"/>
<path d="M231.885 95.2609L233.159 97.7899L235.985 98.162C236.053 98.1708 236.117 98.1986 236.17 98.2423C236.223 98.286 236.263 98.3438 236.284 98.409C236.306 98.4742 236.308 98.5442 236.292 98.6108C236.275 98.6774 236.24 98.7379 236.19 98.7854L234.153 100.784L234.636 103.557C234.647 103.625 234.639 103.696 234.613 103.76C234.587 103.825 234.544 103.881 234.488 103.922C234.432 103.964 234.366 103.989 234.296 103.995C234.227 104.001 234.157 103.988 234.095 103.957L231.547 102.693L228.981 104.075C228.921 104.11 228.852 104.127 228.782 104.124C228.712 104.121 228.645 104.099 228.587 104.059C228.529 104.02 228.484 103.965 228.456 103.901C228.428 103.837 228.419 103.767 228.429 103.698L228.923 100.877L226.828 98.9152C226.779 98.8657 226.744 98.8035 226.728 98.7356C226.712 98.6677 226.715 98.5966 226.737 98.5304C226.759 98.4641 226.799 98.4053 226.853 98.3604C226.906 98.3155 226.971 98.2863 227.04 98.276L229.929 97.8322L231.212 95.2715C231.243 95.209 231.29 95.1561 231.349 95.1188C231.408 95.0815 231.476 95.0612 231.545 95.0601C231.615 95.059 231.683 95.0772 231.743 95.1126C231.803 95.1481 231.852 95.1994 231.885 95.2609Z" fill="url(#paint64_linear_154_2377)"/>
<path d="M218.805 91.87C218.805 92.0077 218.777 92.144 218.723 92.2709C218.67 92.3978 218.592 92.5128 218.493 92.6094C218.395 92.7059 218.279 92.7821 218.151 92.8334C218.023 92.8847 217.886 92.9102 217.749 92.9085L180.671 92.7152C180.054 92.7152 179.456 92.2307 179.456 91.6382V91.4466C179.456 90.8541 180.055 90.3764 180.672 90.3809L217.701 90.6322C218.288 90.6367 218.806 91.1062 218.806 91.6828L218.805 91.87Z" fill="url(#paint65_linear_154_2377)"/>
<path d="M166.74 107.842C161.51 107.868 157.231 103.834 157.231 98.8505C157.231 93.8671 161.514 89.8414 166.74 89.8792C171.935 89.9162 176.134 93.9494 176.134 98.8709C176.134 103.792 171.935 107.817 166.74 107.842Z" fill="url(#paint66_linear_154_2377)"/>
<path d="M175.377 98.8681C175.377 103.396 171.523 107.094 166.74 107.113C161.928 107.134 158.003 103.434 158.003 98.8492C158.003 94.2643 161.928 90.573 166.74 90.6047C171.523 90.6417 175.377 94.3398 175.377 98.8681Z" fill="url(#paint67_linear_154_2377)"/>
<path d="M170.9 97.106C170.9 99.2774 169.05 101.038 166.762 101.039C164.475 101.04 162.602 99.2706 162.602 97.0872C162.602 94.9038 164.467 93.143 166.762 93.1544C169.057 93.1657 170.9 94.9347 170.9 97.106Z" fill="white"/>
<path d="M172.733 107.344C172.456 104.41 169.885 102.152 166.74 102.155C163.583 102.155 160.982 104.441 160.703 107.399L172.733 107.344Z" fill="white"/>
<g style="mix-blend-mode:multiply" opacity="0.3">
<g style="mix-blend-mode:multiply" opacity="0.3">
<path d="M220.906 112.13L158.598 112.633C155.329 112.659 152.658 110.162 152.658 107.067V90.7455C152.658 88.5855 153.959 86.7183 155.859 85.7998C156.061 85.9289 156.262 86.0617 156.459 86.1991L156.587 86.2904C158.484 87.6391 160.093 89.3847 161.045 91.6489C161.143 91.8836 161.236 92.1228 161.319 92.3689L161.324 92.3802C161.777 93.7115 162.266 94.9719 162.806 96.1538C164.485 99.8225 166.659 102.699 169.888 104.441C170.577 104.812 171.296 105.125 172.038 105.376C172.315 105.471 172.6 105.559 172.891 105.639C176.036 106.513 179.974 106.569 184.994 105.627C185.364 105.558 185.731 105.488 186.099 105.42C186.306 105.381 186.51 105.345 186.717 105.305C189.026 104.878 191.286 104.481 193.504 104.186L193.967 104.127C194.636 104.041 195.3 103.967 195.961 103.905C196.461 103.858 196.958 103.817 197.452 103.783C197.558 103.776 197.663 103.77 197.768 103.764C198.297 103.733 198.82 103.708 199.342 103.697C199.674 103.689 200.005 103.684 200.337 103.684C201.176 103.684 202.011 103.713 202.841 103.77C203.768 103.835 204.689 103.939 205.604 104.091C205.983 104.152 206.361 104.222 206.737 104.3C211.285 105.242 215.731 107.373 220.164 111.439C220.401 111.657 220.639 111.88 220.876 112.109C220.888 112.113 220.897 112.121 220.906 112.13Z" fill="#D8DEE8"/>
</g>
</g>
<defs>
<linearGradient id="paint0_linear_154_2377" x1="149.406" y1="137" x2="113.994" y2="232.488" gradientUnits="userSpaceOnUse">
<stop stop-color="#FFC444"/>
<stop offset="1" stop-color="#F36F56"/>
</linearGradient>
<linearGradient id="paint1_linear_154_2377" x1="29.5718" y1="163.88" x2="102.024" y2="232.104" gradientUnits="userSpaceOnUse">
<stop stop-color="#AA80F9"/>
<stop offset="1" stop-color="#6165D7"/>
</linearGradient>
<linearGradient id="paint2_linear_154_2377" x1="-114711" y1="669298" x2="-76870.5" y2="761435" gradientUnits="userSpaceOnUse">
<stop stop-color="#FF9085"/>
<stop offset="1" stop-color="#FB6FBB"/>
</linearGradient>
<linearGradient id="paint3_linear_154_2377" x1="54.2165" y1="153.445" x2="207.627" y2="129.172" gradientUnits="userSpaceOnUse">
<stop stop-color="#444B8C"/>
<stop offset="1" stop-color="#26264F"/>
</linearGradient>
<linearGradient id="paint4_linear_154_2377" x1="45.2966" y1="156.89" x2="143.297" y2="156.89" gradientUnits="userSpaceOnUse">
<stop stop-color="#E38DDD"/>
<stop offset="1" stop-color="#9571F6"/>
</linearGradient>
<linearGradient id="paint5_linear_154_2377" x1="153003" y1="187698" x2="-219606" y2="667593" gradientUnits="userSpaceOnUse">
<stop stop-color="#E38DDD"/>
<stop offset="1" stop-color="#9571F6"/>
</linearGradient>
<linearGradient id="paint6_linear_154_2377" x1="13325.8" y1="19872.8" x2="14965" y2="19872.8" gradientUnits="userSpaceOnUse">
<stop stop-color="#FF9085"/>
<stop offset="1" stop-color="#FB6FBB"/>
</linearGradient>
<linearGradient id="paint7_linear_154_2377" x1="16610.5" y1="19872.8" x2="18249.7" y2="19872.8" gradientUnits="userSpaceOnUse">
<stop stop-color="#FF9085"/>
<stop offset="1" stop-color="#FB6FBB"/>
</linearGradient>
<linearGradient id="paint8_linear_154_2377" x1="19895.3" y1="19872.8" x2="21534.6" y2="19872.8" gradientUnits="userSpaceOnUse">
<stop stop-color="#FF9085"/>
<stop offset="1" stop-color="#FB6FBB"/>
</linearGradient>
<linearGradient id="paint9_linear_154_2377" x1="72434.7" y1="49796.6" x2="274788" y2="49796.6" gradientUnits="userSpaceOnUse">
<stop stop-color="#FF9085"/>
<stop offset="1" stop-color="#FB6FBB"/>
</linearGradient>
<linearGradient id="paint10_linear_154_2377" x1="22952.3" y1="8939.33" x2="24558.2" y2="8939.33" gradientUnits="userSpaceOnUse">
<stop stop-color="#FF9085"/>
<stop offset="1" stop-color="#FB6FBB"/>
</linearGradient>
<linearGradient id="paint11_linear_154_2377" x1="225.523" y1="132.194" x2="233.507" y2="139.023" gradientUnits="userSpaceOnUse">
<stop stop-color="#311944"/>
<stop offset="1" stop-color="#6B3976"/>
</linearGradient>
<linearGradient id="paint12_linear_154_2377" x1="239.102" y1="206.003" x2="259.299" y2="219.739" gradientUnits="userSpaceOnUse">
<stop stop-color="#AB316D"/>
<stop offset="1" stop-color="#792D3D"/>
</linearGradient>
<linearGradient id="paint13_linear_154_2377" x1="220.526" y1="201.57" x2="238.119" y2="194.709" gradientUnits="userSpaceOnUse">
<stop stop-color="#40447E"/>
<stop offset="1" stop-color="#3C3B6B"/>
</linearGradient>
<linearGradient id="paint14_linear_154_2377" x1="220.526" y1="201.57" x2="238.119" y2="194.709" gradientUnits="userSpaceOnUse">
<stop stop-color="#40447E"/>
<stop offset="1" stop-color="#3C3B6B"/>
</linearGradient>
<linearGradient id="paint15_linear_154_2377" x1="44949.5" y1="60004.1" x2="49677.2" y2="62409.5" gradientUnits="userSpaceOnUse">
<stop stop-color="#AA80F9"/>
<stop offset="1" stop-color="#6165D7"/>
</linearGradient>
<linearGradient id="paint16_linear_154_2377" x1="16541.2" y1="24352.6" x2="16904.3" y2="26787.2" gradientUnits="userSpaceOnUse">
<stop stop-color="#AB316D"/>
<stop offset="1" stop-color="#792D3D"/>
</linearGradient>
<linearGradient id="paint17_linear_154_2377" x1="98215.4" y1="188562" x2="112950" y2="199930" gradientUnits="userSpaceOnUse">
<stop stop-color="#40447E"/>
<stop offset="1" stop-color="#3C3B6B"/>
</linearGradient>
<linearGradient id="paint18_linear_154_2377" x1="56431.4" y1="163266" x2="68426.9" y2="174193" gradientUnits="userSpaceOnUse">
<stop stop-color="#40447E"/>
<stop offset="1" stop-color="#3C3B6B"/>
</linearGradient>
<linearGradient id="paint19_linear_154_2377" x1="110414" y1="96958.4" x2="131802" y2="105741" gradientUnits="userSpaceOnUse">
<stop stop-color="#AA80F9"/>
<stop offset="1" stop-color="#6165D7"/>
</linearGradient>
<linearGradient id="paint20_linear_154_2377" x1="233.449" y1="153.708" x2="225.233" y2="135.574" gradientUnits="userSpaceOnUse">
<stop stop-color="#311944"/>
<stop offset="1" stop-color="#893976"/>
</linearGradient>
<linearGradient id="paint21_linear_154_2377" x1="222.436" y1="148.946" x2="228.231" y2="139.154" gradientUnits="userSpaceOnUse">
<stop stop-color="#311944"/>
<stop offset="1" stop-color="#A03976"/>
</linearGradient>
<linearGradient id="paint22_linear_154_2377" x1="95431.1" y1="90754.2" x2="114877" y2="98110.4" gradientUnits="userSpaceOnUse">
<stop stop-color="#AA80F9"/>
<stop offset="1" stop-color="#6165D7"/>
</linearGradient>
<linearGradient id="paint23_linear_154_2377" x1="70963.6" y1="57098" x2="78035.6" y2="60732" gradientUnits="userSpaceOnUse">
<stop stop-color="#AA80F9"/>
<stop offset="1" stop-color="#6165D7"/>
</linearGradient>
<linearGradient id="paint24_linear_154_2377" x1="17518.3" y1="8254.03" x2="18258" y2="8254.03" gradientUnits="userSpaceOnUse">
<stop stop-color="#311944"/>
<stop offset="1" stop-color="#A03976"/>
</linearGradient>
<linearGradient id="paint25_linear_154_2377" x1="9468.63" y1="20370.3" x2="9574.63" y2="20438.1" gradientUnits="userSpaceOnUse">
<stop stop-color="#AA80F9"/>
<stop offset="1" stop-color="#6165D7"/>
</linearGradient>
<linearGradient id="paint26_linear_154_2377" x1="9524.37" y1="20590.6" x2="9840.63" y2="20590.6" gradientUnits="userSpaceOnUse">
<stop stop-color="#AA80F9"/>
<stop offset="1" stop-color="#6165D7"/>
</linearGradient>
<linearGradient id="paint27_linear_154_2377" x1="4116.09" y1="8770.59" x2="4171.64" y2="8770.59" gradientUnits="userSpaceOnUse">
<stop stop-color="#40447E"/>
<stop offset="1" stop-color="#3C3B6B"/>
</linearGradient>
<linearGradient id="paint28_linear_154_2377" x1="11188.1" y1="20127.4" x2="11294.1" y2="20195.2" gradientUnits="userSpaceOnUse">
<stop stop-color="#AA80F9"/>
<stop offset="1" stop-color="#6165D7"/>
</linearGradient>
<linearGradient id="paint29_linear_154_2377" x1="11245.5" y1="20347.7" x2="11561.8" y2="20347.7" gradientUnits="userSpaceOnUse">
<stop stop-color="#AA80F9"/>
<stop offset="1" stop-color="#6165D7"/>
</linearGradient>
<linearGradient id="paint30_linear_154_2377" x1="4851.84" y1="8667.24" x2="4907.39" y2="8667.24" gradientUnits="userSpaceOnUse">
<stop stop-color="#40447E"/>
<stop offset="1" stop-color="#3C3B6B"/>
</linearGradient>
<linearGradient id="paint31_linear_154_2377" x1="63251.8" y1="7043.1" x2="70142.4" y2="7043.1" gradientUnits="userSpaceOnUse">
<stop stop-color="#40447E"/>
<stop offset="1" stop-color="#3C3B6B"/>
</linearGradient>
<linearGradient id="paint32_linear_154_2377" x1="10982.2" y1="21127.9" x2="11088.2" y2="21195.7" gradientUnits="userSpaceOnUse">
<stop stop-color="#AA80F9"/>
<stop offset="1" stop-color="#6165D7"/>
</linearGradient>
<linearGradient id="paint33_linear_154_2377" x1="11034.6" y1="21345.7" x2="11350.9" y2="21345.7" gradientUnits="userSpaceOnUse">
<stop stop-color="#AA80F9"/>
<stop offset="1" stop-color="#6165D7"/>
</linearGradient>
<linearGradient id="paint34_linear_154_2377" x1="4761.58" y1="9089.71" x2="4817.13" y2="9089.71" gradientUnits="userSpaceOnUse">
<stop stop-color="#40447E"/>
<stop offset="1" stop-color="#3C3B6B"/>
</linearGradient>
<linearGradient id="paint35_linear_154_2377" x1="12465.9" y1="20930.1" x2="12571.9" y2="20997.9" gradientUnits="userSpaceOnUse">
<stop stop-color="#AA80F9"/>
<stop offset="1" stop-color="#6165D7"/>
</linearGradient>
<linearGradient id="paint36_linear_154_2377" x1="12523.3" y1="21152.8" x2="12839.6" y2="21152.8" gradientUnits="userSpaceOnUse">
<stop stop-color="#AA80F9"/>
<stop offset="1" stop-color="#6165D7"/>
</linearGradient>
<linearGradient id="paint37_linear_154_2377" x1="5396.76" y1="9006.5" x2="5452.27" y2="9006.5" gradientUnits="userSpaceOnUse">
<stop stop-color="#40447E"/>
<stop offset="1" stop-color="#3C3B6B"/>
</linearGradient>
<linearGradient id="paint38_linear_154_2377" x1="16061.2" y1="7581.74" x2="15983" y2="7786.45" gradientUnits="userSpaceOnUse">
<stop stop-color="#311944"/>
<stop offset="1" stop-color="#A03976"/>
</linearGradient>
<linearGradient id="paint39_linear_154_2377" x1="14157.2" y1="51858.3" x2="15578.5" y2="52474.3" gradientUnits="userSpaceOnUse">
<stop stop-color="#AB316D"/>
<stop offset="1" stop-color="#792D3D"/>
</linearGradient>
<linearGradient id="paint40_linear_154_2377" x1="7667.92" y1="127608" x2="16083.3" y2="133160" gradientUnits="userSpaceOnUse">
<stop stop-color="#FF9085"/>
<stop offset="1" stop-color="#FB6FBB"/>
</linearGradient>
<linearGradient id="paint41_linear_154_2377" x1="5971.17" y1="126868" x2="13129.1" y2="130315" gradientUnits="userSpaceOnUse">
<stop stop-color="#FF9085"/>
<stop offset="1" stop-color="#FB6FBB"/>
</linearGradient>
<linearGradient id="paint42_linear_154_2377" x1="38152.2" y1="133049" x2="61406.1" y2="153480" gradientUnits="userSpaceOnUse">
<stop stop-color="#FF9085"/>
<stop offset="1" stop-color="#FB6FBB"/>
</linearGradient>
<linearGradient id="paint43_linear_154_2377" x1="18006" y1="50809.7" x2="18996.7" y2="57461.4" gradientUnits="userSpaceOnUse">
<stop stop-color="#AB316D"/>
<stop offset="1" stop-color="#792D3D"/>
</linearGradient>
<linearGradient id="paint44_linear_154_2377" x1="33720.4" y1="132120" x2="56317.6" y2="149581" gradientUnits="userSpaceOnUse">
<stop stop-color="#FF9085"/>
<stop offset="1" stop-color="#FB6FBB"/>
</linearGradient>
<linearGradient id="paint45_linear_154_2377" x1="2237.49" y1="8576.91" x2="2262.3" y2="8586.11" gradientUnits="userSpaceOnUse">
<stop stop-color="#AB316D"/>
<stop offset="1" stop-color="#792D3D"/>
</linearGradient>
<linearGradient id="paint46_linear_154_2377" x1="3059.6" y1="8571.25" x2="3084.41" y2="8580.49" gradientUnits="userSpaceOnUse">
<stop stop-color="#AB316D"/>
<stop offset="1" stop-color="#792D3D"/>
</linearGradient>
<linearGradient id="paint47_linear_154_2377" x1="22988.5" y1="5837" x2="24439.3" y2="14458.9" gradientUnits="userSpaceOnUse">
<stop stop-color="#FFC444"/>
<stop offset="1" stop-color="#F36F56"/>
</linearGradient>
<linearGradient id="paint48_linear_154_2377" x1="23948.2" y1="5470.02" x2="25382.2" y2="13818.6" gradientUnits="userSpaceOnUse">
<stop stop-color="#FFC444"/>
<stop offset="1" stop-color="#F36F56"/>
</linearGradient>
<linearGradient id="paint49_linear_154_2377" x1="24737.8" y1="5132.84" x2="26157.8" y2="13229.4" gradientUnits="userSpaceOnUse">
<stop stop-color="#FFC444"/>
<stop offset="1" stop-color="#F36F56"/>
</linearGradient>
<linearGradient id="paint50_linear_154_2377" x1="25382.3" y1="4818.28" x2="26788.8" y2="12675.6" gradientUnits="userSpaceOnUse">
<stop stop-color="#FFC444"/>
<stop offset="1" stop-color="#F36F56"/>
</linearGradient>
<linearGradient id="paint51_linear_154_2377" x1="88706.7" y1="2175.52" x2="88716.6" y2="2732.72" gradientUnits="userSpaceOnUse">
<stop stop-color="#FF9085"/>
<stop offset="1" stop-color="#FB6FBB"/>
</linearGradient>
<linearGradient id="paint52_linear_154_2377" x1="34646.2" y1="11771.6" x2="31325.2" y2="28415.1" gradientUnits="userSpaceOnUse">
<stop stop-color="#FF9085"/>
<stop offset="1" stop-color="#FB6FBB"/>
</linearGradient>
<linearGradient id="paint53_linear_154_2377" x1="121.306" y1="55.4649" x2="139.454" y2="55.4649" gradientUnits="userSpaceOnUse">
<stop stop-color="#FF9085"/>
<stop offset="1" stop-color="#FB6FBB"/>
</linearGradient>
<linearGradient id="paint54_linear_154_2377" x1="24039.1" y1="17410.4" x2="25506.2" y2="26021.3" gradientUnits="userSpaceOnUse">
<stop stop-color="#FFC444"/>
<stop offset="1" stop-color="#F36F56"/>
</linearGradient>
<linearGradient id="paint55_linear_154_2377" x1="24971" y1="16710.4" x2="26422.6" y2="25054.2" gradientUnits="userSpaceOnUse">
<stop stop-color="#FFC444"/>
<stop offset="1" stop-color="#F36F56"/>
</linearGradient>
<linearGradient id="paint56_linear_154_2377" x1="25726.1" y1="16049.8" x2="27162.7" y2="24139.4" gradientUnits="userSpaceOnUse">
<stop stop-color="#FFC444"/>
<stop offset="1" stop-color="#F36F56"/>
</linearGradient>
<linearGradient id="paint57_linear_154_2377" x1="91695.2" y1="5450.68" x2="91701" y2="5835.06" gradientUnits="userSpaceOnUse">
<stop stop-color="#FF9085"/>
<stop offset="1" stop-color="#FB6FBB"/>
</linearGradient>
<linearGradient id="paint58_linear_154_2377" x1="36376.5" y1="32717.2" x2="33007.4" y2="49632" gradientUnits="userSpaceOnUse">
<stop stop-color="#FF9085"/>
<stop offset="1" stop-color="#FB6FBB"/>
</linearGradient>
<linearGradient id="paint59_linear_154_2377" x1="30863.3" y1="31736" x2="35257.7" y2="31736" gradientUnits="userSpaceOnUse">
<stop stop-color="#FF9085"/>
<stop offset="1" stop-color="#FB6FBB"/>
</linearGradient>
<linearGradient id="paint60_linear_154_2377" x1="27377" y1="11419" x2="28795" y2="19620.1" gradientUnits="userSpaceOnUse">
<stop stop-color="#FFC444"/>
<stop offset="1" stop-color="#F36F56"/>
</linearGradient>
<linearGradient id="paint61_linear_154_2377" x1="28001.6" y1="10902.4" x2="29404.5" y2="18849.5" gradientUnits="userSpaceOnUse">
<stop stop-color="#FFC444"/>
<stop offset="1" stop-color="#F36F56"/>
</linearGradient>
<linearGradient id="paint62_linear_154_2377" x1="28493.3" y1="10422.2" x2="29882.5" y2="18131.4" gradientUnits="userSpaceOnUse">
<stop stop-color="#FFC444"/>
<stop offset="1" stop-color="#F36F56"/>
</linearGradient>
<linearGradient id="paint63_linear_154_2377" x1="28883.6" y1="9966.54" x2="30257.4" y2="17446.8" gradientUnits="userSpaceOnUse">
<stop stop-color="#FFC444"/>
<stop offset="1" stop-color="#F36F56"/>
</linearGradient>
<linearGradient id="paint64_linear_154_2377" x1="29125" y1="9547.65" x2="30488.4" y2="16816.5" gradientUnits="userSpaceOnUse">
<stop stop-color="#FFC444"/>
<stop offset="1" stop-color="#F36F56"/>
</linearGradient>
<linearGradient id="paint65_linear_154_2377" x1="103510" y1="3000.22" x2="103514" y2="3332.7" gradientUnits="userSpaceOnUse">
<stop stop-color="#FF9085"/>
<stop offset="1" stop-color="#FB6FBB"/>
</linearGradient>
<linearGradient id="paint66_linear_154_2377" x1="42291" y1="21913.8" x2="39032.7" y2="37894.7" gradientUnits="userSpaceOnUse">
<stop stop-color="#FF9085"/>
<stop offset="1" stop-color="#FB6FBB"/>
</linearGradient>
<linearGradient id="paint67_linear_154_2377" x1="36531.9" y1="21714.7" x2="40531.6" y2="21714.7" gradientUnits="userSpaceOnUse">
<stop stop-color="#FF9085"/>
<stop offset="1" stop-color="#FB6FBB"/>
</linearGradient>
</defs>
</svg>
