<svg width="278" height="280" viewBox="0 0 278 280" fill="none" xmlns="http://www.w3.org/2000/svg">
<path d="M277.355 0H0V280H277.355V0Z" fill="white"/>
<path d="M221.42 220.87C215.777 226.743 210.729 230.194 206.862 232.8C169.16 258.214 126.064 250.889 112.741 248.385C91.2439 244.346 73.0969 241.497 57.5053 227.275C22.0771 194.962 23.7995 127.554 50.8719 85.7977C54.0813 80.846 81.1118 40.3962 124.303 34.6966C125.359 34.557 126.147 34.4777 126.837 34.4038C133.519 33.6898 174.923 29.9208 208.683 58.4747C213.511 62.566 221.291 69.9351 228.502 81.1796C254.873 122.294 254.957 185.973 221.42 220.87Z" fill="#F4F7FA"/>
<path d="M155.992 199.079C113.451 206.453 100.372 200.74 96.5069 193.872C94.2641 189.882 94.0293 183.546 87.6225 175.548C82.2234 168.807 79.1172 169.224 76.8042 164.056C72.7926 155.09 80.4442 150.05 77.3275 141.368C73.9118 131.866 63.1712 133.539 58.5152 122.189C55.9682 115.979 58.9578 114.932 56.6911 108.743C52.0695 96.1274 38.4544 97.2233 33.9315 85.8452C31.2978 79.2218 32.6531 70.652 36.9854 65.6044C45.6746 55.4799 66.4807 59.3629 78.2523 68.7508C79.7684 69.9584 91.1773 79.3274 92.2822 93.1976C92.9483 101.567 89.3771 105.469 92.3196 110.564C96.471 117.753 105.871 113.961 110 120.343C115.594 128.996 102.325 142.136 108.718 151.874C111.192 155.643 113.808 154.631 116.282 158.959C120.35 166.078 115.609 172.899 116.545 178.825C117.546 185.185 125.483 192.955 155.992 199.079Z" fill="url(#paint0_linear_154_2207)"/>
<g style="mix-blend-mode:soft-light" opacity="0.28">
<path d="M77.3006 88.5281C82.8216 101.387 73.8228 109.514 80.2865 119.658C85.5353 127.896 93.8133 126.212 96.077 133.881C98.245 141.231 91.2342 144.782 93.1525 153.179C94.7336 160.099 100.056 160.134 105.373 169.084C110.725 178.093 108.561 183.495 111.309 188.998C114.26 194.906 122.632 200.446 145.164 200.772C148.543 200.311 152.146 199.752 155.993 199.085C125.484 192.961 117.547 185.191 116.542 178.828C115.606 172.903 120.347 166.081 116.279 158.963C113.805 154.634 111.19 155.647 108.715 151.877C102.322 142.142 115.593 129 109.997 120.347C105.868 113.961 96.4658 117.757 92.3167 110.568C89.3742 105.473 92.9454 101.57 92.2793 93.2013C91.1744 79.3311 79.7654 69.9635 78.2493 68.7545C66.4808 59.3605 45.6777 55.4775 36.9855 65.602C36.9436 65.6503 36.904 65.7016 36.8629 65.753C42.6739 65.9613 49.7961 67.1567 57.1748 70.7077C62.9036 73.4632 72.9011 78.2752 77.3006 88.5281Z" fill="white"/>
</g>
<path d="M142.309 203.513C127.921 199.815 123.836 195.34 123.204 191.581C122.17 185.429 130.462 181.637 129.351 174.626C128.073 166.551 116.006 164.874 116.378 159.564C116.78 153.828 130.986 154.235 133.918 145.973C136.576 138.482 126.328 134.124 126.407 123.244C126.502 110.254 141.175 107.205 143.751 92.4173C145.512 82.32 140.415 73.7366 136.415 67.0007C127.417 51.8445 108.924 37.1087 88.0015 38.6022C85.1473 38.806 68.4895 39.9947 64.3628 49.8551C60.1808 59.849 70.1649 75.6785 80.3799 84.0656C87.781 90.1456 93.986 91.2354 94.3164 96.0196C94.7575 102.472 83.7754 104.831 82.7348 114.234C82.1838 119.206 84.7092 123.453 87.1934 127.63C92.8242 137.099 98.316 136.746 99.1219 141.993C100.224 149.173 90.2914 152.106 88.086 162.847C86.5161 170.5 89.8802 177.17 91.7806 180.928C99.1772 195.578 119.1 203.968 142.309 203.513Z" fill="url(#paint1_linear_154_2207)"/>
<g style="mix-blend-mode:soft-light" opacity="0.7">
<path d="M59.0707 44.8477C68.124 49.0383 77.1613 53.2678 86.1827 57.536C90.7011 59.6492 95.2008 61.8084 99.6639 64.0454C101.898 65.1609 104.125 66.2892 106.337 67.4529C108.549 68.6167 110.748 69.8152 112.885 71.1314C113.954 71.7911 115.008 72.4824 116.019 73.2446C116.527 73.622 117.014 74.0348 117.492 74.4605C117.967 74.8972 118.411 75.3665 118.822 75.865C119.234 76.3767 119.588 76.9337 119.876 77.5254C120.161 78.1213 120.374 78.7494 120.511 79.3963C120.779 80.6812 120.797 82.0062 120.566 83.2982C120.332 84.5858 119.853 85.8084 119.248 86.9412C118.643 88.0741 117.902 89.1186 117.131 90.1209C115.576 92.1239 113.841 93.9412 112.185 95.8069C110.529 97.6726 108.915 99.5729 107.588 101.66C106.926 102.7 106.351 103.793 105.868 104.929C105.403 106.065 105.059 107.248 104.843 108.458C104.461 110.873 104.608 113.4 105.352 115.733C105.739 116.899 106.257 118.016 106.898 119.061C107.535 120.118 108.281 121.106 109.048 122.088C109.814 123.071 110.618 124.045 111.346 125.082C111.72 125.596 112.059 126.139 112.388 126.685C112.711 127.239 113 127.813 113.253 128.404C113.765 129.589 114.101 130.844 114.249 132.128C114.396 133.407 114.393 134.699 114.238 135.977C114.089 137.256 113.776 138.511 113.307 139.709C112.827 140.896 112.226 142.03 111.512 143.091C110.122 145.219 108.395 147.063 107.188 149.204C106.577 150.259 106.157 151.415 105.947 152.619C105.764 153.828 105.791 155.06 106.027 156.259C106.265 157.462 106.692 158.618 107.292 159.685C107.911 160.752 108.64 161.751 109.467 162.664C111.103 164.525 113.012 166.176 114.561 168.2C115.335 169.207 115.999 170.322 116.449 171.528C116.887 172.741 117.111 174.021 117.109 175.312C117.111 176.603 116.879 177.883 116.425 179.089C115.962 180.291 115.276 181.376 114.6 182.427C113.924 183.477 113.272 184.544 113.087 185.742C112.863 186.932 113.141 188.171 113.692 189.251C114.261 190.331 115.062 191.289 115.967 192.127C116.88 192.966 117.86 193.728 118.896 194.405C120.975 195.764 123.191 196.913 125.459 197.937C127.727 198.96 130.044 199.878 132.386 200.725C134.727 201.573 137.096 202.358 139.474 203.085C144.237 204.553 149.053 205.834 153.89 207.029L153.882 207.063C149.035 205.91 144.205 204.672 139.427 203.246C137.034 202.542 134.661 201.775 132.308 200.947C129.955 200.117 127.623 199.223 125.337 198.212C123.051 197.202 120.812 196.073 118.698 194.715C117.637 194.035 116.633 193.268 115.697 192.423C114.762 191.572 113.922 190.59 113.316 189.449C112.726 188.309 112.414 186.967 112.65 185.668C112.738 185.017 112.984 184.404 113.259 183.825C113.533 183.246 113.88 182.71 114.211 182.175C114.884 181.119 115.54 180.062 115.977 178.916C116.404 177.764 116.618 176.542 116.61 175.313C116.606 174.083 116.388 172.865 115.965 171.712C115.516 170.565 114.9 169.493 114.137 168.531C112.626 166.574 110.719 164.938 109.04 163.05C108.181 162.11 107.423 161.081 106.777 159.98C106.142 158.859 105.687 157.643 105.432 156.377C105.175 155.106 105.14 153.8 105.329 152.517C105.545 151.238 105.984 150.008 106.627 148.884C107.246 147.759 108.003 146.737 108.755 145.733C109.507 144.729 110.269 143.743 110.949 142.71C111.633 141.687 112.21 140.596 112.668 139.452C113.113 138.309 113.41 137.112 113.551 135.891C113.829 133.452 113.599 130.928 112.606 128.688C111.651 126.424 110.034 124.509 108.485 122.539C107.711 121.55 106.945 120.536 106.282 119.445C105.609 118.352 105.065 117.183 104.659 115.963C103.872 113.508 103.714 110.877 104.111 108.335C104.335 107.069 104.693 105.831 105.177 104.642C105.674 103.464 106.267 102.331 106.95 101.254C108.313 99.1035 109.946 97.1669 111.613 95.2914C113.279 93.416 114.999 91.6001 116.514 89.6394C117.267 88.6582 117.981 87.6469 118.555 86.5654C119.128 85.4839 119.572 84.342 119.785 83.1556C119.995 81.9677 119.977 80.7501 119.731 79.5692C119.486 78.3943 118.964 77.2961 118.211 76.3669C117.827 75.8977 117.411 75.4556 116.967 75.0439C116.512 74.6363 116.047 74.2378 115.553 73.8688C114.575 73.1216 113.541 72.4348 112.488 71.782C110.38 70.4733 108.196 69.2733 105.997 68.1028C103.799 66.9322 101.578 65.7986 99.3522 64.6763L92.6605 61.3292C90.4335 60.2061 88.1795 59.1405 85.9397 58.0416C76.9652 53.6859 68.0051 49.2982 59.0594 44.8786L59.0707 44.8477Z" fill="white"/>
</g>
<path d="M134.078 199.623C128.825 202.384 123.31 204.603 117.616 206.246C102.531 210.597 76.5799 213.627 67.6619 201.859C66.5659 200.413 63.669 196.59 64.0533 191.869C64.4525 186.959 68.0424 185.444 67.5079 182.375C66.7775 178.178 59.6276 178.497 52.5188 173.68C46.482 169.585 39.2177 160.94 39.9212 150.769C40.6905 139.617 50.5788 133.275 51.6546 132.609C58.963 128.081 70.2269 126.447 77.2691 132.164C83.5003 137.22 84.0834 146.137 84.4684 152.019C85.3394 165.33 79.8244 171.317 83.7956 175.978C87.4132 180.223 93.5494 177.091 97.9467 182.754C99.8261 185.174 99.2923 186.498 102.227 191.234C104.449 194.817 106.849 197.434 107.834 198.362C115.473 205.547 132.563 200.119 134.078 199.623Z" fill="url(#paint2_linear_154_2207)"/>
<g style="mix-blend-mode:soft-light" opacity="0.5">
<path d="M124.623 204.04C117.502 204.045 110.389 203.571 103.33 202.623C82.1973 199.767 79.8088 194.99 79.0238 193.416C77.8045 190.976 78.0258 188.923 78.2605 186.751C78.5237 184.308 78.7965 181.784 77.2139 178.278C75.7673 175.081 73.8819 173.599 72.0555 172.16C70.277 170.76 68.438 169.313 67.0856 166.298C65.3392 162.415 65.87 159.265 66.4292 155.924C66.7357 154.095 67.0527 152.203 67.019 150.083C66.886 141.714 61.1654 133.141 50.0137 124.603L50.1744 124.391C61.3942 132.981 67.1506 141.623 67.2829 150.082C67.3173 152.226 66.9981 154.13 66.6894 155.969C66.1369 159.265 65.6151 162.378 67.3248 166.188C68.651 169.143 70.3824 170.507 72.2163 171.951C74.0658 173.406 75.9774 174.911 77.4494 178.168C79.0657 181.74 78.7764 184.418 78.5222 186.78C78.2919 188.912 78.0736 190.926 79.2585 193.296C80.0278 194.834 82.3685 199.517 103.363 202.353C113.749 203.756 124.445 204.118 135.147 203.429L135.164 203.696C131.647 203.926 128.134 204.04 124.623 204.04Z" fill="white"/>
</g>
<path d="M132.993 232.344L79.2952 228.22V75.6723L132.993 71.6572V232.344Z" fill="url(#paint3_linear_154_2207)"/>
<path d="M83.4458 221.552V82.3486L132.993 78.9863V225.015L83.4458 221.552Z" fill="white"/>
<path d="M169.619 223.579H232.246L232.246 80.6357H169.619V223.579Z" fill="url(#paint4_linear_154_2207)"/>
<path d="M227.169 217.048V87.0654H169.619V217.048H227.169Z" fill="white"/>
<path d="M169.619 223.579L132.993 232.344V71.6572L169.619 80.6346V223.579Z" fill="url(#paint5_linear_154_2207)"/>
<path d="M132.993 225.015V78.9863L169.619 87.1546V217.059L132.993 225.015Z" fill="#D8DEE8"/>
<path d="M245.627 78.2401C245.627 98.2061 217.92 134.64 205.38 150.106C202.26 153.955 196.427 153.955 193.307 150.106C180.767 134.642 153.06 98.2061 153.06 78.2401C153.06 52.4349 173.782 31.5156 199.343 31.5156C224.905 31.5156 245.627 52.4349 245.627 78.2401Z" fill="url(#paint6_linear_154_2207)"/>
<path d="M199.343 104.299C213.599 104.299 225.156 92.6319 225.156 78.24C225.156 63.8481 213.599 52.1812 199.343 52.1812C185.088 52.1812 173.531 63.8481 173.531 78.24C173.531 92.6319 185.088 104.299 199.343 104.299Z" fill="white"/>
<g style="mix-blend-mode:multiply" opacity="0.3">
<path style="mix-blend-mode:multiply" opacity="0.3" d="M199.139 130.921C202.073 111.396 214.846 105.151 212.654 86.7168C210.126 65.458 191.48 59.7961 191.03 40.8753C190.968 37.9038 191.343 34.9394 192.143 32.0791C170.001 35.5712 153.06 54.9078 153.06 78.2399C153.06 98.2059 180.767 134.64 193.307 150.106C194.165 151.166 195.283 151.982 196.55 152.472C197.817 152.962 199.189 153.109 200.53 152.898C198.286 144.349 198.218 137.047 199.139 130.921Z" fill="url(#paint7_linear_154_2207)"/>
</g>
<path d="M199.344 182.388C204.568 182.388 208.804 178.112 208.804 172.838C208.804 167.563 204.568 163.288 199.344 163.288C194.119 163.288 189.884 167.563 189.884 172.838C189.884 178.112 194.119 182.388 199.344 182.388Z" fill="url(#paint8_linear_154_2207)"/>
<path d="M123.223 232.679C109.42 230.986 106.571 234.264 92.5282 233.618C78.7158 232.986 77.7678 229.648 66.4845 230.332C56.3397 230.946 43.2771 234.483 43.2308 238.313C43.1792 242.531 58.8808 248.463 73.9252 246.295C82.2982 245.088 81.7188 242.636 89.7375 241.6C104.265 239.724 108.536 247.47 123.223 245.827C131.72 244.875 140.592 241.128 140.431 238.314C140.227 234.764 125.682 232.981 123.223 232.679Z" fill="#D8DEE8"/>
<path d="M119.518 108.993C118.945 108.109 118.622 107.083 118.585 106.027C118.511 103.275 120.536 101.129 120.807 101.252C120.957 101.318 120.768 102.124 120.664 102.482C120.448 103.226 120.216 103.298 120.234 103.64C120.274 104.343 121.28 104.37 121.81 105.3C122.192 105.972 122.223 106.929 121.81 107.687C121.126 108.948 119.583 108.993 119.518 108.993Z" fill="url(#paint9_linear_154_2207)"/>
<path d="M76.328 168.768L77.1055 166.068L73.861 163.641L71.8387 162.878L73.0364 166.655L76.328 168.768Z" fill="url(#paint10_linear_154_2207)"/>
<path d="M80.344 223.14C80.344 223.14 78.57 227.647 79.0365 229.645C77.1316 229.608 75.8966 229.363 75.8966 229.363C75.8966 229.363 76.6621 227.307 76.8117 226.289C77.0135 224.913 76.9985 222.688 76.9985 222.688L80.344 223.14Z" fill="url(#paint11_linear_154_2207)"/>
<path d="M99.9062 233.682C99.7079 233.914 99.59 234.206 99.5705 234.512C99.5651 234.702 99.5995 234.891 99.6714 235.067C99.9705 235.871 100.449 235.977 100.962 236.83C101.275 237.351 101.216 237.509 101.503 237.744C101.881 238.053 102.339 238.071 102.736 238.076C103.688 238.084 104.641 238.03 105.586 237.913C104.95 237.085 104.272 236.244 103.552 235.393C103.237 235.02 102.921 234.656 102.606 234.301L100.737 233.662L99.9062 233.682Z" fill="#26264F"/>
<path d="M101.463 224.503C101.463 224.503 102.533 230.141 101.171 231.72C100.012 233.299 101.732 232.173 101.732 232.173L103.787 233.984L105.019 236.134C105.019 236.134 103.885 230.616 104.187 228.426C104.489 226.237 104.641 224.759 104.641 224.759L101.463 224.503Z" fill="url(#paint12_linear_154_2207)"/>
<path d="M105.499 162.831C105.499 162.831 108.374 165.429 108.374 176.124C108.374 186.818 107.012 210.037 107.012 210.037L104.833 226.664C104.833 226.664 102.573 226.745 101.06 226.286C99.6976 220.022 97.478 209.427 98.5373 200.566C98.9911 190.941 94.7538 178.871 94.7538 178.871C94.7538 178.871 91.122 191.093 88.5488 197.204C85.9756 203.315 81.0774 222.46 80.6244 223.835C77.6139 224.111 76.328 223.307 76.328 223.307C76.328 223.307 78.2583 202.703 80.0742 194.913C81.8901 187.123 81.739 168.33 84.766 162.982C91.5795 160.234 105.499 162.831 105.499 162.831Z" fill="url(#paint13_linear_154_2207)"/>
<path d="M105.499 162.831C105.499 162.831 108.374 165.429 108.374 176.124C108.374 186.818 107.012 210.037 107.012 210.037L104.833 226.664C104.833 226.664 102.573 226.745 101.06 226.286C99.6976 220.022 97.478 209.427 98.5373 200.566C98.9911 190.941 94.7538 178.871 94.7538 178.871C94.7538 178.871 91.122 191.093 88.5488 197.204C85.9756 203.315 81.0774 222.46 80.6244 223.835C77.6139 224.111 76.328 223.307 76.328 223.307C76.328 223.307 78.2583 202.703 80.0742 194.913C81.8901 187.123 81.739 168.33 84.766 162.982C91.5795 160.234 105.499 162.831 105.499 162.831Z" fill="url(#paint14_linear_154_2207)"/>
<path style="mix-blend-mode:multiply" opacity="0.25" d="M90.5621 182.427C89.665 188.314 87.8708 191.479 83.3852 195.552C79.7968 198.269 82.4881 204.151 81.1425 208.676C80.6939 210.035 79.3483 211.393 78.8997 212.752C77.2318 216.12 78.7898 220.24 78.0333 223.807C76.8566 223.643 76.322 223.312 76.322 223.312C76.322 223.312 78.2523 202.708 80.0682 194.918C81.8841 187.128 81.7331 168.334 84.76 162.987C91.5698 160.237 105.493 162.836 105.493 162.836C105.493 162.836 108.368 165.434 108.368 176.128C108.368 176.996 108.359 177.947 108.343 178.961C105.358 181.628 99.252 182.221 95.4842 179.263C95.2719 179.1 95.0258 178.987 94.7643 178.934C94.753 178.9 94.7448 178.877 94.7448 178.877C94.7448 178.877 94.7388 178.898 94.7291 178.93C93.0246 178.611 90.9508 180.858 90.5621 182.427Z" fill="url(#paint15_linear_154_2207)"/>
<path d="M79.5036 231.356C79.5036 231.356 79.9454 231.356 79.9088 231.933C79.8722 232.51 80.1084 234.494 77.8597 234.587C75.611 234.679 75.2648 234.426 75.1916 234.426C75.1183 234.426 75.7807 232.528 75.7807 232.528L76.4998 231.598L78.4346 231.393L79.5036 231.356Z" fill="#26264F"/>
<path d="M74.5188 233.347C74.5666 232.868 74.832 232.114 75.0989 231.507C75.4959 230.606 75.1737 230.269 75.5475 229.448C75.6783 229.163 75.8061 228.894 76.0835 228.627C76.147 228.566 76.7676 227.987 77.6706 228.017C77.9303 228.014 78.1868 228.075 78.4182 228.194C78.7666 228.381 78.9416 228.663 79.0911 228.91C79.3258 229.299 79.272 229.418 79.6331 230.532C79.6932 230.712 79.7404 230.897 79.7744 231.084C79.8042 231.248 79.8239 231.413 79.8334 231.579C79.2443 231.579 76.9776 231.673 76.4984 232.026C76.0192 232.379 75.7792 232.975 75.7792 233.57C75.7792 234.165 75.4847 234.445 75.1901 234.426C74.9277 234.409 74.4044 233.916 74.5188 233.347Z" fill="#444B8C"/>
<path d="M101.75 230.929C101.244 230.936 100.873 231.343 100.592 232.324C100.312 233.304 98.9672 234.172 100.536 233.964C102.106 233.757 103.245 236.002 103.805 236.832C104.365 237.662 105.87 238.399 105.832 237.587C105.795 236.775 105.131 236.397 104.945 235.567C104.759 234.738 102.905 230.91 101.75 230.929Z" fill="#444B8C"/>
<path d="M75.1378 164.123C74.764 163.078 72.4412 156.213 76.1971 149.952C79.272 144.827 84.5926 143.155 85.3506 142.929C89.9685 141.552 92.283 143.321 93.7401 141.694C96.2131 138.931 93.4119 129.521 87.9948 127.637C81.8878 125.512 74.5621 133.681 71.5935 139.047C67.6985 146.086 68.6569 153.085 68.8827 154.524C69.3485 157.469 70.3507 160.301 71.8387 162.878L75.1378 164.123Z" fill="url(#paint16_linear_154_2207)"/>
<path d="M91.0846 126.309C96.536 126.088 100.74 126.176 103.114 128.573C105.622 131.103 103.088 133.96 103.632 140.579C104.466 150.712 110.862 153.188 111.343 163.469C111.463 166.165 111.169 168.863 110.474 171.469C109.07 173.234 106.773 175.725 103.382 177.808C98.4476 180.838 95.5858 180.31 88.4994 182.268C76.9118 185.471 75.8772 189.287 70.129 188.313C64.3202 187.332 59.2239 182.396 59.8399 179.686C60.2085 178.063 62.5499 178.523 65.2457 176.048C68.7205 172.857 67.3809 169.811 70.0228 166.387C73.8176 161.463 79.1038 164.473 82.3371 160.205C85.6085 155.888 84.3107 147.381 81.5536 142.744C79.7527 139.715 78.9819 136.166 77.4494 132.99C77.2619 132.607 77.1889 132.177 77.2393 131.752C77.4875 129.684 80.9025 128.562 83.4891 127.74C87.4341 126.478 90.636 126.327 91.0846 126.309Z" fill="url(#paint17_linear_154_2207)"/>
<path d="M95.6763 126.081L94.6012 125.747C94.6012 125.747 94.3201 127.216 90.8633 127.4C88.9442 127.4 87.704 126.315 87.704 126.315L86.9698 126.855C86.9698 126.855 88.5809 128.887 91.1444 128.836C94.4517 128.769 95.6763 126.081 95.6763 126.081Z" fill="url(#paint18_linear_154_2207)"/>
<path d="M93.4873 121.611C93.2795 119.997 92.0161 118.963 91.7402 118.743C90.586 117.817 90.3505 117.723 89.9542 117.647L89.413 117.565H89.3532C89.0362 117.585 88.0823 117.959 87.9133 118.081C87.3616 118.473 87.7683 121.251 89.4414 124.699L89.6388 125.575C88.1802 125.834 87.8191 126.099 87.8079 126.311C87.7825 126.771 89.3779 127.357 90.8588 127.395C92.7143 127.443 94.6842 126.64 94.6468 126.037C94.6319 125.793 94.2813 125.493 92.9341 125.198L92.3024 124.302C92.4938 124.067 93.6398 122.8 93.4873 121.611Z" fill="url(#paint19_linear_154_2207)"/>
<path d="M91.193 121.004C90.7721 120.749 90.4521 121.296 90.6502 121.773C90.8483 122.251 91.5145 122.55 91.9212 122.265C92.3279 121.981 91.7597 121.345 91.193 121.004Z" fill="url(#paint20_linear_154_2207)"/>
<path d="M36.6445 120.995C42.1841 114.927 55.074 116.591 62.2232 121.465C65.5455 123.729 67.25 126.405 71.1756 126.629C74.16 126.8 78.9072 125.668 81.4071 122.403C81.7226 121.992 82.9823 120.268 84.8737 118.094C85.708 117.135 86.537 116.235 87.8229 116.032C88.1496 115.98 89.2358 115.805 89.9543 116.51C90.5359 117.084 90.6787 118.081 90.5067 118.801C90.4036 119.231 90.2705 119.277 90.2899 119.556C90.343 120.347 91.7702 120.688 91.6909 121.091C91.6341 121.375 90.891 121.271 90.7631 121.628C90.6233 122.02 91.436 122.357 91.7896 123.342C92.4467 123.786 92.8616 124.89 93.0052 126.367C93.216 128.54 92.9999 130.306 92.5918 131.635C90.6286 138.036 89.2276 142.615 85.8253 145.172C81.3256 148.557 77.2737 145.432 65.8273 144.937C50.1541 144.258 46.2457 149.624 40.6127 145.955C33.5786 141.377 30.8925 127.297 36.6445 120.995Z" fill="url(#paint21_linear_154_2207)"/>
<path d="M118.855 108.608C118.995 109.932 119.467 115.789 115.466 120.734C111.728 125.355 106.431 126.278 105.448 126.428C100.687 127.154 98.6337 125.083 96.9696 126.494C94.1467 128.889 95.6464 138.597 100.758 141.211C106.519 144.159 114.883 137.078 118.55 132.172C123.362 125.736 123.359 118.674 123.335 117.216C123.273 114.234 122.665 111.29 121.541 108.532C120.663 108.264 119.723 108.29 118.862 108.607L118.855 108.608Z" fill="url(#paint22_linear_154_2207)"/>
<path style="mix-blend-mode:multiply" opacity="0.3" d="M69.9548 184.438C71.3491 182.995 69.8143 180.086 71.8731 177.923C73.784 175.915 75.9475 177.537 79.0238 175.81C82.9696 173.594 81.8818 169.539 85.6512 167.357C88.3612 165.789 89.6351 167.475 93.8477 166.653C98.0604 165.831 103.177 162.905 105.707 157.672C106.666 155.671 107.186 153.486 107.231 151.264C109.123 154.676 111.086 157.946 111.343 163.463C111.462 166.159 111.169 168.858 110.473 171.463C109.069 173.229 106.772 175.719 103.381 177.803C98.4469 180.833 95.5851 180.305 88.4987 182.262C76.9111 185.465 75.8765 189.281 70.1282 188.308C66.4165 187.68 63.003 185.44 61.1774 183.194C66.5353 185.604 68.9433 185.484 69.9548 184.438Z" fill="url(#paint23_linear_154_2207)"/>
<defs>
<linearGradient id="paint0_linear_154_2207" x1="262731" y1="199507" x2="178327" y2="309172" gradientUnits="userSpaceOnUse">
<stop stop-color="#E38DDD"/>
<stop offset="1" stop-color="#9571F6"/>
</linearGradient>
<linearGradient id="paint1_linear_154_2207" x1="99.8815" y1="39.0362" x2="112.262" y2="140.859" gradientUnits="userSpaceOnUse">
<stop stop-color="#AA80F9"/>
<stop offset="1" stop-color="#6165D7"/>
</linearGradient>
<linearGradient id="paint2_linear_154_2207" x1="88.6123" y1="160.202" x2="79.434" y2="243.483" gradientUnits="userSpaceOnUse">
<stop stop-color="#E38DDD"/>
<stop offset="1" stop-color="#9571F6"/>
</linearGradient>
<linearGradient id="paint3_linear_154_2207" x1="79.2952" y1="152.001" x2="132.993" y2="152.001" gradientUnits="userSpaceOnUse">
<stop stop-color="#FF9085"/>
<stop offset="1" stop-color="#FB6FBB"/>
</linearGradient>
<linearGradient id="paint4_linear_154_2207" x1="156574" y1="218079" x2="331612" y2="415611" gradientUnits="userSpaceOnUse">
<stop stop-color="#FF9085"/>
<stop offset="1" stop-color="#FB6FBB"/>
</linearGradient>
<linearGradient id="paint5_linear_154_2207" x1="57935.8" y1="323500" x2="91248.2" y2="323547" gradientUnits="userSpaceOnUse">
<stop stop-color="#FF9085"/>
<stop offset="1" stop-color="#FB6FBB"/>
</linearGradient>
<linearGradient id="paint6_linear_154_2207" x1="193.373" y1="61.2764" x2="240.758" y2="182.175" gradientUnits="userSpaceOnUse">
<stop stop-color="#FCB148"/>
<stop offset="0.05" stop-color="#FDBA46"/>
<stop offset="0.14" stop-color="#FFC244"/>
<stop offset="0.32" stop-color="#FFC444"/>
<stop offset="0.48" stop-color="#FDB946"/>
<stop offset="0.78" stop-color="#F99C4D"/>
<stop offset="0.87" stop-color="#F8924F"/>
<stop offset="1" stop-color="#F8924F"/>
</linearGradient>
<linearGradient id="paint7_linear_154_2207" x1="141589" y1="108683" x2="250097" y2="247014" gradientUnits="userSpaceOnUse">
<stop stop-color="#FCB148"/>
<stop offset="0.05" stop-color="#FDBA46"/>
<stop offset="0.14" stop-color="#FFC244"/>
<stop offset="0.32" stop-color="#FFC444"/>
<stop offset="0.48" stop-color="#FDB946"/>
<stop offset="0.78" stop-color="#F99C4D"/>
<stop offset="0.87" stop-color="#F8924F"/>
<stop offset="1" stop-color="#F8924F"/>
</linearGradient>
<linearGradient id="paint8_linear_154_2207" x1="53709.9" y1="39200.6" x2="45946.9" y2="50872.6" gradientUnits="userSpaceOnUse">
<stop stop-color="#FCB148"/>
<stop offset="0.05" stop-color="#FDBA46"/>
<stop offset="0.14" stop-color="#FFC244"/>
<stop offset="0.32" stop-color="#FFC444"/>
<stop offset="0.48" stop-color="#FDB946"/>
<stop offset="0.78" stop-color="#F99C4D"/>
<stop offset="0.87" stop-color="#F8924F"/>
<stop offset="1" stop-color="#F8924F"/>
</linearGradient>
<linearGradient id="paint9_linear_154_2207" x1="119.354" y1="103.794" x2="122.517" y2="108.862" gradientUnits="userSpaceOnUse">
<stop stop-color="#FFC444"/>
<stop offset="1" stop-color="#F36F56"/>
</linearGradient>
<linearGradient id="paint10_linear_154_2207" x1="18759.3" y1="12969.1" x2="18865.3" y2="13163.9" gradientUnits="userSpaceOnUse">
<stop stop-color="#FFC444"/>
<stop offset="1" stop-color="#F36F56"/>
</linearGradient>
<linearGradient id="paint11_linear_154_2207" x1="-9861.31" y1="21491.1" x2="-9861.31" y2="20734.6" gradientUnits="userSpaceOnUse">
<stop stop-color="#FFC444"/>
<stop offset="1" stop-color="#F36F56"/>
</linearGradient>
<linearGradient id="paint12_linear_154_2207" x1="-8031.47" y1="36138.3" x2="-8031.47" y2="34614.4" gradientUnits="userSpaceOnUse">
<stop stop-color="#FFC444"/>
<stop offset="1" stop-color="#F36F56"/>
</linearGradient>
<linearGradient id="paint13_linear_154_2207" x1="108.374" y1="194.197" x2="76.3288" y2="194.197" gradientUnits="userSpaceOnUse">
<stop stop-color="#311944"/>
<stop offset="1" stop-color="#893976"/>
</linearGradient>
<linearGradient id="paint14_linear_154_2207" x1="58959.1" y1="146528" x2="81377.9" y2="165107" gradientUnits="userSpaceOnUse">
<stop stop-color="#311944"/>
<stop offset="1" stop-color="#893976"/>
</linearGradient>
<linearGradient id="paint15_linear_154_2207" x1="62855.3" y1="135575" x2="84443.7" y2="154292" gradientUnits="userSpaceOnUse">
<stop stop-color="#311944"/>
<stop offset="1" stop-color="#893976"/>
</linearGradient>
<linearGradient id="paint16_linear_154_2207" x1="-12192.4" y1="113572" x2="-944.956" y2="90955" gradientUnits="userSpaceOnUse">
<stop stop-color="#FFC444"/>
<stop offset="1" stop-color="#F36F56"/>
</linearGradient>
<linearGradient id="paint17_linear_154_2207" x1="162213" y1="105709" x2="185094" y2="144702" gradientUnits="userSpaceOnUse">
<stop stop-color="#FFC444"/>
<stop offset="1" stop-color="#F36F56"/>
</linearGradient>
<linearGradient id="paint18_linear_154_2207" x1="-17587.5" y1="5104.26" x2="-17679.7" y2="5517.6" gradientUnits="userSpaceOnUse">
<stop stop-color="#E38DDD"/>
<stop offset="1" stop-color="#9571F6"/>
</linearGradient>
<linearGradient id="paint19_linear_154_2207" x1="-14571.4" y1="15807.2" x2="-13813.9" y2="16675.5" gradientUnits="userSpaceOnUse">
<stop stop-color="#FFC444"/>
<stop offset="1" stop-color="#F36F56"/>
</linearGradient>
<linearGradient id="paint20_linear_154_2207" x1="-2531.59" y1="1466.17" x2="-2476.84" y2="1643.2" gradientUnits="userSpaceOnUse">
<stop stop-color="#FFC444"/>
<stop offset="1" stop-color="#F36F56"/>
</linearGradient>
<linearGradient id="paint21_linear_154_2207" x1="92.0423" y1="84.1562" x2="47.8598" y2="153.718" gradientUnits="userSpaceOnUse">
<stop stop-color="#444B8C"/>
<stop offset="1" stop-color="#26264F"/>
</linearGradient>
<linearGradient id="paint22_linear_154_2207" x1="86393.9" y1="57568.5" x2="98534.8" y2="78233.1" gradientUnits="userSpaceOnUse">
<stop stop-color="#FFC444"/>
<stop offset="1" stop-color="#F36F56"/>
</linearGradient>
<linearGradient id="paint23_linear_154_2207" x1="155447" y1="64119.9" x2="165441" y2="91847.3" gradientUnits="userSpaceOnUse">
<stop stop-color="#FFC444"/>
<stop offset="1" stop-color="#F36F56"/>
</linearGradient>
</defs>
</svg>
