<svg width="52" height="52" viewBox="0 0 52 52" fill="none" xmlns="http://www.w3.org/2000/svg">
<rect width="52" height="52" fill="white"/>
<path d="M51.1613 5.87078V10.903H10.9032V5.87078C10.9032 4.9482 11.6581 4.19336 12.5806 4.19336H15.9355V6.70949C15.9355 7.17078 16.3129 7.5482 16.7742 7.5482H18.4516C18.9129 7.5482 19.2903 7.17078 19.2903 6.70949V4.19336H22.6452V6.70949C22.6452 7.17078 23.0226 7.5482 23.4839 7.5482H25.1613C25.6226 7.5482 26 7.17078 26 6.70949V4.19336H36.0645V6.70949C36.0645 7.17078 36.4419 7.5482 36.9032 7.5482H38.5806C39.0419 7.5482 39.4194 7.17078 39.4194 6.70949V4.19336H42.7742V6.70949C42.7742 7.17078 43.1516 7.5482 43.6129 7.5482H45.2903C45.7516 7.5482 46.129 7.17078 46.129 6.70949V4.19336H49.4839C50.4065 4.19336 51.1613 4.9482 51.1613 5.87078Z" fill="#41B7E9"/>
<path d="M49.4839 3.35484H46.9678V2.51613C46.9678 1.1289 45.8388 0 44.4516 0C43.0644 0 41.9355 1.1289 41.9355 2.51613V3.35484H40.2581V2.51613C40.2581 1.1289 39.1292 0 37.7419 0C36.3547 0 35.2258 1.1289 35.2258 2.51613V3.35484H26.8387V2.51613C26.8387 1.1289 25.7098 0 24.3226 0C22.9354 0 21.8065 1.1289 21.8065 2.51613V3.35484H20.129V2.51613C20.129 1.1289 19.0001 0 17.6129 0C16.2257 0 15.0968 1.1289 15.0968 2.51613V3.35484H12.5807C11.1934 3.35484 10.0645 4.48374 10.0645 5.87097V21.8065H6.70969V26.8387H8.38711V29.4974H10.0645V26.8387H13.4194V29.4974H15.0968V26.8387H16.7742V21.8065H11.7419V5.87097C11.7419 5.408 12.1185 5.03226 12.5807 5.03226H15.0968V6.70968C15.0968 7.63477 15.8491 8.3871 16.7742 8.3871H18.4516C19.3767 8.3871 20.129 7.63477 20.129 6.70968V5.03226H21.8065V6.70968C21.8065 7.63477 22.5588 8.3871 23.4839 8.3871H25.1613C26.0864 8.3871 26.8387 7.63477 26.8387 6.70968V5.03226H35.2258V6.70968C35.2258 7.63477 35.9781 8.3871 36.9032 8.3871H38.5807C39.5057 8.3871 40.2581 7.63477 40.2581 6.70968V5.03226H41.9355V6.70968C41.9355 7.63477 42.6878 8.3871 43.6129 8.3871H45.2903C46.2154 8.3871 46.9678 7.63477 46.9678 6.70968V5.03226H49.4839C49.946 5.03226 50.3226 5.408 50.3226 5.87097V36.0645C50.3226 36.5275 49.946 36.9032 49.4839 36.9032H22.3533V38.5806H49.4839C50.8711 38.5806 52 37.4517 52 36.0645V5.87097C52 4.48374 50.8711 3.35484 49.4839 3.35484ZM15.0968 23.4839V25.1613H8.38711V23.4839H15.0968ZM16.7742 6.70968V2.51613C16.7742 2.05316 17.1508 1.67742 17.6129 1.67742C18.075 1.67742 18.4516 2.05316 18.4516 2.51613L18.4525 6.70968H16.7742ZM23.4839 6.70968V2.51613C23.4839 2.05316 23.8605 1.67742 24.3226 1.67742C24.7847 1.67742 25.1613 2.05316 25.1613 2.51613L25.1621 6.70968H23.4839ZM36.9032 6.70968V2.51613C36.9032 2.05316 37.2798 1.67742 37.7419 1.67742C38.2041 1.67742 38.5807 2.05316 38.5807 2.51613L38.5815 6.70968H36.9032ZM43.6129 6.70968V2.51613C43.6129 2.05316 43.9895 1.67742 44.4516 1.67742C44.9137 1.67742 45.2903 2.05316 45.2903 2.51613L45.2912 6.70968H43.6129Z" fill="#1F2428"/>
<path d="M46.9677 35.2259H20.9677V33.5485H45.2903V15.0969H16.7742V20.0754H15.0968V13.4194H46.9677V35.2259Z" fill="#1F2428"/>
<path d="M31.0323 23.4841C30.1072 23.4841 29.3548 22.7318 29.3548 21.8067C29.3548 20.8816 30.1072 20.1293 31.0323 20.1293C31.9574 20.1293 32.7097 20.8816 32.7097 21.8067H34.3871C34.3871 20.2475 33.3136 18.9458 31.871 18.5709V16.7744H30.1936V18.5709C28.751 18.9458 27.6774 20.2475 27.6774 21.8067C27.6774 23.6569 29.1821 25.1615 31.0323 25.1615C31.9574 25.1615 32.7097 25.9138 32.7097 26.8389C32.7097 27.764 31.9574 28.5163 31.0323 28.5163C30.1072 28.5163 29.3548 27.764 29.3548 26.8389H27.6774C27.6774 28.3981 28.751 29.6998 30.1936 30.0747V31.8712H31.871V30.0747C33.3136 29.6998 34.3871 28.3981 34.3871 26.8389C34.3871 24.9887 32.8825 23.4841 31.0323 23.4841Z" fill="#1F2428"/>
<path d="M11.7419 28.5161C5.25703 28.5161 0 33.7731 0 40.258C0 46.743 5.25703 52 11.7419 52C18.2268 52 23.4839 46.743 23.4839 40.258C23.4839 33.7731 18.2268 28.5161 11.7419 28.5161ZM11.7419 47.8064C7.57271 47.8064 4.19355 44.4273 4.19355 40.258C4.19355 36.0888 7.57271 32.7097 11.7419 32.7097C15.9112 32.7097 19.2903 36.0888 19.2903 40.258C19.2903 44.4273 15.9112 47.8064 11.7419 47.8064Z" fill="#41B7E9"/>
<path d="M11.7419 48.6453C7.11728 48.6453 3.35483 44.8828 3.35483 40.2582C3.35483 35.6335 7.11728 31.8711 11.7419 31.8711C16.3666 31.8711 20.129 35.6335 20.129 40.2582C20.129 44.8828 16.3666 48.6453 11.7419 48.6453ZM11.7419 33.5485C8.04238 33.5485 5.03225 36.5586 5.03225 40.2582C5.03225 43.9577 8.04238 46.9679 11.7419 46.9679C15.4415 46.9679 18.4516 43.9577 18.4516 40.2582C18.4516 36.5586 15.4415 33.5485 11.7419 33.5485Z" fill="#1F2428"/>
<path d="M10.6575 42.5282L9.47156 41.3423L10.9032 39.9106V35.2256H12.5807V40.6051L10.6575 42.5282Z" fill="#1F2428"/>
</svg>
