<svg width="66" height="66" viewBox="0 0 66 66" fill="none" xmlns="http://www.w3.org/2000/svg">
<circle cx="33" cy="33" r="32.25" stroke="white" stroke-width="1.5"/>
<path d="M26.4478 46.9655C26.3142 46.9655 26.1797 46.9355 26.0534 46.8755C25.7399 46.7237 25.5391 46.4066 25.5391 46.0568V41.5133H22.813C21.31 41.5133 20.0869 40.2902 20.0869 38.7872V24.2481C20.0869 22.7451 21.31 21.522 22.813 21.522H44.6217C46.1247 21.522 47.3478 22.7451 47.3478 24.2481V38.7872C47.3478 40.2902 46.1247 41.5133 44.6217 41.5133H33.582L27.0157 46.7664C26.8512 46.8982 26.6504 46.9655 26.4478 46.9655ZM22.813 23.3394C22.3114 23.3394 21.9043 23.7474 21.9043 24.2481V38.7872C21.9043 39.2879 22.3114 39.6959 22.813 39.6959H26.4478C26.9503 39.6959 27.3565 40.1021 27.3565 40.6046V44.1667L32.6951 39.8949C32.8568 39.7659 33.0558 39.6959 33.263 39.6959H44.6217C45.1233 39.6959 45.5304 39.2879 45.5304 38.7872V24.2481C45.5304 23.7474 45.1233 23.3394 44.6217 23.3394H22.813Z" fill="white"/>
<path d="M40.9869 30.6094H26.4478C25.9452 30.6094 25.5391 30.2023 25.5391 29.7007C25.5391 29.1991 25.9452 28.792 26.4478 28.792H40.9869C41.4894 28.792 41.8956 29.1991 41.8956 29.7007C41.8956 30.2023 41.4894 30.6094 40.9869 30.6094Z" fill="white"/>
<path d="M33.7173 34.2437H26.4478C25.9452 34.2437 25.5391 33.8366 25.5391 33.335C25.5391 32.8334 25.9452 32.4263 26.4478 32.4263H33.7173C34.2198 32.4263 34.626 32.8334 34.626 33.335C34.626 33.8366 34.2198 34.2437 33.7173 34.2437Z" fill="white"/>
</svg>
