<svg width="26" height="26" viewBox="0 0 26 26" fill="none" xmlns="http://www.w3.org/2000/svg">
<path d="M1.625 21.9358H24.375" stroke="#1F2428" stroke-linecap="round" stroke-linejoin="round"/>
<path d="M14.6244 21.9358V4.06079C14.6244 3.8453 14.5388 3.63864 14.3864 3.48627C14.234 3.33389 14.0274 3.24829 13.8119 3.24829H4.06189C3.8464 3.24829 3.63974 3.33389 3.48737 3.48627C3.33499 3.63864 3.24939 3.8453 3.24939 4.06079V21.9358" stroke="#1F2428" stroke-linecap="round" stroke-linejoin="round"/>
<path d="M22.7494 21.9358V10.5608C22.7494 10.3453 22.6638 10.1386 22.5114 9.98627C22.359 9.83389 22.1524 9.74829 21.9369 9.74829H14.6244" stroke="#1F2428" stroke-linecap="round" stroke-linejoin="round"/>
<path d="M6.49939 7.31079H9.74939" stroke="#1F2428" stroke-linecap="round" stroke-linejoin="round"/>
<path d="M8.12439 13.8108H11.3744" stroke="#1F2428" stroke-linecap="round" stroke-linejoin="round"/>
<path d="M6.49939 17.8733H9.74939" stroke="#1F2428" stroke-linecap="round" stroke-linejoin="round"/>
<path d="M17.8744 17.8733H19.4994" stroke="#1F2428" stroke-linecap="round" stroke-linejoin="round"/>
<path d="M17.8744 13.8108H19.4994" stroke="#1F2428" stroke-linecap="round" stroke-linejoin="round"/>
</svg>
