<svg width="52" height="52" viewBox="0 0 52 52" fill="none" xmlns="http://www.w3.org/2000/svg">
<rect width="52" height="52" fill="white"/>
<path d="M20.9677 51.9999C9.40613 51.9999 0 42.5938 0 31.0322C0 19.4706 9.40613 10.0645 20.9677 10.0645C32.5294 10.0645 41.9355 19.4706 41.9355 31.0322C41.9355 42.5938 32.5294 51.9999 20.9677 51.9999ZM20.9677 14.258C11.7185 14.258 4.19355 21.7829 4.19355 31.0322C4.19355 40.2815 11.7185 47.8064 20.9677 47.8064C30.217 47.8064 37.7419 40.2815 37.7419 31.0322C37.7419 21.7829 30.217 14.258 20.9677 14.258Z" fill="#41B7E9"/>
<path d="M50.3226 0H33.5484C32.6233 0 31.871 0.752322 31.871 1.67742V4.12897C26.2214 2.68723 20.0074 3.3171 14.7219 5.95903L15.4901 7.45026C20.5215 4.93581 26.4965 4.38645 31.871 5.87013V13.1292C32.4488 13.4823 33.0091 13.863 33.5484 14.269V1.67742H38.5806V5.03226C38.5806 5.95735 39.333 6.70968 40.2581 6.70968H43.6129C44.538 6.70968 45.2903 5.95735 45.2903 5.03226V1.67742H50.3226V18.4516H37.7302C38.1361 18.9909 38.5169 19.5512 38.87 20.129H47.2713C48.1797 22.6284 48.6452 25.2527 48.6452 27.9416C48.6452 35.5747 45.9646 42.9872 41.0968 48.8599V43.6129H39.4193V52H46.9677V50.3226H42.0663L42.1686 50.201C47.4265 43.9878 50.3226 36.0821 50.3226 27.9416C50.3226 25.2603 49.8957 22.6385 49.0536 20.129H50.3226C51.2477 20.129 52 19.3767 52 18.4516V1.67742C52 0.752322 51.2477 0 50.3226 0ZM43.6129 5.03226H40.2581V1.67742H43.6129V5.03226Z" fill="#1F2428"/>
<path d="M20.9678 13.4194C11.2563 13.4194 3.35486 21.3209 3.35486 31.0323C3.35486 40.7438 11.2563 48.6452 20.9678 48.6452C30.6792 48.6452 38.5807 40.7438 38.5807 31.0323C38.5807 21.3209 30.6792 13.4194 20.9678 13.4194ZM36.8605 31.871C36.6634 35.6318 35.1629 39.0445 32.7952 41.6739L30.4561 39.3347L29.2701 40.5207L31.6093 42.8598C28.98 45.2283 25.5672 46.728 21.8065 46.925V43.613H20.1291V46.925C16.3683 46.728 12.9556 45.2275 10.3262 42.8598L12.6654 40.5207L11.4794 39.3347L9.14028 41.6739C6.77176 39.0445 5.27215 35.6318 5.07505 31.871H8.38712V30.1936H5.07505C5.27215 26.4329 6.7726 23.0201 9.14028 20.3908L11.4794 22.7299L12.6654 21.544L10.3262 19.2049C12.9556 16.8363 16.3683 15.3367 20.1291 15.1396V18.4517H21.8065V15.1396C25.5672 15.3367 28.98 16.8372 31.6093 19.2049L29.2701 21.544L30.4561 22.7299L32.7952 20.3908C35.1638 23.0201 36.6634 26.4329 36.8605 30.1936H33.5484V31.871H36.8605Z" fill="#1F2428"/>
<path d="M25.1613 18.4517H26.8387V20.1291H25.1613V18.4517Z" fill="#1F2428"/>
<path d="M25.1613 41.9355H26.8387V43.613H25.1613V41.9355Z" fill="#1F2428"/>
<path d="M31.871 25.1611H33.5484V26.8386H31.871V25.1611Z" fill="#1F2428"/>
<path d="M31.871 35.2256H33.5484V36.903H31.871V35.2256Z" fill="#1F2428"/>
<path d="M15.0968 18.4517H16.7742V20.1291H15.0968V18.4517Z" fill="#1F2428"/>
<path d="M15.0968 41.9355H16.7742V43.613H15.0968V41.9355Z" fill="#1F2428"/>
<path d="M8.38708 25.1611H10.0645V26.8386H8.38708V25.1611Z" fill="#1F2428"/>
<path d="M8.38708 35.2256H10.0645V36.903H8.38708V35.2256Z" fill="#1F2428"/>
<path d="M28.673 18.8032L22.6695 27.2079C22.1478 26.9748 21.575 26.8389 20.9678 26.8389C20.1148 26.8389 19.3222 27.0981 18.6588 27.5375L14.0124 22.8911L12.8264 24.077L17.4729 28.7235C17.0334 29.3869 16.7742 30.1795 16.7742 31.0324C16.7742 32.735 17.7983 34.1969 19.2593 34.8536L18.4718 38.3988L20.1098 38.7628L20.8973 35.2193C20.9208 35.2193 20.9434 35.226 20.9678 35.226C23.2801 35.226 25.1613 33.3448 25.1613 31.0324C25.1613 29.9321 24.726 28.9365 24.0299 28.1875L30.0367 19.7778L28.673 18.8032ZM20.9678 33.5486C19.5805 33.5486 18.4516 32.4197 18.4516 31.0324C18.4516 29.6452 19.5805 28.5163 20.9678 28.5163C22.355 28.5163 23.4839 29.6452 23.4839 31.0324C23.4839 32.4197 22.355 33.5486 20.9678 33.5486Z" fill="#1F2428"/>
<path d="M40.2581 15.0967H41.9355V16.7741H40.2581V15.0967Z" fill="#1F2428"/>
<path d="M43.6129 15.0967H45.2903V16.7741H43.6129V15.0967Z" fill="#1F2428"/>
<path d="M46.9678 15.0967H48.6452V16.7741H46.9678V15.0967Z" fill="#1F2428"/>
<path d="M5.03226 14.2578C5.03226 12.8706 3.90335 11.7417 2.51613 11.7417C1.1289 11.7417 0 12.8706 0 14.2578C0 15.6451 1.1289 16.774 2.51613 16.774C3.90335 16.774 5.03226 15.6451 5.03226 14.2578ZM2.51613 15.0965C2.05316 15.0965 1.67742 14.7208 1.67742 14.2578C1.67742 13.7949 2.05316 13.4191 2.51613 13.4191C2.9791 13.4191 3.35484 13.7949 3.35484 14.2578C3.35484 14.7208 2.9791 15.0965 2.51613 15.0965Z" fill="#1F2428"/>
<path d="M7.54842 11.7417C8.93564 11.7417 10.0645 10.6128 10.0645 9.2256C10.0645 7.83838 8.93564 6.70947 7.54842 6.70947C6.16119 6.70947 5.03229 7.83838 5.03229 9.2256C5.03229 10.6128 6.16119 11.7417 7.54842 11.7417ZM7.54842 8.38689C8.01138 8.38689 8.38713 8.76263 8.38713 9.2256C8.38713 9.68857 8.01138 10.0643 7.54842 10.0643C7.08545 10.0643 6.70971 9.68857 6.70971 9.2256C6.70971 8.76263 7.08545 8.38689 7.54842 8.38689Z" fill="#1F2428"/>
<path d="M11.7419 6.70947H13.4194V8.38689H11.7419V6.70947Z" fill="#1F2428"/>
</svg>
