<svg width="52" height="52" viewBox="0 0 52 52" fill="none" xmlns="http://www.w3.org/2000/svg">
<rect width="52" height="52" fill="white"/>
<path d="M26 41.0968H27.6774V36.0645H29.3548V31.0323H36.0645V36.0645H37.7419V37.9692C40.8443 34.9256 42.7742 30.6901 42.7742 26C42.7742 16.7356 35.2644 9.22583 26 9.22583C23.3899 9.22583 20.9283 9.83977 18.725 10.9032H26V13.4194L20.0997 15.6319L20.098 15.6269C20.1164 15.7267 20.129 15.8298 20.129 15.9355C20.129 16.8623 19.3784 17.6129 18.4516 17.6129C17.5651 17.6129 16.8472 16.9227 16.7859 16.0521C15.9598 17.0141 14.7487 17.6129 13.4193 17.6129C12.8146 17.6129 12.2384 17.4779 11.7059 17.2548C10.1433 19.8036 9.2258 22.7911 9.2258 26C9.2258 35.2644 16.7356 42.7742 26 42.7742C26.0721 42.7742 26.1417 42.7642 26.2139 42.7633C26.0772 42.2299 26 41.673 26 41.0968Z" fill="#41B7E9"/>
<path d="M43.6188 48.6453C42.8597 48.6453 42.5922 48.7753 41.9321 49.1518C41.0683 49.6458 39.8865 50.3227 37.7486 50.3227C35.6125 50.3227 34.4282 49.6467 33.5635 49.1527C32.9026 48.7753 32.6359 48.6453 31.8743 48.6453C31.1128 48.6453 30.8452 48.7753 30.1843 49.1527C29.3205 49.6467 28.1362 50.3227 26 50.3227V52.0001C28.5815 52.0001 30.1063 51.1295 31.0163 50.6095C31.5187 50.3227 31.5187 50.3227 31.8743 50.3227C32.2299 50.3227 32.2299 50.3227 32.7315 50.6095C33.6423 51.1295 35.1671 52.0001 37.7486 52.0001C40.3319 52.0001 41.855 51.1287 42.765 50.6087C43.2657 50.3227 43.2657 50.3227 43.6188 50.3227C43.971 50.3227 43.971 50.3227 44.4717 50.6095C45.3817 51.1295 46.9048 52.0001 49.4839 52.0001V50.3227C47.3502 50.3227 46.1676 49.6467 45.3029 49.1518C44.6437 48.7753 44.3778 48.6453 43.6188 48.6453Z" fill="#1F2428"/>
<path d="M10.9032 11.7419H15.9355V13.4194H10.9032V11.7419Z" fill="#1F2428"/>
<path d="M52 37.7418V36.9031H50.3226V30.1935H48.6452V26.8386H46.9677V30.1935H45.2903V28.516H43.6129V30.1935H42.0336L41.1949 36.9031H39.8387L38.5806 38.5806V35.2257H36.9032V30.1935H28.5161V35.2257H26.8387V40.258H25.1613V41.0967C25.1613 43.2656 26.0788 45.2642 27.6497 46.6808C27.222 46.8528 26.7221 46.9677 26 46.9677V48.6451C27.6917 48.6451 28.574 48.141 29.3532 47.6957C30.0367 47.3048 30.6288 46.9677 31.8743 46.9677C33.1198 46.9677 33.7111 47.3048 34.3955 47.6957C35.1738 48.141 36.057 48.6451 37.7486 48.6451C39.4395 48.6451 40.3218 48.1402 41.1001 47.6957C41.7837 47.3048 42.3741 46.9677 43.6188 46.9677C44.8617 46.9677 45.453 47.3048 46.1357 47.6957C46.9132 48.1402 47.7947 48.6451 49.4839 48.6451V46.9677C48.5856 46.9677 48.0295 46.7907 47.5313 46.5449C50.3192 44.5077 52 41.2535 52 37.7418ZM43.5148 31.8709H48.6452V36.9031H42.8857L43.5148 31.8709ZM30.1935 31.8709H35.2258V35.2257H30.1935V31.8709ZM28.5161 36.9031H36.9032V40.258H28.5161V36.9031ZM40.2681 46.2397C39.5837 46.6305 38.9933 46.9677 37.7486 46.9677C36.5032 46.9677 35.9119 46.6305 35.2275 46.2397C34.4483 45.7943 33.566 45.2902 31.8743 45.2902C30.6859 45.2902 29.9 45.5402 29.2651 45.8429C27.9684 44.9028 27.1197 43.5055 26.8974 41.9354H38.1613L40.6774 38.5806H50.2848C50.0181 41.5169 48.3524 44.1437 45.8003 45.6618C45.24 45.4479 44.5564 45.2902 43.6188 45.2902C41.9288 45.2902 41.0456 45.7943 40.2681 46.2397Z" fill="#1F2428"/>
<path d="M10.0737 35.2258H19.2643C19.8749 38.5068 20.8042 41.3098 21.9759 43.2229L23.4059 42.3473C22.3659 40.6481 21.5305 38.1605 20.9627 35.2258H25.1613V33.5484H20.675C20.3597 31.4558 20.1752 29.1854 20.1391 26.8387H31.8525C31.8441 27.3881 31.8399 27.9425 31.8156 28.475L33.4914 28.5522C33.5165 27.9936 33.5215 27.4141 33.5299 26.8387H46.129V26C46.129 14.9014 37.0986 5.87097 26 5.87097C24.5222 5.87097 23.0477 6.032 21.6161 6.34987L21.9801 7.98703C23.2918 7.696 24.6446 7.54839 26 7.54839C27.8946 7.54839 29.9344 11.0794 31.0415 16.7742H20.8134C20.8772 16.5955 20.9183 16.4077 20.9401 16.2131L26.8387 14.0006V10.0645H18.9506C18.4474 9.074 17.4292 8.3871 16.2441 8.3871H15.8558L15.7401 7.22548L20.129 6.59813V2.51613H15.2687L15.0171 0H11.8208L11.5692 2.51613H6.70968V6.59813L11.0986 7.22548L10.9829 8.3871H10.5946C9.40948 8.3871 8.39129 9.074 7.88806 10.0645H0V14.0006L5.89864 16.2131C6.03955 17.4686 7.09465 18.4516 8.3871 18.4516C9.1889 18.4516 9.90935 18.0641 10.3706 17.4645C11.2446 18.0851 12.2997 18.4516 13.4194 18.4516C14.539 18.4516 15.5941 18.0843 16.4681 17.4645C16.9294 18.0641 17.6498 18.4516 18.4516 18.4516H31.3308C31.6361 20.4771 31.8198 22.7349 31.8559 25.1613H20.1517C20.1777 23.4763 20.2632 21.814 20.4402 20.2213L18.7728 20.0359C18.5892 21.6899 18.5003 23.4143 18.4743 25.1613H7.58026C7.65323 23.5317 7.92497 21.9272 8.41813 20.384L6.82123 19.8741C6.19052 21.8467 5.87097 23.9074 5.87097 26C5.87097 36.3782 13.9612 45.188 24.2907 46.0577L24.4316 44.3862C18.2881 43.8687 13.0235 40.2774 10.0737 35.2258ZM25.1613 12.8381L20.5568 14.5642C20.1743 13.9779 19.5537 13.5686 18.8332 13.4571L19.1721 12.2695C19.2215 12.0967 19.2501 11.9197 19.2685 11.7411H25.1613V12.8381ZM18.4516 4.19355V5.14381L15.5732 5.55561L15.4365 4.19355H18.4516ZM8.3871 5.14381V4.19355H11.4023L11.2664 5.55477L8.3871 5.14381ZM13.3397 1.67742H13.4982L14.1692 8.3871H12.6679L13.3397 1.67742ZM1.67742 11.7419H7.57019C7.58864 11.9197 7.61632 12.0967 7.66581 12.2695L8.00548 13.4579C7.28587 13.5686 6.66523 13.9788 6.28277 14.565L1.67742 12.8381V11.7419ZM8.3871 16.7742C7.92413 16.7742 7.54839 16.3976 7.54839 15.9355C7.54839 15.4272 8.01471 15.0196 8.52464 15.1144C8.68819 15.5237 8.892 15.9095 9.14613 16.2584C9.01864 16.5603 8.72761 16.7742 8.3871 16.7742ZM9.94961 14.1566L9.27781 11.8082C9.24342 11.6866 9.22581 11.5599 9.22581 11.4325C9.22581 10.6785 9.83974 10.0645 10.5946 10.0645H16.2441C16.999 10.0645 17.6129 10.6785 17.6129 11.4325C17.6129 11.5591 17.5953 11.6857 17.5601 11.8082L16.8891 14.1557C16.4488 15.6981 15.0221 16.7742 13.4194 16.7742C11.8166 16.7742 10.3899 15.6981 9.94961 14.1566ZM17.6926 16.2584C17.9467 15.9095 18.1505 15.5245 18.3141 15.1144C18.8223 15.0205 19.2903 15.4281 19.2903 15.9355C19.2903 16.3976 18.9146 16.7742 18.4516 16.7742C18.1111 16.7742 17.8201 16.5603 17.6926 16.2584ZM18.9834 33.5484H9.20652C8.26381 31.4743 7.69852 29.2097 7.58864 26.8387H18.4608C18.4969 29.1695 18.6755 31.4382 18.9834 33.5484ZM29.4278 7.87632C34.7821 8.88697 39.3271 12.2116 41.9732 16.7742H32.7415C32.0563 13.0537 30.9434 9.83387 29.4278 7.87632ZM33.0158 18.4516H42.827C43.7572 20.5165 44.325 22.7794 44.4323 25.1613H33.5417C33.5065 22.8951 33.3286 20.6138 33.0158 18.4516Z" fill="#1F2428"/>
<path d="M47.0667 20.3463L47.5867 22.2904L51.0472 16.3582L49.5971 15.5128L48.1092 18.0659C46.4981 13.5846 43.5324 9.65695 39.6173 6.86572L38.6444 8.23198C42.7717 11.1742 45.7625 15.4768 47.0667 20.3463Z" fill="#1F2428"/>
<path d="M38.1781 5.91616C37.6195 5.57649 37.0341 5.25358 36.4386 4.95752L35.6913 6.45965C36.244 6.73475 36.7883 7.03416 37.3066 7.34952L38.1781 5.91616Z" fill="#1F2428"/>
<path d="M34.6983 4.18007C34.1271 3.95278 33.5417 3.74478 32.9579 3.56445L32.4614 5.16723C33.0032 5.33497 33.5467 5.52703 34.0759 5.73839L34.6983 4.18007Z" fill="#1F2428"/>
<path d="M4.93331 31.6538L4.41331 29.7097L0.952789 35.6419L2.40292 36.4873L3.89079 33.9343C5.50195 38.4155 8.46763 42.3432 12.3827 45.1344L13.3556 43.7682C9.22834 40.826 6.2375 36.5234 4.93331 31.6538Z" fill="#1F2428"/>
<path d="M13.8219 46.0837C14.3805 46.4234 14.9659 46.7463 15.5614 47.0424L16.3087 45.5403C15.756 45.2652 15.2117 44.9657 14.6933 44.6504L13.8219 46.0837Z" fill="#1F2428"/>
<path d="M17.3017 47.8198C17.8729 48.0471 18.4583 48.2551 19.0421 48.4354L19.5386 46.8326C18.9968 46.6649 18.4533 46.4728 17.9241 46.2615L17.3017 47.8198Z" fill="#1F2428"/>
</svg>
