<svg width="26" height="26" viewBox="0 0 26 26" fill="none" xmlns="http://www.w3.org/2000/svg">
<path d="M13 22.75C18.3848 22.75 22.75 18.3848 22.75 13C22.75 7.61522 18.3848 3.25 13 3.25C7.61522 3.25 3.25 7.61522 3.25 13C3.25 18.3848 7.61522 22.75 13 22.75Z" stroke="#1F2428" stroke-linecap="round" stroke-linejoin="round"/>
<path d="M21.7511 17.3036L16.2377 13.9126C16.141 13.8531 16.033 13.8146 15.9206 13.7994L13.603 13.487C13.429 13.4636 13.2521 13.4971 13.0987 13.5827C12.9454 13.6682 12.8238 13.8011 12.7524 13.9615L11.3611 17.0834C11.2964 17.2285 11.2757 17.3895 11.3015 17.5463C11.3274 17.7032 11.3987 17.849 11.5066 17.9657L13.416 20.0309C13.5025 20.1245 13.5659 20.2372 13.6008 20.3598C13.6357 20.4825 13.6413 20.6116 13.6171 20.7368L13.2282 22.7474" stroke="#1F2428" stroke-linecap="round" stroke-linejoin="round"/>
<path d="M6.59668 5.64746L5.68828 7.79548C5.60729 7.98701 5.60281 8.2023 5.67577 8.39703L6.84281 11.5118C6.8906 11.6393 6.96969 11.7528 7.07281 11.8418C7.17592 11.9308 7.29976 11.9924 7.43292 12.021L9.6094 12.4888C9.73017 12.5148 9.84343 12.5679 9.94057 12.6443C10.0377 12.7206 10.1162 12.818 10.17 12.9292L10.5565 13.7277C10.623 13.8651 10.7269 13.981 10.8563 14.0621C10.9856 14.1432 11.1352 14.1862 11.2878 14.1862H12.6521" stroke="#1F2428" stroke-linecap="round" stroke-linejoin="round"/>
<path d="M15.4841 3.56982L16.432 5.26779C16.5216 5.4283 16.5542 5.61446 16.5243 5.79586C16.4944 5.97725 16.4039 6.14316 16.2676 6.26647L13.5345 8.73825C13.4881 8.7802 13.437 8.81665 13.3822 8.84689L12.1389 9.53348C12.0187 9.5999 11.8835 9.63473 11.7462 9.63473H9.57828C9.41841 9.63473 9.26209 9.68189 9.1289 9.77031C8.99571 9.85874 8.89156 9.98448 8.8295 10.1318L7.98376 12.1395" stroke="#1F2428" stroke-linecap="round" stroke-linejoin="round"/>
</svg>
