<svg width="16" height="16" viewBox="0 0 16 16" fill="none" xmlns="http://www.w3.org/2000/svg">
<circle cx="8" cy="8" r="8" fill="#C0C9D7"/>
<path d="M9.37987 10.6423L9.27284 11.0797C8.95178 11.2065 8.69531 11.3029 8.50433 11.3692C8.31315 11.4357 8.091 11.4688 7.8379 11.4688C7.44922 11.4688 7.14689 11.3736 6.93127 11.1845C6.71565 10.9946 6.6078 10.754 6.6078 10.4621C6.6078 10.3491 6.61563 10.2329 6.6319 10.1145C6.6483 9.99593 6.67439 9.86241 6.71009 9.71317L7.11133 8.29299C7.14703 8.157 7.17737 8.02814 7.20167 7.90629C7.22632 7.7852 7.23819 7.67378 7.23819 7.57349C7.23819 7.39212 7.20064 7.26526 7.12589 7.19394C7.05113 7.12282 6.90848 7.08671 6.6967 7.08671C6.59297 7.08671 6.48636 7.10332 6.37769 7.13545C6.26854 7.16771 6.17525 7.19888 6.09692 7.22785L6.20422 6.79001C6.46707 6.68299 6.71832 6.59135 6.95866 6.51528C7.199 6.43902 7.42608 6.40085 7.64088 6.40085C8.02689 6.40085 8.32475 6.49414 8.53392 6.68072C8.74309 6.86745 8.84764 7.1095 8.84764 7.40777C8.84764 7.46949 8.84077 7.57823 8.82602 7.73364C8.8116 7.88941 8.78476 8.03212 8.74563 8.16194L8.3461 9.57643C8.31335 9.69004 8.2839 9.81992 8.2583 9.96607C8.23187 10.1113 8.21924 10.2222 8.21924 10.2966C8.21924 10.4844 8.26111 10.6127 8.34507 10.6808C8.42964 10.749 8.57531 10.7829 8.78222 10.7829C8.87935 10.7829 8.98988 10.7657 9.11269 10.7318C9.23516 10.698 9.32447 10.6683 9.37987 10.6423ZM9.48119 4.70381C9.48119 4.95025 9.38831 5.16073 9.20166 5.33379C9.01548 5.50747 8.79114 5.59437 8.5287 5.59437C8.26544 5.59437 8.04055 5.50747 7.85225 5.33379C7.66429 5.16066 7.5701 4.95025 7.5701 4.70381C7.5701 4.45784 7.66429 4.24702 7.85225 4.07177C8.0402 3.89678 8.26551 3.80933 8.5287 3.80933C8.79107 3.80933 9.01548 3.89699 9.20166 4.07177C9.38845 4.24702 9.48119 4.45791 9.48119 4.70381Z" fill="#F2F6FC"/>
</svg>
