<svg width="190" height="48" viewBox="0 0 190 48" fill="none" xmlns="http://www.w3.org/2000/svg">
<path d="M80.6031 31.2289C78.5011 33.311 75.9427 34.352 72.9279 34.352C69.9131 34.352 67.3547 33.311 65.2526 31.2289C63.1506 29.1469 62.0996 26.5785 62.0996 23.5237C62.0996 20.4689 63.1506 17.9005 65.2526 15.8185C67.3547 13.7365 69.9131 12.6954 72.9279 12.6954C75.9427 12.6954 78.5011 13.7365 80.6031 15.8185C82.7051 17.9005 83.7561 20.4689 83.7561 23.5237C83.7561 26.5785 82.7051 29.1469 80.6031 31.2289ZM68.5989 27.9859C69.7598 29.1352 71.2023 29.7115 72.9279 29.7115C74.6535 29.7115 76.0959 29.1369 77.2569 27.9859C78.4178 26.835 78.9974 25.3476 78.9974 23.5237C78.9974 21.6982 78.4178 20.2108 77.2569 19.0615C76.0959 17.9122 74.6535 17.3359 72.9279 17.3359C71.2023 17.3359 69.7598 17.9105 68.5989 19.0615C67.438 20.2124 66.8583 21.6998 66.8583 23.5237C66.8583 25.3476 67.438 26.8367 68.5989 27.9859ZM100.567 33.9356H95.5089L90.7485 27.3747V33.9356H86.2862V13.1102H90.7485V25.5758L95.2107 19.0598H100.417L95.0025 26.4969L100.566 33.9339L100.567 33.9356ZM105.298 28.2824C105.814 29.6716 107.003 30.3645 108.867 30.3645C110.076 30.3645 111.029 29.988 111.724 29.2335L115.293 31.2856C113.826 33.3276 111.664 34.3503 108.807 34.3503C106.309 34.3503 104.31 33.6075 102.813 32.1184C101.315 30.631 100.567 28.7571 100.567 26.4952C100.567 24.2533 101.307 22.3844 102.784 20.887C104.262 19.3896 106.161 18.6401 108.481 18.6401C110.643 18.6401 112.443 19.3896 113.881 20.887C115.318 22.3844 116.038 24.2533 116.038 26.4952C116.038 27.1298 115.978 27.7244 115.86 28.2808H105.298V28.2824ZM105.208 24.9512H111.604C111.167 23.3838 110.116 22.601 108.451 22.601C106.725 22.601 105.644 23.3838 105.208 24.9512ZM127.342 19.0598H132.103L127.014 33.4892C126.181 35.8294 125.085 37.505 123.726 38.5177C122.367 39.5288 120.637 39.9852 118.535 39.8852V35.7195C119.566 35.7195 120.36 35.5362 120.915 35.1698C121.469 34.8034 121.916 34.1638 122.254 33.251L116.333 19.0598H121.241L124.544 28.1642L127.341 19.0598H127.342ZM163.43 32.0767C161.903 33.5941 160.039 34.352 157.837 34.352C155.635 34.352 153.771 33.5941 152.244 32.0767C150.716 30.5593 149.953 28.7005 149.953 26.4985C149.953 24.2966 150.716 22.4377 152.244 20.9203C153.771 19.4029 155.635 18.6451 157.837 18.6451C160.039 18.6451 161.903 19.4029 163.43 20.9203C164.957 22.4377 165.72 24.2966 165.72 26.4985C165.72 28.7005 164.956 30.5593 163.43 32.0767ZM155.397 29.027C156.051 29.6816 156.864 30.008 157.837 30.008C158.81 30.008 159.622 29.6816 160.277 29.027C160.932 28.3724 161.258 27.5296 161.258 26.4985C161.258 25.4675 160.932 24.6247 160.277 23.9701C159.622 23.3155 158.81 22.989 157.837 22.989C156.864 22.989 156.051 23.3155 155.397 23.9701C154.742 24.6247 154.416 25.4675 154.416 26.4985C154.416 27.5296 154.742 28.3724 155.397 29.027ZM172.176 23.4038C172.176 23.7019 172.429 23.9435 172.934 24.1333C173.44 24.3216 174.05 24.5098 174.763 24.698C175.477 24.8862 176.19 25.1294 176.905 25.4275C177.619 25.7257 178.229 26.2154 178.734 26.9C179.24 27.5845 179.492 28.4423 179.492 29.4734C179.492 31.0807 178.897 32.2949 177.706 33.1178C176.517 33.9406 175.048 34.352 173.304 34.352C170.169 34.352 168.037 33.1727 166.908 30.8125L170.775 28.6106C171.172 29.7815 172.015 30.3661 173.304 30.3661C174.375 30.3661 174.911 30.058 174.911 29.4434C174.911 29.1469 174.658 28.8987 174.153 28.7005C173.647 28.5023 173.037 28.3091 172.324 28.1209C171.61 27.9326 170.897 27.6845 170.182 27.3763C169.468 27.0682 168.858 26.5885 168.354 25.9339C167.847 25.2793 167.596 24.4765 167.596 23.5237C167.596 21.9763 168.155 20.7771 169.276 19.9243C170.397 19.0715 171.781 18.6451 173.427 18.6451C174.656 18.6451 175.777 18.9182 176.79 19.4629C177.801 20.0076 178.616 20.7971 179.23 21.8281L175.423 23.8802C174.946 23.0074 174.282 22.571 173.429 22.571C172.596 22.571 172.18 22.8491 172.18 23.4038H172.176ZM189.997 23.3438H186.932V28.6106C186.932 29.2052 187.17 29.5816 187.647 29.7415C188.123 29.8998 188.906 29.9497 189.997 29.8898V33.9356C187.16 34.2337 185.196 33.9606 184.105 33.1178C183.014 32.2749 182.47 30.7725 182.47 28.6106V23.3438H180.09V19.0598H182.47V16.2332L186.932 14.8941V19.0598H189.997V23.3438ZM141.175 13.1085C143.219 13.1085 144.943 13.8031 146.352 15.1906C147.76 16.5797 148.464 18.2653 148.464 20.2474C148.464 22.2312 147.76 23.9168 146.352 25.3059C144.943 26.6951 143.219 27.388 141.175 27.388H138.052V33.9339H133.292V13.1085H141.175ZM141.175 22.9258C141.908 22.9258 142.515 22.6676 142.989 22.1529C143.466 21.6366 143.704 21.002 143.704 20.2491C143.704 19.4946 143.466 18.8599 142.989 18.3453C142.513 17.8306 141.908 17.5724 141.175 17.5724H138.052V22.9274H141.175V22.9258Z" fill="#2B2A29"/>
<path fill-rule="evenodd" clip-rule="evenodd" d="M23.8852 0C37.077 0 47.7703 10.6934 47.7703 23.8852C47.7703 37.077 37.077 47.7703 23.8852 47.7703C10.6934 47.7703 0 37.077 0 23.8852C0 10.6934 10.6934 0 23.8852 0ZM23.8852 9.30089C31.9401 9.30089 38.4694 15.8302 38.4694 23.8852C38.4694 31.9401 31.9401 38.4694 23.8852 38.4694C15.8302 38.4694 9.30089 31.9401 9.30089 23.8852C9.30089 15.8302 15.8302 9.30089 23.8852 9.30089Z" fill="url(#paint0_linear_179_2120)"/>
<path opacity="0.2" fill-rule="evenodd" clip-rule="evenodd" d="M40.4714 41.0711C38.4743 42.9983 36.1408 44.5823 33.5707 45.7232L26.6816 38.1996C29.5832 37.6366 32.1766 36.2142 34.1886 34.2087L40.4731 41.0711H40.4714Z" fill="#1F2428"/>
<path fill-rule="evenodd" clip-rule="evenodd" d="M51.0881 0.253169L42.3568 8.74123C40.2765 6.20614 37.6831 4.10577 34.7366 2.60004L37.1684 0.251503H51.0881V0.253169ZM35.6493 15.2622L27.3645 23.3155L49.8855 47.1773H36.5921L13.693 22.9158L27.3628 9.71895C30.7391 10.5451 33.6523 12.5455 35.6477 15.2622H35.6493Z" fill="url(#paint1_linear_179_2120)"/>
<path opacity="0.2" fill-rule="evenodd" clip-rule="evenodd" d="M26.6083 10.4485C29.9795 11.2846 32.8877 13.2917 34.8748 16.015L35.6494 15.2622C33.6539 12.5455 30.7407 10.5451 27.3645 9.71895L26.6083 10.4485Z" fill="#1F2428"/>
<defs>
<linearGradient id="paint0_linear_179_2120" x1="0.612057" y1="47.7703" x2="54.7001" y2="37.8739" gradientUnits="userSpaceOnUse">
<stop stop-color="#5B52A3"/>
<stop offset="1" stop-color="#40B8EA"/>
</linearGradient>
<linearGradient id="paint1_linear_179_2120" x1="13.693" y1="22.9157" x2="49.9521" y2="22.9157" gradientUnits="userSpaceOnUse">
<stop stop-color="#54E1AB"/>
<stop offset="1" stop-color="#7EEEC1"/>
</linearGradient>
</defs>
</svg>
