<svg width="52" height="52" viewBox="0 0 52 52" fill="none" xmlns="http://www.w3.org/2000/svg">
<rect width="52" height="52" fill="white"/>
<path d="M35.2258 29.355H48.6452V33.5485H35.2258V29.355Z" fill="#41B7E9"/>
<path d="M3.35486 15.0967H16.7742V19.2902H3.35486V15.0967Z" fill="#41B7E9"/>
<path d="M13.4193 30.1934H28.5161V34.3869H13.4193V30.1934Z" fill="#41B7E9"/>
<path d="M42.7741 21.8066C37.6874 21.8066 33.5483 17.6676 33.5483 12.5808C33.5483 7.49401 37.6874 3.35498 42.7741 3.35498C47.8609 3.35498 52 7.49401 52 12.5808C52 17.6676 47.8609 21.8066 42.7741 21.8066Z" fill="#41B7E9"/>
<path d="M25.1613 3.35498H30.1935V5.0324H25.1613V3.35498Z" fill="#1F2428"/>
<path d="M21.8064 3.35498H23.4838V5.0324H21.8064V3.35498Z" fill="#1F2428"/>
<path d="M16.7742 38.5806C15.8491 38.5806 15.0968 39.3329 15.0968 40.258V41.9354C15.0968 42.8605 15.8491 43.6128 16.7742 43.6128H17.2657C17.7136 43.6128 18.1346 43.4384 18.4516 43.1213L20.4763 41.0967L18.4516 39.072C18.1346 38.755 17.7136 38.5806 17.2657 38.5806H16.7742ZM17.2657 41.9354H16.7742V40.258H17.2657L18.1044 41.0967L17.2657 41.9354Z" fill="#1F2428"/>
<path d="M25.1613 38.5806C24.2362 38.5806 23.4839 39.3329 23.4839 40.258V41.9354C23.4839 42.8605 24.2362 43.6128 25.1613 43.6128H26.8387C27.7638 43.6128 28.5161 42.8605 28.5161 41.9354V40.258C28.5161 39.3329 27.7638 38.5806 26.8387 38.5806H25.1613ZM25.1613 41.9354V40.258H26.8387L26.8396 41.9354H25.1613Z" fill="#1F2428"/>
<path d="M35.2257 43.6128C36.1508 43.6128 36.9032 42.8605 36.9032 41.9354V40.258C36.9032 39.3329 36.1508 38.5806 35.2257 38.5806H34.7343C34.2864 38.5806 33.8654 38.755 33.5483 39.072L31.5237 41.0967L33.5483 43.1213C33.8654 43.4384 34.2864 43.6128 34.7343 43.6128H35.2257ZM34.7343 40.258H35.2257L35.2266 41.9354H34.7343L33.8956 41.0967L34.7343 40.258Z" fill="#1F2428"/>
<path d="M42.7742 18.4517C44.6243 18.4517 46.129 16.947 46.129 15.0969V13.4194H39.4193V15.0969C39.4193 16.947 40.924 18.4517 42.7742 18.4517ZM44.4516 15.0969C44.4516 16.0219 43.6992 16.7743 42.7742 16.7743C41.8491 16.7743 41.0967 16.0219 41.0967 15.0969H44.4516Z" fill="#1F2428"/>
<path d="M46.129 10.903C46.5912 10.903 46.9678 11.2787 46.9678 11.7417H48.6452C48.6452 10.3545 47.5163 9.22559 46.129 9.22559C44.7418 9.22559 43.6129 10.3545 43.6129 11.7417H45.2903C45.2903 11.2787 45.6669 10.903 46.129 10.903Z" fill="#1F2428"/>
<path d="M40.258 11.7417H41.9355C41.9355 10.3545 40.8066 9.22559 39.4193 9.22559C38.0321 9.22559 36.9032 10.3545 36.9032 11.7417H38.5806C38.5806 11.2787 38.9572 10.903 39.4193 10.903C39.8815 10.903 40.258 11.2787 40.258 11.7417Z" fill="#1F2428"/>
<path d="M46.9678 31.8711H48.6452V33.5485H46.9678V31.8711Z" fill="#1F2428"/>
<path d="M35.2258 31.8711H45.2903V33.5485H35.2258V31.8711Z" fill="#1F2428"/>
<path d="M35.2258 28.5161H48.6452V30.1935H35.2258V28.5161Z" fill="#1F2428"/>
<path d="M49.4839 25.1613H43.836L41.9355 24.0752V21.7637C41.3585 21.7117 40.799 21.6026 40.2581 21.4483V23.1165L38.4641 22.0916C38.1386 21.9046 37.7663 21.8065 37.3897 21.8065C36.1962 21.8065 35.2258 22.7768 35.2258 23.9703V25.1613H34.3871C32.9999 25.1613 31.871 26.2902 31.871 27.6774V34.3871C31.871 35.7743 32.9999 36.9032 34.3871 36.9032H40.2581V42.7742C40.2581 44.1614 39.1292 45.2903 37.7419 45.2903H14.2581C12.8708 45.2903 11.7419 44.1614 11.7419 42.7742V25.5286L13.5359 26.5535C13.8614 26.7406 14.2337 26.8387 14.6103 26.8387C15.8038 26.8387 16.7742 25.8683 16.7742 24.6748V23.4839H17.6129C19.0001 23.4839 20.129 22.355 20.129 20.9677V14.2581C20.129 12.8708 19.0001 11.7419 17.6129 11.7419H11.7419V8.3871H34.5666C34.8735 7.78826 35.2375 7.22381 35.6628 6.70968H11.7419V4.19355C11.7419 2.80632 12.8708 1.67742 14.2581 1.67742H37.7419C38.969 1.67742 39.9897 2.56142 40.2103 3.72471C40.7412 3.57039 41.2897 3.458 41.855 3.40181C41.4834 1.4669 39.7825 0 37.7419 0H14.2581C11.9457 0 10.0645 1.88123 10.0645 4.19355V11.7419H2.51613C1.1289 11.7419 0 12.8708 0 14.2581V20.9677C0 22.355 1.1289 23.4839 2.51613 23.4839H8.164L10.0645 24.57V47.8064C10.0645 50.1188 11.9457 52 14.2581 52H37.7419C40.0543 52 41.9355 50.1188 41.9355 47.8064V36.9032H49.4839C50.8711 36.9032 52 35.7743 52 34.3871V27.6774C52 26.2902 50.8711 25.1613 49.4839 25.1613ZM8.61019 21.8065H2.51613C2.054 21.8065 1.67742 21.4307 1.67742 20.9677V14.2581C1.67742 13.7951 2.054 13.4194 2.51613 13.4194H17.6129C18.075 13.4194 18.4516 13.7951 18.4516 14.2581V20.9677C18.4516 21.4307 18.075 21.8065 17.6129 21.8065H15.0968V24.6748C15.0968 25.0279 14.6741 25.2712 14.3688 25.0975L8.61019 21.8065ZM40.2581 47.8064C40.2581 49.1937 39.1292 50.3226 37.7419 50.3226H14.2581C12.8708 50.3226 11.7419 49.1937 11.7419 47.8064V46.1072C12.4448 46.6398 13.3103 46.9677 14.2581 46.9677H37.7419C38.6897 46.9677 39.5552 46.6398 40.2581 46.1072V47.8064ZM50.3226 34.3871C50.3226 34.8501 49.946 35.2258 49.4839 35.2258H34.3871C33.925 35.2258 33.5484 34.8501 33.5484 34.3871V27.6774C33.5484 27.2145 33.925 26.8387 34.3871 26.8387H36.9032V23.9703C36.9032 23.6172 37.3251 23.374 37.6312 23.5476L43.3898 26.8387H49.4839C49.946 26.8387 50.3226 27.2145 50.3226 27.6774V34.3871Z" fill="#1F2428"/>
<path d="M13.4193 30.1934H25.1612V31.8708H13.4193V30.1934Z" fill="#1F2428"/>
<path d="M26.8387 30.1934H28.5162V31.8708H26.8387V30.1934Z" fill="#1F2428"/>
<path d="M13.4193 33.5483H28.5161V35.2258H13.4193V33.5483Z" fill="#1F2428"/>
<path d="M3.35486 15.0967H5.03228V16.7741H3.35486V15.0967Z" fill="#1F2428"/>
<path d="M6.70972 15.0967H16.7742V16.7741H6.70972V15.0967Z" fill="#1F2428"/>
<path d="M3.35486 18.4517H16.7742V20.1291H3.35486V18.4517Z" fill="#1F2428"/>
</svg>
