<svg width="335" height="306" viewBox="0 0 335 306" fill="none" xmlns="http://www.w3.org/2000/svg">
<path d="M267.121 118.195C267.121 118.195 286.992 142.341 267.838 179.181C266.054 182.613 261.206 182.789 259.161 179.506L246.134 158.594C245.102 156.936 244.427 155.08 244.154 153.146C243.881 151.212 244.015 149.242 244.548 147.363L250.09 127.855L267.121 118.195Z" fill="url(#paint0_linear_44_1668)"/>
<path d="M222.133 79.6456C222.133 79.6456 195.224 63.7111 161.756 88.2827C158.639 90.5722 159.209 95.3911 162.766 96.9081L185.428 106.575C187.224 107.344 189.162 107.728 191.116 107.703C193.07 107.678 194.997 107.244 196.773 106.43L215.204 97.9685L222.133 79.6456Z" fill="url(#paint1_linear_44_1668)"/>
<path d="M269.275 115.683C269.275 115.683 289.146 139.829 269.991 176.671C268.207 180.102 263.358 180.277 261.314 176.994L248.287 156.083C247.254 154.425 246.579 152.569 246.306 150.635C246.033 148.701 246.168 146.731 246.702 144.851L252.238 125.343L269.275 115.683Z" fill="url(#paint2_linear_44_1668)"/>
<path d="M224.286 77.1337C224.286 77.1337 197.377 61.1991 163.909 85.7722C160.792 88.0602 161.361 92.8791 164.919 94.3962L187.579 104.065C189.376 104.831 191.314 105.214 193.268 105.187C195.222 105.16 197.149 104.726 198.924 103.91L217.353 95.4493L224.286 77.1337Z" fill="url(#paint3_linear_44_1668)"/>
<path d="M248.252 19.1919C278.542 -9.11498 326.421 3.37663 326.444 3.43772C326.507 3.45081 346.187 48.8529 322.853 83.1219C301.688 114.204 256.464 135.631 247.785 139.544C246.851 139.964 245.34 140.531 244.83 139.643C234.895 122.384 221.12 111.189 204.299 104.931C203.368 104.585 203.717 103.032 203.987 102.075C206.482 93.023 220.729 44.9227 248.252 19.1919Z" fill="url(#paint4_linear_44_1668)"/>
<g style="mix-blend-mode:multiply" opacity="0.3">
<path style="mix-blend-mode:multiply" opacity="0.3" d="M265.317 64.4384C282.262 48.7293 297.304 56.0195 313.608 42.3919C319.561 37.4144 326.181 29.2341 330.281 14.8167C334.566 30.4864 338.965 59.458 322.851 83.122C301.686 114.204 256.463 135.631 247.784 139.544C246.85 139.964 245.339 140.531 244.828 139.643C239.81 130.924 233.809 123.756 226.938 117.986C233.214 114.581 237.775 110.675 241.182 106.908C254.914 91.7125 249.879 78.7511 265.317 64.4384Z" fill="url(#paint5_linear_44_1668)"/>
</g>
<path d="M306.27 26.9825C295.382 17.6545 281.867 9.06687 269.595 6.06033C293.337 -2.94911 318.71 1.67779 324.981 3.07997C325.437 3.18249 325.861 3.39518 326.216 3.69945C326.571 4.00372 326.846 4.39031 327.017 4.82542C329.363 10.808 337.824 35.1716 332.56 60.0137C328.531 49.5919 317.155 36.3105 306.27 26.9825Z" fill="url(#paint6_linear_44_1668)"/>
<path style="mix-blend-mode:multiply" opacity="0.3" d="M330.283 14.8181C330.302 14.8908 330.322 14.9636 330.342 15.0378C330.376 15.1628 330.411 15.2879 330.444 15.4145C330.478 15.541 330.511 15.669 330.546 15.797L330.642 16.1621C330.677 16.2988 330.712 16.4356 330.748 16.5723C330.785 16.709 330.808 16.8079 330.838 16.9272C330.875 17.0727 330.911 17.2181 330.949 17.3636C330.977 17.4785 331.006 17.5934 331.033 17.7083C331.073 17.8625 331.11 18.0181 331.148 18.1752C331.174 18.2857 331.201 18.3963 331.228 18.5083C331.267 18.6727 331.305 18.837 331.345 19.0028C331.369 19.1105 331.395 19.2167 331.42 19.3243L331.538 19.845C331.563 19.9497 331.586 20.0559 331.609 20.1607C331.65 20.341 331.689 20.5214 331.73 20.7017C331.752 20.805 331.774 20.9083 331.797 21.0116C331.838 21.1992 331.877 21.3883 331.918 21.5774C331.938 21.6777 331.96 21.7766 331.98 21.877C332.021 22.0719 332.062 22.2683 332.101 22.4661C332.121 22.5636 332.14 22.661 332.159 22.757C332.2 22.9606 332.241 23.1643 332.28 23.3708C332.299 23.4639 332.316 23.5585 332.335 23.6516C332.376 23.8625 332.415 24.0748 332.454 24.2886C332.472 24.3803 332.489 24.4719 332.505 24.5636C332.546 24.7817 332.585 24.9999 332.625 25.221C332.641 25.3097 332.655 25.3999 332.671 25.4901C332.71 25.7141 332.75 25.9381 332.787 26.165L332.831 26.4283C332.87 26.6595 332.908 26.8923 332.945 27.125C332.959 27.2094 332.972 27.2952 332.985 27.381C333.023 27.6181 333.059 27.8566 333.096 28.0966C333.107 28.1795 333.121 28.2625 333.132 28.3454C333.169 28.5897 333.205 28.8341 333.24 29.0814C333.25 29.1614 333.262 29.2414 333.273 29.3228C333.308 29.573 333.342 29.8261 333.375 30.0792L333.406 30.309C333.44 30.5679 333.473 30.8273 333.505 31.0872L333.531 31.3097C333.563 31.573 333.593 31.8392 333.624 32.1054C333.631 32.1781 333.64 32.2508 333.647 32.3221C333.678 32.5926 333.707 32.8632 333.734 33.1337L333.756 33.3461C333.783 33.6224 333.81 33.8988 333.836 34.1752L333.854 34.3774C333.88 34.6595 333.905 34.9422 333.928 35.2254C333.928 35.2908 333.938 35.3563 333.944 35.4217C333.967 35.7126 333.989 36.0006 334.009 36.2857L334.022 36.4719C334.043 36.7628 334.062 37.0571 334.081 37.3548C334.081 37.4144 334.088 37.4741 334.091 37.5337C334.108 37.8319 334.126 38.1315 334.14 38.4326C334.14 38.4893 334.14 38.5446 334.14 38.6013C334.157 38.9068 334.17 39.2127 334.181 39.5192C334.181 39.5715 334.181 39.6253 334.181 39.6792C334.193 39.9885 334.203 40.2998 334.211 40.613C334.211 40.6639 334.211 40.7133 334.211 40.7584C334.22 41.0746 334.227 41.3916 334.232 41.7097C334.232 41.7577 334.232 41.8057 334.232 41.8552C334.238 42.1771 334.241 42.4995 334.242 42.8224V42.9519C334.242 43.2792 334.242 43.6079 334.242 43.9381C334.242 43.9773 334.242 44.0166 334.242 44.0544C334.242 44.389 334.233 44.7235 334.227 45.0595C334.227 45.0944 334.227 45.1293 334.227 45.1642C334.22 45.5046 334.21 45.844 334.198 46.1824C334.198 46.2115 334.198 46.2406 334.198 46.2697C334.187 46.6188 334.173 46.9679 334.156 47.317C334.156 47.3402 334.156 47.3635 334.156 47.3868C334.139 47.7417 334.119 48.0981 334.098 48.4559C334.098 48.4733 334.098 48.4893 334.098 48.5068C334.076 48.8704 334.051 49.2341 334.025 49.6006C334.025 49.6093 334.025 49.6181 334.025 49.6253C333.774 53.1144 333.288 56.5826 332.571 60.0064C329.993 53.3475 324.414 45.5177 317.88 38.2988C322.536 33.221 327.145 25.8465 330.283 14.8181Z" fill="url(#paint7_linear_44_1668)"/>
<path d="M302.412 82.8392C313.231 70.2128 310.635 50.2389 296.614 38.2262C282.594 26.2136 262.458 26.7112 251.64 39.3376C240.822 51.964 243.417 71.9379 257.438 83.9505C271.458 95.9631 291.594 95.4656 302.412 82.8392Z" fill="url(#paint8_linear_44_1668)"/>
<path style="mix-blend-mode:multiply" d="M265.316 64.4383C279.144 51.6195 291.704 54.1111 304.718 48.0602C311.118 59.4231 310.64 73.2587 302.419 82.8529C291.6 95.4783 271.464 95.9758 257.444 83.9627C256.314 82.9942 255.243 81.9597 254.235 80.8645C256.359 75.4507 259.265 70.0485 265.316 64.4383Z" fill="url(#paint9_linear_44_1668)"/>
<path d="M300.294 81.0245C310.21 69.451 307.831 51.1425 294.979 40.1313C282.128 29.1201 263.671 29.5759 253.755 41.1494C243.838 52.7229 246.218 71.0314 259.07 82.0426C271.921 93.0538 290.378 92.598 300.294 81.0245Z" fill="url(#paint10_linear_44_1668)"/>
<path d="M297.294 78.4556C305.932 68.3736 303.86 52.425 292.665 42.8334C281.47 33.2418 265.393 33.6393 256.754 43.7213C248.116 53.8033 250.188 69.7519 261.383 79.3435C272.578 88.9351 288.656 88.5375 297.294 78.4556Z" fill="url(#paint11_linear_44_1668)"/>
<path d="M245.549 140.384C248.5 136.939 241.441 126.048 229.78 116.057C218.12 106.067 206.275 100.761 203.324 104.205C200.372 107.65 207.432 118.542 219.092 128.532C230.752 138.523 242.597 143.829 245.549 140.384Z" fill="url(#paint12_linear_44_1668)"/>
<path d="M222.613 115.442L231.675 123.206C234.031 125.226 235.732 127.903 236.558 130.894C237.385 133.886 237.3 137.056 236.315 139.999L234.402 145.712C234.239 146.198 233.96 146.636 233.589 146.988C233.217 147.34 232.765 147.596 232.271 147.732C231.778 147.869 231.258 147.882 230.759 147.77C230.259 147.659 229.794 147.426 229.406 147.093L199.356 121.347C198.968 121.014 198.667 120.59 198.481 120.114C198.294 119.637 198.227 119.122 198.287 118.613C198.346 118.105 198.529 117.619 198.82 117.198C199.111 116.777 199.501 116.433 199.956 116.198L205.308 113.435C208.065 112.009 211.184 111.439 214.267 111.796C217.35 112.154 220.256 113.423 222.613 115.442Z" fill="url(#paint13_linear_44_1668)"/>
<path d="M232.826 147.928C235.611 144.678 230.068 135.358 220.445 127.113C210.821 118.868 200.762 114.819 197.977 118.07C195.192 121.321 200.735 130.64 210.358 138.885C219.981 147.131 230.041 151.179 232.826 147.928Z" fill="url(#paint14_linear_44_1668)"/>
<path d="M228.644 144.345C230.761 141.875 226.548 134.792 219.234 128.526C211.921 122.259 204.276 119.182 202.159 121.653C200.042 124.124 204.255 131.206 211.569 137.473C218.882 143.739 226.527 146.816 228.644 144.345Z" fill="url(#paint15_linear_44_1668)"/>
<g style="mix-blend-mode:color-burn" opacity="0.3">
<path style="mix-blend-mode:color-burn" opacity="0.3" d="M265.317 64.4383C277.077 53.5365 287.92 53.7111 298.906 50.2827C304.256 59.4303 303.965 70.6928 297.306 78.4688C288.668 88.5502 272.589 88.9415 261.395 79.3546C259.795 77.9875 258.346 76.4535 257.072 74.7786C258.978 71.3779 261.53 67.9496 265.317 64.4383Z" fill="url(#paint16_linear_44_1668)"/>
</g>
<path style="mix-blend-mode:multiply" opacity="0.4" d="M203.894 120.783C203.894 120.783 190.911 165.641 163.022 165.533C153.183 165.494 141.366 163.452 131.878 166.802C117.411 171.909 115.539 190.893 109.41 202.778C98.5795 223.782 77.0421 248.596 51.0014 247.19C31.0523 246.116 7.72583 259.564 0.325112 296.045C0.0762979 297.274 0.111025 298.544 0.426648 299.757C0.74227 300.971 1.33048 302.097 2.14654 303.049C2.9626 304.001 3.98503 304.754 5.13608 305.252C6.28712 305.749 7.53646 305.978 8.7891 305.92L158.479 299.027C160.65 298.926 162.77 298.328 164.673 297.278C166.576 296.228 168.213 294.755 169.456 292.972C173.832 286.688 178.281 279.847 180.454 272.441C184.854 257.449 168.28 244.585 171.507 229.578C172.686 224.101 176.93 221.91 181.417 219.279C196.895 210.207 206.2 196.63 214.256 180.94C220.629 168.527 227.766 153.672 228.313 139.443C228.32 139.443 219.606 122.411 203.894 120.783Z" fill="url(#paint17_linear_44_1668)"/>
<defs>
<linearGradient id="paint0_linear_44_1668" x1="21051.1" y1="35552.6" x2="13153.1" y2="28797.8" gradientUnits="userSpaceOnUse">
<stop stop-color="#444B8C"/>
<stop offset="1" stop-color="#26264F"/>
</linearGradient>
<linearGradient id="paint1_linear_44_1668" x1="23055.3" y1="28813.6" x2="7723.67" y2="15701" gradientUnits="userSpaceOnUse">
<stop stop-color="#444B8C"/>
<stop offset="1" stop-color="#26264F"/>
</linearGradient>
<linearGradient id="paint2_linear_44_1668" x1="60150.5" y1="109142" x2="76640.7" y2="94548.4" gradientUnits="userSpaceOnUse">
<stop stop-color="#FFC444"/>
<stop offset="1" stop-color="#F36F56"/>
</linearGradient>
<linearGradient id="paint3_linear_44_1668" x1="87965.7" y1="49235.5" x2="92865.6" y2="34036.8" gradientUnits="userSpaceOnUse">
<stop stop-color="#FFC444"/>
<stop offset="1" stop-color="#F36F56"/>
</linearGradient>
<linearGradient id="paint4_linear_44_1668" x1="94606.8" y1="75713.8" x2="83074.6" y2="-59185.5" gradientUnits="userSpaceOnUse">
<stop stop-color="#FFC444"/>
<stop offset="1" stop-color="#F36F56"/>
</linearGradient>
<linearGradient id="paint5_linear_44_1668" x1="86826.4" y1="60820.7" x2="71828.3" y2="-54241.4" gradientUnits="userSpaceOnUse">
<stop stop-color="#FFC444"/>
<stop offset="1" stop-color="#F36F56"/>
</linearGradient>
<linearGradient id="paint6_linear_44_1668" x1="152969" y1="51295.6" x2="158932" y2="30251.2" gradientUnits="userSpaceOnUse">
<stop stop-color="#FFC444"/>
<stop offset="1" stop-color="#F36F56"/>
</linearGradient>
<linearGradient id="paint7_linear_44_1668" x1="29089.2" y1="-10508.9" x2="25097.4" y2="-17830.6" gradientUnits="userSpaceOnUse">
<stop stop-color="#FFC444"/>
<stop offset="1" stop-color="#F36F56"/>
</linearGradient>
<linearGradient id="paint8_linear_44_1668" x1="302.412" y1="82.8485" x2="251.639" y2="39.3459" gradientUnits="userSpaceOnUse">
<stop stop-color="#EBEFF2"/>
<stop offset="1" stop-color="white"/>
</linearGradient>
<linearGradient id="paint9_linear_44_1668" x1="49165.2" y1="24122.5" x2="29997.5" y2="7729.17" gradientUnits="userSpaceOnUse">
<stop stop-color="#EBEFF2"/>
<stop offset="1" stop-color="white"/>
</linearGradient>
<linearGradient id="paint10_linear_44_1668" x1="46236.4" y1="2492.58" x2="42956.3" y2="17633.8" gradientUnits="userSpaceOnUse">
<stop stop-color="#EBEFF2"/>
<stop offset="1" stop-color="white"/>
</linearGradient>
<linearGradient id="paint11_linear_44_1668" x1="34927.2" y1="28452" x2="36734.8" y2="-2678.47" gradientUnits="userSpaceOnUse">
<stop stop-color="#444B8C"/>
<stop offset="1" stop-color="#26264F"/>
</linearGradient>
<linearGradient id="paint12_linear_44_1668" x1="-5713.61" y1="25469.2" x2="-1303.64" y2="16448.1" gradientUnits="userSpaceOnUse">
<stop stop-color="#FFC444"/>
<stop offset="1" stop-color="#F36F56"/>
</linearGradient>
<linearGradient id="paint13_linear_44_1668" x1="19764.1" y1="30374.2" x2="10459.9" y2="22416.7" gradientUnits="userSpaceOnUse">
<stop stop-color="#AA80F9"/>
<stop offset="1" stop-color="#6165D7"/>
</linearGradient>
<linearGradient id="paint14_linear_44_1668" x1="116.117" y1="16813.9" x2="697.813" y2="25261.9" gradientUnits="userSpaceOnUse">
<stop stop-color="#AA80F9"/>
<stop offset="1" stop-color="#6165D7"/>
</linearGradient>
<linearGradient id="paint15_linear_44_1668" x1="-239.779" y1="13206.3" x2="96.3187" y2="18085.6" gradientUnits="userSpaceOnUse">
<stop stop-color="#444B8C"/>
<stop offset="1" stop-color="#26264F"/>
</linearGradient>
<linearGradient id="paint16_linear_44_1668" x1="33997.2" y1="27391.3" x2="38869.1" y2="4665.36" gradientUnits="userSpaceOnUse">
<stop stop-color="#444B8C"/>
<stop offset="1" stop-color="#26264F"/>
</linearGradient>
<linearGradient id="paint17_linear_44_1668" x1="71.133" y1="320.491" x2="204.957" y2="50.3608" gradientUnits="userSpaceOnUse">
<stop stop-color="#E38DDD"/>
<stop offset="1" stop-color="#9571F6"/>
</linearGradient>
</defs>
</svg>
