<svg width="408" height="406" viewBox="0 0 408 406" fill="none" xmlns="http://www.w3.org/2000/svg">
<path opacity="0.1" d="M401.282 172.989C390.243 100.737 344.984 11.9621 255.563 2.67342C255.563 2.67342 187.673 -5.58402 120.75 6.93087C81.032 14.3578 46.2045 36.4697 24.1681 68.2486C2.13182 100.027 -5.22671 138.776 3.70709 175.72C9.50926 199.72 13.4307 224.549 12.3544 249.205C10.4809 292.114 11.5587 332.173 53.2037 357.764C90.3877 380.615 137.185 400.767 181.83 404.297C212.171 406.696 246.195 402.814 275.438 394.916C424.464 354.658 412.32 245.243 401.282 172.989Z" fill="#F4F7FA"/>
<path d="M234.83 367.005C216.67 362.244 200.73 344.101 198.584 325.726C194.685 292.315 231.563 288.088 243.82 263.383C253.787 243.29 248.78 218.865 259.541 199.028C269.006 181.573 289.62 169.755 309.605 172.325C326.838 174.542 342.601 188.648 346.514 205.925C349.423 218.792 347.294 237.288 341.305 249.153C336.411 258.848 329.967 267.54 321.225 274.084C314.114 279.408 305.159 282.824 299.675 290.084C289.288 303.828 292.103 324.132 286.729 339.591C282.974 350.394 273.273 360.952 262.673 365.246C253.452 368.97 243.823 369.362 234.83 367.005Z" fill="#D8DEE8"/>
<g style="mix-blend-mode:soft-light" opacity="0.8">
<g style="mix-blend-mode:soft-light" opacity="0.8">
<path d="M234.406 361.662C234.539 361.664 234.668 361.621 234.774 361.54C234.879 361.46 234.955 361.347 234.988 361.218C235.045 360.999 240.819 338.987 252.233 310.431C262.763 284.094 280.38 246.644 304.521 217.808C304.622 217.687 304.671 217.531 304.657 217.374C304.643 217.217 304.568 217.072 304.447 216.971C304.326 216.87 304.17 216.821 304.013 216.835C303.856 216.849 303.712 216.925 303.611 217.046C279.366 246.007 261.688 283.584 251.125 310.008C239.685 338.629 233.897 360.7 233.841 360.917C233.818 361.004 233.815 361.095 233.833 361.183C233.851 361.272 233.888 361.355 233.943 361.426C233.997 361.498 234.067 361.556 234.148 361.596C234.228 361.636 234.316 361.658 234.406 361.659V361.662Z" fill="white"/>
</g>
</g>
<path d="M267.561 293.781C304.652 261.636 335.209 276.608 338.995 292.949C342.745 309.133 340.784 393.167 235.888 368.814C234.983 368.604 234.178 368.087 233.611 367.351C233.044 366.615 232.749 365.705 232.777 364.776C233.106 354.252 236.67 320.545 267.561 293.781Z" fill="#BFC8D6"/>
<g style="mix-blend-mode:soft-light" opacity="0.8">
<g style="mix-blend-mode:soft-light" opacity="0.8">
<path d="M236.031 365.516C236.135 365.519 236.239 365.493 236.331 365.442C236.422 365.391 236.498 365.316 236.551 365.226C236.605 365.134 242.006 355.902 254.151 343.863C265.351 332.753 284.755 316.913 313.548 304.541C313.622 304.512 313.691 304.469 313.748 304.413C313.806 304.358 313.852 304.291 313.883 304.217C313.914 304.144 313.93 304.064 313.93 303.984C313.93 303.904 313.913 303.825 313.882 303.752C313.85 303.678 313.804 303.612 313.746 303.557C313.688 303.501 313.619 303.458 313.545 303.43C313.47 303.402 313.39 303.39 313.31 303.393C313.23 303.397 313.151 303.416 313.079 303.451C284.092 315.906 264.56 331.863 253.28 343.057C241.042 355.199 235.584 364.539 235.535 364.632C235.483 364.722 235.455 364.823 235.455 364.927C235.455 365.03 235.481 365.132 235.533 365.222C235.584 365.312 235.658 365.387 235.747 365.44C235.836 365.493 235.937 365.521 236.041 365.522L236.031 365.516Z" fill="white"/>
</g>
<g style="mix-blend-mode:soft-light" opacity="0.8">
<path d="M267.803 331.539C267.86 331.54 267.916 331.532 267.97 331.517C268.121 331.475 268.249 331.374 268.327 331.238C268.404 331.102 268.425 330.941 268.383 330.789C268.331 330.602 263.346 311.773 279.97 299.742C280.093 299.648 280.175 299.51 280.197 299.357C280.22 299.204 280.182 299.048 280.091 298.923C280 298.797 279.864 298.712 279.712 298.686C279.559 298.659 279.403 298.693 279.275 298.781C270.232 305.326 267.439 313.763 266.689 319.691C265.877 326.104 267.183 330.906 267.24 331.108C267.275 331.231 267.348 331.339 267.45 331.417C267.551 331.495 267.675 331.537 267.803 331.539Z" fill="white"/>
</g>
<g style="mix-blend-mode:soft-light" opacity="0.8">
<path d="M299.369 328.083C303.319 328.135 307.994 327.31 313.289 324.848C313.432 324.781 313.542 324.661 313.596 324.513C313.65 324.365 313.643 324.202 313.577 324.059C313.511 323.917 313.39 323.806 313.242 323.752C313.095 323.698 312.931 323.705 312.789 323.771C293.983 332.522 283.126 320.084 283.018 319.957C282.915 319.845 282.771 319.777 282.619 319.768C282.466 319.759 282.316 319.809 282.199 319.908C282.082 320.006 282.008 320.147 281.992 320.299C281.977 320.451 282.02 320.603 282.114 320.724C282.23 320.869 285.023 324.113 290.291 326.264C293.176 327.436 296.256 328.053 299.369 328.083Z" fill="white"/>
</g>
<g style="mix-blend-mode:soft-light" opacity="0.8">
<path d="M268.17 354.567C272.119 354.619 276.795 353.795 282.088 351.332C282.231 351.266 282.341 351.145 282.395 350.998C282.449 350.85 282.442 350.686 282.376 350.544C282.31 350.401 282.189 350.29 282.042 350.236C281.894 350.182 281.731 350.189 281.588 350.256C262.782 359.006 251.925 346.568 251.818 346.442C251.715 346.325 251.57 346.253 251.415 346.242C251.26 346.23 251.106 346.28 250.988 346.381C250.869 346.482 250.795 346.625 250.781 346.78C250.767 346.935 250.814 347.089 250.913 347.21C251.031 347.347 253.822 350.598 259.09 352.749C261.976 353.92 265.056 354.537 268.17 354.567Z" fill="white"/>
</g>
</g>
<path d="M63.4941 254.334L196.007 242.944V354.762L63.4941 254.334Z" fill="url(#paint0_linear_44_1617)"/>
<path d="M196.008 242.944L269.219 266.42L196.008 286.593V242.944Z" fill="url(#paint1_linear_44_1617)"/>
<path d="M195.877 242.944L232.483 229.205L305.26 251.464L269.089 266.42L195.877 242.944Z" fill="url(#paint2_linear_44_1617)"/>
<path d="M269.403 378.587L134.771 395.454V278.071L257.096 267.46L269.054 266.421L269.403 378.587Z" fill="url(#paint3_linear_44_1617)"/>
<path d="M134.77 278.202V395.454L63.3896 364.152V254.334L63.5264 254.397L134.77 278.202Z" fill="url(#paint4_linear_44_1617)"/>
<path style="mix-blend-mode:multiply" opacity="0.5" d="M269.403 378.588L134.771 395.454V388.772C137.4 387.556 140.522 386.601 143.643 385.938C154.088 383.716 172.75 387.592 179.28 376.731C187.658 362.76 180.472 344.861 197.13 335.297C204.984 330.788 214.36 331.16 223.02 330.061C230.414 329.111 237.297 327.082 242.321 320.024C250.386 308.666 250.971 293.912 253.038 280.631C253.861 275.325 255.333 270.995 257.138 267.467L269.079 266.429L269.403 378.588Z" fill="url(#paint5_linear_44_1617)"/>
<path style="mix-blend-mode:multiply" opacity="0.4" d="M134.77 388.625V395.454L63.3896 364.155V254.337L63.5598 254.399C67.1336 262.142 68.0035 271.48 68.546 280.062C69.6311 297.247 76.6187 313.628 91.6965 318.84C93.6791 319.53 95.6863 320.264 97.6936 321.057C113.112 327.166 128.252 337.057 129.019 358.391C129.478 370.945 130.638 380.581 134.77 388.625Z" fill="url(#paint6_linear_44_1617)"/>
<path d="M134.837 278.071L83.1889 302.069L24.2363 272.072L63.365 254.334L134.837 278.071Z" fill="url(#paint7_linear_44_1617)"/>
<path d="M194.875 76.7373C194.875 102.298 174.887 122.41 149.348 121.622C122.762 120.806 100.401 97.8442 100.401 70.3664C100.401 42.8886 122.762 22.9483 149.348 25.7119C174.887 28.3664 194.875 51.1693 194.875 76.7373Z" fill="url(#paint8_linear_44_1617)"/>
<path d="M201.777 74.5263C201.777 100.088 181.79 120.199 156.249 119.412C129.656 118.596 107.297 95.6347 107.297 68.1554C107.297 40.6762 129.656 20.7373 156.244 23.501C181.79 26.1613 201.777 48.9657 201.777 74.5263Z" fill="url(#paint9_linear_44_1617)"/>
<path d="M199.772 74.3911C199.772 98.8274 180.648 118.017 156.243 117.227C130.891 116.407 109.606 94.4943 109.606 68.3125C109.606 42.1308 130.891 23.0893 156.243 25.6828C180.654 28.1861 199.772 49.9548 199.772 74.3911Z" fill="url(#paint10_linear_44_1617)"/>
<path d="M198.337 74.2951C198.337 97.9242 179.831 116.459 156.244 115.667C131.773 114.846 111.251 93.6812 111.251 68.4231C111.251 43.165 131.773 24.7694 156.244 27.2464C179.831 29.6348 198.337 50.6646 198.337 74.2951Z" fill="url(#paint11_linear_44_1617)"/>
<path d="M156.002 35.2828C156.622 35.3559 157.195 35.6523 157.613 36.1168C158.031 36.5812 158.265 37.1818 158.272 37.8064V42.157C160.81 42.4426 163.328 42.8797 165.813 43.4661C167.669 43.9015 169.511 44.4202 171.34 45.0224C171.879 45.2019 172.342 45.5564 172.656 46.0295C172.97 46.5027 173.116 47.0672 173.072 47.6333L172.539 53.0893C172.514 53.421 172.409 53.7417 172.233 54.0237C172.056 54.3057 171.814 54.5403 171.526 54.7074C171.239 54.8745 170.915 54.9689 170.583 54.9825C170.25 54.9961 169.92 54.9284 169.619 54.7853C168.412 54.2481 167.173 53.7866 165.909 53.4035C163.629 52.7208 161.283 52.282 158.911 52.0944L158.27 52.042V64.5017C164.815 66.3329 169.627 68.7984 172.734 71.898C175.84 74.9976 177.368 78.8274 177.368 83.4427C177.368 88.4347 175.66 92.4356 172.243 95.4456C168.805 98.4768 163.973 100.178 157.747 100.55V105.35C157.753 105.647 157.698 105.943 157.586 106.219C157.473 106.494 157.305 106.744 157.093 106.952C156.88 107.161 156.627 107.323 156.349 107.43C156.071 107.537 155.774 107.586 155.477 107.574H155.438C154.823 107.538 154.245 107.269 153.822 106.821C153.399 106.373 153.163 105.781 153.163 105.165V100.429L152.144 100.382C149.329 100.263 146.525 99.9642 143.747 99.4877C141.79 99.1485 139.853 98.7027 137.944 98.1525C137.389 97.9977 136.904 97.6558 136.572 97.1848C136.241 96.7137 136.082 96.1425 136.123 95.5678L136.752 88.554C136.888 87.0383 138.411 86.1554 139.852 86.7241C141.519 87.383 143.223 87.9425 144.956 88.3998C147.628 89.1059 150.36 89.5622 153.116 89.7627L153.157 75.9038C146.87 74.3523 142.176 72.0488 139.074 68.9933C135.972 65.9378 134.417 62.0183 134.409 57.2348C134.409 52.298 136.095 48.491 139.467 45.8137C142.812 43.1533 147.579 41.8297 153.721 41.8326V37.3846C153.712 37.0907 153.767 36.7984 153.881 36.5273C153.995 36.2563 154.166 36.0129 154.382 35.8137C154.598 35.6144 154.855 35.4639 155.134 35.3723C155.414 35.2807 155.71 35.2502 156.002 35.2828ZM153.723 51.914C151.783 52.0547 150.269 52.588 149.18 53.514C148.091 54.4401 147.548 55.6866 147.551 57.2537C147.551 58.7373 148.054 59.9766 149.059 60.9715C150.065 61.9664 151.619 62.7611 153.723 63.3555V51.914ZM157.75 77.0122V89.722C159.862 89.722 161.483 89.2182 162.611 88.2107C163.74 87.2032 164.304 85.7768 164.303 83.9314C164.303 82.2509 163.779 80.8565 162.731 79.7482C161.682 78.6398 160.022 77.7288 157.75 77.0151V77.0122Z" fill="url(#paint12_linear_44_1617)"/>
<path style="mix-blend-mode:multiply" opacity="0.3" d="M148.626 80.0828C150.047 66.0363 162.958 60.0901 161.272 47.1694C160.233 39.2058 154.198 32.496 147.465 27.2552C127.042 29.3978 111.247 46.3098 111.247 68.4188C111.247 93.677 131.769 114.841 156.24 115.662C158.563 115.74 160.889 115.626 163.193 115.324C153.477 105.657 147.404 92.1555 148.626 80.0828Z" fill="url(#paint13_linear_44_1617)"/>
<path d="M123.791 156.289C123.791 176.539 107.956 192.471 87.7185 191.85C66.6553 191.203 48.9404 173.011 48.9404 151.242C48.9404 129.473 66.6539 113.671 87.7171 115.864C107.956 117.971 123.791 136.038 123.791 156.289Z" fill="url(#paint14_linear_44_1617)"/>
<path d="M129.259 154.542C129.259 174.794 113.424 190.724 93.1868 190.103C72.1236 189.456 54.4072 171.265 54.4072 149.497C54.4072 127.728 72.1221 111.924 93.1853 114.119C113.424 116.225 129.259 134.291 129.259 154.542Z" fill="url(#paint15_linear_44_1617)"/>
<path d="M127.672 154.435C127.672 173.795 112.52 188.999 93.1866 188.372C73.1008 187.722 56.2412 170.362 56.2412 149.619C56.2412 128.875 73.1052 113.79 93.1866 115.849C112.52 117.83 127.672 135.076 127.672 154.435Z" fill="url(#paint16_linear_44_1617)"/>
<path d="M126.535 154.359C126.535 173.079 111.873 187.764 93.1865 187.136C73.7989 186.485 57.54 169.717 57.54 149.707C57.54 129.697 73.7989 115.121 93.1865 117.085C111.873 118.977 126.535 135.638 126.535 154.359Z" fill="url(#paint17_linear_44_1617)"/>
<path d="M92.9946 123.453C93.4864 123.51 93.9403 123.745 94.2715 124.113C94.6027 124.482 94.7884 124.958 94.7938 125.453V128.9C96.804 129.125 98.7989 129.471 100.768 129.936C102.238 130.282 103.698 130.694 105.149 131.171C105.576 131.312 105.943 131.593 106.192 131.968C106.441 132.343 106.557 132.79 106.522 133.239L106.099 137.56C106.079 137.823 105.996 138.077 105.856 138.301C105.717 138.524 105.525 138.71 105.297 138.842C105.069 138.975 104.812 139.05 104.549 139.061C104.286 139.071 104.024 139.018 103.786 138.904C102.83 138.478 101.848 138.113 100.846 137.811C99.0404 137.269 97.1822 136.922 95.3029 136.774L94.7938 136.733V146.603C99.9807 148.058 103.8 150.011 106.253 152.464C108.705 154.916 109.929 157.965 109.924 161.61C109.924 165.565 108.571 168.735 105.864 171.12C103.14 173.52 99.3092 174.867 94.3735 175.163V178.967C94.3774 179.202 94.3332 179.436 94.2436 179.654C94.154 179.872 94.0208 180.07 93.8522 180.234C93.6836 180.399 93.4831 180.527 93.2631 180.612C93.0431 180.696 92.8082 180.735 92.5728 180.725H92.5408C92.0527 180.698 91.5935 180.486 91.2574 180.131C90.9212 179.776 90.7335 179.306 90.7328 178.817V175.064L89.9313 175.028C87.7009 174.933 85.4787 174.696 83.2782 174.32C81.731 174.05 80.1996 173.696 78.6906 173.261C78.2511 173.137 77.8677 172.866 77.6051 172.493C77.3425 172.119 77.2168 171.667 77.2492 171.211L77.7466 165.656C77.8543 164.455 79.0557 163.755 80.2033 164.202C81.5241 164.723 82.8743 165.167 84.247 165.53C86.3638 166.088 88.5276 166.449 90.7109 166.609L90.7429 155.629C85.7636 154.396 82.0448 152.571 79.5866 150.154C77.1284 147.736 75.8964 144.633 75.8906 140.845C75.8906 136.933 77.2264 133.917 79.8979 131.796C82.551 129.688 86.3241 128.64 91.1924 128.641V125.117C91.1859 124.885 91.2291 124.654 91.3193 124.439C91.4095 124.225 91.5445 124.033 91.7152 123.875C91.886 123.718 92.0885 123.598 92.3092 123.525C92.5298 123.453 92.7635 123.428 92.9946 123.453ZM91.1895 136.63C89.6506 136.741 88.4511 137.164 87.591 137.898C86.7308 138.632 86.3003 139.62 86.2993 140.861C86.2853 141.408 86.3842 141.951 86.5899 142.458C86.7956 142.965 87.1037 143.424 87.495 143.806C88.2891 144.593 89.5206 145.223 91.1895 145.697V136.63ZM94.3808 156.513V166.583C96.0535 166.583 97.3373 166.184 98.2324 165.386C99.1274 164.588 99.574 163.458 99.572 161.995C99.572 160.664 99.157 159.559 98.3269 158.682C97.4969 157.804 96.1815 157.081 94.3808 156.513Z" fill="url(#paint18_linear_44_1617)"/>
<path style="mix-blend-mode:multiply" opacity="0.3" d="M87.1516 158.942C88.2774 147.815 98.5058 143.104 97.1705 132.868C96.3472 126.558 91.5661 121.242 86.2309 117.091C70.052 118.787 57.54 132.184 57.54 149.707C57.54 169.717 73.7989 186.485 93.1865 187.136C95.0269 187.198 96.8693 187.108 98.6949 186.866C90.9945 179.205 86.1829 168.503 87.1516 158.942Z" fill="url(#paint19_linear_44_1617)"/>
<path d="M69.7825 387.023C69.7825 387.023 69.5032 389.239 69.6908 389.982C69.8785 390.725 76.3206 391.261 78.5082 391C80.6959 390.74 77.1992 388.507 75.8115 388.091C74.4239 387.675 69.7825 387.023 69.7825 387.023Z" fill="url(#paint20_linear_44_1617)"/>
<path d="M73.0252 383.326L72.3474 387.773C72.3474 387.773 70.615 388.551 69.783 387.781L69.6914 383.127L73.0252 383.326Z" fill="url(#paint21_linear_44_1617)"/>
<path d="M36.7024 383.128C36.7024 383.128 38.0697 384.146 37.7046 385.356C37.3395 386.567 34.1511 391.441 31.8777 392.823C29.6042 394.204 30.3169 391.324 30.9773 389.532C31.6377 387.74 33.3293 383.79 33.9897 383.132C34.65 382.475 36.7024 383.128 36.7024 383.128Z" fill="url(#paint22_linear_44_1617)"/>
<path d="M39.1611 378.242C38.4993 380.085 37.8637 381.599 37.3677 382.716C36.2666 385.189 35.6658 386.116 34.9851 386.92C34.3917 387.62 32.9851 389.113 32.6069 388.865C32.2287 388.616 33.2527 386.796 35.2338 381.476C35.5247 380.703 36.4309 378.242 36.4309 378.242H39.1611Z" fill="url(#paint23_linear_44_1617)"/>
<path d="M86.5182 301.266C87.2137 308.092 87.297 314.966 86.767 321.806C85.8841 333.17 83.6121 340.362 80.7626 352.478C79.0172 359.883 76.6739 370.782 74.5503 384.412C73.3991 385.077 72.0593 385.34 70.7423 385.159C69.9259 385.035 69.1457 384.737 68.4543 384.286C62.882 367.268 64.527 356.709 67.2165 350.136C68.3627 347.333 69.7532 345.124 70.495 340.815C71.4783 335.118 70.2623 331.933 68.5299 318.733C67.295 309.325 67.5118 307.87 68.3307 306.459C71.615 300.823 81.6644 300.933 86.5182 301.266Z" fill="url(#paint24_linear_44_1617)"/>
<path d="M67.3447 303.248C63.9324 320.874 60.5825 330.132 58.0473 335.368C56.2202 339.064 54.6552 342.884 53.3637 346.799C51.6182 352.087 50.8909 355.976 50.5171 357.688C49.3404 363.092 46.4328 370.981 38.6073 381.329C38.5099 381.385 37.1746 382.14 35.899 381.467C35.4257 381.21 35.0433 380.813 34.8037 380.331C35.8219 370.44 37.0015 362.124 38.0212 355.708C38.235 354.363 39.1775 348.475 40.6539 340.696C41.2357 337.652 42.0793 333.192 43.0946 328.61C44.3571 322.906 46.2946 315.146 49.2808 305.845L67.3447 303.248Z" fill="url(#paint25_linear_44_1617)"/>
<path d="M70.2537 233.524C72.1897 231.735 75.893 229.672 77.7505 224.877C78.3105 223.434 80.2901 218.32 77.3694 214.404C75.6341 212.077 72.4123 210.505 69.573 211.059C67.1468 211.536 66.7672 213.226 62.645 216.627C61.045 217.95 58.4603 220.078 55.589 221.261C50.6712 223.288 47.7156 221.382 42.7774 221.598C36.7105 221.866 29.6633 225.252 26.2684 230.18C20.2422 238.919 28.9709 247.78 22.3702 258.02C20.2073 261.374 19.1411 260.622 14.0182 267.114C8.89529 273.605 6.32366 276.859 6.78038 280.849C7.41456 286.376 13.368 291.658 18.9753 292.016C24.4516 292.368 27.9338 288.058 30.7222 289.943C32.7076 291.284 31.5716 293.893 33.6807 297.028C36.3978 301.071 41.7374 301.876 42.6 302.007C50.6 303.214 61.4014 293.826 65.9861 282.705C74.2465 262.651 59.7243 243.252 70.2537 233.524Z" fill="url(#paint26_linear_44_1617)"/>
<path d="M103.099 239.092C103.153 233.493 90.4447 229.021 84.6178 227.579C75.5662 225.336 68.3182 226.744 66.5582 227.117C55.2695 229.508 48.2397 236.28 45.5939 239.13C47.7597 240.541 53.7393 244.845 56.7008 253.012C57.6215 255.553 60.3444 264.239 56.4506 272.376C54.2077 277.064 50.2397 280.584 47.2273 283.258C42.7066 287.268 40.3662 287.884 38.8506 291.476C37.2012 295.388 38.8637 297.294 36.8142 299.975C34.6135 302.85 32.0346 301.514 28.3037 304.421C24.4826 307.4 25.8426 309.852 22.3648 313.148C17.3117 317.931 10.6136 316.378 10.3008 318.53C10.0332 320.382 14.7939 322.894 18.839 323.912C26.8492 325.93 33.8353 322.543 35.9139 321.499C41.6666 318.61 40.6717 316.74 45.0586 314.536C52.4011 310.847 57.4222 314.952 74.1494 315.375C83.2069 315.604 87.7872 315.656 90.2949 312.591C92.5858 309.791 91.3814 306.721 90.004 293.489C89.3494 287.191 89.1138 280.856 88.6309 274.543C87.2665 256.685 87.2243 255.112 88.436 252.644C92.7763 243.796 103.051 244.116 103.099 239.092Z" fill="url(#paint27_linear_44_1617)"/>
<g style="mix-blend-mode:multiply" opacity="0.3">
<path style="mix-blend-mode:multiply" opacity="0.3" d="M22.3647 313.146C25.8425 309.853 24.4826 307.4 28.3036 304.418C32.0345 301.509 34.6134 302.847 36.8142 299.972C38.8636 297.293 37.2011 295.386 38.8505 291.473C40.3662 287.882 42.7065 287.265 47.2272 283.255C50.2396 280.581 54.209 277.061 56.4505 272.373C60.3443 264.237 57.6141 255.55 56.7007 253.009C53.7392 244.842 47.7596 240.538 45.5938 239.127C45.8018 238.901 46.0476 238.645 46.3109 238.376C60.5872 240.337 68.9101 248.586 69.9399 251.031C72.3196 256.676 68.5523 258.751 68.4548 275.031C68.4083 282.814 69.2476 285.887 66.7225 289.14C63.8338 292.855 60.5058 291.706 56.3298 296.558C53.1196 300.29 53.6345 302.657 50.6381 304.229C47.4149 305.919 45.3625 303.948 41.7291 304.724C35.6578 306.018 34.3589 313.015 30.3458 316.849C27.3102 319.746 21.6986 321.771 10.6309 319.598C10.3749 319.224 10.2513 318.86 10.3008 318.52C10.6178 316.375 17.3087 317.928 22.3647 313.146Z" fill="url(#paint28_linear_44_1617)"/>
</g>
<path d="M65.6079 255.425C67.1265 258.647 60.1534 266.152 52.4021 269.717C50.8225 270.445 39.4829 275.658 34.4284 270.644C30.2524 266.5 32.9476 257.933 33.9105 254.874C38.6349 239.856 53.1454 232.216 59.2269 229.46C63.765 240.805 61.093 245.864 60.0414 247.444C58.9418 249.093 55.8741 252.558 52.6232 255.61C50.3309 257.757 48.904 258.801 49.096 259.137C49.3345 259.553 52.021 258.766 62.453 253.688C63.6574 253.885 65.0901 254.324 65.6079 255.425Z" fill="url(#paint29_linear_44_1617)"/>
<path d="M109.26 236.91L104.144 262.402C104.064 262.802 103.868 263.169 103.582 263.459C103.296 263.75 102.931 263.95 102.533 264.036L64.3611 272.228C64.0427 272.296 63.7128 272.29 63.3976 272.208C63.0824 272.126 62.7905 271.972 62.5454 271.758C62.3003 271.544 62.1086 271.275 61.9857 270.973C61.8628 270.672 61.812 270.346 61.8374 270.021L63.8534 244.094C63.8872 243.655 64.0585 243.239 64.3429 242.903C64.6273 242.568 65.0103 242.33 65.4374 242.225C71.4898 240.731 94.793 235.137 107.084 234.41C107.404 234.391 107.723 234.445 108.019 234.569C108.314 234.693 108.577 234.883 108.787 235.125C108.997 235.366 109.149 235.653 109.231 235.962C109.313 236.272 109.323 236.596 109.26 236.91Z" fill="url(#paint30_linear_44_1617)"/>
<path d="M71.1912 218.292C71.1912 218.292 70.4712 224.048 68.3476 225.367C66.2239 226.686 62.7883 228.407 62.4101 228.875C62.0319 229.344 75.5708 230.798 82.2792 227.412C80.0683 226.951 79.4676 226.781 79.4676 226.781C78.4773 226.525 77.5226 226.147 76.6254 225.656C75.383 224.939 74.3158 223.954 73.501 222.773L73.5257 219.587L71.1912 218.292Z" fill="url(#paint31_linear_44_1617)"/>
<path d="M70.8674 220.331C70.8674 220.331 72.2521 222.232 74.4252 221.44C76.3699 220.73 75.2092 215.707 73.6659 215.134C73.1525 214.944 72.2114 215.028 71.5758 215.425C71.1307 215.701 69.9452 217.171 70.6245 218.827C70.1329 218.682 69.7009 218.814 69.5918 219.057C69.4551 219.365 69.871 219.784 69.9656 219.882C70.2122 220.122 70.5274 220.279 70.8674 220.331Z" fill="url(#paint32_linear_44_1617)"/>
<path style="mix-blend-mode:multiply" opacity="0.3" d="M74.8882 258.951C78.9871 257.796 82.3878 260.666 85.6518 258.394C88.9972 256.066 86.8154 252.094 90.2918 248.186C94.0096 244.008 98.7281 246.055 102.17 242.247C103.448 240.833 104.597 238.53 104.615 234.603C105.477 234.52 106.303 234.458 107.087 234.407C107.408 234.387 107.729 234.44 108.025 234.564C108.321 234.688 108.585 234.878 108.796 235.12C109.007 235.362 109.159 235.649 109.242 235.96C109.324 236.27 109.333 236.595 109.269 236.91L104.145 262.402C104.064 262.802 103.869 263.169 103.583 263.459C103.296 263.75 102.932 263.95 102.533 264.036L65.8525 271.906C68.4387 262.821 71.8947 259.794 74.8882 258.951Z" fill="url(#paint33_linear_44_1617)"/>
<path d="M106.831 250.472C106.831 250.472 109.266 248.228 109.526 245.61C109.787 242.992 107.954 240.904 106.181 240.373C104.408 239.843 103.451 240.627 104.646 243.201C105.842 245.776 107.733 247.44 106.831 250.472Z" fill="url(#paint34_linear_44_1617)"/>
<path d="M282.433 357.028L257.706 287.979C257.282 286.792 256.47 285.665 255.314 285.17L223.922 271.578C222.908 271.14 221.765 271.103 220.725 271.475C219.685 271.846 218.825 272.598 218.317 273.579L202.598 304.053C202.312 304.632 202.143 305.261 202.102 305.906C202.061 306.55 202.148 307.196 202.358 307.806L227.085 376.853C227.929 379.208 230.624 380.392 232.98 379.549L279.962 362.718C282.317 361.88 283.277 359.387 282.433 357.028ZM228.034 291.719C227.081 292.06 226.048 292.111 225.066 291.866C224.084 291.62 223.196 291.089 222.516 290.339C221.836 289.589 221.394 288.655 221.245 287.653C221.096 286.652 221.247 285.629 221.679 284.714C222.112 283.798 222.806 283.032 223.674 282.511C224.542 281.99 225.545 281.738 226.556 281.788C227.567 281.837 228.541 282.185 229.355 282.787C230.168 283.39 230.784 284.22 231.126 285.173C231.354 285.807 231.455 286.48 231.423 287.152C231.391 287.825 231.226 288.485 230.938 289.094C230.65 289.703 230.245 290.249 229.746 290.701C229.246 291.153 228.662 291.502 228.028 291.728L228.034 291.719Z" fill="url(#paint35_linear_44_1617)"/>
<path d="M244.972 323.474C243.69 323.563 242.526 323.623 241.482 323.656C236.951 323.783 234.554 323.306 234.046 321.89C233.774 321.131 233.826 320.231 234.654 319.311C235.345 318.546 236.568 317.77 238.591 317.044C244.648 314.875 249.288 315.335 251.577 315.375L250.523 304.84C247.41 304.695 243.647 304.868 237.887 306.696L235.745 300.717L227.404 303.703L229.722 310.17C226.89 311.819 224.285 313.988 222.677 316.279C222.677 316.279 222.677 316.287 222.677 316.292C220.091 319.989 219.534 324.2 221.025 328.364C223.743 335.951 231.482 337.342 240.318 336.378C246.596 335.698 249.183 336.107 249.929 338.193C250.753 340.491 248.27 342.324 244.581 343.646C239.153 345.589 233.496 345.572 229.422 345.148L230.45 356.088C234.014 356.618 240.196 356.129 245.604 354.506L247.912 360.949L256.252 357.963L253.72 350.894C256.958 349.185 258.939 347.403 260.578 345.354C260.587 345.34 260.644 345.311 260.652 345.3C263.899 341.236 264.661 336.53 263.09 332.143C260.616 325.252 255.595 322.653 244.972 323.474Z" fill="white"/>
<path style="mix-blend-mode:multiply" opacity="0.2" d="M280.914 352.788L282.434 357.032C283.278 359.387 282.318 361.88 279.962 362.724L232.98 379.553C230.623 380.397 227.928 379.213 227.085 376.858L202.357 307.81C202.18 307.296 202.095 306.754 202.104 306.21C203.614 309.128 205.595 311.752 208.404 313.376C212.693 315.848 217.902 315.714 222.721 316.272C223.044 316.312 223.364 316.35 223.684 316.397C227.444 316.925 231.186 317.789 234.654 319.306C236.227 319.989 237.732 320.819 239.149 321.786C239.971 322.35 240.751 322.973 241.483 323.65C246.239 328.027 248.365 333.912 252.312 339.127C254.484 341.998 257.439 343.858 260.634 345.298C262.906 346.333 265.207 347.189 267.525 348.014C271.723 349.517 276.744 350.698 280.914 352.788Z" fill="url(#paint36_linear_44_1617)"/>
<path d="M226.19 284.446C226.14 284.665 226.017 284.86 225.841 285C225.665 285.14 225.446 285.215 225.222 285.214C225.144 285.216 225.067 285.207 224.992 285.189C224.735 285.129 224.512 284.969 224.372 284.745C224.233 284.52 224.188 284.25 224.249 283.992C224.269 283.912 226.036 276.058 222.321 272.698C221.092 271.589 219.37 271 217.168 271.074C216.844 271.085 216.509 271.074 216.16 271.074H216.145L209.754 271.583C209.715 271.354 209.76 271.118 209.883 270.92C210.005 270.721 210.196 270.575 210.419 270.507C216.435 268.45 220.891 268.699 223.664 271.205C228.253 275.348 226.281 284.074 226.19 284.446Z" fill="url(#paint37_linear_44_1617)"/>
<path d="M303.272 212.222C303.397 212.09 306.472 211.341 306.472 211.341C306.472 211.341 307.389 207.93 309.178 209.677C310.967 211.424 311.008 213.749 309.594 213.838C308.18 213.927 305.349 213.424 303.976 214.129C302.603 214.835 303.272 212.222 303.272 212.222Z" fill="url(#paint38_linear_44_1617)"/>
<path d="M344.704 172.398L341.827 169.856C341.552 169.613 341.335 169.312 341.19 168.975C341.046 168.638 340.978 168.273 340.992 167.907C341.033 166.823 340.971 165.239 340.361 164.407C339.379 163.067 335.693 164.158 335.528 164.407C334.8 165.495 334.543 167.376 336.728 168.069C338.912 168.763 339.474 169.917 339.474 169.917L342.93 174.8L344.704 172.398Z" fill="url(#paint39_linear_44_1617)"/>
<path d="M330.699 398.012C330.979 397.172 333.88 396.783 335.099 398.136C335.704 398.808 336.013 400.04 335.536 400.51C335.365 400.682 335.908 401.102 335.341 401.028C333.461 400.785 330.423 398.85 330.699 398.012Z" fill="url(#paint40_linear_44_1617)"/>
<path d="M333.581 398.741H336.509C335.405 396.952 336.373 391.887 336.373 391.887L333.224 392.137C333.224 392.137 333.369 393.592 333.675 395.735C333.776 396.47 333.711 397.589 333.581 398.741Z" fill="url(#paint41_linear_44_1617)"/>
<path d="M325.993 288.012C323.938 294.809 322.42 301.757 321.453 308.792C317.895 334.663 325.456 335.489 324.044 364.158C323.593 373.308 331.971 394.412 332.71 394.876C333.096 394.915 333.485 394.93 333.874 394.921C334.874 394.886 335.866 394.721 336.825 394.43C338.151 394.2 342.934 381.24 341.827 373.534C340.492 364.249 342.132 357.801 341.725 350.519C340.749 333.086 341.666 314.671 342.88 314.602C343.65 314.558 344.916 321.839 346.26 329.49C347.795 338.274 348.044 342.29 351.299 346.119C353.497 348.705 356.125 350.1 357.951 350.863C380.132 360.135 377.044 360.2 381.882 364.199C382.684 364.86 384.854 366.724 386.38 366.049C387.398 365.595 387.705 364.193 387.834 363.56C388.852 358.529 385.732 348.039 377.507 344.104C374.557 342.695 373.734 343.439 370.887 341.682C367.35 339.5 364.825 335.937 363.738 332.632C361.826 326.814 364.828 323.186 366.476 315.468C366.793 313.988 366.316 300.748 364.887 292.007C363.008 280.58 325.993 288.012 325.993 288.012Z" fill="url(#paint42_linear_44_1617)"/>
<path d="M333.381 398.351C333.381 398.351 336.95 398.044 337.226 398.788C337.503 399.531 337.535 401.406 335.35 401.034C333.165 400.661 333.1 398.906 333.381 398.351Z" fill="url(#paint43_linear_44_1617)"/>
<path d="M304.172 211.283L305.102 214.215C302.862 215.93 296.702 221.051 297.439 226.541C298.507 234.477 313.294 238.075 322.667 238.056C325.234 238.056 341.915 238.017 349.747 226.049C356.629 215.537 352.366 202.413 348.851 191.587C346.696 184.973 343.603 178.703 339.667 172.968L344.322 169.014C349.951 172.423 360.456 179.936 367.241 193.425C373.496 205.863 373.854 217.946 373.787 222.538C373.704 228.225 372.86 229.787 372.719 238.016C372.59 245.608 373.203 250.337 374.139 259.169C377.429 290.206 376.623 295.764 374.214 301.288C372.185 305.943 370.432 309.953 366.185 312.363C357.682 317.182 350.563 309.14 332.032 310.618C325.587 311.132 323.305 312.363 320.657 310.503C319.1 309.412 316.239 306.43 317.166 287.085C317.96 270.56 320.366 266.173 316.917 261.426C313.893 257.266 310.786 258.907 301.473 254.203C295.379 251.125 282.213 244.475 281.045 233.527C280.2 225.6 286.065 219.352 287.023 218.331C293.753 211.176 302.728 211.251 304.172 211.283Z" fill="url(#paint44_linear_44_1617)"/>
<path d="M337.479 227.405C337.37 225.341 338.726 223.758 339.021 223.418C340.265 221.994 340.54 221.818 341.021 221.636L341.685 221.406L341.76 221.396C342.165 221.346 343.447 221.594 343.693 221.707C344.479 222.068 344.604 225.626 343.287 230.322C343.287 230.51 343.273 230.701 343.264 230.893C343.25 231.173 343.242 231.391 343.235 231.575C343.228 231.769 343.265 231.963 343.341 232.142C343.418 232.321 343.533 232.481 343.679 232.611C343.824 232.74 343.997 232.836 344.183 232.891C344.37 232.946 344.567 232.96 344.759 232.93C348.97 232.287 348.389 233.303 348.25 233.627C347.913 234.391 344.013 236.536 339.319 237.7C333.493 239.058 329.829 238.895 330.322 238.005C330.508 237.671 333.399 236.162 336.816 235.034C337.196 234.91 337.542 234.7 337.825 234.418C338.108 234.137 338.321 233.792 338.447 233.413C338.784 232.372 339.439 230.926 339.594 230.49C339.295 230.239 337.559 228.925 337.479 227.405Z" fill="url(#paint45_linear_44_1617)"/>
<path d="M340.278 219.674C339.952 221.146 340.294 222.874 340.591 223.207C340.762 223.417 340.897 223.654 340.992 223.908C341.016 223.97 341.031 224.035 341.037 224.102C341.152 225.101 339.437 225.863 339.624 226.342C339.769 226.689 340.856 226.51 340.917 226.798C340.978 227.086 340.028 227.389 340.089 227.71C340.136 227.953 340.694 227.866 340.941 228.277C341.065 228.483 340.986 228.606 341.042 229.16C341.069 229.453 341.122 229.743 341.202 230.026C341.516 231.003 342.886 231.643 343.238 231.36C343.337 231.28 343.289 231.184 343.44 230.878C343.556 230.666 343.7 230.47 343.868 230.296C344.277 229.86 345.075 229.675 345.919 229.315C347.481 228.648 348.031 227.905 348.202 227.651C348.265 227.56 348.306 227.491 348.335 227.441C348.928 226.433 349.287 224.84 349.018 223.751C348.57 221.926 346.546 222.296 345.407 220.326C344.087 218.059 345.698 215.725 344.825 215.235C343.853 214.683 340.879 216.955 340.278 219.674Z" fill="#26264F"/>
<path d="M340.23 226.119C340.702 225.703 341.232 226.312 341.092 226.954C340.953 227.595 340.18 228.117 339.606 227.861C339.031 227.605 339.596 226.673 340.23 226.119Z" fill="url(#paint46_linear_44_1617)"/>
<path d="M385.58 365.285L387.438 366.766L388.691 365.407L386.982 363.749C386.82 363.591 386.605 363.498 386.378 363.488C386.152 363.478 385.929 363.551 385.753 363.694L385.573 363.84C385.465 363.927 385.378 364.037 385.319 364.163C385.259 364.288 385.229 364.425 385.23 364.564C385.23 364.703 385.262 364.84 385.323 364.965C385.383 365.089 385.471 365.199 385.58 365.285Z" fill="url(#paint47_linear_44_1617)"/>
<path d="M389.053 367.898C389.098 366.527 389.781 366.114 389.455 365.449C389.203 364.927 388.501 364.597 387.926 364.714C387.12 364.878 386.778 365.877 386.703 366.11C386.179 367.655 387.331 368.514 386.693 369.785C386.465 370.153 386.309 370.559 386.232 370.984C386.194 371.233 386.101 371.857 386.367 372.015C386.674 372.206 387.305 371.694 387.904 371.207C388.632 370.625 388.984 370.334 389.161 369.836C389.408 369.151 389.018 368.955 389.053 367.898Z" fill="url(#paint48_linear_44_1617)"/>
<path style="mix-blend-mode:multiply" opacity="0.3" d="M350.663 293.388C343.3 290.091 335.203 297.815 332.76 295.215C329.982 292.26 341.165 283.034 340.067 270.372C339.427 262.986 334.573 254.036 327.28 251.374C319.678 248.599 313.715 254.219 307.55 249.912C304.247 247.604 305.476 245.65 301.706 241.874C295.251 235.41 288.324 237.802 284.534 233.472C283.172 231.915 282.134 229.399 282.518 225.045C281.45 227.453 280.711 230.357 281.05 233.531C282.214 244.48 295.384 251.131 301.478 254.208C310.787 258.911 313.898 257.271 316.922 261.431C320.369 266.177 317.965 270.564 317.171 287.089C316.241 306.434 319.102 309.415 320.662 310.507C323.307 312.36 325.592 311.137 332.037 310.622C350.568 309.141 357.687 317.183 366.19 312.367C367.585 311.575 368.823 310.533 369.843 309.294C365.101 309.256 362.122 307.909 360.164 306.181C355.635 302.183 356.26 295.898 350.663 293.388Z" fill="url(#paint49_linear_44_1617)"/>
<defs>
<linearGradient id="paint0_linear_44_1617" x1="63.4941" y1="298.852" x2="196.007" y2="298.852" gradientUnits="userSpaceOnUse">
<stop stop-color="#311944"/>
<stop offset="1" stop-color="#893976"/>
</linearGradient>
<linearGradient id="paint1_linear_44_1617" x1="98852.9" y1="79697" x2="135702" y2="79697" gradientUnits="userSpaceOnUse">
<stop stop-color="#311944"/>
<stop offset="1" stop-color="#893976"/>
</linearGradient>
<linearGradient id="paint2_linear_44_1617" x1="281.227" y1="211.998" x2="176.516" y2="332.241" gradientUnits="userSpaceOnUse">
<stop stop-color="#FFC444"/>
<stop offset="1" stop-color="#F36F56"/>
</linearGradient>
<linearGradient id="paint3_linear_44_1617" x1="124878" y1="293841" x2="249494" y2="293841" gradientUnits="userSpaceOnUse">
<stop stop-color="#FFC444"/>
<stop offset="1" stop-color="#F36F56"/>
</linearGradient>
<linearGradient id="paint4_linear_44_1617" x1="16597.9" y1="315467" x2="60577.4" y2="315467" gradientUnits="userSpaceOnUse">
<stop stop-color="#FFC444"/>
<stop offset="1" stop-color="#F36F56"/>
</linearGradient>
<linearGradient id="paint5_linear_44_1617" x1="124878" y1="293824" x2="249494" y2="293824" gradientUnits="userSpaceOnUse">
<stop stop-color="#FFC444"/>
<stop offset="1" stop-color="#F36F56"/>
</linearGradient>
<linearGradient id="paint6_linear_44_1617" x1="31171.6" y1="316226" x2="66200.8" y2="316226" gradientUnits="userSpaceOnUse">
<stop stop-color="#FFC444"/>
<stop offset="1" stop-color="#F36F56"/>
</linearGradient>
<linearGradient id="paint7_linear_44_1617" x1="71495.4" y1="85079.4" x2="47700.7" y2="148388" gradientUnits="userSpaceOnUse">
<stop stop-color="#FFC444"/>
<stop offset="1" stop-color="#F36F56"/>
</linearGradient>
<linearGradient id="paint8_linear_44_1617" x1="131.443" y1="78.73" x2="76.3418" y2="96.4129" gradientUnits="userSpaceOnUse">
<stop stop-color="#FCB148"/>
<stop offset="0.05" stop-color="#FDBA46"/>
<stop offset="0.14" stop-color="#FFC244"/>
<stop offset="0.32" stop-color="#FFC444"/>
<stop offset="0.48" stop-color="#FDB946"/>
<stop offset="0.78" stop-color="#F99C4D"/>
<stop offset="0.87" stop-color="#F8924F"/>
<stop offset="1" stop-color="#F8924F"/>
</linearGradient>
<linearGradient id="paint9_linear_44_1617" x1="176.015" y1="23.8835" x2="126.825" y2="132.405" gradientUnits="userSpaceOnUse">
<stop stop-color="#FFDB44"/>
<stop offset="1" stop-color="#FEEF06"/>
</linearGradient>
<linearGradient id="paint10_linear_44_1617" x1="103611" y1="87920.9" x2="97518.9" y2="55234.2" gradientUnits="userSpaceOnUse">
<stop stop-color="#FCB148"/>
<stop offset="0.05" stop-color="#FDBA46"/>
<stop offset="0.14" stop-color="#FFC244"/>
<stop offset="0.32" stop-color="#FFC444"/>
<stop offset="0.48" stop-color="#FDB946"/>
<stop offset="0.78" stop-color="#F99C4D"/>
<stop offset="0.87" stop-color="#F8924F"/>
<stop offset="1" stop-color="#F8924F"/>
</linearGradient>
<linearGradient id="paint11_linear_44_1617" x1="88029.3" y1="33759.1" x2="112147" y2="84041.5" gradientUnits="userSpaceOnUse">
<stop stop-color="#FCB148"/>
<stop offset="0.05" stop-color="#FDBA46"/>
<stop offset="0.14" stop-color="#FFC244"/>
<stop offset="0.32" stop-color="#FFC444"/>
<stop offset="0.48" stop-color="#FDB946"/>
<stop offset="0.78" stop-color="#F99C4D"/>
<stop offset="0.87" stop-color="#F8924F"/>
<stop offset="1" stop-color="#F8924F"/>
</linearGradient>
<linearGradient id="paint12_linear_44_1617" x1="43043.1" y1="18660.4" x2="57712.3" y2="51324" gradientUnits="userSpaceOnUse">
<stop stop-color="#FFDB44"/>
<stop offset="1" stop-color="#FEEF06"/>
</linearGradient>
<linearGradient id="paint13_linear_44_1617" x1="48444" y1="36935.6" x2="78488.6" y2="74401.5" gradientUnits="userSpaceOnUse">
<stop stop-color="#FCB148"/>
<stop offset="0.05" stop-color="#FDBA46"/>
<stop offset="0.14" stop-color="#FFC244"/>
<stop offset="0.32" stop-color="#FFC444"/>
<stop offset="0.48" stop-color="#FDB946"/>
<stop offset="0.78" stop-color="#F99C4D"/>
<stop offset="0.87" stop-color="#F8924F"/>
<stop offset="1" stop-color="#F8924F"/>
</linearGradient>
<linearGradient id="paint14_linear_44_1617" x1="37891.2" y1="83242.2" x2="15352.8" y2="90346.3" gradientUnits="userSpaceOnUse">
<stop stop-color="#FCB148"/>
<stop offset="0.05" stop-color="#FDBA46"/>
<stop offset="0.14" stop-color="#FFC244"/>
<stop offset="0.32" stop-color="#FFC444"/>
<stop offset="0.48" stop-color="#FDB946"/>
<stop offset="0.78" stop-color="#F99C4D"/>
<stop offset="0.87" stop-color="#F8924F"/>
<stop offset="1" stop-color="#F8924F"/>
</linearGradient>
<linearGradient id="paint15_linear_44_1617" x1="56070.1" y1="60473.7" x2="35411.9" y2="105240" gradientUnits="userSpaceOnUse">
<stop stop-color="#FFDB44"/>
<stop offset="1" stop-color="#FEEF06"/>
</linearGradient>
<linearGradient id="paint16_linear_44_1617" x1="49990.9" y1="103116" x2="46167.7" y2="82599.9" gradientUnits="userSpaceOnUse">
<stop stop-color="#FCB148"/>
<stop offset="0.05" stop-color="#FDBA46"/>
<stop offset="0.14" stop-color="#FFC244"/>
<stop offset="0.32" stop-color="#FFC444"/>
<stop offset="0.48" stop-color="#FDB946"/>
<stop offset="0.78" stop-color="#F99C4D"/>
<stop offset="0.87" stop-color="#F8924F"/>
<stop offset="1" stop-color="#F8924F"/>
</linearGradient>
<linearGradient id="paint17_linear_44_1617" x1="40726.5" y1="67489.1" x2="55864.4" y2="99049.9" gradientUnits="userSpaceOnUse">
<stop stop-color="#FCB148"/>
<stop offset="0.05" stop-color="#FDBA46"/>
<stop offset="0.14" stop-color="#FFC244"/>
<stop offset="0.32" stop-color="#FFC444"/>
<stop offset="0.48" stop-color="#FDB946"/>
<stop offset="0.78" stop-color="#F99C4D"/>
<stop offset="0.87" stop-color="#F8924F"/>
<stop offset="1" stop-color="#F8924F"/>
</linearGradient>
<linearGradient id="paint18_linear_44_1617" x1="19848.3" y1="49487.5" x2="29055.7" y2="69989.1" gradientUnits="userSpaceOnUse">
<stop stop-color="#FFDB44"/>
<stop offset="1" stop-color="#FEEF06"/>
</linearGradient>
<linearGradient id="paint19_linear_44_1617" x1="21737.1" y1="69364.1" x2="40596.7" y2="92880.9" gradientUnits="userSpaceOnUse">
<stop stop-color="#FCB148"/>
<stop offset="0.05" stop-color="#FDBA46"/>
<stop offset="0.14" stop-color="#FFC244"/>
<stop offset="0.32" stop-color="#FFC444"/>
<stop offset="0.48" stop-color="#FDB946"/>
<stop offset="0.78" stop-color="#F99C4D"/>
<stop offset="0.87" stop-color="#F8924F"/>
<stop offset="1" stop-color="#F8924F"/>
</linearGradient>
<linearGradient id="paint20_linear_44_1617" x1="75.3606" y1="372.767" x2="73.1336" y2="412.858" gradientUnits="userSpaceOnUse">
<stop stop-color="#444B8C"/>
<stop offset="1" stop-color="#26264F"/>
</linearGradient>
<linearGradient id="paint21_linear_44_1617" x1="-13095.7" y1="13778.6" x2="-13163.8" y2="12750.9" gradientUnits="userSpaceOnUse">
<stop stop-color="#FFC444"/>
<stop offset="1" stop-color="#F36F56"/>
</linearGradient>
<linearGradient id="paint22_linear_44_1617" x1="32463.2" y1="26796.2" x2="32682.9" y2="29639.7" gradientUnits="userSpaceOnUse">
<stop stop-color="#444B8C"/>
<stop offset="1" stop-color="#26264F"/>
</linearGradient>
<linearGradient id="paint23_linear_44_1617" x1="-28220.4" y1="29058.5" x2="-28375.9" y2="26868.3" gradientUnits="userSpaceOnUse">
<stop stop-color="#FFC444"/>
<stop offset="1" stop-color="#F36F56"/>
</linearGradient>
<linearGradient id="paint24_linear_44_1617" x1="91339.5" y1="198885" x2="95349.3" y2="198718" gradientUnits="userSpaceOnUse">
<stop stop-color="#444B8C"/>
<stop offset="1" stop-color="#26264F"/>
</linearGradient>
<linearGradient id="paint25_linear_44_1617" x1="133245" y1="171248" x2="159852" y2="181499" gradientUnits="userSpaceOnUse">
<stop stop-color="#444B8C"/>
<stop offset="1" stop-color="#26264F"/>
</linearGradient>
<linearGradient id="paint26_linear_44_1617" x1="314816" y1="171926" x2="304513" y2="160369" gradientUnits="userSpaceOnUse">
<stop stop-color="#444B8C"/>
<stop offset="1" stop-color="#26264F"/>
</linearGradient>
<linearGradient id="paint27_linear_44_1617" x1="103.099" y1="275.438" x2="10.2906" y2="275.438" gradientUnits="userSpaceOnUse">
<stop stop-color="#FF9085"/>
<stop offset="1" stop-color="#FB6FBB"/>
</linearGradient>
<linearGradient id="paint28_linear_44_1617" x1="-255876" y1="128527" x2="-265537" y2="172004" gradientUnits="userSpaceOnUse">
<stop stop-color="#FFC444"/>
<stop offset="1" stop-color="#F36F56"/>
</linearGradient>
<linearGradient id="paint29_linear_44_1617" x1="139610" y1="75287.5" x2="147396" y2="75287.5" gradientUnits="userSpaceOnUse">
<stop stop-color="#FF9085"/>
<stop offset="1" stop-color="#FB6FBB"/>
</linearGradient>
<linearGradient id="paint30_linear_44_1617" x1="109.302" y1="253.339" x2="61.8302" y2="253.339" gradientUnits="userSpaceOnUse">
<stop stop-color="#AA80F9"/>
<stop offset="1" stop-color="#6165D7"/>
</linearGradient>
<linearGradient id="paint31_linear_44_1617" x1="-80413" y1="18341" x2="-82135.6" y2="14900.1" gradientUnits="userSpaceOnUse">
<stop stop-color="#FFC444"/>
<stop offset="1" stop-color="#F36F56"/>
</linearGradient>
<linearGradient id="paint32_linear_44_1617" x1="-20637.7" y1="26835.2" x2="-21258.2" y2="28271.8" gradientUnits="userSpaceOnUse">
<stop stop-color="#FFC444"/>
<stop offset="1" stop-color="#F36F56"/>
</linearGradient>
<linearGradient id="paint33_linear_44_1617" x1="167317" y1="65711.5" x2="180300" y2="65711.5" gradientUnits="userSpaceOnUse">
<stop stop-color="#AA80F9"/>
<stop offset="1" stop-color="#6165D7"/>
</linearGradient>
<linearGradient id="paint34_linear_44_1617" x1="-20904.4" y1="18247.2" x2="-22419.7" y2="18912.8" gradientUnits="userSpaceOnUse">
<stop stop-color="#FFC444"/>
<stop offset="1" stop-color="#F36F56"/>
</linearGradient>
<linearGradient id="paint35_linear_44_1617" x1="202.086" y1="325.524" x2="282.735" y2="325.524" gradientUnits="userSpaceOnUse">
<stop stop-color="#E38DDD"/>
<stop offset="0.71" stop-color="#AC79EF"/>
<stop offset="1" stop-color="#9571F6"/>
</linearGradient>
<linearGradient id="paint36_linear_44_1617" x1="50262.5" y1="121455" x2="80946.1" y2="110463" gradientUnits="userSpaceOnUse">
<stop stop-color="#E38DDD"/>
<stop offset="0.71" stop-color="#AC79EF"/>
<stop offset="1" stop-color="#9571F6"/>
</linearGradient>
<linearGradient id="paint37_linear_44_1617" x1="24648.3" y1="31011.6" x2="26622.9" y2="31011.6" gradientUnits="userSpaceOnUse">
<stop stop-color="#444B8C"/>
<stop offset="1" stop-color="#26264F"/>
</linearGradient>
<linearGradient id="paint38_linear_44_1617" x1="16835.5" y1="7637.62" x2="27434.1" y2="8204.26" gradientUnits="userSpaceOnUse">
<stop stop-color="#FFC444"/>
<stop offset="1" stop-color="#F36F56"/>
</linearGradient>
<linearGradient id="paint39_linear_44_1617" x1="21635.1" y1="13021.6" x2="32906.7" y2="13380.2" gradientUnits="userSpaceOnUse">
<stop stop-color="#FFC444"/>
<stop offset="1" stop-color="#F36F56"/>
</linearGradient>
<linearGradient id="paint40_linear_44_1617" x1="11537.8" y1="10711.4" x2="11681.5" y2="10883.1" gradientUnits="userSpaceOnUse">
<stop stop-color="#444B8C"/>
<stop offset="1" stop-color="#26264F"/>
</linearGradient>
<linearGradient id="paint41_linear_44_1617" x1="4790.24" y1="19289.5" x2="4790.24" y2="18832.4" gradientUnits="userSpaceOnUse">
<stop stop-color="#FFC444"/>
<stop offset="1" stop-color="#F36F56"/>
</linearGradient>
<linearGradient id="paint42_linear_44_1617" x1="59828.5" y1="305462" x2="100203" y2="204735" gradientUnits="userSpaceOnUse">
<stop stop-color="#444B8C"/>
<stop offset="1" stop-color="#26264F"/>
</linearGradient>
<linearGradient id="paint43_linear_44_1617" x1="9372.39" y1="7992.86" x2="9476.37" y2="8128.46" gradientUnits="userSpaceOnUse">
<stop stop-color="#444B8C"/>
<stop offset="1" stop-color="#26264F"/>
</linearGradient>
<linearGradient id="paint44_linear_44_1617" x1="184485" y1="241512" x2="247001" y2="241512" gradientUnits="userSpaceOnUse">
<stop stop-color="#AA80F9"/>
<stop offset="1" stop-color="#6165D7"/>
</linearGradient>
<linearGradient id="paint45_linear_44_1617" x1="39761.7" y1="27602.4" x2="60764.2" y2="28397.3" gradientUnits="userSpaceOnUse">
<stop stop-color="#FFC444"/>
<stop offset="1" stop-color="#F36F56"/>
</linearGradient>
<linearGradient id="paint46_linear_44_1617" x1="4152.91" y1="3260.94" x2="6184.13" y2="3327.07" gradientUnits="userSpaceOnUse">
<stop stop-color="#FFC444"/>
<stop offset="1" stop-color="#F36F56"/>
</linearGradient>
<linearGradient id="paint47_linear_44_1617" x1="11517.3" y1="8481.75" x2="11037.1" y2="7887.24" gradientUnits="userSpaceOnUse">
<stop stop-color="#FFC444"/>
<stop offset="1" stop-color="#F36F56"/>
</linearGradient>
<linearGradient id="paint48_linear_44_1617" x1="22015.4" y1="21777" x2="21925.9" y2="20809.6" gradientUnits="userSpaceOnUse">
<stop stop-color="#444B8C"/>
<stop offset="1" stop-color="#26264F"/>
</linearGradient>
<linearGradient id="paint49_linear_44_1617" x1="171959" y1="165371" x2="226262" y2="165371" gradientUnits="userSpaceOnUse">
<stop stop-color="#AA80F9"/>
<stop offset="1" stop-color="#6165D7"/>
</linearGradient>
</defs>
</svg>
