<svg width="60" height="60" viewBox="0 0 60 60" fill="none" xmlns="http://www.w3.org/2000/svg">
<rect width="60" height="60" fill="white"/>
<path d="M47 36H34V23.2258H47V36Z" fill="#41B7E9"/>
<path d="M18 28H5V17H18V28Z" fill="#41B7E9"/>
<path d="M13.5484 4.83862H27.0968V12.5806H13.5484V4.83862Z" fill="#41B7E9"/>
<path d="M3.87097 31.9355H19.3548V39.6775H3.87097V31.9355Z" fill="#41B7E9"/>
<path d="M32.9032 37.7419H48.3871V22.2581H32.9032V37.7419ZM34.8387 24.1935H46.4516V35.8064H34.8387V24.1935Z" fill="#1F2428"/>
<path d="M60 30C60 28.6819 59.5577 27.4239 58.7448 26.399C59.1048 25.1429 59.0313 23.8113 58.5271 22.5919C58.0229 21.3735 57.1326 20.3816 55.9897 19.7477C55.8416 18.4481 55.2639 17.2461 54.3319 16.3132C53.4 15.3813 52.1981 14.8045 50.8984 14.6555C50.3245 13.6229 49.4487 12.8139 48.3881 12.2913V0H10.2445L0 10.2445V60H48.3871V47.7087C49.4477 47.1861 50.3245 46.3771 50.8974 45.3445C52.1961 45.1955 53.3981 44.6187 54.33 43.6858C55.2629 42.7539 55.8406 41.5529 55.9887 40.2523C57.1316 39.6184 58.0219 38.6255 58.5261 37.4081C59.0303 36.1887 59.1039 34.8571 58.7439 33.601C59.5577 32.5761 60 31.3181 60 30ZM9.67742 3.30387V9.67742H3.30387L9.67742 3.30387ZM1.93548 58.0645V11.6129H11.6129V1.93548H46.4516V11.7261C45.7152 11.6468 44.9681 11.6932 44.2452 11.9013C42.1984 10.2735 39.0929 10.2735 37.0461 11.9013C35.7881 11.5403 34.4565 11.6129 33.239 12.119C32.0206 12.6242 31.0277 13.5135 30.3939 14.6565C29.0942 14.8055 27.8923 15.3823 26.9603 16.3142C26.0274 17.2471 25.4506 18.449 25.3026 19.7487C24.1597 20.3826 23.2694 21.3755 22.7652 22.5929C22.261 23.8123 22.1874 25.1439 22.5474 26.4C21.7326 27.4239 21.2903 28.6819 21.2903 30C21.2903 31.3181 21.7326 32.5761 22.5455 33.601C22.1855 34.8571 22.259 36.1887 22.7632 37.4081C23.2674 38.6264 24.1577 39.6184 25.3006 40.2523C25.4487 41.5529 26.0265 42.7539 26.9584 43.6858C27.8913 44.6187 29.0932 45.1955 30.3919 45.3445C31.0268 46.4874 32.0187 47.3768 33.2371 47.8819C34.4555 48.3861 35.7871 48.4606 37.0442 48.0997C38.069 48.9126 39.3261 49.3548 40.6452 49.3548C41.9642 49.3548 43.2213 48.9126 44.2452 48.0987C44.9681 48.3058 45.7152 48.3523 46.4516 48.2729V58.0645H1.93548ZM56.9555 32.7058L56.5132 33.1577L56.7494 33.7432C57.1306 34.6906 57.1258 35.729 56.7377 36.6668C56.3497 37.6035 55.6181 38.34 54.6784 38.7416L54.0968 38.9903L54.09 39.6213C54.0794 40.6442 53.6787 41.6003 52.9606 42.3174C52.2426 43.0345 51.2855 43.4352 50.2635 43.4468L49.6316 43.4535L49.3839 44.0352C48.9832 44.9748 48.2458 45.7065 47.309 46.0945C46.3723 46.4816 45.3329 46.4874 44.3855 46.1061L43.799 45.87L43.3471 46.3123C41.8868 47.7435 39.3977 47.7435 37.9374 46.3123L37.4855 45.87L36.899 46.1061C35.9516 46.4884 34.9132 46.4845 33.9755 46.0945C33.0387 45.7065 32.3013 44.9748 31.9006 44.0352L31.6529 43.4535L31.021 43.4468C29.999 43.4352 29.0419 43.0345 28.3239 42.3174C27.6068 41.6003 27.2061 40.6442 27.1955 39.6213L27.1887 38.9903L26.6071 38.7416C25.6674 38.341 24.9358 37.6035 24.5477 36.6668C24.1597 35.729 24.1558 34.6906 24.5361 33.7432L24.7723 33.1577L24.33 32.7058C23.6197 31.9752 23.2258 31.0142 23.2258 30C23.2258 28.9858 23.6197 28.0248 24.3348 27.2942L24.7771 26.8423L24.541 26.2568C24.1597 25.3094 24.1645 24.271 24.5526 23.3332C24.9406 22.3965 25.6723 21.66 26.6119 21.2584L27.1935 21.0097L27.2003 20.3787C27.211 19.3568 27.6116 18.3987 28.3297 17.6816C29.0468 16.9655 30.0039 16.5648 31.0268 16.5532L31.6587 16.5465L31.9065 15.9648C32.3071 15.0252 33.0445 14.2935 33.9813 13.9055C34.9181 13.5184 35.9574 13.5126 36.9048 13.8939L37.4913 14.13L37.9432 13.6877C39.4035 12.2565 41.8926 12.2565 43.3529 13.6877L43.8048 14.13L44.3913 13.8939C45.3387 13.5116 46.3771 13.5155 47.3148 13.9055C48.2516 14.2935 48.989 15.0252 49.3897 15.9648L49.6374 16.5465L50.2694 16.5532C51.2913 16.5648 52.2494 16.9655 52.9664 17.6816C53.6835 18.3987 54.0852 19.3568 54.0958 20.3787L54.1026 21.0097L54.6842 21.2584C55.6239 21.659 56.3555 22.3965 56.7435 23.3332C57.1316 24.271 57.1355 25.3094 56.7552 26.2568L56.519 26.8423L56.9613 27.2942C57.6706 28.0248 58.0645 28.9858 58.0645 30C58.0645 31.0142 57.6706 31.9752 56.9555 32.7058Z" fill="#1F2428"/>
<path d="M40.6452 16.4517C33.1742 16.4517 27.0968 22.5291 27.0968 30C27.0968 37.471 33.1742 43.5484 40.6452 43.5484C48.1162 43.5484 54.1936 37.471 54.1936 30C54.1936 22.5291 48.1162 16.4517 40.6452 16.4517ZM40.6452 41.6129C34.2416 41.6129 29.0323 36.4036 29.0323 30C29.0323 23.5965 34.2416 18.3871 40.6452 18.3871C47.0487 18.3871 52.2581 23.5965 52.2581 30C52.2581 36.4036 47.0487 41.6129 40.6452 41.6129Z" fill="#1F2428"/>
<path d="M28.0645 53.2257V50.3225C28.0645 48.7219 26.7619 47.4193 25.1613 47.4193C23.5606 47.4193 22.2581 48.7219 22.2581 50.3225V51.5109C22.2581 51.9222 21.9232 52.258 21.511 52.258C21.2013 52.258 20.9206 52.0635 20.8113 51.7741L19.02 46.9973C18.4636 45.5128 17.0236 44.5161 15.4384 44.5161C13.9897 44.5161 12.7268 45.3251 12.0774 46.5154L9.0271 43.4651C8.4571 42.8941 7.69839 42.5806 6.89129 42.5806C5.22581 42.5806 3.87097 43.9354 3.87097 45.6009V45.7315C3.87097 46.4148 4.10613 47.0844 4.53291 47.6186L6.68129 50.3041C7.36549 51.1586 7.74194 52.2328 7.74194 53.3264V56.129H9.67742V53.3264C9.67742 51.7935 9.15 50.2906 8.19291 49.0944L6.04452 46.409C5.89065 46.2173 5.80646 45.9773 5.80646 45.7315V45.6009C5.80646 45.0028 6.29323 44.5161 6.89129 44.5161C7.18162 44.5161 7.45355 44.6283 7.65871 44.8335L11.6129 48.7877V53.2257C11.6129 54.8264 12.9155 56.129 14.5161 56.129C16.1168 56.129 17.4194 54.8264 17.4194 53.2257V53.0593C17.4194 52.2841 17.1174 51.5544 16.5687 51.0067L13.5765 48.0144C13.7323 47.127 14.5084 46.4515 15.4384 46.4515C16.2223 46.4515 16.9336 46.9451 17.2084 47.6777L18.9987 52.4544C19.3897 53.4938 20.399 54.1935 21.511 54.1935C22.9897 54.1935 24.1936 52.9896 24.1936 51.5109V50.3225C24.1936 49.7883 24.6281 49.3548 25.1613 49.3548C25.6945 49.3548 26.129 49.7883 26.129 50.3225V53.2257C26.129 54.8264 27.4316 56.129 29.0323 56.129H30V54.1935H29.0323C28.499 54.1935 28.0645 53.7599 28.0645 53.2257ZM15.2003 52.3751C15.3803 52.556 15.4839 52.8048 15.4839 53.0593V53.2257C15.4839 53.7599 15.0494 54.1935 14.5161 54.1935C13.9829 54.1935 13.5484 53.7599 13.5484 53.2257V50.7231L15.2003 52.3751Z" fill="#1F2428"/>
<path d="M13.5484 3.87085H27.0968V5.80633H13.5484V3.87085Z" fill="#1F2428"/>
<path d="M13.5484 7.74194H27.0968V9.67743H13.5484V7.74194Z" fill="#1F2428"/>
<path d="M13.5484 11.6128H27.0968V13.5483H13.5484V11.6128Z" fill="#1F2428"/>
<path d="M19.3548 15.4839H3.87097V29.0323H19.3548V15.4839ZM17.4194 27.0968H5.80646V17.4194H17.4194V27.0968Z" fill="#1F2428"/>
<path d="M3.87097 30.9678H19.3548V32.9033H3.87097V30.9678Z" fill="#1F2428"/>
<path d="M3.87097 34.8386H19.3548V36.7741H3.87097V34.8386Z" fill="#1F2428"/>
<path d="M3.87097 38.7097H19.3548V40.6452H3.87097V38.7097Z" fill="#1F2428"/>
</svg>
