<svg width="280" height="280" viewBox="0 0 280 280" fill="none" xmlns="http://www.w3.org/2000/svg">
<path d="M280 0H0V280H280V0Z" fill="white"/>
<path d="M218.728 212.784C213.308 218.369 208.459 221.654 204.746 224.133C168.534 248.312 127.141 241.341 114.343 238.961C93.6952 235.118 76.2657 232.407 61.2906 218.878C27.2627 188.135 28.9178 124 54.9193 84.2761C58.0023 79.5652 83.9646 41.0814 125.448 35.6588C126.462 35.5259 127.219 35.4505 127.882 35.3803C134.297 34.701 174.067 31.1146 206.493 58.2814C211.134 62.1705 218.604 69.1848 225.531 79.8821C250.859 118.999 250.939 179.583 218.728 212.784Z" fill="#F4F7FA"/>
<path d="M173.145 50.3879L62.3457 46.9743C56.9767 46.8083 52.5978 50.7215 52.5978 55.7155V213.591C52.5978 218.584 56.9751 222.302 62.3457 221.897L173.145 213.537C177.787 213.187 181.529 209.172 181.529 204.567V58.9819C181.529 54.3789 177.787 50.5306 173.145 50.3879Z" fill="url(#paint0_linear_154_2132)"/>
<g style="mix-blend-mode:soft-light" opacity="0.74">
<path d="M55.723 214.312V54.8552C55.723 51.9813 58.2408 49.7231 61.3359 49.8152L174.022 53.0907C176.699 53.1662 178.862 55.3873 178.862 58.0469V205.624C178.862 208.283 176.699 210.599 174.022 210.796L61.3359 219.101C58.2408 219.33 55.723 217.186 55.723 214.312Z" fill="white"/>
</g>
<path d="M173.145 50.3879L62.3457 46.9743C56.9767 46.8083 52.5978 50.7215 52.5978 55.7155V62.2015L181.529 64.9653V58.9841C181.529 54.3789 177.787 50.5306 173.145 50.3879Z" fill="url(#paint1_linear_154_2132)"/>
<path d="M69.9065 55.2875C69.9065 56.9049 68.4982 58.1819 66.7578 58.1396C65.0174 58.0973 63.597 56.7479 63.597 55.1207C63.597 53.4936 65.0137 52.2203 66.7578 52.2679C68.502 52.3154 69.9065 53.6702 69.9065 55.2875Z" fill="white"/>
<path d="M80.8695 55.5712C80.8695 57.1772 79.48 58.4467 77.7631 58.4052C76.0461 58.3637 74.6416 57.0225 74.6416 55.4097C74.6416 53.7969 76.0393 52.5289 77.7601 52.5765C79.4808 52.624 80.8695 53.9621 80.8695 55.5712Z" fill="white"/>
<path d="M91.686 55.8491C91.686 57.4446 90.3154 58.705 88.6211 58.6642C86.9267 58.6235 85.5441 57.2921 85.5441 55.6899C85.5441 54.0876 86.9229 52.828 88.6211 52.8748C90.3192 52.9216 91.686 54.2552 91.686 55.8491Z" fill="white"/>
<path d="M115.558 95.1744L69.954 95.0989C69.2106 95.0989 68.6075 94.5442 68.6075 93.8627V90.9608C68.6075 90.2816 69.2113 89.7299 69.954 89.7344L115.558 89.9903C116.251 89.9903 116.812 90.5299 116.812 91.1865V93.9835C116.812 94.6416 116.251 95.1752 115.558 95.1744Z" fill="white"/>
<path d="M71.7223 96.1943L75.643 110.573C75.8906 111.483 76.7796 112.111 77.7977 112.1L108.156 111.759C109.127 111.748 109.972 111.116 110.208 110.225L113.906 96.2268L71.7223 96.1943ZM82.9766 109.73C82.9766 110.301 82.477 110.768 81.8596 110.775L80.794 110.785C80.1759 110.792 79.6732 110.332 79.6732 109.761V98.617C79.6732 98.0449 80.1759 97.5815 80.794 97.5815H81.8596C82.477 97.5815 82.9766 98.0441 82.9766 98.614V109.73ZM88.9011 109.674C88.9011 110.242 88.406 110.707 87.7947 110.714L86.7381 110.724C86.1245 110.731 85.6272 110.271 85.6272 109.705V98.6109C85.6272 98.0411 86.1245 97.58 86.7381 97.5792H87.7947C88.406 97.5792 88.9011 98.0396 88.9011 98.6072V109.674ZM94.7736 109.618C94.7736 110.184 94.2823 110.647 93.6762 110.653L92.6294 110.664C92.0257 110.67 91.5291 110.215 91.5291 109.649V98.6041C91.5291 98.0374 92.0219 97.5777 92.6294 97.5777H93.6762C94.28 97.5777 94.7736 98.0358 94.7736 98.6011V109.618ZM100.593 109.563C100.593 110.126 100.106 110.587 99.5056 110.594L98.4687 110.604C97.8649 110.61 97.3774 110.158 97.3774 109.594V98.5981C97.3774 98.0343 97.8664 97.5762 98.4687 97.5762H99.5056C100.109 97.5762 100.593 98.029 100.593 98.5951V109.563ZM106.361 109.508C106.361 110.069 105.878 110.528 105.284 110.534L104.255 110.544C103.659 110.55 103.174 110.1 103.174 109.538V98.5951C103.174 98.0336 103.659 97.5777 104.255 97.5777H105.283C105.878 97.5777 106.36 98.0306 106.36 98.5921L106.361 109.508Z" fill="white"/>
<path d="M76.8462 88.3128C76.5026 88.5787 76.0731 88.709 75.6397 88.6786C75.2062 88.6483 74.7991 88.4595 74.496 88.1482C74.3527 88.0013 74.2424 87.8257 74.1722 87.6329C74.102 87.4401 74.0736 87.2345 74.0889 87.0299C74.1041 86.8253 74.1627 86.6263 74.2608 86.446C74.3588 86.2658 74.494 86.1085 74.6575 85.9845C75.0014 85.7192 75.431 85.5897 75.8643 85.6207C76.2975 85.6518 76.7043 85.8411 77.0069 86.1528C77.1494 86.2996 77.2592 86.475 77.329 86.6674C77.3988 86.8598 77.4271 87.0648 77.4119 87.2689C77.3967 87.473 77.3384 87.6715 77.2409 87.8515C77.1434 88.0314 77.0088 88.1886 76.8462 88.3128Z" fill="white"/>
<path d="M91.4808 74.65C91.2543 74.4025 90.7796 74.4289 90.4242 74.7104L75.9841 86.1776C75.6211 86.4652 75.5169 86.9006 75.7509 87.1497C75.9849 87.3987 76.4679 87.3663 76.8301 87.0788L91.2521 75.607C91.6076 75.3277 91.7087 74.8983 91.4808 74.65Z" fill="white"/>
<path d="M109.064 88.5277C109.384 88.7908 109.791 88.9236 110.204 88.8996C110.618 88.8755 111.007 88.6964 111.294 88.3979C111.429 88.2532 111.533 88.0819 111.599 87.895C111.666 87.7081 111.692 87.5096 111.678 87.3118C111.664 87.114 111.609 86.9213 111.517 86.7457C111.425 86.5702 111.297 86.4156 111.143 86.2916C110.824 86.0278 110.417 85.8943 110.003 85.9177C109.59 85.941 109.201 86.1196 108.913 86.4176C108.777 86.5624 108.672 86.7338 108.606 86.9211C108.539 87.1084 108.512 87.3075 108.526 87.5058C108.54 87.704 108.596 87.8972 108.688 88.0731C108.781 88.249 108.909 88.4038 109.064 88.5277Z" fill="white"/>
<path d="M94.8212 74.7075C95.0477 74.4675 95.5178 74.5105 95.8695 74.8034L109.882 86.4592C110.226 86.7452 110.325 87.1701 110.103 87.4094C109.882 87.6486 109.424 87.6109 109.078 87.3249L95.0477 75.6713C94.6952 75.3785 94.5941 74.9468 94.8212 74.7075Z" fill="white"/>
<path d="M168.66 81.4638L121.634 80.8631V75.0103L168.66 75.8253V81.4638Z" fill="white"/>
<path d="M168.66 91.336L121.634 91.1119V85.2583L168.66 85.6975V91.336Z" fill="white"/>
<path d="M168.66 101.207L121.634 101.36V95.5063L168.66 95.569V101.207Z" fill="white"/>
<path d="M168.66 111.08L121.634 111.608V105.755L168.66 105.441V111.08Z" fill="white"/>
<path d="M151.991 127.339L68.6075 129.347V123.251L151.991 121.624V127.339Z" fill="white"/>
<path d="M151.991 137.344L68.6075 140.02V133.924L151.991 131.629V137.344Z" fill="white"/>
<path d="M151.991 147.349L68.6075 150.692V144.596L151.991 141.634V147.349Z" fill="white"/>
<path d="M151.991 157.354L68.6075 161.363V155.268L151.991 151.64V157.354Z" fill="white"/>
<path d="M168.66 126.937L157.692 127.201V121.513L168.66 121.299V126.937Z" fill="white"/>
<path d="M168.66 136.809L157.692 137.161V131.473L168.66 131.171V136.809Z" fill="white"/>
<path d="M168.66 146.681L157.692 147.121V141.432L168.66 141.042V146.681Z" fill="white"/>
<path d="M168.66 156.553L157.692 157.08V151.392L168.66 150.914V156.553Z" fill="white"/>
<path d="M151.991 173.591L68.6075 178.683V172.587L151.991 167.876V173.591Z" fill="white"/>
<path d="M151.991 183.597L68.6075 189.356V183.26L151.991 177.882V183.597Z" fill="white"/>
<path d="M151.991 193.601L68.6075 200.027V193.931L151.991 187.886V193.601Z" fill="white"/>
<path d="M151.991 203.606L68.6075 210.699V204.604L151.991 197.891V203.606Z" fill="white"/>
<path d="M168.66 172.573L157.692 173.243V167.554L168.66 166.934V172.573Z" fill="white"/>
<path d="M168.66 182.445L157.692 183.202V177.513L168.66 176.806V182.445Z" fill="url(#paint2_linear_154_2132)"/>
<path d="M168.66 192.316L157.692 193.161V187.473L168.66 186.678V192.316Z" fill="url(#paint3_linear_154_2132)"/>
<path d="M168.66 202.188L157.692 203.121V197.432L168.66 196.549V202.188Z" fill="url(#paint4_linear_154_2132)"/>
<path d="M187.768 178.019L162.759 174.961V138.076L187.768 133.338V178.019Z" fill="url(#paint5_linear_154_2132)"/>
<path d="M218.275 176.076L187.768 178.019V133.338L218.275 137.55V176.076Z" fill="url(#paint6_linear_154_2132)"/>
<g style="mix-blend-mode:soft-light">
<path d="M199.268 134.926V153.144L209.424 153.953V136.328L199.268 134.926Z" fill="white"/>
</g>
<path d="M229.235 231.32L182.839 234.582V166.63L229.235 169.893V231.32Z" fill="url(#paint7_linear_154_2132)"/>
<path d="M182.839 234.582L144.803 229.933V170.967L182.839 166.63V234.582Z" fill="url(#paint8_linear_154_2132)"/>
<g style="mix-blend-mode:soft-light">
<path d="M199.263 167.785V195.358H214.809V168.878L199.263 167.785Z" fill="white"/>
</g>
<path d="M112.774 144.744C114.916 142.457 108.985 133.862 105.81 130.096C103.036 126.806 100.186 123.424 96.6845 123.853C93.6112 124.23 90.6203 127.47 90.4414 130.577C89.9622 138.934 109.727 148 112.774 144.744Z" fill="url(#paint9_linear_154_2132)"/>
<path d="M87.0469 233.06C86.6439 233.388 86.5691 234.207 86.5186 234.742C86.4967 234.981 86.4861 235.101 86.5133 235.186C86.708 235.801 87.9027 235.865 89.7759 236.057C92.7358 236.359 93.6166 236.592 93.8513 236.152C94.0686 235.74 93.5434 235.063 93.4837 234.989C93.166 234.589 92.7751 234.442 92.0204 234.194C90.6242 233.734 89.6808 233.483 89.3947 233.407C87.6099 232.931 87.3118 232.845 87.0469 233.06Z" fill="url(#paint10_linear_154_2132)"/>
<path d="M88.8076 230.356L89.1035 233.729C89.0197 233.892 88.0167 234.381 87.2205 233.962L86.4597 230.646L88.8076 230.356Z" fill="url(#paint11_linear_154_2132)"/>
<path d="M110.523 232.627C110.04 233.161 109.93 234.144 110.35 234.628C110.771 235.112 111.384 234.747 113.143 234.8C115.029 234.856 115.523 235.302 116.806 234.951C117.324 234.808 118.24 234.46 118.222 234.091C118.21 233.83 117.743 233.696 116.184 233.174C113.976 232.435 113.985 232.394 113.516 232.316C112.345 232.118 111.162 231.925 110.523 232.627Z" fill="url(#paint12_linear_154_2132)"/>
<path d="M111.733 229.548L112.679 232.697C112.604 232.866 111.645 233.43 110.82 233.074L109.414 230.018L111.733 229.548Z" fill="url(#paint13_linear_154_2132)"/>
<path d="M103.321 160.578C103.623 184.162 106.753 207.625 112.642 230.464L109.02 231.44C105.955 228.582 102.09 224.084 100.224 217.728C99.0664 213.783 99.4521 211.755 98.7147 206.903C97.5456 199.177 95.1774 195.129 92.7298 188.898C90.5298 183.3 87.9298 175.087 86.5359 164.1L103.321 160.578Z" fill="url(#paint14_linear_154_2132)"/>
<path d="M92.4181 159.568C91.6784 173.029 91.0747 186.737 90.6067 200.693C90.2611 211.164 90.005 221.501 89.8384 231.704L86.1366 232.161C84.442 229.013 83.1452 225.666 82.2762 222.198C80.9592 216.915 81.2641 213.779 80.686 208.304C80.0377 202.163 79.0966 200.826 77.4287 193.079C74.0461 177.358 72.3532 169.497 76.1298 164.604C77.3585 163.019 81.1985 159.038 92.4181 159.568Z" fill="url(#paint15_linear_154_2132)"/>
<path d="M74.4362 125.74C78.4528 124.609 82.5805 123.92 86.7464 123.683C94.1427 123.265 97.8408 123.057 100.463 124.815C106.516 128.884 101.829 138.274 104.307 161.55C104.661 164.871 104.74 168.222 104.997 171.555C105.421 177.073 105.518 177.373 105.134 177.932C102.726 181.439 93.7419 176.15 80.5751 178.241C73.2075 179.411 69.8664 182.106 67.8483 180.161C65.4943 177.897 67.5132 171.797 69.2513 166.549C71.246 160.523 72.4785 160.446 73.6113 155.907C74.7947 151.164 74.0785 148.723 73.8943 141.244C73.7717 136.069 73.9527 130.893 74.4362 125.74Z" fill="url(#paint16_linear_154_2132)"/>
<g style="mix-blend-mode:multiply" opacity="0.3">
<path style="mix-blend-mode:multiply" opacity="0.3" d="M92.3419 169.438C88.9004 169.168 86.6671 171.114 83.6966 169.598C79.6211 167.518 78.3139 161.05 78.5736 156.471C78.9683 149.514 82.9404 147.68 82.2558 143.183C81.886 140.752 80.1494 137.523 73.9154 134.224C73.8324 137.001 73.8483 139.367 73.8943 141.243C74.0785 148.722 74.7947 151.164 73.6113 155.906C72.4792 160.444 71.246 160.521 69.2513 166.548C67.5155 171.796 65.4943 177.893 67.8483 180.161C69.8664 182.105 73.2068 179.406 80.5751 178.24C91.9207 176.438 100.155 180.112 103.758 178.919C99.4045 171.728 95.4558 169.681 92.3419 169.438Z" fill="url(#paint17_linear_154_2132)"/>
</g>
<path d="M79.1306 126.217C76.6725 124.197 71.7306 126.483 70.4091 127.094C63.0422 130.502 56.4271 139.685 58.0664 149.39C58.3124 150.845 59.452 157.653 65.2166 160.952C70.4181 163.928 77.443 163.162 83.068 158.947L85.3751 156.9C86.1299 156.083 86.8866 155.265 87.6453 154.446C85.8598 152.96 83.8069 151.829 81.597 151.114C77.8559 149.907 75.1313 152.073 73.3955 150.427C72.1977 149.29 72.1947 147.282 72.4898 146.065C73.086 143.613 75.2483 142.923 77.0521 141.182C81.2921 137.093 82.0732 128.635 79.1306 126.217Z" fill="url(#paint18_linear_154_2132)"/>
<path d="M114.453 157.898L81.5079 157.406L90.2687 161.634L114.537 160.046L114.453 157.898Z" fill="url(#paint19_linear_154_2132)"/>
<path d="M80.345 158.282C80.345 158.583 80.4376 158.876 80.6103 159.123C80.783 159.369 81.0274 159.557 81.3102 159.66L91.8369 163.787L91.8852 160.925L81.5095 157.406C81.3737 157.367 81.2307 157.36 81.0917 157.385C80.9527 157.411 80.8215 157.468 80.7085 157.553C80.5955 157.638 80.5039 157.748 80.4408 157.874C80.3777 158.001 80.3449 158.14 80.345 158.282Z" fill="url(#paint20_linear_154_2132)"/>
<path d="M85.4181 156.332C85.2158 156.288 86.3992 153.922 87.3351 154.195C88.2709 154.468 92.8249 157.109 93.2393 158.195L93.6544 159.282C93.6544 159.282 91.6657 159.438 90.4324 159.023C89.1992 158.609 87.0619 156.699 85.4181 156.332Z" fill="url(#paint21_linear_154_2132)"/>
<path d="M92.7592 140.85L90.4369 161.994C90.3569 162.724 91.3781 163.811 92.1109 163.776L126.178 161.685C126.45 161.672 126.709 161.567 126.913 161.387C127.117 161.207 127.253 160.962 127.299 160.694L131.574 140.273C131.702 139.529 130.367 138.763 129.612 138.783L93.9139 139.787C93.6254 139.795 93.3495 139.907 93.1372 140.102C92.9249 140.298 92.7906 140.563 92.7592 140.85Z" fill="url(#paint22_linear_154_2132)"/>
<path d="M93.538 141.467L91.215 162.611C91.1962 162.783 91.2148 162.956 91.2695 163.12C91.3242 163.284 91.4137 163.434 91.5319 163.56C91.6501 163.685 91.7942 163.784 91.9542 163.849C92.1142 163.914 92.2864 163.943 92.4588 163.935L126.957 162.302C127.229 162.289 127.488 162.184 127.692 162.003C127.895 161.823 128.032 161.579 128.078 161.311L131.602 140.796C131.632 140.622 131.623 140.444 131.576 140.274C131.528 140.104 131.444 139.946 131.328 139.813C131.213 139.679 131.069 139.573 130.908 139.501C130.746 139.43 130.571 139.395 130.395 139.4L94.6965 140.404C94.4074 140.41 94.1306 140.522 93.9175 140.718C93.7044 140.913 93.5696 141.179 93.538 141.467Z" fill="url(#paint23_linear_154_2132)"/>
<path style="mix-blend-mode:multiply" opacity="0.3" d="M113.795 157.347C110.783 156.071 111.846 153.636 108.285 150.602C103.593 146.602 98.8098 148.338 97.1358 145.234C96.6143 144.268 96.3652 142.764 97.2732 140.328L94.6883 140.404C94.4 140.412 94.1245 140.524 93.9125 140.719C93.7006 140.915 93.5665 141.18 93.5351 141.467L91.2151 162.611C91.1963 162.783 91.215 162.956 91.2698 163.12C91.3245 163.284 91.4141 163.434 91.5322 163.559C91.6504 163.685 91.7944 163.784 91.9544 163.849C92.1143 163.914 92.2864 163.943 92.4588 163.935L126.957 162.302C127.229 162.289 127.488 162.184 127.692 162.004C127.895 161.823 128.032 161.579 128.078 161.311L128.564 158.48C127.392 157.82 126.124 157.344 124.807 157.072C119.746 156.045 117.263 158.817 113.795 157.347Z" fill="url(#paint24_linear_154_2132)"/>
<path d="M129.132 159.344C129.145 159.305 129.149 159.263 129.144 159.221C129.138 159.18 129.123 159.141 129.1 159.106C129.076 159.072 129.045 159.044 129.009 159.023C128.973 159.003 128.932 158.991 128.891 158.989C128.161 158.952 126.47 158.937 125.537 159.509C124.324 160.252 122.756 161.607 124.076 162.291L125.309 162.93C125.365 162.959 125.429 162.968 125.49 162.955C125.928 162.859 127.772 162.449 127.974 162.351C128.155 162.255 128.858 160.169 129.132 159.344Z" fill="url(#paint25_linear_154_2132)"/>
<path d="M87.2989 115.602C87.3183 117.321 87.1649 119.037 86.8408 120.725C86.5759 122.09 86.3879 122.442 86.1411 122.728C85.7744 123.158 85.2181 123.52 82.0755 124.299C80.3653 124.723 80.1457 124.711 80.1079 124.881C79.9238 125.711 84.5864 128.53 89.4038 127.85C92.3525 127.434 95.0347 125.752 94.8702 124.868C94.7057 123.985 91.7593 124.457 90.8815 122.849C90.271 121.73 90.957 120.142 91.7646 118.826C90.9804 117.358 88.0823 117.07 87.2989 115.602Z" fill="url(#paint26_linear_154_2132)"/>
<path d="M92.7707 116.469C93.4665 115.545 93.5095 113.931 92.708 112.911C92.0182 112.033 90.9321 111.908 90.2823 111.833C88.3955 111.616 86.0219 112.402 85.1955 114.135C84.7057 115.163 85.7653 117.297 85.9313 117.682C86.1193 118.116 86.4597 118.266 86.7751 118.593C87.2114 119.046 87.8951 119.772 89.0114 120.982C89.1168 120.544 89.26 120.117 89.4393 119.704C89.672 119.167 89.9726 118.663 90.3337 118.202C91.3156 117.003 92.111 117.345 92.7707 116.469Z" fill="url(#paint27_linear_154_2132)"/>
<path d="M87.4196 119.963C87.4196 119.963 88.6573 121.994 91.1229 121.834C93.3305 121.69 93.6535 116.74 92.2437 115.69C91.7735 115.34 90.8309 115.194 90.0656 115.408C89.6128 115.535 89.4618 115.723 88.7162 115.916C88.0309 116.094 87.8369 116.018 87.6301 116.192C87.3712 116.41 87.1818 116.946 87.6143 118.391C87.1931 117.965 86.6875 117.801 86.3312 117.97C86.2089 118.037 86.1074 118.136 86.0377 118.257C85.7267 118.822 86.2429 119.547 87.4196 119.963Z" fill="url(#paint28_linear_154_2132)"/>
<path d="M87.5305 115.896C87.6369 115.975 87.3116 116.372 87.2875 116.934C87.24 118.026 88.3441 119.335 89.4709 119.446C90.1373 119.512 90.3207 119.11 91.4219 118.993C91.9587 118.938 92.5009 118.97 93.0279 119.086C93.3736 120.283 93.0483 121.476 92.2483 122.03C91.3871 122.626 90.286 122.264 89.8271 122.113C89.52 122.011 88.5335 121.69 88.0158 120.786C87.4784 119.843 88.0052 119.276 87.3894 118.639C87.0792 118.317 86.6709 118.177 86.2739 117.556C86.1875 117.422 86.1118 117.282 86.0475 117.136C86.6226 116.534 87.3766 115.781 87.5305 115.896Z" fill="url(#paint29_linear_154_2132)"/>
<path d="M92.2264 119.531C92.2264 119.531 91.7501 119.78 90.926 119.734C90.886 119.734 90.8414 119.743 90.8369 119.764C90.818 119.839 91.3464 120.192 91.8331 120.055C92.1788 119.958 92.4482 119.631 92.4014 119.547C92.3818 119.512 92.3018 119.517 92.2264 119.531Z" fill="url(#paint30_linear_154_2132)"/>
<path d="M141.368 233.711C139.609 233.572 137.359 233.084 135.2 231.674C132.86 230.146 129.82 227.007 130.614 225.028C130.911 224.29 131.764 223.658 132.515 223.718C133.624 223.807 133.753 225.347 135.678 227.022C136.035 227.332 137.874 228.933 138.789 228.393C139.241 228.125 139.378 227.382 139.303 226.817C139.087 225.165 137.07 224.911 135.131 223.124C133.169 221.312 131.527 218.148 132.463 216.01C133.002 214.781 134.426 213.811 135.361 214.084C135.761 214.2 136.015 214.527 137.229 217.151C138.226 219.304 138.448 219.931 139.091 220.136C139.752 220.345 140.78 220.082 141.171 219.431C142.189 217.733 137.789 215.228 137.39 210.478C137.211 208.349 137.786 205.195 139.714 204.515C141.017 204.059 142.873 204.757 143.545 205.949C144.149 207.027 143.414 207.836 143.876 210.258C144.016 210.993 144.304 212.505 144.912 212.584C145.626 212.677 146.426 210.749 146.61 210.28C148 206.746 146.406 204.929 147.717 203.213C148.739 201.875 150.962 201.338 152.725 202.013C154.266 202.605 155.5 204.142 155.582 205.736C155.666 207.358 154.299 208.971 151.575 212.199C150.281 213.73 149.253 214.765 149.311 216.286C149.339 217.028 149.633 218.071 150.165 218.167C151.337 218.376 151.914 213.655 154.693 212.926C156.115 212.553 157.883 213.286 158.66 214.568C159.611 216.139 158.974 218.366 157.778 219.536C156.218 221.065 154.619 219.903 151.684 221.545C150.381 222.272 148.335 223.821 148.635 225.101C148.765 225.659 149.349 226.205 149.993 226.278C151.427 226.441 151.906 224.085 154.22 223.049C155.885 222.303 158.187 222.384 158.734 223.323C159.506 224.648 156.764 227.658 155.306 228.988C153.539 230.6 149.382 233.648 141.368 233.711Z" fill="url(#paint31_linear_154_2132)"/>
<path opacity="0.5" d="M142.158 232.957C141.925 229.017 144.535 220.991 146.434 217.197C148.292 213.483 150.069 207.612 150.087 207.551L150.203 207.586C150.186 207.645 148.404 213.529 146.542 217.246C144.649 221.029 142.047 229.025 142.278 232.944L142.158 232.957Z" fill="white"/>
<path d="M137.223 234.225C135.898 232.387 133.955 229.069 133.608 224.631C133.464 222.802 133.183 219.23 135.369 216.149C136.458 214.613 138.765 212.343 140.328 212.998C141.332 213.419 141.955 215.022 141.672 216.243C141.389 217.463 140.347 217.586 139.216 219.672C138.797 220.444 138.318 221.351 138.687 221.861C138.995 222.289 139.838 222.367 140.47 222.11C141.776 221.582 141.367 219.955 142.78 218.789C143.783 217.959 145.457 217.57 146.176 218.25C146.802 218.839 146.693 220.216 146.14 221.135C145.252 222.606 143.661 222.174 142.624 223.782C142.164 224.495 141.837 225.573 142.239 225.998C142.698 226.484 144.05 226.064 144.914 225.527C146.057 224.819 146.099 224.065 146.852 223.971C147.691 223.865 148.739 224.665 148.905 225.549C149.131 226.788 147.615 228.124 146.414 228.705C144.874 229.447 143.729 229.011 142.977 230.026C142.7 230.399 142.448 231.007 142.675 231.376C142.998 231.905 144.166 231.729 144.939 231.613C146.826 231.333 147.345 230.648 148.021 230.981C148.697 231.314 149.059 232.454 148.763 233.252C148.598 233.695 148.104 234.384 145.655 234.812C143.942 235.112 141.062 235.324 137.223 234.225Z" fill="url(#paint32_linear_154_2132)"/>
<path d="M231.886 97.4974C231.886 113.762 218.78 127.822 202.564 128.906C186.292 129.994 173.061 117.612 173.061 101.248C173.061 84.8831 186.292 70.8137 202.566 69.8273C218.78 68.8431 231.886 81.2333 231.886 97.4974Z" fill="url(#paint33_linear_154_2132)"/>
<path d="M201.528 115.351C200.253 115.435 199.066 114.841 198.406 113.781L187.321 95.9764C186.282 94.3085 186.842 92.0225 188.571 90.8723C190.3 89.7221 192.54 90.1432 193.578 91.8104L201.268 104.17L211.414 83.5063C212.325 81.6512 214.512 80.8006 216.299 81.6051C218.086 82.4097 218.796 84.5629 217.884 86.4165L204.772 113.142C204.48 113.741 204.041 114.257 203.496 114.642C202.951 115.026 202.318 115.266 201.655 115.34C201.614 115.345 201.571 115.348 201.528 115.351Z" fill="white"/>
<defs>
<linearGradient id="paint0_linear_154_2132" x1="52.5978" y1="134.448" x2="181.529" y2="134.448" gradientUnits="userSpaceOnUse">
<stop stop-color="#FF9085"/>
<stop offset="1" stop-color="#FB6FBB"/>
</linearGradient>
<linearGradient id="paint1_linear_154_2132" x1="117.749" y1="53.9155" x2="106.737" y2="153.447" gradientUnits="userSpaceOnUse">
<stop stop-color="#40447E"/>
<stop offset="1" stop-color="#3C3B6B"/>
</linearGradient>
<linearGradient id="paint2_linear_154_2132" x1="80.104" y1="180.004" x2="380.894" y2="180.004" gradientUnits="userSpaceOnUse">
<stop stop-color="#AA80F9"/>
<stop offset="1" stop-color="#6165D7"/>
</linearGradient>
<linearGradient id="paint3_linear_154_2132" x1="11799.2" y1="16502.7" x2="55513" y2="16502.7" gradientUnits="userSpaceOnUse">
<stop stop-color="#AA80F9"/>
<stop offset="1" stop-color="#6165D7"/>
</linearGradient>
<linearGradient id="paint4_linear_154_2132" x1="11799.2" y1="17598.2" x2="55513" y2="17598.2" gradientUnits="userSpaceOnUse">
<stop stop-color="#AA80F9"/>
<stop offset="1" stop-color="#6165D7"/>
</linearGradient>
<linearGradient id="paint5_linear_154_2132" x1="188.081" y1="136.401" x2="160.632" y2="182.758" gradientUnits="userSpaceOnUse">
<stop stop-color="#FFC444"/>
<stop offset="0.31" stop-color="#FBA94A"/>
<stop offset="1" stop-color="#F36F56"/>
</linearGradient>
<linearGradient id="paint6_linear_154_2132" x1="178569" y1="81553.8" x2="159539" y2="103497" gradientUnits="userSpaceOnUse">
<stop stop-color="#FFC444"/>
<stop offset="0.31" stop-color="#FBA94A"/>
<stop offset="1" stop-color="#F36F56"/>
</linearGradient>
<linearGradient id="paint7_linear_154_2132" x1="277345" y1="153907" x2="231777" y2="206453" gradientUnits="userSpaceOnUse">
<stop stop-color="#FFC444"/>
<stop offset="0.31" stop-color="#FBA94A"/>
<stop offset="1" stop-color="#F36F56"/>
</linearGradient>
<linearGradient id="paint8_linear_154_2132" x1="207178" y1="154054" x2="164380" y2="194514" gradientUnits="userSpaceOnUse">
<stop stop-color="#FFC444"/>
<stop offset="0.31" stop-color="#FBA94A"/>
<stop offset="1" stop-color="#F36F56"/>
</linearGradient>
<linearGradient id="paint9_linear_154_2132" x1="-74169.1" y1="40643.7" x2="-68366.6" y2="70003.6" gradientUnits="userSpaceOnUse">
<stop stop-color="#AA80F9"/>
<stop offset="1" stop-color="#6165D7"/>
</linearGradient>
<linearGradient id="paint10_linear_154_2132" x1="93.9393" y1="235.131" x2="86.5635" y2="235.352" gradientUnits="userSpaceOnUse">
<stop stop-color="#444B8C"/>
<stop offset="1" stop-color="#26264F"/>
</linearGradient>
<linearGradient id="paint11_linear_154_2132" x1="89.1035" y1="232.242" x2="86.459" y2="232.242" gradientUnits="userSpaceOnUse">
<stop stop-color="#FFC444"/>
<stop offset="1" stop-color="#F36F56"/>
</linearGradient>
<linearGradient id="paint12_linear_154_2132" x1="-44694.8" y1="18660.3" x2="-45505.4" y2="18888.3" gradientUnits="userSpaceOnUse">
<stop stop-color="#444B8C"/>
<stop offset="1" stop-color="#26264F"/>
</linearGradient>
<linearGradient id="paint13_linear_154_2132" x1="16771.7" y1="11392.9" x2="16913" y2="11392.9" gradientUnits="userSpaceOnUse">
<stop stop-color="#FFC444"/>
<stop offset="1" stop-color="#F36F56"/>
</linearGradient>
<linearGradient id="paint14_linear_154_2132" x1="-80683.8" y1="206520" x2="-106705" y2="184910" gradientUnits="userSpaceOnUse">
<stop stop-color="#40447E"/>
<stop offset="1" stop-color="#3C3B6B"/>
</linearGradient>
<linearGradient id="paint15_linear_154_2132" x1="-45179.3" y1="181161" x2="-69944.2" y2="170719" gradientUnits="userSpaceOnUse">
<stop stop-color="#40447E"/>
<stop offset="1" stop-color="#3C3B6B"/>
</linearGradient>
<linearGradient id="paint16_linear_154_2132" x1="-135787" y1="110933" x2="-112822" y2="184920" gradientUnits="userSpaceOnUse">
<stop stop-color="#AA80F9"/>
<stop offset="1" stop-color="#6165D7"/>
</linearGradient>
<linearGradient id="paint17_linear_154_2132" x1="-132942" y1="129917" x2="-125840" y2="103161" gradientUnits="userSpaceOnUse">
<stop stop-color="#AA80F9"/>
<stop offset="1" stop-color="#6165D7"/>
</linearGradient>
<linearGradient id="paint18_linear_154_2132" x1="-110323" y1="67599.2" x2="-100130" y2="106647" gradientUnits="userSpaceOnUse">
<stop stop-color="#AA80F9"/>
<stop offset="1" stop-color="#6165D7"/>
</linearGradient>
<linearGradient id="paint19_linear_154_2132" x1="102.874" y1="171.518" x2="98.889" y2="160.226" gradientUnits="userSpaceOnUse">
<stop stop-color="#311944"/>
<stop offset="1" stop-color="#893976"/>
</linearGradient>
<linearGradient id="paint20_linear_154_2132" x1="-40330.4" y1="13348.6" x2="-40260.4" y2="14219.2" gradientUnits="userSpaceOnUse">
<stop stop-color="#311944"/>
<stop offset="1" stop-color="#893976"/>
</linearGradient>
<linearGradient id="paint21_linear_154_2132" x1="44307.6" y1="10824.9" x2="45211.3" y2="10824.9" gradientUnits="userSpaceOnUse">
<stop stop-color="#FFC444"/>
<stop offset="1" stop-color="#F36F56"/>
</linearGradient>
<linearGradient id="paint22_linear_154_2132" x1="-127870" y1="51816" x2="-129846" y2="47195.4" gradientUnits="userSpaceOnUse">
<stop stop-color="#444B8C"/>
<stop offset="1" stop-color="#26264F"/>
</linearGradient>
<linearGradient id="paint23_linear_154_2132" x1="-133895" y1="56807.5" x2="-130067" y2="44000.8" gradientUnits="userSpaceOnUse">
<stop stop-color="#311944"/>
<stop offset="1" stop-color="#893976"/>
</linearGradient>
<linearGradient id="paint24_linear_154_2132" x1="-127875" y1="47729.1" x2="-109385" y2="47729.1" gradientUnits="userSpaceOnUse">
<stop stop-color="#311944"/>
<stop offset="1" stop-color="#893976"/>
</linearGradient>
<linearGradient id="paint25_linear_154_2132" x1="27335.9" y1="8661.45" x2="27747.2" y2="8661.45" gradientUnits="userSpaceOnUse">
<stop stop-color="#FFC444"/>
<stop offset="1" stop-color="#F36F56"/>
</linearGradient>
<linearGradient id="paint26_linear_154_2132" x1="80503.5" y1="19040.5" x2="80308.3" y2="23008.5" gradientUnits="userSpaceOnUse">
<stop stop-color="#FFC444"/>
<stop offset="1" stop-color="#F36F56"/>
</linearGradient>
<linearGradient id="paint27_linear_154_2132" x1="84.1525" y1="125.197" x2="89.7304" y2="111.031" gradientUnits="userSpaceOnUse">
<stop stop-color="#311944"/>
<stop offset="1" stop-color="#6B3976"/>
</linearGradient>
<linearGradient id="paint28_linear_154_2132" x1="38396.8" y1="10382.3" x2="39073.3" y2="10382.3" gradientUnits="userSpaceOnUse">
<stop stop-color="#FFC444"/>
<stop offset="1" stop-color="#F36F56"/>
</linearGradient>
<linearGradient id="paint29_linear_154_2132" x1="39485.5" y1="9862.11" x2="39039.3" y2="8616.52" gradientUnits="userSpaceOnUse">
<stop stop-color="#311944"/>
<stop offset="1" stop-color="#6B3976"/>
</linearGradient>
<linearGradient id="paint30_linear_154_2132" x1="8524.81" y1="1017.74" x2="8557.49" y2="1017.74" gradientUnits="userSpaceOnUse">
<stop stop-color="#FFC444"/>
<stop offset="1" stop-color="#F36F56"/>
</linearGradient>
<linearGradient id="paint31_linear_154_2132" x1="60101.7" y1="83506.6" x2="53322.5" y2="95085.7" gradientUnits="userSpaceOnUse">
<stop stop-color="#AA80F9"/>
<stop offset="1" stop-color="#6165D7"/>
</linearGradient>
<linearGradient id="paint32_linear_154_2132" x1="147.526" y1="218.189" x2="130.216" y2="238.941" gradientUnits="userSpaceOnUse">
<stop stop-color="#E38DDD"/>
<stop offset="1" stop-color="#9571F6"/>
</linearGradient>
<linearGradient id="paint33_linear_154_2132" x1="135062" y1="78017.1" x2="180912" y2="78017.1" gradientUnits="userSpaceOnUse">
<stop stop-color="#AA80F9"/>
<stop offset="1" stop-color="#6165D7"/>
</linearGradient>
</defs>
</svg>
