<svg width="52" height="52" viewBox="0 0 52 52" fill="none" xmlns="http://www.w3.org/2000/svg">
<rect width="52" height="52" fill="white"/>
<path d="M33.5484 43.6129H25.1613V35.2258H33.5484V43.6129Z" fill="#41B7E9"/>
<path d="M46.9677 15.0968H20.129V6.70972H46.9677V15.0968Z" fill="#41B7E9"/>
<path d="M28.5161 43.6129H30.1935V40.2581H33.5484V38.5807H30.1935V35.2258H28.5161V38.5807H25.1613V40.2581H28.5161V43.6129Z" fill="#1F2428"/>
<path d="M43.6129 36.9033H48.6452V38.5807H43.6129V36.9033Z" fill="#1F2428"/>
<path d="M52 5.03226V0H15.0968V5.03226H16.7742V16.7742H5.87097C4.48374 16.7742 3.35484 17.9031 3.35484 19.2903V20.129H0V31.871H5.03226V46.9677H2.51613C1.1289 46.9677 0 48.0966 0 49.4839V52H52V49.4839C52 48.0966 50.8711 46.9677 49.4839 46.9677H48.6452V43.6129H49.4839C50.8711 43.6129 52 42.484 52 41.0968V37.7419C52 36.1467 51.3584 34.6999 50.3226 33.6415V5.03226H52ZM16.7742 1.67742H50.3226V3.35484H16.7742V1.67742ZM5.03226 19.2903C5.03226 18.8274 5.40884 18.4516 5.87097 18.4516H36.0645C36.5266 18.4516 36.9032 18.8274 36.9032 19.2903V21.8065H16.7742V20.129H5.03226V19.2903ZM36.0645 30.1935H16.7742V23.4839H36.9032V29.3548C36.9032 29.8178 36.5266 30.1935 36.0645 30.1935ZM11.3528 26L15.0968 22.7911V29.2089L11.3528 26ZM9.75419 25.1613H7.02L3.10574 21.8065H13.6685L9.75419 25.1613ZM5.42142 26L1.67742 29.2089V22.7911L5.42142 26ZM7.01916 26.8387H9.75419L13.6685 30.1935H3.10574L7.01916 26.8387ZM6.70968 31.871H15.9355H16.7742H35.2258V46.9677H21.8065V35.2258H23.4839V33.5484H8.3871V35.2258H10.0645V46.9677H6.70968V31.871ZM15.0968 35.2258V46.9677H11.7419V35.2258H15.0968ZM16.7742 35.2258H20.129V46.9677H16.7742V35.2258ZM50.3226 49.4839V50.3226H1.67742V49.4839C1.67742 49.0209 2.054 48.6452 2.51613 48.6452H49.4839C49.946 48.6452 50.3226 49.0209 50.3226 49.4839ZM46.9677 46.9677H45.2903V43.6129H46.9677V46.9677ZM50.3226 41.0968C50.3226 41.5597 49.946 41.9355 49.4839 41.9355H42.7742C42.3121 41.9355 41.9355 41.5597 41.9355 41.0968V37.7419C41.9355 35.4296 43.8167 33.5484 46.129 33.5484C48.4414 33.5484 50.3226 35.4296 50.3226 37.7419V41.0968ZM48.6452 32.4455C47.8811 32.0815 47.0306 31.871 46.129 31.871C42.8916 31.871 40.2581 34.5054 40.2581 37.7419V41.0968C40.2581 42.484 41.387 43.6129 42.7742 43.6129H43.6129V46.9677H36.9032V31.7166C37.877 31.3694 38.5806 30.4468 38.5806 29.3548V19.2903C38.5806 17.9031 37.4517 16.7742 36.0645 16.7742H18.4516V5.03226H48.6452V32.4455Z" fill="#1F2428"/>
<path d="M28.5161 6.70972H30.1935V15.0968H28.5161V6.70972Z" fill="#1F2428"/>
<path d="M36.9032 6.70972H38.5806V15.0968H36.9032V6.70972Z" fill="#1F2428"/>
<path d="M46.9677 28.5162H40.2581V18.4517H46.9677V28.5162Z" fill="#41B7E9"/>
</svg>
