<svg width="52" height="52" viewBox="0 0 52 52" fill="none" xmlns="http://www.w3.org/2000/svg">
<path d="M31.2647 10.0645C31.5549 9.56548 32.09 9.22581 32.7098 9.22581H38.5808C39.9705 9.22581 41.0969 10.3522 41.0969 11.7419H41.6564C43.2004 11.7419 44.4518 12.9933 44.4518 14.5374C44.4518 15.4172 44.0374 16.2458 43.3338 16.7742L41.0969 18.4516V23.5485L42.8784 22.8355C47.4007 21.0273 50.3227 16.7121 50.3227 11.8417C50.3227 5.31155 45.0112 0 38.481 0H32.7098C29.4724 0 26.8389 2.63355 26.8389 5.87097C26.8389 8.18245 28.7201 10.0645 31.0324 10.0645H31.2647Z" fill="#41B7E9"/>
<path d="M3.35449 33.5483H15.9351V40.258H3.35449V33.5483Z" fill="#41B7E9"/>
<path d="M41.9355 26.0923V18.871L43.8368 17.4452C44.7468 16.7625 45.2903 15.6755 45.2903 14.5374C45.2903 12.5916 43.7538 10.9989 41.8306 10.9066C41.4583 9.45986 40.1423 8.38715 38.5806 8.38715H32.7097C31.3225 8.38715 30.1935 9.51606 30.1935 10.9033H1.67742V6.70973C1.67742 6.2476 2.054 5.87102 2.51613 5.87102H26.8387C26.8387 5.28812 26.9268 4.72535 27.0861 4.1936H2.51613C1.1289 4.1936 0 5.32251 0 6.70973V41.9355C0 43.3228 1.1289 44.4517 2.51613 44.4517H30.1935V52.0001H52V37.7772C52 31.9406 47.6379 26.952 41.9355 26.0923ZM41.4742 27.7337C41.5681 27.7454 41.6621 27.7563 41.7543 27.7706L41.3056 32.2568L39.6416 30.1768L41.4742 27.7337ZM31.871 13.2424V10.9033C31.871 10.4412 32.2475 10.0646 32.7097 10.0646H38.5806C39.5057 10.0646 40.2581 10.8169 40.2581 11.742V12.5807H41.6562C42.7348 12.5807 43.6129 13.4588 43.6129 14.5374C43.6129 15.1497 43.3202 15.7351 42.8295 16.1033L40.2581 18.0323V26.5595L38.5806 28.7963L36.9032 26.5595V24.3226H38.5806V22.6452H34.3871C32.9999 22.6452 31.871 21.5163 31.871 20.1291V18.7721L30.7362 18.2042C30.4015 18.0373 30.1935 17.7002 30.1935 17.3261C30.1935 17.1315 30.2506 16.9428 30.3588 16.781L31.1665 15.569C31.6269 14.8771 31.871 14.0728 31.871 13.2424ZM35.6695 27.7102L37.5197 30.1768L35.8557 32.2568L35.4028 27.7303L35.6695 27.7102ZM30.1935 13.2424C30.1935 13.7406 30.0476 14.2229 29.7708 14.6381L28.9632 15.85C28.6705 16.2886 28.5161 16.7994 28.5161 17.3261C28.5161 18.3401 29.0797 19.2518 29.9864 19.7055L30.1935 19.8087V20.1291C30.1935 22.4414 32.0748 24.3226 34.3871 24.3226H35.2258V26.0621C30.4133 26.4353 26.4336 29.7239 24.9516 34.0961L24.3427 31.0533L25.0464 28.2386C25.1227 27.9358 25.1613 27.623 25.1613 27.3101C25.1613 26.5066 24.9097 25.7619 24.4845 25.1454C26.7205 25.0573 28.5161 23.2248 28.5161 20.9678C28.5161 18.6555 26.6349 16.7742 24.3226 16.7742H22.7047C19.1972 16.7742 15.9003 15.434 13.3783 13.0118C13.3539 12.8625 13.3145 12.7199 13.265 12.5807H30.1935V13.2424ZM11.7419 13.4194V28.5162C11.7419 28.9783 11.3654 29.3549 10.9032 29.3549C10.4411 29.3549 10.0645 28.9783 10.0645 28.5162V13.4194C10.0645 12.9573 10.4411 12.5807 10.9032 12.5807C11.3654 12.5807 11.7419 12.9573 11.7419 13.4194ZM8.3871 23.3296C7.41335 22.9824 6.70968 22.0598 6.70968 20.9678C6.70968 19.8758 7.41335 18.9532 8.3871 18.606V23.3296ZM13.4194 15.2595C15.8315 17.1391 18.7301 18.2286 21.8065 18.4081V23.5141C21.7729 23.5158 21.7394 23.515 21.7058 23.5175V23.5217C21.5825 23.5091 21.4626 23.4839 21.3351 23.4839H19.2903C18.4659 23.4839 17.7395 23.8873 17.2808 24.5021C15.8994 25.033 14.5927 25.7694 13.4194 26.6777V15.2595ZM23.4839 23.4839V18.4517H24.3226C25.7098 18.4517 26.8387 19.5806 26.8387 20.9678C26.8387 22.355 25.7098 23.4839 24.3226 23.4839H23.4839ZM18.7988 30.1936L18.3493 29.7441C17.8813 29.2761 17.6129 28.6277 17.6129 27.9652V27.862C18.0591 28.2646 18.6437 28.5162 19.2903 28.5162H21.8065V26.8388H19.2903C18.8282 26.8388 18.4516 26.4622 18.4516 26.0001C18.4516 25.5379 18.8282 25.1613 19.2903 25.1613H21.3351C22.5202 25.1613 23.4839 26.125 23.4839 27.3101C23.4839 27.4854 23.4621 27.6607 23.4193 27.831L22.8288 30.1936H18.7988ZM2.51613 42.7742C2.054 42.7742 1.67742 42.3977 1.67742 41.9355V12.5807H8.54142C8.44748 12.8441 8.3871 13.1242 8.3871 13.4194V16.859C6.47568 17.249 5.03226 18.9432 5.03226 20.9678C5.03226 22.9924 6.47568 24.6866 8.3871 25.0766V28.5162C8.3871 29.9034 9.516 31.0323 10.9032 31.0323C12.1504 31.0323 13.1803 30.1181 13.3783 28.9263C14.1482 28.1874 15.0112 27.5466 15.9355 27.0082V27.9652C15.9355 29.0848 16.3716 30.1382 17.1634 30.93L17.6574 31.424L18.725 39.4295C18.8995 40.7395 19.5134 41.8986 20.4016 42.7742H2.51613ZM28.5145 42.7742C29.021 42.2752 29.4505 41.689 29.749 41.0146L30.1935 40.0157V42.7742H28.5145ZM50.3226 50.3226H46.9677V34.3872H45.2903V50.3226H31.871V34.3872H30.1935V35.8868L28.2167 40.3336C27.5583 41.8164 26.0839 42.7742 24.4618 42.7742C22.4103 42.7742 20.6591 41.2411 20.3882 39.2081L19.4094 31.871H22.7961L24.3226 39.5024V40.2581H26V37.841C26 33.1324 29.2936 29.0932 33.7446 28.0021L34.5959 36.5175L38.5806 31.5355L42.5654 36.5166L43.399 28.1782C47.424 29.5428 50.3226 33.374 50.3226 37.7772V50.3226Z" fill="#1F2428"/>
<path d="M10.0645 7.54846H11.7419V9.22588H10.0645V7.54846Z" fill="#1F2428"/>
<path d="M6.70996 7.54846H8.38738V9.22588H6.70996V7.54846Z" fill="#1F2428"/>
<path d="M3.35449 7.54846H5.03191V9.22588H3.35449V7.54846Z" fill="#1F2428"/>
<path d="M3.35449 32.7097H15.9351V34.3871H3.35449V32.7097Z" fill="#1F2428"/>
<path d="M12.5811 36.0646H15.9359V37.742H12.5811V36.0646Z" fill="#1F2428"/>
<path d="M3.35449 36.0646H10.9029V37.742H3.35449V36.0646Z" fill="#1F2428"/>
<path d="M3.35449 39.4194H15.9351V41.0969H3.35449V39.4194Z" fill="#1F2428"/>
<path d="M34.3875 13.4194C34.8507 13.4194 35.2262 13.0439 35.2262 12.5807C35.2262 12.1174 34.8507 11.7419 34.3875 11.7419C33.9243 11.7419 33.5488 12.1174 33.5488 12.5807C33.5488 13.0439 33.9243 13.4194 34.3875 13.4194Z" fill="#1F2428"/>
</svg>
