<svg width="52" height="52" viewBox="0 0 52 52" fill="none" xmlns="http://www.w3.org/2000/svg">
<path d="M39.4196 41.0967C35.7201 41.0967 32.71 38.0866 32.71 34.387C32.71 30.6875 35.7201 27.6774 39.4196 27.6774C43.1192 27.6774 46.1293 30.6875 46.1293 34.387C46.1293 38.0866 43.1192 41.0967 39.4196 41.0967Z" fill="#41B7E9"/>
<path d="M16.7801 5.03137H13.2424C5.94478 5.03137 0.00503395 10.9686 0.000840401 18.2662L1.69155e-06 20.0015C-0.00251444 25.0522 2.80213 29.593 7.31942 31.8516C8.40052 32.3926 9.53865 32.8111 10.7036 33.0954L10.9032 33.1441L10.9099 25.1604H10.0704C8.68065 25.1604 7.55426 24.034 7.55426 22.6443C7.55426 21.2545 8.68065 20.1281 10.0704 20.1281H10.9091V18.4507C10.9091 17.524 11.6597 16.7733 12.5865 16.7733H22.6494C23.2683 16.7733 23.8034 17.113 24.0945 17.612H24.3285C25.7157 17.612 26.8446 16.4831 26.8446 15.0959C26.8446 9.54615 22.3298 5.03137 16.7801 5.03137Z" fill="#41B7E9"/>
<path d="M18.4574 20.9668C19.3825 20.9668 20.1348 21.7192 20.1348 22.6443H21.8122C21.8122 20.7941 20.3076 19.2894 18.4574 19.2894C16.6072 19.2894 15.1025 20.7941 15.1025 22.6443H16.78C16.78 21.7192 17.5323 20.9668 18.4574 20.9668Z" fill="#1F2428"/>
<path d="M26.838 38.735C26.5746 38.6411 26.2945 38.5807 25.9993 38.5807H21.5483L20.3212 35.308C20.0461 34.575 19.6108 33.9334 19.0716 33.4042C22.5396 32.724 25.1648 29.6644 25.1648 25.9992V18.4508C25.1648 17.0636 24.0359 15.9347 22.6486 15.9347H12.5858C11.1986 15.9347 10.0697 17.0636 10.0697 18.4508V19.2895C8.21949 19.2895 6.71484 20.7942 6.71484 22.6444C6.71484 24.4946 8.21949 25.9992 10.0697 25.9992L10.0638 32.9387L10.7037 33.0955C11.0476 33.1794 11.3948 33.249 11.7446 33.3094C10.713 34.2773 10.0638 35.6486 10.0638 37.1717C10.0638 39.1988 10.6828 41.0834 11.7412 42.6476V52H23.4832V46.9678H27.6767V46.9695H31.0316C33.3439 46.9695 35.2251 45.0882 35.2251 42.7759C35.2251 42.4807 35.1647 42.2006 35.0708 41.9372L51.9993 41.9355V26.8388H26.838V38.735ZM21.4174 30.4653C21.1776 30.3899 20.9352 30.3186 20.7062 30.2288C19.6184 29.8011 18.8191 28.8273 18.5532 27.6766H23.2408C22.912 28.7762 22.2696 29.739 21.4174 30.4653ZM10.0697 24.3218C9.14459 24.3218 8.39226 23.5695 8.39226 22.6444C8.39226 21.7193 9.14459 20.967 10.0697 20.967H11.7471V18.4508C11.7471 17.9879 12.1237 17.6121 12.5858 17.6121H22.6495C23.1116 17.6121 23.4882 17.9879 23.4882 18.4508V25.9992H16.7802V26.8379C16.7802 28.8181 17.8814 30.6289 19.563 31.5313C18.9533 31.7469 18.2999 31.8702 17.6164 31.8702L14.4754 31.871C13.5579 31.871 12.6412 31.783 11.7421 31.6068L11.7488 24.3218H10.0697ZM21.8057 50.3226H13.4187V44.5339C15.143 46.0444 17.3933 46.9678 19.8599 46.9678H21.8057V50.3226ZM26.838 45.2904H19.8599C15.3829 45.2904 11.7412 41.6479 11.7412 37.1683C11.7412 35.173 13.365 33.5484 15.3611 33.5484C16.8616 33.5484 18.2236 34.492 18.7503 35.8977L20.031 39.312L18.5918 41.4709L19.9874 42.401L21.4157 40.2581H25.9993C26.4614 40.2581 26.838 40.6339 26.838 41.0968V41.0985V45.2904ZM32.709 41.9372C33.1711 41.9372 33.5477 42.3129 33.5477 42.7759C33.5477 44.1631 32.4188 45.292 31.0316 45.292H28.5154V41.444L29.4565 40.5047C29.6141 40.347 29.8246 40.2598 30.0494 40.2598H30.1928C30.655 40.2598 31.0316 40.6355 31.0316 41.0985V41.9372H32.709ZM50.3219 40.2581L40.2574 40.2589V38.5807C41.6446 38.5807 42.7735 37.4518 42.7735 36.0646C42.7735 34.6773 41.6446 33.5484 40.2574 33.5484H38.5799C38.1178 33.5484 37.7412 33.1727 37.7412 32.7097C37.7412 32.2468 38.1178 31.871 38.5799 31.871H40.2574C40.7195 31.871 41.0961 32.2468 41.0961 32.7097H42.7735C42.7735 31.3225 41.6446 30.1936 40.2574 30.1936V28.5162H50.3219V40.2581ZM38.5799 28.5162V30.1936C37.1927 30.1936 36.0638 31.3225 36.0638 32.7097C36.0638 34.0969 37.1927 35.2259 38.5799 35.2259H40.2574C40.7195 35.2259 41.0961 35.6016 41.0961 36.0646C41.0961 36.5275 40.7195 36.9033 40.2574 36.9033H38.5799C38.1178 36.9033 37.7412 36.5275 37.7412 36.0646H36.0638C36.0638 37.4518 37.1927 38.5807 38.5799 38.5807V40.2589L32.5656 40.2598C32.2192 39.2835 31.2865 38.5824 30.1928 38.5824H30.0486C29.4841 38.5824 28.9532 38.7761 28.5154 39.1175V28.5162H38.5799Z" fill="#1F2428"/>
<path d="M48.1003 3.35484L45.5146 1.28574C44.4771 0.457097 43.1754 0 41.8478 0H34.3866C33.4615 0 32.7092 0.752323 32.7092 1.67742C32.7092 2.29135 32.887 2.85916 33.1755 3.35484H31.0318C29.6445 3.35484 28.5156 4.48374 28.5156 5.87097C28.5156 7.0309 29.3082 8.00045 30.3776 8.28981C30.261 8.58 30.193 8.89452 30.193 9.22581C30.193 10.3857 30.9856 11.3553 32.055 11.6446C31.9384 11.9348 31.8705 12.2494 31.8705 12.5806C31.8705 13.9679 32.9994 15.0968 34.3866 15.0968H42.2185C43.2819 15.0968 44.327 14.8074 45.2395 14.2597L48.0383 12.5806H51.9995V3.35484H48.1003ZM44.3765 12.8214C43.7239 13.213 42.9783 13.4194 42.2185 13.4194H34.3866C33.9245 13.4194 33.5479 13.0436 33.5479 12.5806C33.5479 12.1177 33.9245 11.7419 34.3866 11.7419H39.4189V10.0645H34.3866H32.7092C32.247 10.0645 31.8705 9.68877 31.8705 9.22581C31.8705 8.76284 32.247 8.3871 32.7092 8.3871H39.4189V6.70968H32.7092H31.0318C30.5696 6.70968 30.193 6.33394 30.193 5.87097C30.193 5.408 30.5696 5.03226 31.0318 5.03226H36.064H39.4189H39.8089L40.2416 5.68058C41.0199 6.85058 42.3241 7.54839 43.7307 7.54839H44.4511V5.87097H43.7307C42.8869 5.87097 42.1052 5.45245 41.6372 4.75045L40.7063 3.35484H39.4189H36.064C35.1389 3.35484 34.3866 2.60252 34.3866 1.67742H41.8478C42.7955 1.67742 43.7265 2.00368 44.4679 2.59665L46.9672 4.59697V11.2672L44.3765 12.8214ZM50.3221 10.9032H48.6447V5.03226H50.3221V10.9032Z" fill="#1F2428"/>
<path d="M33.5479 16.7742H35.2253V25.1613H33.5479V16.7742Z" fill="#1F2428"/>
<path d="M36.9023 23.4839H38.5798V25.1613H36.9023V23.4839Z" fill="#1F2428"/>
<path d="M36.9023 16.7742H38.5798V21.8064H36.9023V16.7742Z" fill="#1F2428"/>
<path d="M43.6123 23.4839H45.2897V25.1613H43.6123V23.4839Z" fill="#1F2428"/>
<path d="M43.6123 16.7742H45.2897V21.8064H43.6123V16.7742Z" fill="#1F2428"/>
<path d="M40.2578 16.7742H41.9352V25.1613H40.2578V16.7742Z" fill="#1F2428"/>
</svg>
