<svg width="52" height="52" viewBox="0 0 52 52" fill="none" xmlns="http://www.w3.org/2000/svg">
<path d="M2.51613 15.0968C3.90575 15.0968 5.03226 13.9703 5.03226 12.5806C5.03226 11.191 3.90575 10.0645 2.51613 10.0645C1.12651 10.0645 0 11.191 0 12.5806C0 13.9703 1.12651 15.0968 2.51613 15.0968Z" fill="#41B7E9"/>
<path d="M14.2583 18.4516C15.6479 18.4516 16.7744 17.3251 16.7744 15.9355C16.7744 14.5459 15.6479 13.4194 14.2583 13.4194C12.8687 13.4194 11.7422 14.5459 11.7422 15.9355C11.7422 17.3251 12.8687 18.4516 14.2583 18.4516Z" fill="#41B7E9"/>
<path d="M10.9035 8.3871C13.2195 8.3871 15.0971 6.50958 15.0971 4.19355C15.0971 1.87752 13.2195 0 10.9035 0C8.58748 0 6.70996 1.87752 6.70996 4.19355C6.70996 6.50958 8.58748 8.3871 10.9035 8.3871Z" fill="#41B7E9"/>
<path d="M49.4839 8.38712C50.8735 8.38712 52 7.26061 52 5.87099C52 4.48137 50.8735 3.35486 49.4839 3.35486C48.0943 3.35486 46.9678 4.48137 46.9678 5.87099C46.9678 7.26061 48.0943 8.38712 49.4839 8.38712Z" fill="#41B7E9"/>
<path d="M26.0004 44.4516C21.3757 44.4516 17.6133 40.6892 17.6133 36.0645C17.6133 31.4399 21.3757 27.6774 26.0004 27.6774C30.625 27.6774 34.3875 31.4399 34.3875 36.0645C34.3875 40.6892 30.625 44.4516 26.0004 44.4516Z" fill="#41B7E9"/>
<path d="M23.4834 36.9032V37.7419C23.4834 38.8339 24.1871 39.7565 25.1608 40.1037V41.9355H26.8382V40.2581H28.5157V37.7419C28.5157 36.3547 27.3868 35.2258 25.9995 35.2258C25.5374 35.2258 25.1608 34.8501 25.1608 34.3871V33.5484H25.9995C26.4617 33.5484 26.8382 33.9241 26.8382 34.3871V35.2258H28.5157V34.3871C28.5157 33.2951 27.812 32.3725 26.8382 32.0253V30.1935H25.1608V31.871H23.4834V34.3871C23.4834 35.7743 24.6123 36.9032 25.9995 36.9032C26.4617 36.9032 26.8382 37.279 26.8382 37.7419V38.5806H25.9995C25.5374 38.5806 25.1608 38.2049 25.1608 37.7419V36.9032H23.4834Z" fill="#1F2428"/>
<path d="M40.2581 13.9276V11.1691C41.8868 8.92723 43.0367 6.31716 43.5961 3.52174L43.7135 2.94135L43.2061 2.6369C40.331 0.911677 37.0416 0 33.6901 0H30.1935V0.83871C30.1935 1.24213 30.2028 1.64471 30.2179 2.04729C27.6497 2.76523 25.5907 4.29084 25.4968 4.36129L25.0514 4.6951L25.1865 5.23523C25.7517 7.49555 26.9041 9.56297 28.5161 11.2379V13.9276L25.584 17.0694C22.9077 19.937 20.7983 23.2239 19.2954 26.8387H18.4516V21.8065C18.4516 20.8814 17.6993 20.129 16.7742 20.129H1.67742C0.752322 20.129 0 20.8814 0 21.8065V50.3226C0 51.2477 0.752322 52 1.67742 52H43.6129C44.46 52 45.1544 51.3676 45.2668 50.5515C49.3706 48.3894 52 44.0792 52 39.4194C52 31.0935 48.8716 23.1559 43.1902 17.0694L40.2581 13.9276ZM33.6901 1.67742C36.5384 1.67742 39.3388 2.40123 41.8265 3.77671C41.3048 6.032 40.3176 8.18245 38.974 10.0645H33.327C32.453 7.34458 31.9615 4.53071 31.8827 1.67742H33.6901ZM30.1935 13.4194V11.7419H38.5806V13.4194H30.1935ZM30.3328 3.76581C30.529 5.90032 30.9408 8.00716 31.564 10.0645H29.7222C28.449 8.74019 27.4996 7.14077 26.967 5.38619C27.6162 4.96516 28.8801 4.2271 30.3328 3.76581ZM38.6477 28.5161C39.0176 31.0817 41.0473 33.1114 43.6129 33.4813V38.6477C41.0473 39.0176 39.0176 41.0473 38.6477 43.6129H13.3523C12.9824 41.0473 10.9527 39.0176 8.3871 38.6477V33.4813C10.9527 33.1114 12.9824 31.0817 13.3523 28.5161H38.6477ZM5.03226 23.4839V21.8065H6.70968V23.4839H5.03226ZM10.0645 25.1613V26.8387H1.67742V25.1613H10.0645ZM8.3871 40.3428C10.0276 40.6774 11.3226 41.9724 11.6572 43.6129H8.3871V40.3428ZM8.3871 28.5161H11.6572C11.3226 30.1566 10.0276 31.4516 8.3871 31.7863V28.5161ZM16.7742 25.1613V26.8387H15.0968V25.1613H16.7742ZM13.4194 26.8387H11.7419V25.1613H13.4194V26.8387ZM6.70968 28.5161V30.1935H1.67742V28.5161H6.70968ZM6.70968 31.871V33.5484H1.67742V31.871H6.70968ZM6.70968 35.2258V36.9032H1.67742V35.2258H6.70968ZM6.70968 38.5806V40.2581H1.67742V38.5806H6.70968ZM6.70968 41.9355V43.6129H1.67742V41.9355H6.70968ZM6.70968 45.2903V46.9677H1.67742V45.2903H6.70968ZM8.3871 45.2903H43.6129V46.9677H8.3871V45.2903ZM43.6129 43.6129H40.3428C40.6774 41.9724 41.9724 40.6774 43.6129 40.3428V43.6129ZM43.6129 31.7863C41.9724 31.4516 40.6774 30.1566 40.3428 28.5161H43.6129V31.7863ZM16.7742 23.4839H8.3871V21.8065H16.7742V23.4839ZM3.35484 21.8065V23.4839H1.67742V21.8065H3.35484ZM1.67742 48.6452H6.70968V50.3226H1.67742V48.6452ZM8.3871 50.3226V48.6452H43.6129V50.3226H8.3871ZM45.2903 48.6015V28.5161C45.2903 27.591 44.538 26.8387 43.6129 26.8387H21.1162C22.521 23.6617 24.4308 20.7639 26.8102 18.2143L29.7197 15.0968H31.871V20.129H33.5484V15.0968H35.2258V21.8065H36.9032V15.0968H39.0545L41.964 18.2143C47.3544 23.9896 50.3226 31.5195 50.3226 39.4194C50.3226 43.1457 48.3835 46.6146 45.2903 48.6015Z" fill="#1F2428"/>
<path d="M35.2256 23.4839H36.903V25.1613H35.2256V23.4839Z" fill="#1F2428"/>
<path d="M31.8711 21.8065H33.5485V23.4839H31.8711V21.8065Z" fill="#1F2428"/>
<path d="M50.3226 5.03228V3.35486H48.6452V5.03228H46.9678V6.7097H48.6452V8.38712H50.3226V6.7097H52V5.03228H50.3226Z" fill="#1F2428"/>
<path d="M1.67742 15.0968H3.35484V13.4194H5.03226V11.7419H3.35484V10.0645H1.67742V11.7419H0V13.4194H1.67742V15.0968Z" fill="#1F2428"/>
<path d="M15.097 18.4516V16.7742H16.7744V15.0968H15.097V13.4194H13.4196V15.0968H11.7422V16.7742H13.4196V18.4516H15.097Z" fill="#1F2428"/>
<path d="M10.0645 0H11.7419V3.35484H10.0645V0Z" fill="#1F2428"/>
<path d="M11.7422 3.35486H15.097V5.03228H11.7422V3.35486Z" fill="#1F2428"/>
<path d="M10.0645 5.03229H11.7419V8.38713H10.0645V5.03229Z" fill="#1F2428"/>
<path d="M6.70996 3.35486H10.0648V5.03228H6.70996V3.35486Z" fill="#1F2428"/>
</svg>
