<svg width="60" height="60" viewBox="0 0 60 60" fill="none" xmlns="http://www.w3.org/2000/svg">
<rect width="60" height="60" fill="white"/>
<path d="M6.77417 0.967773H53.2258V7.74197H6.77417V0.967773Z" fill="#41B7E9"/>
<path d="M41.3804 26.1096C39.7181 25.9414 38.4059 24.6065 38.0779 22.9673L37.742 21.2903V22.2301C37.742 24.1004 36.4392 25.8077 34.5902 26.0865C32.5819 26.3894 30.7546 25.0606 30.3695 23.1369L30 21.2903L29.6574 23.0051C29.3399 24.5923 28.0858 25.888 26.4801 26.0959C24.2011 26.3922 22.2581 24.6259 22.2581 22.4059V21.2903L21.9221 22.9673C21.5942 24.6056 20.282 25.9414 18.6196 26.1096C17.3679 26.2363 16.2428 25.7321 15.4839 24.8905V36.7742C15.4839 37.8435 16.35 38.7096 17.4194 38.7096H42.5807C43.65 38.7096 44.5161 37.8435 44.5161 36.7742V24.8905C43.7563 25.7321 42.6308 26.2363 41.3804 26.1096Z" fill="#41B7E9"/>
<path d="M7.74194 48.3872H9.67743V50.3227H7.74194V48.3872Z" fill="#1F2428"/>
<path d="M3.87097 48.3872H5.80646V50.3227H3.87097V48.3872Z" fill="#1F2428"/>
<path d="M11.6129 48.3872H13.5484V50.3227H11.6129V48.3872Z" fill="#1F2428"/>
<path d="M55.1613 13.5484H54.1935V0H5.80645V11.6129H7.74194V1.93548H52.2581V15.4839H55.1613C56.7617 15.4839 58.0645 16.7866 58.0645 18.3871V46.4516H19.5831L15.7121 44.5161H1.93548V18.3871C1.93548 16.7866 3.23825 15.4839 4.83871 15.4839H5.80645V42.5806H54.1935V17.4194H52.2581V40.6452H7.74194V13.5484H4.83871C2.1708 13.5484 0 15.7192 0 18.3871V49.3548C0 52.0227 2.1708 54.1935 4.83871 54.1935H17.4194V58.0645H13.5484V60H46.4516V58.0645H42.5806V54.1935H55.1613C57.8292 54.1935 60 52.0227 60 49.3548V18.3871C60 15.7192 57.8292 13.5484 55.1613 13.5484ZM40.6452 58.0645H19.3548V54.1935H40.6452V58.0645ZM55.1613 52.2581H4.83871C3.23825 52.2581 1.93548 50.9553 1.93548 49.3548V46.4516H15.2556L19.1266 48.3871H58.0645V49.3548C58.0645 50.9553 56.7617 52.2581 55.1613 52.2581Z" fill="#1F2428"/>
<path d="M9.67737 3.87085H11.6129V5.80633H9.67737V3.87085Z" fill="#1F2428"/>
<path d="M13.5483 3.87085H15.4838V5.80633H13.5483V3.87085Z" fill="#1F2428"/>
<path d="M17.4193 3.87085H19.3548V5.80633H17.4193V3.87085Z" fill="#1F2428"/>
<path d="M13.5483 22.4059C13.5483 24.993 15.652 27.0967 18.2391 27.0967C19.8231 27.0967 21.2477 26.2858 22.1011 25.0374C22.946 26.2787 24.3688 27.0967 25.9811 27.0967C27.66 27.0967 29.1707 26.1946 30 24.8167C30.8302 26.1955 32.3399 27.0967 34.0188 27.0967C35.6301 27.0967 37.0539 26.2787 37.8988 25.0374C38.7531 26.2858 40.1768 27.0967 41.7608 27.0967C44.3479 27.0967 46.4516 24.993 46.4516 22.4059V21.8941C46.4516 21.389 46.3703 20.8886 46.2106 20.4104L43.2785 11.6128H16.7214L13.7893 20.4104C13.6296 20.8886 13.5483 21.389 13.5483 21.8941V22.4059ZM41.8827 13.5483L44.3748 21.0232C44.4688 21.3039 44.5161 21.5969 44.5161 21.8941V22.4059C44.5161 23.9255 43.2804 25.1612 41.7608 25.1612C40.4514 25.1612 39.3173 24.2303 39.0598 22.946L38.7096 21.3365V21.2902H38.7002L37.0142 13.5483H41.8827ZM36.7741 21.3946V22.4059C36.7741 23.9255 35.5385 25.1612 34.0188 25.1612C32.7094 25.1612 31.5754 24.2303 31.3178 22.946L30.9677 21.1943V13.5483H35.0305L36.7741 21.3946ZM29.0322 13.5483V21.1943L28.6821 22.9469C28.4245 24.2303 27.2895 25.1612 25.9811 25.1612C24.4614 25.1612 23.2258 23.9255 23.2258 22.4059V21.5449L24.9694 13.5483H29.0322ZM15.4838 21.8941C15.4838 21.5969 15.5311 21.3039 15.6251 21.0232L18.1172 13.5483H22.9867L21.3096 21.1007L20.9401 22.9469C20.6826 24.2303 19.5476 25.1612 18.2391 25.1612C16.7195 25.1612 15.4838 23.9255 15.4838 22.4059V21.8941Z" fill="#1F2428"/>
<path d="M33.871 38.7096V29.0322H26.129V38.7096H28.0645V30.9677H31.9355V38.7096H33.871Z" fill="#1F2428"/>
</svg>
