<svg width="52" height="52" viewBox="0 0 52 52" fill="none" xmlns="http://www.w3.org/2000/svg">
<rect width="52" height="52" />
<path d="M49.01 4.24034L45.3314 0L44.6973 0.639604C43.233 2.11679 41.2872 2.92983 39.2164 2.92983H30.4032C24.7377 2.92983 20.129 7.5788 20.129 13.2938C20.129 14.6559 20.3907 15.985 20.9048 17.2439L21.1212 17.7719L21.2059 17.771C21.6957 16.5138 22.9026 15.6204 24.3226 15.6204H26V14.3276C26 13.0459 26.7179 11.8741 27.8544 11.3005L29.3548 10.5442C29.3548 11.479 30.1055 12.2362 31.0323 12.2362H42.7742C44.6269 12.2362 46.129 13.7515 46.129 15.6204H47.8064C49.14 15.6204 50.2815 16.4114 50.8224 17.5477H50.8233L51.038 17.0367C51.6763 15.5206 52 13.9165 52 12.2692C52 9.31403 50.9374 6.46288 49.01 4.24034Z" fill="#41B7E9"/>
<path d="M47.8064 14.7744H46.883C46.493 12.8463 44.7997 11.3903 42.7742 11.3903H31.0323C30.5693 11.3903 30.1935 11.0104 30.1935 10.5442C30.1935 10.078 30.5693 9.69818 31.0323 9.69818H31.871V8.0061H31.0323C29.8329 8.0061 28.8273 8.85637 28.5765 9.99091L27.4786 10.5442C26.0495 11.265 25.1613 12.7151 25.1613 14.3277V14.7744H24.3226C22.0103 14.7744 20.129 16.6721 20.129 19.0046C20.129 21.3371 22.0103 23.2348 24.3226 23.2348H25.1613C25.1613 27.1993 27.6363 30.5835 31.1052 31.9219C29.4723 32.9947 28.3886 34.7519 28.2075 36.7629L27.9626 39.4787L26.0604 38.9305C27.097 37.5996 27.6774 35.9533 27.6774 34.2333C27.6774 30.0344 24.2915 26.6189 20.129 26.6189C18.3367 26.6189 16.6912 27.2551 15.3945 28.311H15.0297L14.3939 20.6205C14.2799 19.2398 13.1157 18.1586 11.7419 18.1586C10.3681 18.1586 9.204 19.2398 9.08994 20.6205L8.45419 28.311H8.3871C6.5369 28.311 5.03226 29.8288 5.03226 31.6952C5.03226 32.3965 5.24529 33.0488 5.60845 33.5894C4.3009 34.0514 3.35484 35.2959 3.35484 36.7714C3.35484 37.4727 3.56787 38.125 3.93103 38.6657C2.62348 39.1276 1.67742 40.3721 1.67742 41.8476C1.67742 42.4669 1.85523 43.0397 2.14374 43.5397H1.67742C0.752322 43.5397 0 44.2986 0 45.2318C0 47.0981 1.50464 48.6159 3.35484 48.6159H13.4194V50.308C13.4194 51.2412 14.1717 52.0001 15.0968 52.0001H15.9355H16.7742H33.5484C37.7109 52.0001 41.0968 48.5846 41.0968 44.3857V36.0895V35.9253V35.6758C41.0968 34.3695 40.5776 33.185 39.7397 32.3153C43.8687 31.3914 46.9677 27.6739 46.9677 23.2348H47.8064C50.1188 23.2348 52 21.3371 52 19.0046C52 16.6721 50.1188 14.7744 47.8064 14.7744ZM24.3226 21.5427C22.9354 21.5427 21.8065 20.4039 21.8065 19.0046C21.8065 17.6052 22.9354 16.4665 24.3226 16.4665H25.1613V21.5427H24.3226ZM29.879 36.9169C30.0199 35.3492 30.8947 33.9854 32.2123 33.2079C32.0588 33.4668 31.9205 33.7358 31.8165 34.026L29.6727 39.9711L29.6056 39.9516L29.879 36.9169ZM34.7352 42.5439L33.9208 43.4576C32.9143 44.5854 31.4743 45.2326 29.9696 45.2326C29.1485 45.2326 28.3274 45.0372 27.5927 44.6666L20.8 41.2401C19.869 40.7697 19.2903 39.8256 19.2903 38.7756C19.2903 37.6699 20.181 36.7714 21.2772 36.7714C22.1906 36.7714 22.9832 37.3958 23.2054 38.29L23.6265 39.9889L29.5385 41.6928L30.2372 43.807L31.8274 43.2715L31.0809 41.0134L31.2285 40.6048C32.1729 41.5955 33.3974 42.2681 34.7352 42.5439ZM36.1031 43.5397L39.4194 39.8213V43.5397H36.1031ZM18.6135 36.2528C17.9937 35.7807 17.6129 35.0421 17.6129 34.2333C17.6129 32.8339 18.7418 31.6952 20.129 31.6952C21.5163 31.6952 22.6452 32.8339 22.6452 34.2333C22.6452 34.5971 22.5621 34.9448 22.4187 35.2671C22.0572 35.1478 21.6748 35.0793 21.2772 35.0793C20.2255 35.0793 19.2828 35.5345 18.6135 36.2528ZM20.129 28.311C23.3656 28.311 26 30.9684 26 34.2333C26 35.5362 25.5748 36.7883 24.8082 37.8086C24.6354 37.1648 24.2991 36.6047 23.8529 36.158C24.154 35.5641 24.3226 34.905 24.3226 34.2333C24.3226 31.9007 22.4414 30.0031 20.129 30.0031C17.8167 30.0031 15.9355 31.9007 15.9355 34.2333C15.9355 35.6571 16.6434 36.9507 17.7815 37.7274C17.6825 38.0624 17.6129 38.4093 17.6129 38.7756C17.6129 39.065 17.6498 39.3467 17.7018 39.6225C15.6604 38.6792 14.2581 36.5886 14.2581 34.2333C14.2581 30.9684 16.8925 28.311 20.129 28.311ZM10.7606 20.761C10.8034 20.25 11.2337 19.8506 11.7419 19.8506C12.2502 19.8506 12.6805 20.2508 12.7232 20.761L13.3472 28.311H10.1375L10.7606 20.761ZM8.3871 30.0031H13.8572C13.1996 30.9921 12.7668 32.1452 12.6301 33.3872H9.22581H8.3871C7.462 33.3872 6.70968 32.6283 6.70968 31.6952C6.70968 30.762 7.462 30.0031 8.3871 30.0031ZM6.70968 35.0793H8.3871H9.22581H12.6335C12.7719 36.3137 13.2097 37.4677 13.8739 38.4635H7.54839H6.70968C5.78458 38.4635 5.03226 37.7046 5.03226 36.7714C5.03226 35.8382 5.78458 35.0793 6.70968 35.0793ZM3.35484 46.9238C2.42974 46.9238 1.67742 46.1649 1.67742 45.2318H5.03226H13.4194V46.9238H3.35484ZM13.4194 43.5397H5.03226C4.10716 43.5397 3.35484 42.7808 3.35484 41.8476C3.35484 40.9144 4.10716 40.1555 5.03226 40.1555H6.70968H7.54839H15.4004C16.3397 40.9237 17.4695 41.4643 18.7091 41.7046C19.079 42.1285 19.5277 42.4906 20.0502 42.7546L21.6085 43.5405H17.9861C17.4041 42.5337 16.3339 41.8484 15.0976 41.8484C14.1717 41.8476 13.4194 42.6065 13.4194 43.5397ZM15.9355 50.308H15.0968V43.5397C16.0219 43.5397 16.7742 44.2986 16.7742 45.2318V50.308H15.9355ZM33.5484 50.308H18.4516V45.2318H24.9625L26.8412 46.1793C27.8074 46.6658 28.8885 46.9238 29.9688 46.9238C31.6386 46.9238 33.2431 46.3121 34.5012 45.2318H39.3523C38.943 48.0964 36.4998 50.308 33.5484 50.308ZM39.4194 36.0895C39.4194 36.8644 39.1359 37.6098 38.6217 38.1868L36.1106 41.0016H36.0645C34.3871 41.0016 32.8279 40.1437 31.897 38.752L33.3924 34.6047C33.8369 33.3703 35.0111 32.542 36.3119 32.542C38.0254 32.542 39.4194 33.9481 39.4194 35.6766V35.9262V36.0895ZM45.2903 23.2348C45.2903 27.4337 41.9044 30.8491 37.7419 30.8491H36.0645H34.6286H34.3871C30.2246 30.8491 26.8387 27.4337 26.8387 23.2348V14.3277C26.8387 13.3598 27.3721 12.4901 28.2293 12.0578L28.8231 11.7583C29.2508 12.5468 30.0803 13.0823 31.0323 13.0823H42.7742C44.1614 13.0823 45.2903 14.2211 45.2903 15.6204V23.2348ZM47.8064 21.5427H46.9677V16.4665H47.8064C49.1937 16.4665 50.3226 17.6052 50.3226 19.0046C50.3226 20.4039 49.1937 21.5427 47.8064 21.5427Z" fill="#1F2428"/>
<path d="M31.871 24.927C31.871 27.2595 33.7522 29.1572 36.0645 29.1572C38.3768 29.1572 40.2581 27.2595 40.2581 24.927V24.0809H31.871V24.927ZM38.4372 25.773C38.0908 26.7578 37.1582 27.4651 36.0645 27.4651C34.9708 27.4651 34.0382 26.7578 33.6918 25.773H38.4372Z" fill="#1F2428"/>
<path d="M33.5484 19.0045H35.2258C35.2258 17.1382 33.7211 15.6204 31.871 15.6204C30.0208 15.6204 28.5161 17.1382 28.5161 19.0045H30.1935C30.1935 18.0713 30.9459 17.3124 31.871 17.3124C32.796 17.3124 33.5484 18.0713 33.5484 19.0045Z" fill="#1F2428"/>
<path d="M40.258 15.6204C38.4078 15.6204 36.9032 17.1382 36.9032 19.0045H38.5806C38.5806 18.0713 39.3329 17.3124 40.258 17.3124C41.1831 17.3124 41.9355 18.0713 41.9355 19.0045H43.6129C43.6129 17.1382 42.1082 15.6204 40.258 15.6204Z" fill="#1F2428"/>
</svg>
