<svg width="52" height="52" viewBox="0 0 52 52" fill="none" xmlns="http://www.w3.org/2000/svg">
<rect width="52" height="52" />
<path d="M17.6129 37.7419C23.1714 37.7419 27.6774 33.2359 27.6774 27.6774C27.6774 22.119 23.1714 17.6129 17.6129 17.6129C12.0544 17.6129 7.5484 22.119 7.5484 27.6774C7.5484 33.2359 12.0544 37.7419 17.6129 37.7419Z" fill="#41B7E9"/>
<path d="M46.1291 36.9033H37.742C36.3547 36.9033 35.2258 35.7744 35.2258 34.3871V29.3549C35.2258 27.9676 36.3547 26.8387 37.742 26.8387H46.1291C47.5163 26.8387 48.6452 27.9676 48.6452 29.3549V34.3871C48.6452 35.7744 47.5163 36.9033 46.1291 36.9033Z" fill="#41B7E9"/>
<path d="M35.2258 39.4193H48.6452V43.6129H35.2258V39.4193Z" fill="#41B7E9"/>
<path d="M47.8064 10.0645H34.2101C33.6994 9.06394 33.0192 8.18329 32.2148 7.44858L44.0935 3.98303C44.5514 4.61542 45.2903 5.03226 46.129 5.03226C47.5163 5.03226 48.6452 3.90335 48.6452 2.51613C48.6452 1.1289 47.5163 0 46.129 0C44.7913 0 43.7043 1.05258 43.6272 2.37187L30.4938 6.2031C29.1468 5.44994 27.607 5.03226 26 5.03226C24.393 5.03226 22.8532 5.44994 21.5062 6.2031L8.37284 2.37187C8.29568 1.05258 7.20871 0 5.87097 0C4.48374 0 3.35484 1.1289 3.35484 2.51613C3.35484 3.90335 4.48374 5.03226 5.87097 5.03226C6.70968 5.03226 7.44858 4.61542 7.90652 3.98303L19.7852 7.44858C18.98 8.18329 18.3006 9.06477 17.7899 10.0645H4.19355C1.88123 10.0645 0 11.9457 0 14.2581V44.4516C0 46.7639 1.88123 48.6452 4.19355 48.6452H6.70968V49.4839C6.70968 50.8711 7.83858 52 9.22581 52H10.9032C12.2905 52 13.4194 50.8711 13.4194 49.4839V48.6452H31.9557C32.3457 50.5566 34.039 52 36.0645 52H47.8064C50.1188 52 52 50.1188 52 47.8064V35.2258V24.3226V14.2581C52 11.9457 50.1188 10.0645 47.8064 10.0645ZM46.129 1.67742C46.592 1.67742 46.9677 2.05316 46.9677 2.51613C46.9677 2.9791 46.592 3.35484 46.129 3.35484C45.6661 3.35484 45.2903 2.9791 45.2903 2.51613C45.2903 2.05316 45.6661 1.67742 46.129 1.67742ZM5.87097 3.35484C5.408 3.35484 5.03226 2.9791 5.03226 2.51613C5.03226 2.05316 5.408 1.67742 5.87097 1.67742C6.33394 1.67742 6.70968 2.05316 6.70968 2.51613C6.70968 2.9791 6.33394 3.35484 5.87097 3.35484ZM26 6.70968C28.543 6.70968 30.8712 7.99794 32.2576 10.0645H19.7424C21.1288 7.99794 23.457 6.70968 26 6.70968ZM1.67742 44.4516V14.2581C1.67742 12.8708 2.80632 11.7419 4.19355 11.7419H47.8064C49.1937 11.7419 50.3226 12.8708 50.3226 14.2581V20.9895C49.8328 20.6188 49.2683 20.3412 48.6452 20.2146V15.0968C48.6452 14.1717 47.8928 13.4194 46.9677 13.4194H5.03226C4.10716 13.4194 3.35484 14.1717 3.35484 15.0968V40.2581C3.35484 41.1832 4.10716 41.9355 5.03226 41.9355H31.871V46.9677H4.19355C2.80632 46.9677 1.67742 45.8388 1.67742 44.4516ZM46.9677 20.129H36.0645C33.7522 20.129 31.871 22.0103 31.871 24.3226V40.2581H5.03226V15.0968H46.9677V20.129ZM36.0645 21.8065H47.8064C48.8984 21.8065 49.821 22.5101 50.1683 23.4839H33.7027C34.0499 22.5101 34.9725 21.8065 36.0645 21.8065ZM11.7419 49.4839C11.7419 49.9468 11.3662 50.3226 10.9032 50.3226H9.22581C8.76284 50.3226 8.3871 49.9468 8.3871 49.4839V48.6452H11.7419V49.4839ZM47.8064 50.3226H36.0645C34.6773 50.3226 33.5484 49.1937 33.5484 47.8064V46.9677H50.3226V47.8064C50.3226 49.1937 49.1937 50.3226 47.8064 50.3226ZM50.3226 45.2903H33.5484V25.1613H50.3226V35.2258V45.2903Z" fill="#1F2428"/>
<path d="M17.6129 38.5806C23.6248 38.5806 28.5161 33.6893 28.5161 27.6774C28.5161 21.6655 23.6248 16.7742 17.6129 16.7742C11.601 16.7742 6.70966 21.6655 6.70966 27.6774C6.70966 33.6893 11.601 38.5806 17.6129 38.5806ZM15.7677 33.6104C16.3699 33.5718 16.9847 33.5484 17.6129 33.5484C18.2411 33.5484 18.8559 33.5718 19.458 33.6104C18.8995 35.7626 18.1169 36.9032 17.6129 36.9032C17.1088 36.9032 16.3263 35.7626 15.7677 33.6104ZM15.0657 36.5375C13.6164 36.1198 12.3148 35.3575 11.2513 34.3426C12.0925 34.0969 13.0486 33.904 14.0861 33.7698C14.3419 34.8249 14.6665 35.7718 15.0657 36.5375ZM20.1148 28.5161C20.0795 29.8035 19.9671 30.9492 19.8036 31.9515C19.0898 31.8995 18.3577 31.8709 17.6129 31.8709C16.8681 31.8709 16.1359 31.8995 15.4222 31.9515C15.2586 30.9492 15.1462 29.8035 15.111 28.5161H20.1148ZM15.111 26.8387C15.1462 25.5513 15.2586 24.4056 15.4222 23.4033C16.1359 23.4553 16.8681 23.4838 17.6129 23.4838C18.3577 23.4838 19.0898 23.4553 19.8036 23.4033C19.9671 24.4056 20.0795 25.5513 20.1148 26.8387H15.111ZM21.1397 33.7706C22.1771 33.9048 23.1333 34.0977 23.9745 34.3435C22.9118 35.3583 21.6102 36.1207 20.16 36.5384C20.5593 35.7718 20.8839 34.8249 21.1397 33.7706ZM21.4651 32.1242C21.6479 30.976 21.7586 29.754 21.7922 28.5161H26.7959C26.6466 30.1608 26.0637 31.6789 25.1638 32.9621C24.1062 32.5922 22.8464 32.3096 21.4651 32.1242ZM21.7922 26.8387C21.7586 25.6008 21.6471 24.3788 21.4651 23.2306C22.8456 23.0452 24.1062 22.7626 25.1638 22.3927C26.0646 23.6751 26.6475 25.194 26.7959 26.8387H21.7922ZM21.1397 21.5842C20.8847 20.5299 20.5593 19.583 20.16 18.8173C21.6093 19.2349 22.911 19.9973 23.9745 21.0122C23.1333 21.2571 22.1763 21.4508 21.1397 21.5842ZM19.458 21.7444C18.8559 21.7829 18.2411 21.8064 17.6129 21.8064C16.9847 21.8064 16.3699 21.7829 15.7677 21.7444C16.3263 19.5922 17.1088 18.4516 17.6129 18.4516C18.1169 18.4516 18.8995 19.5922 19.458 21.7444ZM14.0861 21.5842C13.0486 21.45 12.0925 21.2571 11.2513 21.0113C12.3139 19.9965 13.6156 19.2341 15.0657 18.8164C14.6665 19.583 14.3419 20.5299 14.0861 21.5842ZM13.7607 23.2306C13.5778 24.3788 13.4671 25.6008 13.4336 26.8387H8.42985C8.57914 25.194 9.16204 23.6759 10.062 22.3927C11.1196 22.7626 12.3793 23.0452 13.7607 23.2306ZM13.4336 28.5161C13.4671 29.754 13.5787 30.976 13.7607 32.1242C12.3802 32.3096 11.1196 32.5922 10.062 32.9621C9.1612 31.6797 8.5783 30.1608 8.42985 28.5161H13.4336Z" fill="#1F2428"/>
<path d="M6.70966 43.6129H8.38708V45.2903H6.70966V43.6129Z" fill="#1F2428"/>
<path d="M10.0645 43.6129H11.7419V45.2903H10.0645V43.6129Z" fill="#1F2428"/>
<path d="M13.4194 43.6129H15.0968V45.2903H13.4194V43.6129Z" fill="#1F2428"/>
<path d="M35.2258 41.9354H45.2903V43.6128H35.2258V41.9354Z" fill="#1F2428"/>
<path d="M46.9678 41.9354H48.6452V43.6128H46.9678V41.9354Z" fill="#1F2428"/>
<path d="M35.2258 38.5807H48.6452V40.2581H35.2258V38.5807Z" fill="#1F2428"/>
</svg>
