<svg width="52" height="52" viewBox="0 0 52 52" fill="none" xmlns="http://www.w3.org/2000/svg">
<rect width="52" height="52" />
<path d="M45.6711 41.0967L44.4566 27.7369C42.6761 28.9447 41.3719 30.768 40.8393 32.8975C40.4979 34.2663 39.2684 35.2258 37.8585 35.2258H26H14.1415C12.7316 35.2258 11.5021 34.2663 11.1599 32.8975C10.6273 30.768 9.32309 28.9447 7.54251 27.7369L5.9238 45.5402C5.88857 45.9252 5.96154 46.3118 6.13432 46.6574C6.48741 47.3619 7.20703 47.8064 7.99373 47.8064H26H44.0063C44.793 47.8064 45.5126 47.3619 45.8648 46.6574C46.0376 46.3118 46.1106 45.9244 46.0754 45.5402L45.8237 42.7742L45.6711 41.0967Z" fill="#41B7E9"/>
<path d="M51.7643 42.7021L45.1343 20.6012C44.5975 18.8139 42.983 17.6129 41.1161 17.6129H38.5806V12.5806C38.5806 5.64284 32.937 0 26 0C19.063 0 13.4194 5.64284 13.4194 12.5806V17.6129H10.8839C9.01697 17.6129 7.40329 18.8139 6.86652 20.6012L0.235677 42.7029C0.0796774 43.2263 0 43.7681 0 44.3124C0 45.0748 0.152645 45.817 0.452903 46.5199L2.80213 52H49.1979L51.5479 46.5199C51.8474 45.817 52 45.0748 52 44.3124C52 43.7681 51.9203 43.2263 51.7643 42.7021ZM8.47264 21.0835C8.79471 20.0108 9.76342 19.2903 10.8839 19.2903H13.4194V24.3226H15.0968V12.5806C15.0968 6.56877 19.9881 1.67742 26 1.67742C32.0119 1.67742 36.9032 6.56877 36.9032 12.5806V24.3226H38.5806V19.2903H41.1161C42.2366 19.2903 43.2044 20.0108 43.5265 21.0835L45.1184 26.39C42.5964 27.643 40.7135 29.9428 40.0266 32.6946C39.7775 33.691 38.8851 34.3871 37.8585 34.3871H14.1415C13.1141 34.3871 12.2225 33.691 11.9726 32.6946C11.2857 29.9419 9.40277 27.6422 6.88077 26.3892L8.47264 21.0835ZM50.0055 45.8598L48.0924 50.3226H3.90755L1.99529 45.8598C1.78394 45.3675 1.67742 44.8466 1.67742 44.3124C1.67742 43.9308 1.73277 43.5508 1.84265 43.1835L6.39432 28.0112C6.48574 28.0607 6.57129 28.1203 6.66103 28.1739L5.08845 45.4656C5.04065 46.0057 5.14297 46.5484 5.38535 47.0332C5.88355 48.0279 6.88245 48.6452 7.99374 48.6452H44.0063C45.1175 48.6452 46.1173 48.0279 46.6146 47.0332C46.857 46.5484 46.9594 46.0057 46.9115 45.4639L46.6599 42.697L44.9892 42.8497L45.2408 45.6149C45.261 45.8455 45.2182 46.077 45.115 46.2834C44.9028 46.7061 44.4785 46.9677 44.0063 46.9677H7.99374C7.52071 46.9677 7.09716 46.7061 6.88581 46.2834C6.78265 46.077 6.73903 45.8464 6.76 45.6166L8.23445 29.4001C9.2451 30.4125 9.99239 31.6814 10.3463 33.1022C10.7825 34.8459 12.3433 36.0645 14.1415 36.0645H37.8577C39.6567 36.0645 41.2167 34.8459 41.6528 33.1014C42.0076 31.6814 42.7541 30.4125 43.7647 29.4001L44.8349 41.1731L46.5056 41.0205L45.3381 28.1739C45.4279 28.1211 45.5126 28.0607 45.6048 28.0112L50.1565 43.1826C50.2672 43.5508 50.3226 43.9308 50.3226 44.3124C50.3226 44.8466 50.2161 45.3675 50.0055 45.8598Z" fill="#1F2428"/>
<path d="M18.4516 19.2853L25.8951 19.2383H33.5484V24.3226H35.2258V12.5807C35.2258 7.49389 31.0868 3.35486 26 3.35486C20.9132 3.35486 16.7742 7.49389 16.7742 12.5807V24.3226H18.4516V19.2853ZM26 5.03228C30.1625 5.03228 33.5484 8.41815 33.5484 12.5807V17.5609H25.8901L18.4516 17.6079V12.5807C18.4516 8.41815 21.8375 5.03228 26 5.03228Z" fill="#1F2428"/>
<path d="M29.3548 31.0322H22.6451V32.7096H29.3548V31.0322Z" fill="#1F2428"/>
</svg>
