<svg width="52" height="52" viewBox="0 0 52 52" fill="none" xmlns="http://www.w3.org/2000/svg">
<rect width="52" height="52" />
<path d="M33.8741 17.1791H17.5281L15.5558 4.35593L21.2374 6.25035L25.7011 0L30.1656 6.25035L35.8472 4.35593L33.8741 17.1791Z" fill="#41B7E9"/>
<path d="M31.09 17.1791H29.0174L25.7011 21.6005L22.3848 17.1791H20.3121L25.7011 24.3646L31.09 17.1791Z" fill="#1F2428"/>
<path d="M24.8721 47.0255H26.5302V48.6836H24.8721V47.0255Z" fill="#1F2428"/>
<path d="M29.8464 47.0255H31.5046V48.6836H29.8464V47.0255Z" fill="#1F2428"/>
<path d="M19.8976 47.0255H21.5557V48.6836H19.8976V47.0255Z" fill="#1F2428"/>
<path d="M24.8721 10.5465H26.5302V12.2046H24.8721V10.5465Z" fill="#1F2428"/>
<path d="M21.5558 10.5465H23.2139V12.2046H21.5558V10.5465Z" fill="#1F2428"/>
<path d="M28.1884 10.5465H29.8465V12.2046H28.1884V10.5465Z" fill="#1F2428"/>
<path d="M51.4022 12.2503C51.4022 10.9304 50.8882 9.68929 49.9547 8.75576L49.0883 7.88938L34.2198 14.9323L33.8741 17.1791H32.9331L35.2752 18.5844C36.0172 19.0296 36.479 19.8445 36.479 20.7109C36.479 21.3982 36.1897 22.0606 35.6864 22.5274L25.7011 31.7997L15.7158 22.5274C15.2126 22.0606 14.9232 21.3982 14.9232 20.7109C14.9232 19.8445 15.385 19.0304 16.127 18.5844L18.4692 17.1791H17.5282L17.3358 15.9255L17.1833 14.9315L2.31393 7.88855L1.44755 8.75576C0.514022 9.68929 0 10.9304 0 12.2503C0 14.0601 0.986591 15.7224 2.57592 16.5888L2.95977 16.7977C2.13734 17.6036 1.65814 18.7046 1.65814 19.8802C1.65814 21.5889 2.66711 23.1409 4.22825 23.8349L4.78953 24.0844C3.85848 24.8853 3.31627 26.0534 3.31627 27.3004C3.31627 29.048 4.36505 30.5967 5.98753 31.2451L15.7548 35.1516L21.6379 43.7093H19.2651C18.3166 43.7093 17.4643 44.2357 17.0398 45.0839L15.1529 48.8586C15.0028 49.1587 14.9232 49.4945 14.9232 49.8295C14.9232 51.0266 15.8974 52 17.0937 52H34.3085C35.5049 52 36.479 51.0266 36.479 49.8295C36.479 49.4945 36.3994 49.1587 36.2502 48.8586L34.3632 45.0839C33.9387 44.2357 33.0856 43.7093 32.138 43.7093H29.7644L35.6475 35.1516L45.4147 31.2442C47.0372 30.5959 48.086 29.0472 48.086 27.3004C48.086 26.0534 47.5438 24.8861 46.6135 24.0844L47.1748 23.8349C48.736 23.1409 49.7449 21.5889 49.7449 19.8802C49.7449 18.7046 49.2657 17.6036 48.4433 16.7977L48.8263 16.5888C50.4157 15.7232 51.4022 14.0601 51.4022 12.2503ZM4.97441 27.3004C4.97441 26.4323 5.40636 25.6265 6.12847 25.1448L6.54715 24.8654L9.61222 26.2275L10.2863 24.7128L4.90145 22.3193C3.9389 21.8915 3.31627 20.9339 3.31627 19.8802C3.31627 18.9856 3.76065 18.1557 4.50516 17.66L4.52091 17.65L9.55253 20.395L10.3459 18.9392L3.37016 15.1338C2.31393 14.5576 1.65814 13.4533 1.65814 12.2503C1.65814 11.3731 1.99971 10.5482 2.61986 9.92806L2.66048 9.88826L16.4844 16.4362L15.2739 17.1625C14.0353 17.9054 13.2651 19.2659 13.2651 20.7109C13.2651 21.8575 13.7468 22.9635 14.5875 23.7428L15.909 24.9698L14.8478 26.0302C13.8272 27.0508 13.2651 28.408 13.2651 29.8522C13.2651 30.867 13.5578 31.8428 14.0917 32.7009L6.6027 29.7055C5.61362 29.3092 4.97441 28.3657 4.97441 27.3004ZM15.5823 31.9755C15.1512 31.347 14.9232 30.6133 14.9232 29.8522C14.9232 28.8507 15.3129 27.9106 16.0201 27.2034L17.1244 26.099L24.8721 33.2929V43.7093H23.65L15.5823 31.9755ZM32.8792 45.8259L34.7662 49.6006C34.8026 49.6711 34.8209 49.7507 34.8209 49.8295C34.8209 50.1122 34.5912 50.3418 34.3085 50.3418H17.0937C16.811 50.3418 16.5814 50.1122 16.5814 49.8295C16.5814 49.7507 16.5996 49.6711 16.6353 49.6006L18.5222 45.8259C18.6648 45.5432 18.9484 45.3674 19.2642 45.3674H32.1372C32.4539 45.3674 32.7374 45.5432 32.8792 45.8259ZM26.5302 43.7093V33.2929L34.2778 26.099L35.3822 27.2034C36.0893 27.9106 36.479 28.8515 36.479 29.8522C36.479 30.6133 36.251 31.347 35.8199 31.9746L27.7522 43.7093H26.5302ZM48.0329 15.1329L41.0571 18.9384L41.8505 20.3942L46.8822 17.6492L46.8979 17.6591C47.6416 18.1549 48.0868 18.9856 48.0868 19.8794C48.0868 20.9331 47.4642 21.8907 46.5016 22.3185L41.1176 24.7112L41.7917 26.2259L44.8567 24.8637L45.2754 25.1431C45.9975 25.6248 46.4295 26.4307 46.4295 27.2987C46.4295 28.3641 45.7903 29.3084 44.8012 29.7038L37.3122 32.6993C37.8445 31.8428 38.1371 30.867 38.1371 29.8522C38.1371 28.408 37.575 27.0508 36.5545 26.0311L35.4932 24.9707L36.8148 23.7437C37.6555 22.9635 38.1371 21.8575 38.1371 20.7109C38.1371 19.2659 37.3669 17.9062 36.1283 17.1625L34.9179 16.4362L48.7418 9.88826L48.7824 9.92806C49.4025 10.5482 49.7441 11.3731 49.7441 12.2503C49.7441 13.4533 49.0883 14.5576 48.0329 15.1329Z" fill="#1F2428"/>
</svg>
