<svg width="52" height="52" viewBox="0 0 52 52" fill="none" xmlns="http://www.w3.org/2000/svg">
<rect width="52" height="52" />
<path d="M46.9677 48.6464H38.5806C37.6555 48.6464 36.9032 47.8944 36.9032 46.9696V43.6158C36.9032 42.691 37.6555 41.939 38.5806 41.939H46.9677C47.8928 41.939 48.6451 42.691 48.6451 43.6158V46.9696C48.6451 47.8944 47.8928 48.6464 46.9677 48.6464Z" fill="#41B7E9"/>
<path d="M33.5484 29.3623V22.6549C33.5484 21.5632 32.8448 20.6409 31.871 20.2938V12.5937C31.871 11.502 31.1673 10.5798 30.1936 10.2326V6.01533C30.1936 3.75408 29.0504 1.62698 27.2086 0.464072C26.229 -0.154691 25.7711 -0.154691 24.7898 0.464072C22.9497 1.62698 21.8065 3.75408 21.8065 6.01533V10.2326C20.8328 10.5798 20.1291 11.502 20.1291 12.5937V20.2938C19.1553 20.6409 18.4517 21.5632 18.4517 22.6549V29.3623C18.4517 30.454 19.1553 31.3762 20.1291 31.7234V39.4235C20.1291 40.5152 20.8328 41.4374 21.8065 41.7845V46.0019C21.8065 48.2631 22.9497 50.3902 24.7915 51.5531C25.2813 51.8625 25.6537 52 26 52C26.3464 52 26.7188 51.8625 27.2095 51.5531C29.0504 50.3902 30.1936 48.2631 30.1936 46.0019V41.7845C31.1673 41.4374 31.871 40.5152 31.871 39.4235V31.7234C32.8448 31.3762 33.5484 30.454 33.5484 29.3623ZM20.9678 30.2008C20.6071 30.2008 20.306 29.9702 20.1878 29.6507L28.0247 21.8164H31.0323C31.393 21.8164 31.694 22.047 31.8123 22.3664L23.9754 30.2008H20.9678ZM25.6855 1.8827C25.8432 1.78293 25.9439 1.7343 26 1.71082C26.0562 1.7343 26.1577 1.78376 26.3137 1.8827C27.6724 2.73958 28.5162 4.32422 28.5162 6.01533V10.0784H23.4839V6.01533C23.4839 4.32422 24.3277 2.73958 25.6855 1.8827ZM22.6452 11.7552H29.3549C29.8179 11.7552 30.1936 12.1309 30.1936 12.5937V20.1396H21.8065V12.5937C21.8065 12.1309 22.1822 11.7552 22.6452 11.7552ZM20.9678 21.8164H25.6528L20.1291 27.3383V22.6549C20.1291 22.192 20.5048 21.8164 20.9678 21.8164ZM26.3146 50.1345C26.1569 50.2334 26.0562 50.2829 26 50.3064C25.9439 50.2829 25.8424 50.2334 25.6864 50.1345C24.3277 49.2776 23.4839 47.693 23.4839 46.0019V41.9388H28.5162V46.0019C28.5162 47.693 27.6724 49.2776 26.3146 50.1345ZM29.3549 40.2619H22.6452C22.1822 40.2619 21.8065 39.8863 21.8065 39.4235V31.8776H30.1936V39.4235C30.1936 39.8863 29.8179 40.2619 29.3549 40.2619ZM31.0323 30.2008H26.3473L31.871 24.6788V29.3623C31.871 29.8251 31.4953 30.2008 31.0323 30.2008Z" fill="#1F2428"/>
<path d="M50.3225 30.3549V27.6854C50.3225 26.5937 49.6189 25.6714 48.6451 25.3243V10.9167C48.6451 9.82507 47.9414 8.9028 46.9677 8.55569V2.53239C46.9677 1.14562 45.8388 0.0170898 44.4516 0.0170898H41.0967C39.7095 0.0170898 38.5806 1.14562 38.5806 2.53239V8.55569C37.6069 8.9028 36.9032 9.82507 36.9032 10.9167V25.3243C35.9294 25.6714 35.2258 26.5937 35.2258 27.6854V30.3549C34.252 30.702 33.5483 31.6243 33.5483 32.716V49.4846C33.5483 51.818 40.6103 51.9999 42.7741 51.9999C44.938 51.9999 52 51.818 52 49.4846V32.716C52 31.6243 51.2963 30.702 50.3225 30.3549ZM41.0967 1.69395H44.4516C44.9145 1.69395 45.2903 2.06957 45.2903 2.53239V8.40141H40.258V2.53239C40.258 2.06957 40.6338 1.69395 41.0967 1.69395ZM39.4193 10.0783H46.129C46.592 10.0783 46.9677 10.4539 46.9677 10.9167V25.1701H38.5806V10.9167C38.5806 10.4539 38.9563 10.0783 39.4193 10.0783ZM37.7419 26.8469H47.8064C48.2694 26.8469 48.6451 27.2225 48.6451 27.6854V30.2007H36.9032V27.6854C36.9032 27.2225 37.2789 26.8469 37.7419 26.8469ZM36.0645 31.8775H49.4838C49.9468 31.8775 50.3225 32.2531 50.3225 32.716V35.2313H35.2258V32.716C35.2258 32.2531 35.6015 31.8775 36.0645 31.8775ZM50.3225 36.9081V38.585H35.2258V36.9081H50.3225ZM42.7741 50.323C38.4439 50.323 35.8095 49.6749 35.2258 49.2892V40.2618H50.3225V49.2892C49.7388 49.6749 47.1044 50.323 42.7741 50.323Z" fill="#1F2428"/>
<path d="M16.7742 30.3549V27.6854C16.7742 26.5937 16.0705 25.6714 15.0968 25.3243V15.9473C15.0968 14.8557 14.3931 13.9334 13.4194 13.5863V2.53239C13.4194 1.14562 12.2905 0.0170898 10.9032 0.0170898H7.54839C6.16116 0.0170898 5.03226 1.14562 5.03226 2.53239V13.5863C4.05852 13.9334 3.35484 14.8557 3.35484 15.9473V25.3243C2.3811 25.6714 1.67742 26.5937 1.67742 27.6854V30.3549C0.703677 30.702 0 31.6243 0 32.716V49.4846C0 51.818 7.06194 51.9999 9.22581 51.9999C11.3897 51.9999 18.4516 51.818 18.4516 49.4846V32.716C18.4516 31.6243 17.7479 30.702 16.7742 30.3549ZM7.54839 1.69395H10.9032C11.3662 1.69395 11.7419 2.06957 11.7419 2.53239V13.432H6.70968V2.53239C6.70968 2.06957 7.08542 1.69395 7.54839 1.69395ZM5.87097 15.1089H12.5806C13.0436 15.1089 13.4194 15.4845 13.4194 15.9473V25.1701H5.03226V15.9473C5.03226 15.4845 5.408 15.1089 5.87097 15.1089ZM4.19355 26.8469H14.2581C14.721 26.8469 15.0968 27.2225 15.0968 27.6854V30.2007H3.35484V27.6854C3.35484 27.2225 3.73058 26.8469 4.19355 26.8469ZM2.51613 31.8775H15.9355C16.3985 31.8775 16.7742 32.2531 16.7742 32.716V35.2313H1.67742V32.716C1.67742 32.2531 2.05316 31.8775 2.51613 31.8775ZM16.7742 36.9081V38.585H1.67742V36.9081H16.7742ZM9.22581 50.323C4.89555 50.323 2.26116 49.6749 1.67742 49.2892V40.2618H16.7742V49.2892C16.1905 49.6749 13.5561 50.323 9.22581 50.323Z" fill="#1F2428"/>
<path d="M13.4194 48.6464H5.03228C4.10718 48.6464 3.35486 47.8944 3.35486 46.9696V43.6158C3.35486 42.691 4.10718 41.939 5.03228 41.939H13.4194C14.3445 41.939 15.0968 42.691 15.0968 43.6158V46.9696C15.0968 47.8944 14.3445 48.6464 13.4194 48.6464Z" fill="#41B7E9"/>
</svg>
