<svg width="52" height="52" viewBox="0 0 52 52" fill="none" xmlns="http://www.w3.org/2000/svg">
<rect width="52" height="52" fill="none"/>
<path d="M36.9032 26.8387H31.871C30.9459 26.8387 30.1935 26.0863 30.1935 25.1612V23.4838C30.1935 22.5587 30.9459 21.8064 31.871 21.8064H36.9032C37.8283 21.8064 38.5806 22.5587 38.5806 23.4838V25.1612C38.5806 26.0863 37.8283 26.8387 36.9032 26.8387ZM31.871 23.4838V25.1629L36.9032 25.1612V23.4838H31.871Z" fill="#41B7E9"/>
<path d="M20.129 26.8387H15.0968C14.1717 26.8387 13.4193 26.0863 13.4193 25.1612V23.4838C13.4193 22.5587 14.1717 21.8064 15.0968 21.8064H20.129C21.0541 21.8064 21.8064 22.5587 21.8064 23.4838V25.1612C21.8064 26.0863 21.0541 26.8387 20.129 26.8387Z" fill="#41B7E9"/>
<path d="M36.9032 26.8387H31.871C30.9459 26.8387 30.1935 26.0863 30.1935 25.1612V23.4838C30.1935 22.5587 30.9459 21.8064 31.871 21.8064H36.9032C37.8283 21.8064 38.5806 22.5587 38.5806 23.4838V25.1612C38.5806 26.0863 37.8283 26.8387 36.9032 26.8387Z" fill="#41B7E9"/>
<path d="M26 39.3003L8.38708 29.614V38.2376L26 47.9256L43.6129 38.2376V29.614L26 39.3003Z" fill="#41B7E9"/>
<path d="M16.7742 11.7419H21.8065V13.4194H16.7742V11.7419Z" fill="#1F2428"/>
<path d="M52 24.5884C52 18.6957 47.8182 13.5225 42.0563 12.2879L39.7238 11.7881C39.6064 11.6119 39.4714 11.4459 39.3187 11.2932L38.8901 10.8646C39.7666 9.72316 40.2581 8.30071 40.2581 6.85394C40.2581 3.07471 37.1834 0 33.4041 0H26H18.5959C14.8166 0 11.7419 3.07471 11.7419 6.85394C11.7419 8.30155 12.2334 9.72316 13.1107 10.8646L12.6821 11.2932C12.5295 11.4459 12.3936 11.6119 12.277 11.7881L9.94542 12.2879C4.18181 13.5225 0 18.6957 0 24.5884V27.3302C0 28.0599 0.209677 28.7577 0.601355 29.3548C0.209677 29.952 0 30.6498 0 31.3795V37.3947C0 38.1244 0.209677 38.8222 0.601355 39.4194C0.209677 40.0165 0 40.7143 0 41.444V45.7818C0 46.3983 0.166065 46.9837 0.447871 47.5129C0.172774 47.8123 0 48.2074 0 48.6452V50.3226C0 51.2477 0.752322 52 1.67742 52H8.3871C9.19729 52 9.87497 51.4221 10.031 50.6564C10.9695 51.4926 12.1923 52 13.5225 52H26H38.4775C39.8077 52 41.0305 51.4926 41.969 50.6564C42.125 51.4221 42.8027 52 43.6129 52H50.3226C51.2477 52 52 51.2477 52 50.3226V48.6452C52 48.2074 51.8272 47.8123 51.5521 47.5129C51.8339 46.9837 52 46.3983 52 45.7818V41.444C52 40.7143 51.7903 40.0165 51.3986 39.4194C51.7903 38.8222 52 38.1244 52 37.3947V31.3795C52 30.6498 51.7903 29.952 51.3986 29.3548C51.7903 28.7577 52 28.0599 52 27.3302V24.5884ZM14.851 10.3103C13.941 9.40026 13.4194 8.14052 13.4194 6.85394C13.4194 3.99981 15.7417 1.67742 18.5959 1.67742H26H33.4041C36.2583 1.67742 38.5806 3.99981 38.5806 6.85394C38.5806 8.14052 38.059 9.40026 37.149 10.3103L36.556 10.9032L38.1319 12.4792C38.4171 12.7643 38.5806 13.1594 38.5806 13.5636C38.5806 14.409 37.8929 15.0968 37.0475 15.0968H28.1957L27.3176 13.3414C28.0087 13.1334 28.5161 12.4993 28.5161 11.7419V10.0645H33.5484C35.3986 10.0645 36.9032 8.55987 36.9032 6.70968C36.9032 4.85948 35.3986 3.35484 33.5484 3.35484H18.4516C16.6014 3.35484 15.0968 4.85948 15.0968 6.70968C15.0968 8.55987 16.6014 10.0645 18.4516 10.0645H23.4839V11.7419C23.4839 12.4993 23.9913 13.1334 24.6815 13.3414L23.8043 15.0968H14.9525C14.1071 15.0968 13.4194 14.409 13.4194 13.5636C13.4194 13.1602 13.5829 12.7643 13.8681 12.4792L15.444 10.9032L14.851 10.3103ZM25.1613 20.129V16.1334L26 14.456L26.8387 16.1334V20.129H25.1613ZM18.4516 8.3871C17.5265 8.3871 16.7742 7.63477 16.7742 6.70968C16.7742 5.78458 17.5265 5.03226 18.4516 5.03226H33.5484C34.4735 5.03226 35.2258 5.78458 35.2258 6.70968C35.2258 7.63477 34.4735 8.3871 33.5484 8.3871H18.4516ZM25.1613 10.0645H26.8387V11.7419H25.1613V10.0645ZM1.67742 48.6452H3.35484V50.3226H1.67742V48.6452ZM8.3871 50.3226H5.03226V48.6452H8.3871V50.3226ZM10.0645 47.6773V20.129H8.3871V46.9677H2.06826C1.81832 46.6239 1.67742 46.2146 1.67742 45.7818V41.444C1.67742 41.0112 1.81832 40.6019 2.06826 40.2581H6.70968V38.5806H2.06826C1.81832 38.2368 1.67742 37.8275 1.67742 37.3947V31.3795C1.67742 30.9467 1.81832 30.5374 2.06826 30.1935H5.03226V28.5161H2.06826C1.81832 28.1723 1.67742 27.763 1.67742 27.3302V24.5884C1.67742 19.4807 5.30148 14.997 10.296 13.9276L11.747 13.6165C11.7772 15.3618 13.2013 16.7742 14.9525 16.7742H23.4839V20.129C23.4839 21.0541 24.2362 21.8065 25.1613 21.8065V50.3226H13.5225C11.8988 50.3226 10.4914 49.2373 10.0645 47.6773ZM41.9355 20.129V47.6773C41.5086 49.2373 40.1012 50.3226 38.4775 50.3226H26.8387V21.8065C27.7638 21.8065 28.5161 21.0541 28.5161 20.129V16.7742H37.0475C38.7995 16.7742 40.2237 15.3618 40.253 13.6165L41.7048 13.9276C46.6985 14.9978 50.3226 19.4815 50.3226 24.5884V27.3302C50.3226 27.763 50.1817 28.1723 49.9317 28.5161H45.2903V30.1935H49.9317C50.1817 30.5374 50.3226 30.9467 50.3226 31.3795V37.3947C50.3226 37.8275 50.1817 38.2368 49.9317 38.5806H46.9677V40.2581H49.9317C50.1817 40.6019 50.3226 41.0112 50.3226 41.444V45.7818C50.3226 46.2146 50.1817 46.6239 49.9317 46.9677H43.6129V20.129H41.9355ZM43.6129 48.6452H46.9677V50.3226H43.6129V48.6452ZM50.3226 50.3226H48.6452V48.6452H50.3226V50.3226Z" fill="#1F2428"/>
<path d="M30.1935 11.7419H35.2258V13.4194H30.1935V11.7419Z" fill="#1F2428"/>
</svg>
