<svg width="280" height="280" viewBox="0 0 280 280" fill="none" xmlns="http://www.w3.org/2000/svg">
<path d="M280 0H0V280H280V0Z" fill="white"/>
<path d="M227.383 74.7451C181.668 17.1738 73.4339 13.9556 41.6128 59.6228C24.0754 84.779 31.4053 122.39 35.0188 140.946C41.6739 175.094 58.08 197.08 61.6603 201.744C70.3547 213.057 91.4716 240.545 123.237 246.827C177.517 257.563 245.247 202.903 248.999 141.242C251.162 105.686 231.336 79.7224 227.383 74.7451Z" fill="#F4F7FA"/>
<path d="M197.87 215.109C191.331 207.611 182.8 195.551 179.962 179.355C176.703 160.758 183.928 153.705 184.038 132.304C184.198 101.755 163.716 88.3411 171.862 75.5788C175.835 69.3554 184.643 65.6256 191.711 67.1961C211.88 71.6784 227.97 121.553 211.321 150.717C203.79 163.906 193.66 167.004 189.962 181.514C186.69 194.334 192.683 206.888 197.87 215.109Z" fill="url(#paint0_linear_154_2254)"/>
<g style="mix-blend-mode:soft-light">
<g style="mix-blend-mode:soft-light">
<path d="M186.572 193.985C185.952 189.91 185.683 185.789 185.768 181.667C185.966 172.233 188.039 166.221 190.664 158.61C192.368 153.665 194.301 148.06 196.055 140.458C199.337 126.238 200.166 121.382 199.753 114.312C198.935 100.311 193.654 89.6823 190.58 84.5925C186.224 77.3781 180.492 71.0904 173.711 66.0868L173.873 65.8672C180.683 70.8926 186.439 77.2075 190.814 84.4528C193.901 89.5638 199.204 100.238 200.026 114.297C200.441 121.402 199.61 126.271 196.321 140.521C194.563 148.137 192.629 153.749 190.922 158.7C188.305 166.289 186.239 172.285 186.041 181.675C185.956 185.78 186.224 189.886 186.842 193.946L186.572 193.985Z" fill="white"/>
</g>
<g style="mix-blend-mode:soft-light">
<path d="M198.514 104.735L198.423 104.53C194.474 95.6372 186.294 92.2591 180.128 90.9912C173.431 89.6138 167.593 90.3564 167.534 90.364L167.499 90.0938C167.558 90.0862 173.434 89.3391 180.178 90.7217C186.362 91.9919 194.549 95.3647 198.581 104.209C199.248 103.315 202.183 99.1527 203.858 93.1149C205.6 86.841 206.297 77.2002 199.731 66.9006L199.961 66.7534C206.584 77.1421 205.878 86.8681 204.118 93.1987C202.213 100.055 198.692 104.519 198.657 104.56L198.514 104.735Z" fill="white"/>
</g>
<g style="mix-blend-mode:soft-light">
<path d="M197.283 136.65C197.165 136.65 197.1 136.65 197.094 136.65H196.98L196.964 136.536C195.549 126.761 190.805 121.126 187.077 118.121C183.032 114.861 179.272 113.901 179.235 113.894L179.3 113.629C179.338 113.639 183.149 114.611 187.238 117.903C190.996 120.928 195.771 126.587 197.219 136.385H197.256C198.962 136.385 214.565 136 222.114 122.478L222.352 122.611C218.153 130.133 211.509 133.555 206.676 135.094C202.057 136.559 198.166 136.65 197.283 136.65Z" fill="white"/>
</g>
<g style="mix-blend-mode:soft-light">
<path d="M196.067 157.486C193.143 157.486 191.393 156.882 191.371 156.876L191.279 156.844V156.747C191.399 146.159 179.768 133.834 179.65 133.711L179.848 133.522C179.965 133.646 191.601 145.975 191.552 156.648C192.085 156.811 194.888 157.575 199.078 157.005C203.369 156.422 210.035 154.282 217.417 147.394L217.604 147.594C210.159 154.537 203.429 156.693 199.094 157.279C198.091 157.415 197.08 157.485 196.067 157.486Z" fill="white"/>
</g>
</g>
<path d="M183.24 205.208C179.799 199.769 175.38 190.868 176.685 180.688C178.962 162.925 196.099 161.249 204.13 139.853C210.607 122.596 202.876 114.584 212.364 100.923C213.949 98.6362 222.216 86.2543 232.653 87.1917C238.534 87.72 242.495 92.2362 243.238 93.0837C254.475 105.898 249.167 135.65 233.897 154.688C225.124 165.627 220.61 165.174 203.633 180.786C195.8 188.003 188.945 196.213 183.24 205.208Z" fill="url(#paint1_linear_154_2254)"/>
<g style="mix-blend-mode:soft-light">
<g style="mix-blend-mode:soft-light">
<path d="M184.259 213.012C181.255 197.796 182.803 186.064 188.863 178.144C191.829 174.265 194.791 172.597 197.926 170.831C201.294 168.934 204.777 166.973 208.37 162.011C211.861 157.19 212.388 153.745 213.054 149.385C213.654 145.461 214.402 140.575 217.574 133.146C220.355 126.635 222.877 123.072 225.103 119.927C227.513 116.524 229.415 113.836 230.746 108.661C232.919 100.208 232.002 90.9349 228.018 81.1002L228.271 80.9976C232.277 90.8844 233.199 100.218 231.01 108.73C229.667 113.952 227.751 116.659 225.326 120.085C223.108 123.218 220.594 126.77 217.825 133.254C214.666 140.65 213.922 145.517 213.324 149.427C212.652 153.823 212.121 157.296 208.591 162.171C204.963 167.181 201.454 169.158 198.06 171.068C194.949 172.82 192.011 174.475 189.079 178.31C183.072 186.167 181.54 197.826 184.529 212.961L184.259 213.012Z" fill="white"/>
</g>
<g style="mix-blend-mode:soft-light">
<path d="M224.125 121.57L224.11 121.388C224.092 121.166 222.16 99.12 211.63 94.1291L211.747 93.8823C221.903 98.6966 224.156 119.038 224.365 121.184C235.1 116.972 241.295 109.613 244.605 104.166C248.211 98.2355 249.265 93.2393 249.276 93.1895L249.543 93.2445C249.533 93.2944 248.468 98.3366 244.839 104.308C241.489 109.817 235.206 117.275 224.295 121.504L224.125 121.57Z" fill="white"/>
</g>
<g style="mix-blend-mode:soft-light">
<path d="M214.977 141.254H214.868H214.751L214.735 141.138C213.96 135.239 211.249 128.817 209.112 124.469C206.794 119.754 204.634 116.393 204.612 116.362L204.838 116.211C204.86 116.245 207.027 119.617 209.353 124.346C211.485 128.684 214.183 135.079 214.987 140.982C215.857 140.982 221.472 140.883 228.58 138.65C235.688 136.417 245.771 131.537 253.497 120.954L253.717 121.115C245.943 131.762 235.797 136.671 228.652 138.914C221.483 141.165 215.816 141.254 214.977 141.254Z" fill="white"/>
</g>
<g style="mix-blend-mode:soft-light">
<path d="M208.842 169.993C203.936 169.993 201.027 169.33 200.962 169.314L200.822 169.28L200.863 169.142C204.574 156.528 195.034 142.307 194.937 142.164L195.163 142.013C195.26 142.156 204.804 156.376 201.166 169.08C202.732 169.405 217.149 172.031 235.851 163.64L235.962 163.889C224.808 168.892 215.165 169.993 208.842 169.993Z" fill="white"/>
</g>
</g>
<path d="M180.935 200.325C184.292 194.801 188.414 189.779 193.177 185.409C204.004 175.506 210.967 175.701 214.083 168.036C217.306 160.101 211.366 156.141 215.418 147.091C215.758 146.329 220.179 136.784 227.695 136.463C232.953 136.237 236.903 140.649 238.756 142.717C245.949 150.748 250.131 165.852 243.097 177.15C236.429 187.861 223.051 189.76 218.795 190.335C211.324 191.345 208.632 189.406 201.124 190.637C191.986 192.131 185.171 196.768 180.935 200.325Z" fill="url(#paint2_linear_154_2254)"/>
<path d="M103.794 227.817C107.235 222.379 111.654 213.478 110.349 203.298C108.072 185.535 90.9351 183.859 82.9041 162.463C76.4271 145.206 84.1585 137.194 74.6709 123.533C73.086 121.246 64.8189 108.864 54.3811 109.802C48.4996 110.33 44.5396 114.846 43.7962 115.694C32.5585 128.508 37.8679 158.26 53.1366 177.298C61.9102 188.237 66.4241 187.784 83.4007 203.395C91.2337 210.613 98.0895 218.823 103.794 227.817Z" fill="url(#paint3_linear_154_2254)"/>
<g style="mix-blend-mode:soft-light">
<g style="mix-blend-mode:soft-light">
<path d="M102.775 235.623L102.507 235.57C105.496 220.435 103.965 208.777 97.957 200.918C95.025 197.083 92.0868 195.429 88.9759 193.677C85.5797 191.766 82.0725 189.789 78.4446 184.78C74.9147 179.905 74.3834 176.432 73.7117 172.035C73.114 168.125 72.3698 163.259 69.2106 155.863C66.4415 149.378 63.9276 145.825 61.7102 142.693C59.2845 139.267 57.3691 136.561 56.0257 131.338C53.837 122.826 54.7592 113.497 58.7645 103.606L59.0174 103.709C55.0347 113.543 54.117 122.817 56.2898 131.269C57.6204 136.444 59.5238 139.133 61.9328 142.536C64.1585 145.68 66.6815 149.244 69.4619 155.755C72.6317 163.183 73.3811 168.069 73.9811 171.994C74.6476 176.354 75.1744 179.798 78.6657 184.62C82.2589 189.581 85.7412 191.543 89.1095 193.439C92.2453 195.205 95.2068 196.873 98.1729 200.752C104.231 208.679 105.78 220.408 102.775 235.623Z" fill="white"/>
</g>
<g style="mix-blend-mode:soft-light">
<path d="M62.9094 144.181L62.7389 144.116C51.8279 139.889 45.5449 132.43 42.1955 126.919C38.5661 120.948 37.5019 115.906 37.4913 115.856L37.7593 115.801C37.7691 115.851 38.8264 120.857 42.4347 126.787C45.7449 132.23 51.9381 139.585 62.6687 143.796C62.8785 141.649 65.1306 121.305 75.2868 116.494L75.4038 116.74C64.8732 121.736 62.9434 143.777 62.9238 144L62.9094 144.181Z" fill="white"/>
</g>
<g style="mix-blend-mode:soft-light">
<path d="M72.0574 163.866C71.2189 163.866 65.5517 163.777 58.3774 161.526C51.2325 159.283 41.0838 154.374 33.3117 143.727L33.5328 143.566C41.2604 154.153 51.3532 159.038 58.4589 161.266C65.5645 163.494 71.1713 163.593 72.0438 163.594C72.8445 157.691 75.5457 151.296 77.6777 146.958C80.0023 142.229 82.1713 138.857 82.1925 138.823L82.4189 138.974C82.397 139.007 80.2355 142.37 77.9185 147.084C75.7811 151.431 73.071 157.852 72.2959 163.75L72.2808 163.866H72.163L72.0574 163.866Z" fill="white"/>
</g>
<g style="mix-blend-mode:soft-light">
<path d="M78.1925 192.603C71.8694 192.603 62.2279 191.503 51.0724 186.498L51.1841 186.249C69.8868 194.641 84.3019 192.015 85.8687 191.691C82.2317 178.986 91.7743 164.766 91.8717 164.623L92.0981 164.774C92.0015 164.917 82.4611 179.138 86.1721 191.752L86.2128 191.89L86.0732 191.923C86.0068 191.942 83.0981 192.603 78.1925 192.603Z" fill="white"/>
</g>
</g>
<path d="M106.1 222.936C102.742 217.412 98.6202 212.39 93.8566 208.02C83.0309 198.117 76.0672 198.312 72.9509 190.647C69.7275 182.712 75.6679 178.752 71.6158 169.702C71.2755 168.941 66.8551 159.395 59.3389 159.074C54.0808 158.847 50.1313 163.259 48.2777 165.328C41.0875 173.358 36.9057 188.463 43.9389 199.761C50.6083 210.472 63.9849 212.371 68.2408 212.946C75.7124 213.956 78.4038 212.017 85.9132 213.248C95.0475 214.742 101.863 219.379 106.1 222.936Z" fill="url(#paint4_linear_154_2254)"/>
<path d="M159.698 101.208C159.648 101.213 159.598 101.215 159.547 101.215C158.746 101.215 158.063 100.562 157.985 99.6883C156.604 84.1887 151.901 69.4596 144.732 58.2159C138.381 48.2536 130.82 42.3117 124.506 42.3117H124.484C101.475 42.3593 96.6611 99.1019 96.6151 99.6755C96.5396 100.604 95.7849 101.291 94.9155 101.212C94.046 101.133 93.4106 100.315 93.4853 99.3864C93.6823 96.9208 98.609 38.991 124.478 38.9336H124.506C131.971 38.9336 140.287 45.2634 147.328 56.3057C154.792 68.0136 159.689 83.3064 161.114 99.3675C161.192 100.302 160.559 101.122 159.698 101.208Z" fill="url(#paint5_linear_154_2254)"/>
<path d="M63.683 217.999L93.9736 234.471L112.327 173.98L82.0861 92.8828L73.5095 95.1409L60.5004 211.61C60.2061 214.247 61.4778 216.8 63.683 217.999Z" fill="url(#paint6_linear_154_2254)"/>
<path style="mix-blend-mode:multiply" opacity="0.3" d="M112.327 173.979L82.086 92.8828L77.0294 94.2149C76.3283 105.043 76.6362 113.955 77.1132 120.442C79.1404 148.053 85.8724 155.737 82.6113 174.998C79.8996 191.015 73.9766 193.187 74.4943 203.964C75.0589 215.699 82.6792 225.527 91.7404 233.256L93.9751 234.471L112.327 173.979Z" fill="url(#paint7_linear_154_2254)"/>
<path d="M82.0861 92.8828L196.156 99.0934L232.406 222.49L93.9736 234.471L82.0861 92.8828Z" fill="url(#paint8_linear_154_2254)"/>
<g style="mix-blend-mode:multiply" opacity="0.3">
<path style="mix-blend-mode:multiply" opacity="0.3" d="M196.156 99.0944L136.667 95.856C135.663 97.4341 134.334 100.007 134.086 103.285C132.622 122.682 172.652 128.966 176.24 152.78C178.971 170.909 162.169 191.829 147.177 201.149C131.383 210.968 120.681 205.995 109.999 216.897C105.305 221.687 102.447 227.676 100.747 233.885L232.406 222.489L196.156 99.0944Z" fill="url(#paint9_linear_154_2254)"/>
</g>
<path d="M117.073 103.992C116.361 103.992 115.715 103.463 115.546 102.689C115.224 101.219 107.804 66.4905 118.264 49.4475C121.263 44.5622 125.452 41.5803 130.717 40.5826C157.765 35.4641 174.415 97.8587 175.112 100.518C175.347 101.414 174.86 102.346 174.025 102.598C173.189 102.85 172.322 102.327 172.088 101.43C171.925 100.809 155.533 39.3033 131.263 43.9063C126.821 44.7478 123.427 47.1675 120.888 51.3025C111.162 67.1456 118.527 101.57 118.602 101.917C118.8 102.823 118.276 103.728 117.432 103.945C117.315 103.975 117.194 103.991 117.073 103.992Z" fill="url(#paint10_linear_154_2254)"/>
<path d="M117.085 108.961C119.509 108.961 121.475 106.85 121.475 104.246C121.475 101.641 119.509 99.5303 117.085 99.5303C114.66 99.5303 112.694 101.641 112.694 104.246C112.694 106.85 114.66 108.961 117.085 108.961Z" fill="url(#paint11_linear_154_2254)"/>
<path d="M174.34 108.524C176.764 108.524 178.73 106.413 178.73 103.809C178.73 101.204 176.764 99.0933 174.34 99.0933C171.915 99.0933 169.949 101.204 169.949 103.809C169.949 106.413 171.915 108.524 174.34 108.524Z" fill="url(#paint12_linear_154_2254)"/>
<path d="M204.884 158.471L169.47 123.937C169.117 123.584 168.666 123.346 168.176 123.252C167.685 123.159 167.178 123.215 166.72 123.414L147.82 131.665C146.228 132.36 145.679 134.486 146.711 135.967L177.555 180.129C178.408 181.35 180.011 181.619 181.17 180.733L204.641 162.851C206.005 161.811 206.125 159.68 204.884 158.471ZM164.388 136.075C163.194 136.937 161.313 136.177 160.187 134.377C159.061 132.577 159.114 130.419 160.307 129.557C161.5 128.695 163.381 129.456 164.508 131.256C165.635 133.056 165.585 135.216 164.388 136.075Z" fill="#D8DEE8"/>
<path d="M204.885 157.999L169.47 123.466C169.117 123.113 168.665 122.873 168.174 122.78C167.683 122.687 167.175 122.744 166.717 122.943L147.817 131.195C146.225 131.89 145.676 134.016 146.708 135.497L177.552 179.66C178.405 180.88 180.008 181.149 181.167 180.263L204.639 162.383C206.005 161.34 206.125 159.208 204.885 157.999ZM164.388 135.606C163.194 136.468 161.313 135.707 160.187 133.907C159.061 132.107 159.114 129.949 160.307 129.088C161.5 128.227 163.381 128.987 164.508 130.787C165.635 132.587 165.585 134.744 164.388 135.606Z" fill="#F4F7FA"/>
<path d="M157.027 127.125C156.97 127.125 156.914 127.109 156.867 127.077C156.819 127.045 156.782 127.001 156.76 126.948C155.533 124.056 153.879 121.558 151.842 119.523C146.257 113.947 139.054 113.071 132.085 112.223C125.15 111.379 118.6 110.583 114.687 105.063C113.697 103.666 112.158 101.139 112.983 99.9268C113.315 99.4393 113.976 99.2151 114.946 99.2619C114.984 99.263 115.022 99.2717 115.058 99.2876C115.093 99.3035 115.124 99.3263 115.151 99.3546C115.177 99.3829 115.197 99.4162 115.211 99.4525C115.224 99.4888 115.23 99.5274 115.228 99.566C115.226 99.6046 115.217 99.6425 115.2 99.6774C115.184 99.7122 115.16 99.7435 115.131 99.7692C115.103 99.7949 115.069 99.8147 115.032 99.8272C114.996 99.8398 114.957 99.8449 114.918 99.8423C114.398 99.8182 113.725 99.8687 113.463 100.254C113.025 100.899 113.69 102.655 115.161 104.728C118.925 110.036 125.349 110.818 132.155 111.646C139.221 112.506 146.529 113.395 152.251 119.112C154.341 121.2 156.038 123.76 157.294 126.722C157.323 126.792 157.323 126.87 157.295 126.941C157.267 127.011 157.212 127.068 157.143 127.099C157.106 127.115 157.067 127.124 157.027 127.125Z" fill="#26264F"/>
<path d="M160.052 132.969C159.995 132.969 159.938 132.952 159.891 132.92C159.843 132.889 159.806 132.843 159.784 132.79C159.762 132.737 159.756 132.678 159.767 132.622C159.779 132.566 159.807 132.514 159.848 132.473C159.872 132.448 162.297 129.995 162.285 126.722C162.278 124.711 161.363 122.797 159.568 121.033C155.758 117.292 145.649 112.958 136.731 109.136C131.288 106.802 126.146 104.599 122.768 102.698C122.003 102.267 121.193 101.858 120.361 101.482C120.324 101.467 120.29 101.446 120.262 101.418C120.234 101.39 120.212 101.357 120.197 101.32C120.182 101.284 120.175 101.245 120.176 101.205C120.177 101.166 120.185 101.127 120.202 101.091C120.218 101.055 120.242 101.023 120.271 100.996C120.3 100.969 120.334 100.949 120.372 100.936C120.409 100.923 120.449 100.918 120.488 100.921C120.527 100.924 120.566 100.935 120.601 100.953C121.448 101.336 122.273 101.753 123.054 102.193C126.403 104.079 131.531 106.276 136.959 108.602C145.925 112.445 156.086 116.802 159.978 120.619C161.892 122.498 162.864 124.553 162.87 126.726C162.88 130.245 160.368 132.78 160.261 132.886C160.234 132.913 160.201 132.935 160.165 132.949C160.129 132.963 160.091 132.97 160.052 132.969Z" fill="#26264F"/>
<path d="M204.885 157.999L169.47 123.466C169.117 123.113 168.665 122.873 168.174 122.78C167.683 122.687 167.175 122.744 166.717 122.943L165.034 123.678C165.53 125.505 166.236 127.269 167.139 128.933C172.37 138.525 180.95 138.112 182.935 144.768C184.693 150.669 178.798 153.834 178.021 162.112C177.632 166.249 178.518 171.752 183.266 178.663L204.636 162.382C206.005 161.34 206.125 159.208 204.885 157.999Z" fill="white"/>
<path d="M173.106 146.244C175.046 149.453 174.645 152.114 173.099 153.192C171.472 154.324 169.134 153.477 167.393 150.599C165.739 147.862 165.651 144.973 167.475 143.699C169.317 142.415 171.523 143.626 173.106 146.244ZM169.194 149.207C170.164 150.812 171.242 151.703 171.965 151.199C172.672 150.705 172.389 149.427 171.348 147.705C170.407 146.148 169.386 145.151 168.611 145.69C167.87 146.207 168.267 147.675 169.194 149.207ZM177.11 159.516L173.66 139.386L175.008 138.446L178.444 158.587L177.11 159.516ZM184.652 147.245C186.592 150.453 186.191 153.115 184.645 154.189C183.034 155.313 180.696 154.462 178.94 151.595C177.284 148.859 177.197 145.969 179.022 144.696C180.863 143.416 183.069 144.627 184.652 147.245ZM180.755 150.198C181.708 151.813 182.785 152.705 183.509 152.201C184.215 151.708 183.933 150.429 182.892 148.707C181.95 147.15 180.943 146.141 180.171 146.681C179.417 147.209 179.829 148.665 180.755 150.198Z" fill="#D8DEE8"/>
<path d="M177.852 170.653C177.605 170.65 177.364 170.581 177.153 170.453C176.941 170.326 176.768 170.144 176.651 169.927C176.248 169.215 176.46 168.288 177.122 167.855L194.179 156.735C194.842 156.304 195.706 156.531 196.108 157.242C196.51 157.954 196.3 158.882 195.636 159.314L178.58 170.434C178.364 170.576 178.111 170.652 177.852 170.653Z" fill="#D8DEE8"/>
<path d="M155.343 234.923C155.343 236.472 154.244 237.804 152.895 237.884L57.8498 243.689C56.0491 243.795 54.0166 242.272 54.0166 240.472V173.957C54.0166 172.157 56.0981 170.644 57.8989 170.718L152.895 174.785C154.244 174.841 155.343 176.153 155.343 177.702V234.923Z" fill="url(#paint13_linear_154_2254)"/>
<path d="M157.105 235.032C157.105 236.588 156.001 237.926 154.645 238.007L58.5849 243.698C58.1613 243.728 57.7362 243.67 57.3361 243.528C56.936 243.386 56.5697 243.162 56.2601 242.872C55.9505 242.581 55.7043 242.23 55.5371 241.839C55.3699 241.449 55.2852 241.028 55.2883 240.604V173.771C55.2868 173.345 55.3721 172.922 55.5391 172.529C55.7061 172.137 55.9512 171.782 56.2596 171.487C56.568 171.192 56.9332 170.963 57.333 170.814C57.7327 170.665 58.1587 170.598 58.5849 170.619L154.645 174.602C156.004 174.658 157.105 175.977 157.105 177.534V235.032Z" fill="url(#paint14_linear_154_2254)"/>
<path d="M157.106 219.363L55.2883 224.587V236.827L157.106 230.85V219.363Z" fill="url(#paint15_linear_154_2254)"/>
<g style="mix-blend-mode:multiply" opacity="0.15">
<path style="mix-blend-mode:multiply" opacity="0.15" d="M85.3381 192.72C85.2226 200.317 80.4725 204.264 75.1826 204.243C69.4204 204.222 64.8007 199.803 64.9102 192.545C65.0151 185.647 69.363 180.732 75.8174 181.215C82.0823 181.686 85.434 186.521 85.3381 192.72ZM71.6573 192.575C71.597 196.537 72.8936 199.417 75.4264 199.465C77.8649 199.51 79.08 197.025 79.1426 192.868C79.2 189.11 78.237 186.145 75.5736 185.985C72.9811 185.831 71.7147 188.787 71.6573 192.575ZM77.0045 216.995L95.3593 183.763C95.5311 183.452 95.7886 183.197 96.1013 183.028C96.4139 182.859 96.7686 182.783 97.123 182.809C97.4327 182.833 97.7317 182.933 97.9925 183.102C98.2533 183.27 98.4678 183.502 98.6161 183.774C98.7645 184.047 98.842 184.353 98.8417 184.663C98.8414 184.974 98.7633 185.28 98.6144 185.552L80.4634 218.774C80.3103 219.055 80.0873 219.291 79.8162 219.46C79.545 219.629 79.2347 219.725 78.9155 219.739L78.7124 219.748C78.3828 219.763 78.0553 219.689 77.7635 219.535C77.4717 219.381 77.2262 219.152 77.0522 218.872C76.8783 218.592 76.7822 218.27 76.7738 217.94C76.7654 217.61 76.8451 217.284 77.0045 216.995ZM108.41 207.63C108.302 214.665 104.226 218.514 99.6981 218.717C94.831 218.93 90.9049 215.05 90.954 208.364C91.0506 202.006 94.7547 197.28 100.264 197.428C105.628 197.568 108.497 201.886 108.41 207.63ZM96.7547 208.092C96.6491 211.751 97.7525 214.356 99.9163 214.289C102 214.229 103.043 211.882 103.101 208.037C103.154 204.561 102.38 201.865 100.104 201.837C97.8415 201.811 96.8053 204.595 96.7547 208.092Z" fill="url(#paint16_linear_154_2254)"/>
</g>
<path d="M86.2241 192.367C86.1094 199.963 81.3585 203.91 76.0694 203.89C70.3064 203.868 65.6868 199.45 65.797 192.192C65.9011 185.294 70.2498 180.379 76.7034 180.862C82.9683 181.333 86.3185 186.168 86.2241 192.367ZM72.5434 192.221C72.4838 196.184 73.7804 199.064 76.3132 199.111C78.7509 199.156 79.9668 196.672 80.0294 192.515C80.086 188.757 79.1238 185.792 76.4596 185.632C73.8694 185.477 72.6038 188.434 72.5434 192.221ZM77.8913 216.642L96.2453 183.411C96.4173 183.099 96.6749 182.844 96.9877 182.675C97.3004 182.505 97.6552 182.429 98.0098 182.456C98.3195 182.479 98.6185 182.58 98.8793 182.748C99.1401 182.917 99.3545 183.148 99.5028 183.421C99.6511 183.694 99.7287 184 99.7284 184.31C99.7281 184.621 99.65 184.927 99.5011 185.199L81.3502 218.421C81.1969 218.701 80.9739 218.937 80.7027 219.106C80.4316 219.275 80.1214 219.372 79.8023 219.386L79.5992 219.395C79.2696 219.409 78.942 219.336 78.6502 219.182C78.3585 219.028 78.113 218.799 77.939 218.518C77.7651 218.238 77.669 217.916 77.6606 217.586C77.6522 217.257 77.7319 216.93 77.8913 216.642ZM109.296 207.276C109.189 214.312 105.112 218.161 100.586 218.359C95.72 218.574 91.7932 214.693 91.843 208.007C91.9389 201.648 95.6438 196.922 101.153 197.07C106.515 197.214 109.383 201.534 109.296 207.276ZM97.6385 207.738C97.5336 211.397 98.637 214.002 100.8 213.937C102.885 213.875 103.927 211.528 103.985 207.684C104.038 204.212 103.264 201.512 100.989 201.485C98.7275 201.457 97.6913 204.242 97.6385 207.738Z" fill="white"/>
<path style="mix-blend-mode:multiply" opacity="0.3" d="M154.645 174.602L59.6913 170.665C63.9774 183.356 70.1147 189.042 75.3895 191.824C85.4272 197.122 92.6242 192.063 101.226 198.919C110.057 205.956 106.694 214.643 115.991 220.497C122.979 224.897 127.483 221.629 134.73 225.608C140.097 228.551 143.451 233.542 145.598 238.54L154.654 238.003C156.013 237.922 157.115 236.584 157.115 235.028V177.534C157.106 175.977 156 174.658 154.645 174.602Z" fill="url(#paint17_linear_154_2254)"/>
<path style="mix-blend-mode:multiply" opacity="0.3" d="M155.768 205.021L153.451 202.823L151.253 205.14L148.936 202.944L146.737 205.26L144.42 203.062L142.222 205.379L139.905 203.18L137.707 205.497L135.39 203.299L133.192 205.616L130.875 203.417L128.679 205.736L126.362 203.537L124.164 205.854L121.847 203.656L119.649 205.973L116.688 203.164V237.869C116.688 237.869 116.568 239.857 114.165 240.38L155.141 237.375C155.595 237.341 156.036 237.215 156.44 237.005C156.875 236.441 157.11 235.748 157.109 235.036V203.611L155.768 205.021Z" fill="url(#paint18_linear_154_2254)"/>
<path d="M162.355 203.87V235.484C162.355 237.248 160.95 238.714 159.192 238.844L146.198 239.795L118.122 241.848C120.525 241.325 120.577 239.337 120.577 239.337V204.632L123.596 207.441L125.177 205.806L125.838 205.127L128.162 207.325L130.365 205.008L132.683 207.207L134.882 204.89L137.199 207.087L139.398 204.771L141.715 206.969L143.913 204.652L146.23 206.85L148.43 204.534L150.746 206.732L152.945 204.415L155.262 206.615L157.46 204.297L159.821 206.496L162.355 203.87Z" fill="white"/>
<path d="M157.625 222.23L152.557 222.457C152.393 222.464 152.238 222.534 152.125 222.653C152.011 222.772 151.948 222.929 151.948 223.094V225.42C151.948 225.506 151.965 225.592 152 225.672C152.034 225.752 152.084 225.824 152.147 225.883C152.211 225.943 152.285 225.989 152.367 226.019C152.448 226.049 152.535 226.061 152.622 226.057L157.69 225.771C157.853 225.762 158.006 225.691 158.118 225.573C158.231 225.455 158.293 225.298 158.294 225.134V222.868C158.294 222.782 158.276 222.696 158.242 222.617C158.208 222.537 158.158 222.466 158.096 222.406C158.033 222.346 157.959 222.3 157.878 222.27C157.797 222.24 157.711 222.226 157.625 222.23Z" fill="#D8DEE8"/>
<path d="M157.617 226.725L152.55 227.011C152.387 227.02 152.234 227.091 152.121 227.209C152.009 227.328 151.946 227.485 151.946 227.648V230.076C151.946 230.163 151.964 230.25 151.999 230.33C152.033 230.41 152.084 230.482 152.148 230.542C152.212 230.601 152.287 230.647 152.369 230.677C152.451 230.706 152.539 230.719 152.626 230.713L157.694 230.39C157.855 230.379 158.007 230.308 158.118 230.189C158.229 230.071 158.291 229.915 158.291 229.753V227.362C158.29 227.275 158.273 227.19 158.238 227.11C158.204 227.03 158.154 226.958 158.091 226.899C158.028 226.839 157.953 226.793 157.872 226.763C157.791 226.733 157.704 226.72 157.617 226.725Z" fill="#D8DEE8"/>
<path d="M158.291 215.784V211.623C158.291 211.537 158.274 211.452 158.241 211.373C158.207 211.294 158.158 211.223 158.096 211.163C158.035 211.104 157.962 211.057 157.882 211.027C157.802 210.996 157.716 210.982 157.631 210.985L152.563 211.167C152.398 211.173 152.241 211.243 152.127 211.361C152.012 211.48 151.948 211.639 151.948 211.804V216.012C151.948 216.098 151.965 216.184 151.999 216.263C152.033 216.342 152.083 216.414 152.145 216.473C152.207 216.533 152.281 216.579 152.362 216.61C152.443 216.64 152.529 216.654 152.615 216.65L157.682 216.423C157.847 216.416 158.002 216.345 158.115 216.226C158.229 216.107 158.292 215.949 158.291 215.784Z" fill="#D8DEE8"/>
<path d="M147.094 222.705L126.46 223.635C126.296 223.643 126.141 223.713 126.028 223.832C125.914 223.951 125.851 224.109 125.851 224.273V226.893C125.851 226.98 125.869 227.065 125.903 227.145C125.938 227.225 125.988 227.297 126.051 227.356C126.114 227.416 126.189 227.462 126.27 227.492C126.352 227.522 126.439 227.535 126.525 227.53L147.159 226.367C147.322 226.358 147.476 226.287 147.588 226.169C147.701 226.05 147.763 225.893 147.763 225.73V223.343C147.763 223.256 147.746 223.171 147.712 223.091C147.678 223.012 147.628 222.94 147.565 222.881C147.503 222.821 147.429 222.775 147.348 222.744C147.267 222.714 147.181 222.701 147.094 222.705Z" fill="#D8DEE8"/>
<path d="M147.089 227.321L126.455 228.485C126.292 228.493 126.139 228.564 126.026 228.683C125.914 228.801 125.851 228.958 125.851 229.122V231.745C125.851 231.832 125.869 231.919 125.904 231.999C125.939 232.079 125.989 232.151 126.053 232.21C126.117 232.27 126.192 232.316 126.274 232.345C126.356 232.375 126.444 232.387 126.531 232.381L147.165 231.064C147.326 231.054 147.478 230.982 147.589 230.864C147.7 230.746 147.762 230.59 147.762 230.427V227.959C147.762 227.872 147.745 227.786 147.71 227.706C147.676 227.626 147.626 227.554 147.563 227.495C147.5 227.435 147.425 227.389 147.344 227.359C147.262 227.329 147.176 227.316 147.089 227.321Z" fill="#D8DEE8"/>
<path d="M147.763 216.259V212C147.763 211.914 147.746 211.829 147.712 211.75C147.679 211.671 147.63 211.6 147.568 211.541C147.506 211.481 147.433 211.435 147.353 211.404C147.273 211.373 147.188 211.359 147.102 211.362L126.468 212.105C126.303 212.111 126.146 212.181 126.032 212.3C125.917 212.419 125.853 212.577 125.853 212.743V217.187C125.853 217.273 125.87 217.359 125.904 217.438C125.938 217.517 125.988 217.589 126.05 217.649C126.112 217.708 126.186 217.755 126.267 217.785C126.348 217.815 126.434 217.829 126.52 217.825L147.154 216.894C147.318 216.887 147.472 216.817 147.586 216.699C147.699 216.58 147.763 216.423 147.763 216.259Z" fill="#D8DEE8"/>
<g style="mix-blend-mode:multiply" opacity="0.4">
<path d="M146.176 239.796L118.113 241.848C120.517 241.325 120.58 239.338 120.58 239.338V204.632L123.599 207.442L125.18 205.806C126.499 206.999 127.559 208.916 127.853 211.953C128.834 222.066 133.571 221.397 139.162 221.777C144.752 222.156 147.326 228.627 145.063 233.626C144.049 235.862 144.462 238.113 146.176 239.796Z" fill="#F4F7FA"/>
</g>
<path d="M52.6936 240.981V245.125C52.6936 246.464 61.0581 247.55 71.3774 247.55C81.6966 247.55 90.0604 246.464 90.0604 245.125V240.981H52.6936Z" fill="url(#paint19_linear_154_2254)"/>
<path d="M90.0604 240.981C90.0604 242.32 81.6959 243.406 71.3774 243.406C61.0589 243.406 52.6936 242.322 52.6936 240.981C52.6936 239.64 61.0566 238.559 71.3774 238.559C81.6981 238.559 90.0604 239.645 90.0604 240.981Z" fill="url(#paint20_linear_154_2254)"/>
<path d="M71.3773 243.575C62.2385 243.575 52.6823 242.703 52.6823 241.019C52.6823 240.926 52.7155 240.764 52.8083 240.764C52.9011 240.764 52.8604 240.89 52.8604 240.983C52.8604 242.051 60.4649 243.241 71.3773 243.241C82.2898 243.241 89.8935 242.051 89.8935 240.983C89.8935 240.89 89.9094 240.804 90.0015 240.804C90.0935 240.804 90.0717 240.927 90.0717 241.02C90.0717 242.703 80.5154 243.575 71.3773 243.575Z" fill="url(#paint21_linear_154_2254)"/>
<path d="M69.6113 241.118C69.7945 240.992 69.9902 240.866 70.1985 240.741C70.4521 240.598 70.7217 240.486 71.0015 240.407C71.4048 240.292 71.8167 240.211 72.2332 240.163C72.8456 240.093 73.4615 240.06 74.0778 240.063C74.8003 240.06 75.4795 240.083 76.1155 240.132C76.6767 240.172 77.2349 240.246 77.7872 240.354C78.1917 240.428 78.5859 240.55 78.9615 240.718C79.2634 240.863 79.44 241.029 79.4981 241.215L81.6015 241.237C81.737 241.236 81.8723 241.248 82.0053 241.274C82.1223 241.298 82.1796 241.328 82.1796 241.365V241.538L79.4755 241.512C79.3804 241.724 79.1386 241.918 78.7502 242.094C78.2735 242.299 77.7763 242.452 77.2672 242.552L76.2861 242.415C76.2121 242.405 76.1394 242.388 76.0687 242.364C76.0113 242.343 75.9842 242.32 75.9842 242.296C75.9842 242.272 76.0596 242.22 76.2106 242.182C76.3615 242.143 76.5351 242.086 76.7268 242.023C76.9192 241.958 77.1077 241.882 77.2913 241.796C77.4445 241.736 77.5742 241.628 77.6611 241.488L71.2777 241.425C71.0968 241.556 70.9086 241.678 70.714 241.789C70.4513 241.929 70.1725 242.037 69.8838 242.111C69.4625 242.22 69.0336 242.298 68.6008 242.343C67.9574 242.409 67.3109 242.441 66.6642 242.438C66.0785 242.438 65.5094 242.418 64.951 242.371C64.4516 242.332 63.9552 242.262 63.4649 242.159C63.0966 242.086 62.7385 241.969 62.3985 241.81C62.1223 241.672 61.9668 241.512 61.9344 241.332L60.1985 241.314C60.0614 241.314 59.9245 241.302 59.7894 241.278C59.6702 241.255 59.6091 241.224 59.6091 241.186V241.013L61.9766 241.035C62.0815 240.853 62.2959 240.693 62.6242 240.558C63.0137 240.404 63.4157 240.283 63.8257 240.197L64.6189 240.306C64.8596 240.339 64.9796 240.381 64.9796 240.425C64.9796 240.449 64.9313 240.479 64.8287 240.516C64.726 240.553 64.6098 240.595 64.4732 240.646C64.3378 240.696 64.206 240.756 64.0785 240.824C63.9664 240.879 63.8679 240.957 63.7902 241.055L69.6113 241.118ZM63.7736 241.358C63.8405 241.49 63.9517 241.594 64.0876 241.652C64.2793 241.745 64.4822 241.813 64.6913 241.855C64.9586 241.912 65.2294 241.951 65.5019 241.972C65.8038 241.996 66.1188 242.008 66.4468 242.007C66.782 242.007 67.117 241.99 67.4506 241.957C67.7047 241.931 67.9568 241.889 68.2053 241.83C68.3984 241.784 68.5873 241.722 68.7698 241.644C68.9195 241.578 69.0638 241.501 69.2015 241.413L63.7736 241.358ZM77.6702 241.207C77.6227 241.092 77.5064 240.991 77.326 240.906C77.1049 240.806 76.8729 240.733 76.6347 240.687C76.3108 240.623 75.9831 240.579 75.6536 240.556C75.2813 240.527 74.8702 240.514 74.4204 240.516C74.0753 240.515 73.7303 240.533 73.3872 240.57C73.1342 240.597 72.8836 240.643 72.637 240.706C72.4506 240.753 72.2697 240.82 72.0974 240.906C71.9546 240.978 71.8165 241.059 71.6838 241.149L77.6702 241.207Z" fill="#FCB048"/>
<path d="M71.3796 238.821C63.0491 238.821 54.3751 239.554 52.9872 240.974C53.0409 241.023 53.0913 241.077 53.1381 241.133C54.3079 240.148 61.4702 239.156 71.3789 239.156C81.5419 239.156 88.8196 240.199 89.7004 241.209C89.7437 241.153 89.7906 241.1 89.8408 241.051C88.6951 239.581 79.8581 238.821 71.3796 238.821Z" fill="url(#paint22_linear_154_2254)"/>
<path d="M47.4996 236.63V240.775C47.4996 242.114 55.8642 243.199 66.1834 243.199C76.5026 243.199 84.8664 242.114 84.8664 240.775V236.63H47.4996Z" fill="url(#paint23_linear_154_2254)"/>
<path d="M84.8664 236.63C84.8664 237.97 76.5019 239.055 66.1834 239.055C55.8649 239.055 47.4996 237.97 47.4996 236.63C47.4996 235.291 55.8642 234.206 66.1834 234.206C76.5026 234.206 84.8664 235.291 84.8664 236.63Z" fill="url(#paint24_linear_154_2254)"/>
<path d="M66.1834 239.222C57.0445 239.222 47.4883 238.349 47.4883 236.666C47.4883 236.574 47.5215 236.411 47.6143 236.411C47.7072 236.411 47.6664 236.538 47.6664 236.63C47.6664 237.698 55.2709 238.888 66.1834 238.888C77.0959 238.888 84.6997 237.698 84.6997 236.63C84.6997 236.538 84.7155 236.451 84.8076 236.451C84.8997 236.451 84.8778 236.575 84.8778 236.667C84.8778 238.351 75.3208 239.222 66.1834 239.222Z" fill="url(#paint25_linear_154_2254)"/>
<path d="M64.4174 236.765C64.601 236.638 64.7968 236.512 65.0046 236.388C65.258 236.245 65.5276 236.132 65.8076 236.053C66.2108 235.938 66.6227 235.857 67.0393 235.81C67.6516 235.739 68.2675 235.706 68.8838 235.71C69.6058 235.706 70.2838 235.729 70.9178 235.779C71.479 235.818 72.0372 235.892 72.5895 236C72.994 236.074 73.3882 236.197 73.7638 236.364C74.0657 236.509 74.243 236.675 74.3004 236.862L76.4038 236.883C76.5393 236.882 76.6746 236.895 76.8076 236.921C76.9253 236.944 76.9819 236.974 76.9819 237.011V237.185L74.2778 237.158C74.1827 237.371 73.9409 237.565 73.5525 237.741C73.0756 237.945 72.5785 238.099 72.0695 238.198L71.0883 238.061C71.0144 238.051 70.9415 238.034 70.871 238.01C70.8136 237.989 70.7864 237.967 70.7864 237.942C70.7864 237.917 70.8619 237.871 71.0129 237.828C71.1638 237.785 71.3374 237.732 71.5291 237.669C71.7216 237.605 71.9101 237.529 72.0936 237.443C72.2469 237.383 72.3766 237.275 72.4634 237.136L66.08 237.072C65.8989 237.204 65.7107 237.325 65.5163 237.436C65.2536 237.577 64.9748 237.685 64.6861 237.758C64.2648 237.867 63.8359 237.945 63.403 237.99C62.7596 238.056 62.1132 238.087 61.4664 238.084C60.8808 238.084 60.3117 238.065 59.7532 238.018C59.2529 237.981 58.7555 237.912 58.2642 237.811C57.8959 237.739 57.5378 237.622 57.1978 237.462C56.9215 237.324 56.7661 237.161 56.7336 236.984L54.9978 236.967C54.8606 236.967 54.7236 236.955 54.5887 236.93C54.4695 236.907 54.4083 236.877 54.4083 236.838V236.665L56.7759 236.687C56.8808 236.505 57.0951 236.346 57.4234 236.21C57.8131 236.056 58.215 235.936 58.6249 235.849L59.4181 235.958C59.6589 235.991 59.7789 236.034 59.7789 236.077C59.7789 236.102 59.7306 236.132 59.628 236.168C59.5253 236.204 59.4091 236.248 59.2725 236.299C59.137 236.349 59.0051 236.408 58.8778 236.477C58.7655 236.531 58.667 236.61 58.5895 236.708L64.4174 236.765ZM58.5759 237.001C58.6425 237.133 58.7538 237.237 58.8898 237.295C59.0815 237.388 59.2844 237.457 59.4936 237.498C59.7601 237.555 60.0302 237.594 60.3019 237.615C60.6038 237.64 60.9188 237.651 61.2468 237.65C61.582 237.651 61.9171 237.634 62.2506 237.601C62.5034 237.574 62.7542 237.532 63.0015 237.473C63.1947 237.427 63.3835 237.365 63.5661 237.287C63.7165 237.221 63.8616 237.144 64 237.056L58.5759 237.001ZM72.4725 236.847C72.4249 236.731 72.3087 236.631 72.1283 236.545C71.9073 236.445 71.6752 236.372 71.437 236.327C71.1132 236.261 70.7855 236.217 70.4559 236.194C70.084 236.166 69.673 236.152 69.2227 236.154C68.8776 236.154 68.5327 236.172 68.1895 236.208C67.9364 236.236 67.6857 236.281 67.4393 236.345C67.2528 236.392 67.0719 236.458 66.8996 236.544C66.7569 236.617 66.6188 236.698 66.4861 236.788L72.4725 236.847Z" fill="#FCB048"/>
<path d="M66.1887 234.468C57.8581 234.468 49.1841 235.201 47.7962 236.62C47.8501 236.67 47.9006 236.724 47.9471 236.78C49.117 235.795 56.2792 234.803 66.1879 234.803C76.3509 234.803 83.6287 235.847 84.5102 236.856C84.5532 236.8 84.5999 236.747 84.6498 236.698C83.5011 235.229 74.6641 234.468 66.1887 234.468Z" fill="url(#paint26_linear_154_2254)"/>
<path d="M51.9811 232.291V236.435C51.9811 237.774 60.3464 238.859 70.6649 238.859C80.9834 238.859 89.3487 237.774 89.3487 236.435V232.291H51.9811Z" fill="url(#paint27_linear_154_2254)"/>
<path d="M89.3487 232.291C89.3487 233.63 80.9834 234.715 70.6649 234.715C60.3464 234.715 51.9811 233.63 51.9811 232.291C51.9811 230.952 60.3464 229.866 70.6649 229.866C80.9834 229.866 89.3487 230.951 89.3487 232.291Z" fill="url(#paint28_linear_154_2254)"/>
<path d="M70.6649 234.882C61.5261 234.882 51.9706 234.009 51.9706 232.326C51.9706 232.233 52.003 232.071 52.0959 232.071C52.1887 232.071 52.1487 232.198 52.1487 232.29C52.1487 233.358 59.7532 234.548 70.6649 234.548C81.5767 234.548 89.1812 233.358 89.1812 232.29C89.1812 232.198 89.197 232.111 89.2891 232.111C89.3812 232.111 89.3593 232.235 89.3593 232.327C89.3586 234.01 79.8031 234.882 70.6649 234.882Z" fill="url(#paint29_linear_154_2254)"/>
<path d="M68.8996 232.426C69.0823 232.299 69.278 232.173 69.4868 232.048C69.7401 231.905 70.0094 231.793 70.2891 231.714C70.6923 231.599 71.1042 231.517 71.5208 231.47C72.1331 231.401 72.749 231.367 73.3653 231.37C74.0873 231.367 74.7653 231.39 75.3993 231.439C75.9608 231.479 76.5193 231.553 77.0717 231.661C77.476 231.735 77.8699 231.857 78.2453 232.025C78.5472 232.17 78.7261 232.336 78.7819 232.522L80.8861 232.543C81.0213 232.543 81.1563 232.556 81.2891 232.581C81.4068 232.605 81.4634 232.635 81.4634 232.672V232.845L78.7593 232.819C78.6642 233.032 78.4224 233.226 78.034 233.401C77.5571 233.606 77.06 233.759 76.551 233.859L75.5698 233.722C75.4958 233.712 75.423 233.695 75.3525 233.67C75.2959 233.65 75.2679 233.627 75.2679 233.603C75.2679 233.579 75.3434 233.527 75.4944 233.489C75.6453 233.45 75.8181 233.393 76.0098 233.33C76.2023 233.265 76.3908 233.19 76.5744 233.103C76.7277 233.043 76.8576 232.936 76.9449 232.796L70.5608 232.733C70.3798 232.864 70.1916 232.986 69.997 233.097C69.7345 233.237 69.4556 233.345 69.1668 233.418C68.7456 233.528 68.3167 233.606 67.8838 233.65C67.2404 233.716 66.5939 233.748 65.9472 233.745C65.3615 233.745 64.7925 233.726 64.2347 233.678C63.7351 233.64 63.2385 233.569 62.7479 233.467C62.3797 233.394 62.0216 233.277 61.6815 233.118C61.4053 232.979 61.2498 232.82 61.2174 232.64L59.4861 232.622C59.3486 232.622 59.2114 232.61 59.0763 232.586C58.957 232.563 58.8966 232.532 58.8959 232.494V232.321L61.2642 232.343C61.3691 232.161 61.5834 232.001 61.911 231.866C62.3006 231.712 62.7029 231.591 63.1132 231.505L63.9064 231.613C64.1472 231.647 64.2664 231.689 64.2664 231.732C64.2664 231.757 64.2181 231.787 64.1155 231.823L63.76 231.954C63.6246 232.004 63.4928 232.064 63.3653 232.132C63.2533 232.187 63.1549 232.266 63.077 232.363L68.8996 232.426ZM63.0574 232.662C63.1244 232.794 63.2358 232.898 63.3721 232.955C63.564 233.048 63.7669 233.116 63.9759 233.158C64.2431 233.215 64.5139 233.254 64.7864 233.275C65.0883 233.299 65.4035 233.311 65.7321 233.31C66.0671 233.31 66.4018 233.294 66.7351 233.26C66.9879 233.234 67.2387 233.192 67.4861 233.134C67.6791 233.087 67.868 233.024 68.0506 232.946C68.2003 232.881 68.3446 232.804 68.4823 232.716L63.0574 232.662ZM76.954 232.506C76.9064 232.392 76.791 232.29 76.6106 232.204C76.3891 232.105 76.1569 232.032 75.9185 231.986C75.5947 231.921 75.2669 231.877 74.9374 231.854C74.5656 231.826 74.1545 231.812 73.7042 231.815C73.3593 231.814 73.0146 231.832 72.6717 231.869C72.4184 231.895 72.1674 231.941 71.9208 232.004C71.7345 232.052 71.5537 232.119 71.3812 232.204C71.2385 232.277 71.1004 232.358 70.9676 232.447L76.954 232.506Z" fill="#FCB048"/>
<path d="M70.6672 230.128C62.3366 230.128 53.6626 230.861 52.2747 232.28C52.3285 232.33 52.3789 232.383 52.4257 232.44C53.5955 231.454 60.7577 230.462 70.6664 230.462C80.8294 230.462 88.1072 231.506 88.9887 232.516C89.0315 232.46 89.0782 232.407 89.1283 232.357C87.9826 230.888 79.1457 230.128 70.6672 230.128Z" fill="url(#paint30_linear_154_2254)"/>
<path d="M54.7011 227.938V232.082C54.7011 233.421 63.0656 234.507 73.3841 234.507C83.7026 234.507 92.0679 233.421 92.0679 232.082V227.938H54.7011Z" fill="url(#paint31_linear_154_2254)"/>
<path d="M73.3841 230.363C83.7029 230.363 92.0679 229.277 92.0679 227.938C92.0679 226.598 83.7029 225.513 73.3841 225.513C63.0654 225.513 54.7004 226.598 54.7004 227.938C54.7004 229.277 63.0654 230.363 73.3841 230.363Z" fill="url(#paint32_linear_154_2254)"/>
<path d="M73.3842 230.529C64.246 230.529 54.6898 229.657 54.6898 227.973C54.6898 227.88 54.723 227.718 54.8151 227.718C54.9072 227.718 54.8679 227.845 54.8679 227.937C54.8679 229.005 62.4725 230.195 73.3842 230.195C84.2959 230.195 91.9004 229.005 91.9004 227.937C91.9004 227.845 91.9162 227.759 92.0091 227.759C92.1019 227.759 92.0793 227.882 92.0793 227.974C92.0793 229.66 82.523 230.529 73.3842 230.529Z" fill="url(#paint33_linear_154_2254)"/>
<path d="M71.6226 228.075C71.806 227.949 72 227.823 72.2098 227.698C72.4632 227.556 72.7325 227.443 73.0121 227.364C73.4153 227.249 73.8273 227.168 74.2438 227.12C74.8564 227.05 75.4725 227.017 76.089 227.02C76.8116 227.017 77.4893 227.04 78.1222 227.09C78.6837 227.129 79.2422 227.203 79.7947 227.311C80.1993 227.385 80.5935 227.507 80.969 227.675C81.2709 227.82 81.4498 227.986 81.5056 228.173L83.609 228.194C83.7443 228.193 83.8793 228.205 84.0121 228.231C84.1298 228.255 84.1872 228.285 84.1872 228.322V228.495L81.4823 228.469C81.3879 228.681 81.1456 228.875 80.7577 229.051C80.2809 229.256 79.7838 229.409 79.2747 229.509L78.2936 229.372C78.2194 229.362 78.1464 229.345 78.0755 229.321C78.0189 229.3 77.9917 229.278 77.9909 229.253C77.9902 229.228 78.0664 229.182 78.2173 229.139C78.3683 229.096 78.5419 229.043 78.7336 228.98C78.9257 228.916 79.1139 228.84 79.2973 228.754C79.4507 228.694 79.5806 228.586 79.6679 228.446L73.283 228.385C73.1019 228.516 72.9137 228.638 72.7192 228.749C72.4564 228.889 72.1777 228.997 71.889 229.07C71.4678 229.179 71.0389 229.257 70.606 229.302C69.9624 229.368 69.3157 229.4 68.6687 229.397C68.0838 229.397 67.5139 229.377 66.9562 229.331C66.4568 229.292 65.9605 229.221 65.4702 229.118C65.102 229.046 64.7439 228.929 64.4038 228.77C64.1265 228.631 63.9718 228.471 63.9396 228.291L62.2075 228.274C62.0704 228.274 61.9335 228.262 61.7985 228.238C61.6792 228.214 61.6181 228.183 61.6181 228.146V227.972L63.9856 227.995C64.0906 227.812 64.3049 227.653 64.6332 227.518C65.0227 227.363 65.4247 227.242 65.8347 227.156L66.6279 227.265C66.8689 227.299 66.9892 227.338 66.9887 227.384C66.9887 227.408 66.9396 227.439 66.8377 227.475L66.4823 227.605C66.3473 227.656 66.2157 227.716 66.0883 227.783C65.9761 227.838 65.8775 227.917 65.8 228.014L71.6226 228.075ZM65.7804 228.312C65.8476 228.443 65.959 228.547 66.0951 228.605C66.2869 228.698 66.4898 228.767 66.6989 228.808C66.9664 228.865 67.2374 228.904 67.5102 228.925C67.8121 228.95 68.127 228.962 68.4551 228.96C68.7903 228.961 69.1254 228.944 69.4589 228.91C69.713 228.885 69.9651 228.842 70.2136 228.783C70.4067 228.737 70.5956 228.675 70.7781 228.597C70.9273 228.533 71.0714 228.457 71.209 228.37L65.7804 228.312ZM79.6777 228.157C79.6302 228.041 79.514 227.94 79.3336 227.855C79.1123 227.755 78.88 227.681 78.6415 227.636C78.3176 227.571 77.9899 227.527 77.6604 227.505C77.289 227.476 76.8782 227.463 76.4279 227.465C76.0828 227.464 75.7379 227.482 75.3947 227.518C75.1414 227.546 74.8905 227.592 74.6438 227.655C74.4576 227.702 74.2769 227.769 74.1049 227.854C73.9619 227.926 73.8237 228.008 73.6913 228.098L79.6777 228.157Z" fill="#FCB048"/>
<path d="M73.3871 225.775C65.0566 225.775 56.3819 226.508 54.9947 227.927C55.0484 227.977 55.0989 228.03 55.1456 228.087C56.3147 227.102 63.4777 226.109 73.3864 226.109C83.5494 226.109 90.8264 227.153 91.7079 228.163C91.7514 228.107 91.798 228.054 91.8475 228.004C90.7026 226.535 81.8656 225.775 73.3871 225.775Z" fill="url(#paint34_linear_154_2254)"/>
<path d="M52.6936 223.245V227.389C52.6936 228.728 61.0581 229.813 71.3774 229.813C81.6966 229.813 90.0604 228.728 90.0604 227.389V223.245H52.6936Z" fill="url(#paint35_linear_154_2254)"/>
<path d="M90.0604 223.245C90.0604 224.584 81.6959 225.669 71.3774 225.669C61.0589 225.669 52.6936 224.58 52.6936 223.245C52.6936 221.91 61.0581 220.82 71.3774 220.82C81.6966 220.82 90.0604 221.902 90.0604 223.245Z" fill="url(#paint36_linear_154_2254)"/>
<path d="M71.3773 225.833C62.2385 225.833 52.6823 224.96 52.6823 223.276C52.6823 223.184 52.7155 223.022 52.8083 223.022C52.9011 223.022 52.8604 223.149 52.8604 223.242C52.8604 224.309 60.4649 225.498 71.3773 225.498C82.2898 225.498 89.8935 224.309 89.8935 223.242C89.8935 223.149 89.9094 223.062 90.0015 223.062C90.0935 223.062 90.0717 223.186 90.0717 223.278C90.0717 224.962 80.5154 225.833 71.3773 225.833Z" fill="url(#paint37_linear_154_2254)"/>
<path d="M69.6113 223.376C69.7947 223.249 69.9887 223.124 70.1985 222.999C70.452 222.856 70.7215 222.744 71.0015 222.665C71.4047 222.55 71.8167 222.468 72.2332 222.421C72.8456 222.351 73.4615 222.318 74.0777 222.321C74.8003 222.317 75.4795 222.34 76.1155 222.39C76.6767 222.43 77.235 222.503 77.7872 222.611C78.1916 222.686 78.5858 222.808 78.9615 222.976C79.2634 223.121 79.44 223.287 79.4981 223.473L81.6015 223.494C81.737 223.494 81.8722 223.506 82.0053 223.532C82.1223 223.556 82.1796 223.586 82.1796 223.622V223.796L79.4717 223.773C79.3766 223.986 79.1348 224.18 78.7464 224.356C78.2696 224.56 77.7725 224.714 77.2634 224.813L76.2823 224.676C76.2082 224.667 76.1354 224.649 76.0649 224.625C76.0075 224.604 75.9804 224.582 75.9804 224.557C75.9804 224.532 76.0558 224.486 76.2068 224.444C76.3577 224.401 76.5313 224.348 76.723 224.284C76.9155 224.22 77.104 224.145 77.2876 224.058C77.4408 223.998 77.5706 223.89 77.6574 223.751L71.274 223.687C71.093 223.819 70.9048 223.941 70.7102 224.051C70.4476 224.192 70.1688 224.3 69.88 224.373C69.4587 224.482 69.0299 224.56 68.597 224.605C67.9536 224.671 67.3071 224.702 66.6604 224.699C66.0747 224.699 65.5057 224.681 64.9472 224.633C64.4478 224.594 63.9515 224.524 63.4611 224.422C63.0928 224.349 62.7347 224.232 62.3947 224.072C62.1185 223.933 61.963 223.774 61.9306 223.594L60.1947 223.576C60.0575 223.577 59.9206 223.565 59.7857 223.54C59.6664 223.518 59.6053 223.487 59.6053 223.448V223.275L61.9728 223.297C62.0777 223.115 62.2921 222.956 62.6204 222.82C63.0101 222.666 63.412 222.545 63.8219 222.459L64.6151 222.568C64.8561 222.602 64.9764 222.641 64.9758 222.687C64.9758 222.711 64.9275 222.742 64.8249 222.778C64.7223 222.814 64.606 222.858 64.4694 222.908C64.3339 222.959 64.202 223.018 64.0747 223.087C63.9626 223.141 63.8641 223.22 63.7864 223.318L69.6113 223.376ZM63.7698 223.612C63.8365 223.744 63.9477 223.848 64.0838 223.905C64.2755 223.999 64.4784 224.067 64.6875 224.109C64.9549 224.166 65.2257 224.205 65.4981 224.225C65.8 224.251 66.115 224.262 66.443 224.26C66.7782 224.261 67.1133 224.245 67.4468 224.211C67.7009 224.185 67.953 224.142 68.2015 224.084C68.3947 224.038 68.5835 223.975 68.766 223.897C68.9155 223.833 69.0599 223.757 69.1977 223.671L63.7698 223.612ZM77.6664 223.457C77.6189 223.342 77.5026 223.241 77.3223 223.155C77.1012 223.056 76.8692 222.982 76.6309 222.937C76.3071 222.872 75.9793 222.828 75.6498 222.805C75.2775 222.776 74.8664 222.763 74.4166 222.765C74.0715 222.764 73.7266 222.782 73.3834 222.819C73.1304 222.846 72.8797 222.892 72.6332 222.955C72.4469 223.003 72.2661 223.07 72.0936 223.155C71.9508 223.227 71.8127 223.309 71.68 223.398L77.6664 223.457Z" fill="#FCB048"/>
<path d="M71.3796 221.08C63.0491 221.08 54.3751 221.812 52.9872 223.231C53.0409 223.281 53.0914 223.335 53.1381 223.391C54.3079 222.406 61.4702 221.414 71.3789 221.414C81.5419 221.414 88.8196 222.458 89.7004 223.467C89.7439 223.411 89.7908 223.359 89.8408 223.309C88.6951 221.84 79.8581 221.08 71.3796 221.08Z" fill="url(#paint38_linear_154_2254)"/>
<path d="M47.4996 218.888V223.032C47.4996 224.371 55.8642 225.456 66.1834 225.456C76.5026 225.456 84.8664 224.371 84.8664 223.032V218.888H47.4996Z" fill="url(#paint39_linear_154_2254)"/>
<path d="M66.1834 221.313C76.5022 221.313 84.8672 220.228 84.8672 218.888C84.8672 217.549 76.5022 216.463 66.1834 216.463C55.8646 216.463 47.4996 217.549 47.4996 218.888C47.4996 220.228 55.8646 221.313 66.1834 221.313Z" fill="url(#paint40_linear_154_2254)"/>
<path d="M66.1834 221.48C57.0445 221.48 47.4883 220.607 47.4883 218.924C47.4883 218.831 47.5215 218.668 47.6143 218.668C47.7072 218.668 47.6664 218.795 47.6664 218.888C47.6664 219.956 55.2709 221.145 66.1834 221.145C77.0959 221.145 84.6997 219.956 84.6997 218.888C84.6997 218.795 84.7155 218.709 84.8076 218.709C84.8997 218.709 84.8778 218.832 84.8778 218.925C84.8778 220.608 75.3208 221.48 66.1834 221.48Z" fill="url(#paint41_linear_154_2254)"/>
<path d="M64.4174 219.024C64.601 218.897 64.7967 218.771 65.0045 218.646C65.2582 218.504 65.5277 218.391 65.8075 218.312C66.2108 218.197 66.6227 218.116 67.0392 218.068C67.6516 217.999 68.2675 217.965 68.8838 217.969C69.6058 217.966 70.2838 217.989 70.9177 218.038C71.4789 218.078 72.0372 218.151 72.5894 218.259C72.9939 218.333 73.3881 218.455 73.7638 218.623C74.0657 218.768 74.243 218.934 74.3004 219.12L76.4038 219.142C76.5392 219.141 76.6745 219.153 76.8075 219.179C76.9253 219.203 76.9819 219.233 76.9819 219.27V219.443L74.2777 219.418C74.1826 219.63 73.9409 219.824 73.5524 219.999C73.0757 220.204 72.5786 220.357 72.0694 220.457L71.0883 220.32C71.0144 220.31 70.9416 220.293 70.8709 220.269C70.8136 220.248 70.7864 220.225 70.7864 220.201C70.7864 220.177 70.8619 220.129 71.0128 220.087C71.1638 220.045 71.3374 219.991 71.5291 219.928C71.7215 219.865 71.91 219.79 72.0936 219.705C72.2468 219.645 72.3764 219.537 72.4634 219.397L66.08 219.334C65.899 219.466 65.7108 219.587 65.5162 219.698C65.2535 219.838 64.9747 219.946 64.686 220.02C64.2648 220.129 63.8359 220.207 63.403 220.252C62.7596 220.318 62.1132 220.35 61.4664 220.347C60.8807 220.347 60.3117 220.327 59.7532 220.28C59.2539 220.241 58.7575 220.17 58.2672 220.068C57.8988 219.995 57.5407 219.878 57.2007 219.719C56.9245 219.581 56.7691 219.421 56.7366 219.241L55.0007 219.223C54.8636 219.223 54.7267 219.211 54.5917 219.187C54.4724 219.164 54.4113 219.133 54.4113 219.095V218.922L56.7789 218.944C56.8838 218.762 57.0981 218.602 57.4264 218.467C57.816 218.313 58.2179 218.192 58.6279 218.106L59.4211 218.215C59.6619 218.249 59.7819 218.29 59.7819 218.334C59.7819 218.358 59.7336 218.388 59.6309 218.425C59.5283 218.462 59.4121 218.501 59.2755 218.555C59.1401 218.605 59.0082 218.665 58.8807 218.733C58.7686 218.788 58.6701 218.866 58.5924 218.964L64.4174 219.024ZM58.5758 219.26C58.6428 219.392 58.7539 219.496 58.8898 219.553C59.0816 219.647 59.2845 219.715 59.4936 219.756C59.7609 219.813 60.0317 219.852 60.3041 219.873C60.606 219.898 60.921 219.91 61.249 219.908C61.5843 219.908 61.9193 219.892 62.2528 219.858C62.5057 219.833 62.7565 219.79 63.0038 219.732C63.1969 219.686 63.3858 219.623 63.5683 219.545C63.7179 219.479 63.8623 219.402 64 219.314L58.5758 219.26ZM72.4724 219.105C72.4249 218.99 72.3087 218.889 72.1283 218.803C71.9071 218.704 71.6751 218.631 71.437 218.585C71.1131 218.52 70.7854 218.476 70.4558 218.454C70.084 218.425 69.6729 218.412 69.2226 218.414C68.8775 218.412 68.5326 218.43 68.1894 218.467C67.9365 218.495 67.6858 218.54 67.4392 218.603C67.2528 218.651 67.072 218.718 66.8996 218.803C66.7569 218.876 66.6187 218.957 66.486 219.046L72.4724 219.105Z" fill="#FCB048"/>
<path d="M66.1887 216.726C57.8581 216.726 49.1841 217.459 47.7962 218.879C47.8499 218.928 47.9004 218.981 47.9471 219.038C49.117 218.053 56.2792 217.06 66.1879 217.06C76.3509 217.06 83.6287 218.104 84.5102 219.114C84.553 219.058 84.5997 219.005 84.6498 218.955C83.5011 217.486 74.6641 216.726 66.1887 216.726Z" fill="url(#paint42_linear_154_2254)"/>
<path d="M51.9811 214.548V218.692C51.9811 220.031 60.3464 221.117 70.6649 221.117C80.9834 221.117 89.3487 220.031 89.3487 218.692V214.548H51.9811Z" fill="url(#paint43_linear_154_2254)"/>
<path d="M70.6649 216.973C80.9837 216.973 89.3487 215.887 89.3487 214.548C89.3487 213.209 80.9837 212.123 70.6649 212.123C60.3461 212.123 51.9811 213.209 51.9811 214.548C51.9811 215.887 60.3461 216.973 70.6649 216.973Z" fill="url(#paint44_linear_154_2254)"/>
<path d="M70.6649 217.139C61.5261 217.139 51.9706 216.267 51.9706 214.583C51.9706 214.491 52.003 214.328 52.0959 214.328C52.1887 214.328 52.1487 214.456 52.1487 214.548C52.1487 215.616 59.7532 216.805 70.6649 216.805C81.5767 216.805 89.1812 215.616 89.1812 214.548C89.1812 214.456 89.197 214.369 89.2891 214.369C89.3812 214.369 89.3593 214.492 89.3593 214.585C89.3586 216.268 79.8031 217.139 70.6649 217.139Z" fill="url(#paint45_linear_154_2254)"/>
<path d="M68.8996 214.683C69.0823 214.556 69.278 214.43 69.4868 214.306C69.74 214.162 70.0093 214.05 70.2891 213.97C70.6923 213.856 71.1043 213.775 71.5208 213.727C72.1331 213.657 72.749 213.624 73.3653 213.628C74.0873 213.624 74.7653 213.647 75.3993 213.696C75.9607 213.736 76.5193 213.81 77.0717 213.918C77.4761 213.992 77.8701 214.114 78.2453 214.282C78.5472 214.427 78.7261 214.593 78.7819 214.779L80.8861 214.801C81.0213 214.8 81.1562 214.812 81.2891 214.838C81.4068 214.862 81.4634 214.892 81.4634 214.929V215.103L78.7593 215.076C78.6642 215.288 78.4224 215.482 78.034 215.658C77.5573 215.863 77.0602 216.016 76.551 216.116L75.5698 215.979C75.4959 215.969 75.4231 215.952 75.3525 215.927C75.2959 215.907 75.2679 215.884 75.2679 215.859C75.2679 215.835 75.3434 215.789 75.4944 215.746C75.6453 215.702 75.8181 215.65 76.0098 215.587C76.2022 215.522 76.3907 215.447 76.5744 215.361C76.7275 215.3 76.8574 215.193 76.9449 215.053L70.5608 214.99C70.3796 215.122 70.1914 215.243 69.997 215.354C69.7345 215.495 69.4556 215.602 69.1668 215.675C68.7455 215.785 68.3167 215.862 67.8838 215.907C67.2404 215.973 66.594 216.005 65.9472 216.002C65.3615 216.002 64.7925 215.982 64.2347 215.936C63.7351 215.897 63.2385 215.826 62.7479 215.724C62.3798 215.651 62.0218 215.533 61.6815 215.375C61.4053 215.236 61.2498 215.077 61.2174 214.896L59.4861 214.879C59.3486 214.879 59.2115 214.867 59.0763 214.843C58.957 214.819 58.8966 214.789 58.8959 214.751V214.577L61.2642 214.6C61.3691 214.417 61.5834 214.258 61.911 214.123C62.3009 213.969 62.7031 213.848 63.1132 213.761L63.9064 213.87C64.1472 213.904 64.2664 213.946 64.2664 213.989C64.2664 214.013 64.2181 214.044 64.1155 214.081C64.0129 214.117 63.8966 214.161 63.76 214.211C63.6247 214.261 63.4928 214.321 63.3653 214.389C63.2533 214.443 63.1549 214.522 63.077 214.619L68.8996 214.683ZM63.0574 214.919C63.1242 215.051 63.2357 215.155 63.3721 215.213C63.5638 215.306 63.7667 215.374 63.9759 215.416C64.2431 215.473 64.5139 215.512 64.7864 215.533C65.0883 215.557 65.4035 215.569 65.7321 215.567C66.0671 215.568 66.4018 215.552 66.7351 215.518C66.9879 215.492 67.2388 215.45 67.4861 215.391C67.6792 215.345 67.8681 215.282 68.0506 215.204C68.2001 215.139 68.3445 215.062 68.4823 214.974L63.0574 214.919ZM76.954 214.768C76.9064 214.653 76.791 214.552 76.6106 214.466C76.3894 214.366 76.157 214.293 75.9185 214.248C75.5947 214.183 75.267 214.139 74.9374 214.116C74.5656 214.087 74.1545 214.074 73.7042 214.076C73.3593 214.075 73.0147 214.093 72.6717 214.13C72.4198 214.157 72.1701 214.201 71.9246 214.264C71.7381 214.311 71.5572 214.378 71.3849 214.463C71.2422 214.536 71.104 214.617 70.9713 214.707L76.954 214.768Z" fill="#FCB048"/>
<path d="M70.6672 212.385C62.3366 212.385 53.6626 213.119 52.2747 214.538C52.3285 214.587 52.3789 214.641 52.4257 214.697C53.5955 213.716 60.7577 212.72 70.6664 212.72C80.8294 212.72 88.1072 213.764 88.9887 214.773C89.0319 214.718 89.0786 214.665 89.1283 214.615C87.9826 213.146 79.1457 212.385 70.6672 212.385Z" fill="url(#paint46_linear_154_2254)"/>
<path d="M49.6498 210.196V214.34C49.6498 215.679 58.0151 216.764 68.3336 216.764C78.652 216.764 87.0188 215.679 87.0188 214.34V210.196H49.6498Z" fill="url(#paint47_linear_154_2254)"/>
<path d="M68.3336 212.62C78.6523 212.62 87.0173 211.535 87.0173 210.195C87.0173 208.856 78.6523 207.771 68.3336 207.771C58.0148 207.771 49.6498 208.856 49.6498 210.195C49.6498 211.535 58.0148 212.62 68.3336 212.62Z" fill="url(#paint48_linear_154_2254)"/>
<path d="M68.3336 212.787C59.1954 212.787 49.6392 211.914 49.6392 210.231C49.6392 210.138 49.6724 209.976 49.7645 209.976C49.8566 209.976 49.8173 210.103 49.8173 210.196C49.8173 211.263 57.4219 212.453 68.3336 212.453C79.2453 212.453 86.8498 211.263 86.8498 210.196C86.8498 210.103 86.8656 210.016 86.9585 210.016C87.0513 210.016 87.0287 210.14 87.0287 210.232C87.0287 211.916 77.4724 212.787 68.3336 212.787Z" fill="url(#paint49_linear_154_2254)"/>
<path d="M66.566 210.33C66.7494 210.204 66.9434 210.078 67.1532 209.953C67.4066 209.811 67.6759 209.698 67.9555 209.619C68.3586 209.504 68.7706 209.422 69.1872 209.375C69.7998 209.306 70.4159 209.272 71.0324 209.275C71.7539 209.271 72.4317 209.294 73.0656 209.344C73.6272 209.384 74.1857 209.458 74.7381 209.566C75.1424 209.64 75.5363 209.762 75.9117 209.93C76.2136 210.075 76.3924 210.24 76.4483 210.427L78.5524 210.448C78.6877 210.448 78.8227 210.46 78.9555 210.486C79.0732 210.51 79.1298 210.54 79.1306 210.576V210.75L76.4256 210.724C76.3316 210.936 76.0898 211.131 75.7004 211.306C75.2235 211.51 74.7264 211.664 74.2173 211.764L73.2362 211.627C73.1622 211.617 73.0894 211.599 73.0189 211.575C72.9622 211.555 72.9343 211.532 72.9343 211.508C72.9343 211.484 73.0098 211.436 73.1607 211.394C73.3117 211.351 73.4853 211.298 73.6762 211.235C73.8687 211.17 74.0573 211.095 74.2407 211.008C74.3941 210.948 74.524 210.841 74.6113 210.701L68.2264 210.641C68.0453 210.773 67.8571 210.894 67.6626 211.005C67.4 211.146 67.1212 211.254 66.8324 211.327C66.4113 211.437 65.9824 211.514 65.5494 211.559C64.906 211.625 64.2596 211.656 63.6128 211.653C63.0279 211.653 62.4581 211.635 61.9004 211.587C61.4008 211.548 60.9041 211.478 60.4136 211.376C60.0455 211.303 59.6876 211.186 59.3479 211.026C59.0709 210.887 58.9155 210.724 58.8838 210.549L57.1479 210.53C57.0107 210.531 56.8738 210.519 56.7388 210.494C56.6188 210.472 56.5585 210.441 56.5585 210.402V210.229L58.9268 210.252C59.0317 210.069 59.246 209.91 59.5743 209.775C59.9637 209.62 60.3657 209.499 60.7758 209.413L61.569 209.522C61.8098 209.556 61.929 209.598 61.9298 209.641C61.9298 209.666 61.8807 209.696 61.7788 209.732L61.4234 209.863C61.2883 209.913 61.1567 209.973 61.0294 210.041C60.9171 210.095 60.8183 210.174 60.7404 210.272L66.566 210.33ZM60.726 210.566C60.7932 210.698 60.9046 210.802 61.0407 210.859C61.2327 210.952 61.4355 211.02 61.6445 211.062C61.9118 211.119 62.1826 211.158 62.4551 211.179C62.757 211.203 63.0722 211.215 63.4007 211.214C63.7359 211.214 64.071 211.198 64.4045 211.164C64.6573 211.138 64.9081 211.096 65.1555 211.038C65.3485 210.991 65.5374 210.928 65.72 210.85C65.8696 210.785 66.0137 210.708 66.1509 210.62L60.726 210.566ZM74.6234 210.415C74.5758 210.3 74.4596 210.199 74.2792 210.113C74.0578 210.014 73.8255 209.941 73.5872 209.895C73.2633 209.83 72.9356 209.786 72.606 209.763C72.2342 209.734 71.8234 209.721 71.3736 209.724C71.0284 209.722 70.6835 209.74 70.3404 209.777C70.0858 209.804 69.8335 209.849 69.5856 209.913C69.3996 209.961 69.219 210.027 69.0468 210.112C68.9041 210.185 68.766 210.266 68.6332 210.356L74.6234 210.415Z" fill="#FCB048"/>
<path d="M68.3366 208.033C60.0053 208.033 51.3313 208.766 49.9442 210.185C49.9977 210.235 50.0481 210.289 50.0951 210.345C51.2642 209.359 58.4264 208.368 68.3359 208.368C78.4989 208.368 85.7759 209.411 86.6574 210.421C86.7004 210.365 86.7471 210.312 86.797 210.263C85.6521 208.793 76.8151 208.033 68.3366 208.033Z" fill="url(#paint50_linear_154_2254)"/>
<path d="M92.3321 213.117L88.9547 215.519C87.8634 216.295 91.8279 223.741 97.8091 232.149C103.79 240.557 109.523 246.745 110.614 245.968L113.991 243.567L92.3321 213.117Z" fill="url(#paint51_linear_154_2254)"/>
<path d="M113.991 243.567C112.9 244.343 107.167 238.155 101.186 229.747C95.2045 221.339 91.2408 213.893 92.3321 213.117C93.4234 212.341 99.1562 218.527 105.137 226.937C111.118 235.346 115.082 242.792 113.991 243.567Z" fill="url(#paint52_linear_154_2254)"/>
<path d="M101.049 229.844C95.7525 222.397 90.9245 214.104 92.2944 213.128C92.3698 213.075 92.5208 213.008 92.5751 213.083C92.6294 213.159 92.4996 213.199 92.4242 213.253C91.554 213.872 94.9902 220.758 101.318 229.65C107.645 238.542 113.016 244.049 113.89 243.43C113.965 243.377 114.045 243.34 114.098 243.414C114.152 243.489 114.038 243.544 113.963 243.597C112.595 244.573 106.346 237.291 101.049 229.844Z" fill="url(#paint53_linear_154_2254)"/>
<path d="M102.028 226.981C102.238 227.056 102.453 227.143 102.675 227.242C102.938 227.366 103.185 227.52 103.412 227.702C103.739 227.964 104.045 228.252 104.325 228.564C104.737 229.023 105.121 229.506 105.476 230.01C105.897 230.596 106.271 231.161 106.598 231.707C106.891 232.187 107.154 232.685 107.386 233.198C107.561 233.571 107.69 233.963 107.771 234.366C107.826 234.694 107.795 234.936 107.676 235.091L108.878 236.818C108.957 236.928 109.025 237.045 109.082 237.168C109.13 237.278 109.138 237.342 109.109 237.363L108.968 237.465L107.421 235.245C107.195 235.291 106.893 235.206 106.527 234.992C106.084 234.722 105.671 234.406 105.294 234.049L104.835 233.166C104.8 233.1 104.772 233.031 104.751 232.96C104.735 232.902 104.737 232.866 104.757 232.852C104.777 232.837 104.86 232.872 104.983 232.972C105.107 233.071 105.249 233.18 105.411 233.3C105.575 233.42 105.745 233.53 105.921 233.631C106.058 233.721 106.222 233.764 106.386 233.754L102.737 228.515C102.525 228.444 102.317 228.361 102.114 228.267C101.848 228.135 101.599 227.971 101.372 227.779C101.038 227.499 100.726 227.194 100.438 226.868C100.011 226.381 99.6105 225.873 99.2378 225.345C98.8956 224.869 98.5827 224.391 98.2989 223.911C98.0412 223.481 97.8112 223.036 97.6106 222.577C97.4563 222.235 97.3442 221.875 97.277 221.506C97.2292 221.2 97.2692 220.981 97.397 220.85L96.4076 219.429C96.3278 219.317 96.2583 219.199 96.2 219.074C96.1494 218.963 96.1396 218.896 96.1706 218.874L96.311 218.772L97.6694 220.716C97.8783 220.695 98.1328 220.778 98.4332 220.966C98.7848 221.194 99.1163 221.452 99.4242 221.736L99.7955 222.446C99.9072 222.662 99.9464 222.782 99.9072 222.809C99.8876 222.823 99.8317 222.8 99.7472 222.741C99.6627 222.681 99.5547 222.609 99.4347 222.526C99.3142 222.445 99.1881 222.372 99.0574 222.308C98.9479 222.249 98.8265 222.214 98.7019 222.207L102.028 226.981ZM98.4491 222.357C98.3805 222.488 98.3604 222.639 98.3925 222.784C98.4274 222.994 98.489 223.198 98.5759 223.392C98.6857 223.643 98.8117 223.886 98.9532 224.12C99.1082 224.38 99.2815 224.643 99.4732 224.911C99.6668 225.184 99.8744 225.448 100.095 225.7C100.263 225.891 100.443 226.071 100.634 226.238C100.783 226.369 100.944 226.486 101.113 226.59C101.253 226.674 101.4 226.747 101.551 226.808L98.4491 222.357ZM106.631 233.592C106.697 233.486 106.712 233.333 106.678 233.139C106.63 232.901 106.554 232.669 106.451 232.449C106.317 232.147 106.162 231.855 105.989 231.573C105.798 231.253 105.571 230.911 105.31 230.545C105.111 230.264 104.896 229.993 104.667 229.735C104.498 229.544 104.316 229.366 104.122 229.202C103.975 229.077 103.816 228.969 103.646 228.878C103.504 228.804 103.358 228.738 103.208 228.682L106.631 233.592Z" fill="#FCB048"/>
<path d="M104.925 227.094C100.094 220.306 94.4709 213.66 92.5102 213.354C92.501 213.427 92.4869 213.499 92.4679 213.571C93.9487 213.953 98.9087 219.214 104.652 227.288C110.543 235.57 113.911 242.105 113.599 243.408C113.67 243.412 113.74 243.419 113.809 243.43C114.34 241.642 109.839 233.999 104.925 227.094Z" fill="url(#paint54_linear_154_2254)"/>
<path d="M201.585 235.265L199.894 235.398C199.456 235.433 199.016 235.415 198.582 235.343L191.876 234.251L191.767 234.233L183.974 232.962H183.926L177.82 231.973V197.613H183.962H183.974L191.767 198L191.882 198.058L201.307 198.421L201.585 235.265Z" fill="url(#paint55_linear_154_2254)"/>
<path d="M225.296 199.8V231.868C225.298 232.417 225.09 232.947 224.714 233.347C224.338 233.748 223.823 233.988 223.275 234.02L200.91 235.351C200.005 235.404 199.233 234.653 199.233 233.721V200.312C199.233 199.378 199.965 198.604 200.873 198.576L223.399 197.949C223.646 197.941 223.893 197.983 224.123 198.073C224.354 198.163 224.564 198.298 224.741 198.471C224.918 198.644 225.059 198.851 225.154 199.079C225.249 199.307 225.297 199.553 225.296 199.8Z" fill="url(#paint56_linear_154_2254)"/>
<path d="M177.866 197.613L199.233 198.625L223.399 197.952L198.623 197.144L177.866 197.613Z" fill="url(#paint57_linear_154_2254)"/>
<path style="mix-blend-mode:multiply" opacity="0.3" d="M223.368 197.952L205.726 198.443C205.236 198.463 204.772 198.671 204.432 199.026C204.092 199.38 203.903 199.852 203.904 200.343C203.904 202.055 204.191 203.823 204.944 205.529C207.456 211.218 213.069 211.428 214.238 216.649C215.211 220.999 211.765 222.871 211.4 228.43C211.302 230.016 211.46 231.609 211.866 233.145C211.976 233.573 212.23 233.949 212.586 234.211C212.941 234.472 213.377 234.602 213.817 234.579L223.53 234.002C224.009 233.974 224.459 233.764 224.788 233.414C225.116 233.064 225.298 232.601 225.296 232.121V199.831C225.297 199.58 225.248 199.331 225.151 199.099C225.054 198.867 224.911 198.657 224.731 198.482C224.551 198.307 224.337 198.169 224.103 198.078C223.869 197.987 223.619 197.944 223.368 197.952Z" fill="url(#paint58_linear_154_2254)"/>
<path d="M207.072 234.984L215.365 234.49V198.175L207.072 198.406V234.984Z" fill="url(#paint59_linear_154_2254)"/>
<path d="M207.446 234.961L215.365 234.49V198.175L207.446 198.396V234.961Z" fill="url(#paint60_linear_154_2254)"/>
<path d="M191.654 198.106V234.25L184.058 232.961V197.902L186.478 197.855L191.654 198.106Z" fill="url(#paint61_linear_154_2254)"/>
<path d="M192.433 197.284L215.549 198.599H207.238L187.029 197.406L192.433 197.284Z" fill="url(#paint62_linear_154_2254)"/>
<path d="M203.681 196.174C204.219 192.877 204.613 190.467 206.766 188.241C207.672 187.303 208.666 186.279 210.291 186.007C212.162 185.694 214.548 186.432 215.202 187.958C215.823 189.408 214.36 190.354 214.982 192.019C215.604 193.685 217.426 193.657 217.623 195.01C217.793 196.155 216.675 197.454 215.546 198.063C213.597 199.115 212.491 197.635 208.684 197.874C206.06 198.039 204.546 198.869 203.836 198.031C203.5 197.633 203.534 197.079 203.681 196.174Z" fill="url(#paint63_linear_154_2254)"/>
<g style="mix-blend-mode:multiply" opacity="0.3">
<path style="mix-blend-mode:multiply" opacity="0.3" d="M214.1 194.884C211.75 193.985 210.546 192.029 209.504 192.491C208.58 192.902 209.144 194.619 208.057 196.017C207.063 197.293 205.242 197.597 203.624 197.598C203.66 197.757 203.734 197.906 203.838 198.032C204.549 198.869 206.063 198.039 208.686 197.874C212.493 197.635 213.599 199.115 215.549 198.063C216.584 197.505 217.608 196.365 217.639 195.296C216.541 195.414 215.321 195.35 214.1 194.884Z" fill="url(#paint64_linear_154_2254)"/>
</g>
<path d="M189.484 188.022C191.069 186.773 192.729 188.165 194.678 186.794C196.65 185.404 196.077 183.176 197.605 182.544C199.382 181.81 202.013 184.05 203.272 185.472C206.47 189.082 207.971 195.493 205.444 197.749C204.495 198.595 201.809 198.246 196.475 197.514C190.378 196.677 189.501 196.08 188.918 195.293C187.345 193.179 187.698 189.434 189.484 188.022Z" fill="url(#paint65_linear_154_2254)"/>
<g style="mix-blend-mode:multiply" opacity="0.3">
<path style="mix-blend-mode:multiply" opacity="0.3" d="M199.494 190.729C198.616 190.451 198.211 191.457 196.409 191.861C196.078 191.937 192.893 192.601 191.184 190.602C190.505 189.809 190.187 188.743 190.224 187.611C189.956 187.705 189.706 187.844 189.484 188.021C187.694 189.433 187.345 193.178 188.918 195.292C189.501 196.077 190.378 196.676 196.475 197.513C201.809 198.245 204.495 198.594 205.444 197.748C205.571 197.632 205.688 197.506 205.793 197.371C204.51 197.328 203.171 197.019 202.201 196.077C200.331 194.264 200.988 191.2 199.494 190.729Z" fill="url(#paint66_linear_154_2254)"/>
</g>
<path d="M199.873 197.965L191.765 198.272L183.961 197.902L186.485 197.855L197.532 197.659L199.873 197.965Z" fill="url(#paint67_linear_154_2254)"/>
<defs>
<linearGradient id="paint0_linear_154_2254" x1="175.214" y1="68.9561" x2="214.519" y2="194.017" gradientUnits="userSpaceOnUse">
<stop stop-color="#FF9085"/>
<stop offset="1" stop-color="#FB6FBB"/>
</linearGradient>
<linearGradient id="paint1_linear_154_2254" x1="246.24" y1="86.7479" x2="298.001" y2="-7.0181" gradientUnits="userSpaceOnUse">
<stop stop-color="#E38DDD"/>
<stop offset="1" stop-color="#9571F6"/>
</linearGradient>
<linearGradient id="paint2_linear_154_2254" x1="243.919" y1="147.593" x2="156.512" y2="230.136" gradientUnits="userSpaceOnUse">
<stop stop-color="#AA80F9"/>
<stop offset="1" stop-color="#6165D7"/>
</linearGradient>
<linearGradient id="paint3_linear_154_2254" x1="378855" y1="1.35532e+06" x2="556051" y2="1.5926e+06" gradientUnits="userSpaceOnUse">
<stop stop-color="#E38DDD"/>
<stop offset="1" stop-color="#9571F6"/>
</linearGradient>
<linearGradient id="paint4_linear_154_2254" x1="-153297" y1="82133.6" x2="-78941.8" y2="154529" gradientUnits="userSpaceOnUse">
<stop stop-color="#FF9085"/>
<stop offset="1" stop-color="#FB6FBB"/>
</linearGradient>
<linearGradient id="paint5_linear_154_2254" x1="66.2551" y1="73.3645" x2="121.713" y2="70.9532" gradientUnits="userSpaceOnUse">
<stop stop-color="#AB316D"/>
<stop offset="1" stop-color="#792D3D"/>
</linearGradient>
<linearGradient id="paint6_linear_154_2254" x1="60.4581" y1="163.677" x2="112.327" y2="163.677" gradientUnits="userSpaceOnUse">
<stop stop-color="#FFC444"/>
<stop offset="1" stop-color="#F36F56"/>
</linearGradient>
<linearGradient id="paint7_linear_154_2254" x1="37431.7" y1="307157" x2="56429" y2="307157" gradientUnits="userSpaceOnUse">
<stop stop-color="#FFC444"/>
<stop offset="1" stop-color="#F36F56"/>
</linearGradient>
<linearGradient id="paint8_linear_154_2254" x1="274975" y1="290705" x2="439878" y2="585677" gradientUnits="userSpaceOnUse">
<stop stop-color="#FFC444"/>
<stop offset="1" stop-color="#F36F56"/>
</linearGradient>
<linearGradient id="paint9_linear_154_2254" x1="240407" y1="258633" x2="378897" y2="568866" gradientUnits="userSpaceOnUse">
<stop stop-color="#FFC444"/>
<stop offset="1" stop-color="#F36F56"/>
</linearGradient>
<linearGradient id="paint10_linear_154_2254" x1="125347" y1="19541.1" x2="104605" y2="193174" gradientUnits="userSpaceOnUse">
<stop stop-color="#AB316D"/>
<stop offset="1" stop-color="#792D3D"/>
</linearGradient>
<linearGradient id="paint11_linear_154_2254" x1="19189.1" y1="1979.78" x2="10127.3" y2="18030.2" gradientUnits="userSpaceOnUse">
<stop stop-color="#AB316D"/>
<stop offset="1" stop-color="#792D3D"/>
</linearGradient>
<linearGradient id="paint12_linear_154_2254" x1="24360.4" y1="5085.98" x2="15298.6" y2="21136.3" gradientUnits="userSpaceOnUse">
<stop stop-color="#AB316D"/>
<stop offset="1" stop-color="#792D3D"/>
</linearGradient>
<linearGradient id="paint13_linear_154_2254" x1="50256.4" y1="191960" x2="71116.6" y2="196615" gradientUnits="userSpaceOnUse">
<stop stop-color="#AA80F9"/>
<stop offset="1" stop-color="#6165D7"/>
</linearGradient>
<linearGradient id="paint14_linear_154_2254" x1="130759" y1="191865" x2="187989" y2="287050" gradientUnits="userSpaceOnUse">
<stop stop-color="#AA80F9"/>
<stop offset="1" stop-color="#6165D7"/>
</linearGradient>
<linearGradient id="paint15_linear_154_2254" x1="80.1162" y1="219.859" x2="166.429" y2="247.116" gradientUnits="userSpaceOnUse">
<stop stop-color="#444B8C"/>
<stop offset="1" stop-color="#26264F"/>
</linearGradient>
<linearGradient id="paint16_linear_154_2254" x1="36760.6" y1="103297" x2="61962.6" y2="103801" gradientUnits="userSpaceOnUse">
<stop stop-color="#FF9085"/>
<stop offset="1" stop-color="#FB6FBB"/>
</linearGradient>
<linearGradient id="paint17_linear_154_2254" x1="122173" y1="143819" x2="174561" y2="233597" gradientUnits="userSpaceOnUse">
<stop stop-color="#AA80F9"/>
<stop offset="1" stop-color="#6165D7"/>
</linearGradient>
<linearGradient id="paint18_linear_154_2254" x1="65073" y1="110477" x2="89508.5" y2="110477" gradientUnits="userSpaceOnUse">
<stop stop-color="#AA80F9"/>
<stop offset="1" stop-color="#6165D7"/>
</linearGradient>
<linearGradient id="paint19_linear_154_2254" x1="49.4989" y1="244.268" x2="92.4876" y2="244.268" gradientUnits="userSpaceOnUse">
<stop stop-color="#FCB148"/>
<stop offset="0.05" stop-color="#FDBA46"/>
<stop offset="0.14" stop-color="#FFC244"/>
<stop offset="0.32" stop-color="#FFC444"/>
<stop offset="0.48" stop-color="#FDB946"/>
<stop offset="0.78" stop-color="#F99C4D"/>
<stop offset="0.87" stop-color="#F8924F"/>
<stop offset="1" stop-color="#F8924F"/>
</linearGradient>
<linearGradient id="paint20_linear_154_2254" x1="71.191" y1="239.425" x2="73.4574" y2="258.398" gradientUnits="userSpaceOnUse">
<stop stop-color="#FFDB44"/>
<stop offset="1" stop-color="#FEEF06"/>
</linearGradient>
<linearGradient id="paint21_linear_154_2254" x1="35274.5" y1="9127.74" x2="35276.5" y2="9347.89" gradientUnits="userSpaceOnUse">
<stop stop-color="#FFDB44"/>
<stop offset="1" stop-color="#FEEF06"/>
</linearGradient>
<linearGradient id="paint22_linear_154_2254" x1="71.7472" y1="243.795" x2="71.0536" y2="237.989" gradientUnits="userSpaceOnUse">
<stop stop-color="#F36F56"/>
<stop offset="0.31" stop-color="#F99C4C"/>
<stop offset="0.55" stop-color="#FDB946"/>
<stop offset="0.68" stop-color="#FFC444"/>
<stop offset="0.8" stop-color="#FFC244"/>
<stop offset="0.87" stop-color="#FEBA46"/>
<stop offset="0.92" stop-color="#FCAD49"/>
<stop offset="0.96" stop-color="#F99A4D"/>
<stop offset="1" stop-color="#F57E53"/>
</linearGradient>
<linearGradient id="paint23_linear_154_2254" x1="21983.3" y1="21118.8" x2="43267.4" y2="21118.8" gradientUnits="userSpaceOnUse">
<stop stop-color="#FCB148"/>
<stop offset="0.05" stop-color="#FDBA46"/>
<stop offset="0.14" stop-color="#FFC244"/>
<stop offset="0.32" stop-color="#FFC444"/>
<stop offset="0.48" stop-color="#FDB946"/>
<stop offset="0.78" stop-color="#F99C4D"/>
<stop offset="0.87" stop-color="#F8924F"/>
<stop offset="1" stop-color="#F8924F"/>
</linearGradient>
<linearGradient id="paint24_linear_154_2254" x1="32723.3" y1="15337.6" x2="32742.4" y2="16573.7" gradientUnits="userSpaceOnUse">
<stop stop-color="#FFDB44"/>
<stop offset="1" stop-color="#FEEF06"/>
</linearGradient>
<linearGradient id="paint25_linear_154_2254" x1="32696.1" y1="8961.22" x2="32698.1" y2="9181.33" gradientUnits="userSpaceOnUse">
<stop stop-color="#FFDB44"/>
<stop offset="1" stop-color="#FEEF06"/>
</linearGradient>
<linearGradient id="paint26_linear_154_2254" x1="29067" y1="2515.5" x2="29068.5" y2="2701.81" gradientUnits="userSpaceOnUse">
<stop stop-color="#F36F56"/>
<stop offset="0.31" stop-color="#F99C4C"/>
<stop offset="0.55" stop-color="#FDB946"/>
<stop offset="0.68" stop-color="#FFC444"/>
<stop offset="0.8" stop-color="#FFC244"/>
<stop offset="0.87" stop-color="#FEBA46"/>
<stop offset="0.92" stop-color="#FCAD49"/>
<stop offset="0.96" stop-color="#F99A4D"/>
<stop offset="1" stop-color="#F57E53"/>
</linearGradient>
<linearGradient id="paint27_linear_154_2254" x1="24207.1" y1="20734.2" x2="45492" y2="20734.2" gradientUnits="userSpaceOnUse">
<stop stop-color="#FCB148"/>
<stop offset="0.05" stop-color="#FDBA46"/>
<stop offset="0.14" stop-color="#FFC244"/>
<stop offset="0.32" stop-color="#FFC444"/>
<stop offset="0.48" stop-color="#FDB946"/>
<stop offset="0.78" stop-color="#F99C4D"/>
<stop offset="0.87" stop-color="#F8924F"/>
<stop offset="1" stop-color="#F8924F"/>
</linearGradient>
<linearGradient id="paint28_linear_154_2254" x1="34947.3" y1="15054.4" x2="34966.4" y2="16290.5" gradientUnits="userSpaceOnUse">
<stop stop-color="#FFDB44"/>
<stop offset="1" stop-color="#FEEF06"/>
</linearGradient>
<linearGradient id="paint29_linear_154_2254" x1="34920.6" y1="8795.34" x2="34922.6" y2="9015.45" gradientUnits="userSpaceOnUse">
<stop stop-color="#FFDB44"/>
<stop offset="1" stop-color="#FEEF06"/>
</linearGradient>
<linearGradient id="paint30_linear_154_2254" x1="26883.2" y1="2648.47" x2="26884.6" y2="2834.79" gradientUnits="userSpaceOnUse">
<stop stop-color="#F36F56"/>
<stop offset="0.31" stop-color="#F99C4C"/>
<stop offset="0.55" stop-color="#FDB946"/>
<stop offset="0.68" stop-color="#FFC444"/>
<stop offset="0.8" stop-color="#FFC244"/>
<stop offset="0.87" stop-color="#FEBA46"/>
<stop offset="0.92" stop-color="#FCAD49"/>
<stop offset="0.96" stop-color="#F99A4D"/>
<stop offset="1" stop-color="#F57E53"/>
</linearGradient>
<linearGradient id="paint31_linear_154_2254" x1="25556" y1="20353.5" x2="46840.2" y2="20353.5" gradientUnits="userSpaceOnUse">
<stop stop-color="#FCB148"/>
<stop offset="0.05" stop-color="#FDBA46"/>
<stop offset="0.14" stop-color="#FFC244"/>
<stop offset="0.32" stop-color="#FFC444"/>
<stop offset="0.48" stop-color="#FDB946"/>
<stop offset="0.78" stop-color="#F99C4D"/>
<stop offset="0.87" stop-color="#F8924F"/>
<stop offset="1" stop-color="#F8924F"/>
</linearGradient>
<linearGradient id="paint32_linear_154_2254" x1="36296.7" y1="14772.7" x2="36315.9" y2="16008.9" gradientUnits="userSpaceOnUse">
<stop stop-color="#FFDB44"/>
<stop offset="1" stop-color="#FEEF06"/>
</linearGradient>
<linearGradient id="paint33_linear_154_2254" x1="36271.3" y1="8628.83" x2="36273.3" y2="8848.97" gradientUnits="userSpaceOnUse">
<stop stop-color="#FFDB44"/>
<stop offset="1" stop-color="#FEEF06"/>
</linearGradient>
<linearGradient id="paint34_linear_154_2254" x1="25557.5" y1="2781.83" x2="25559" y2="2968.15" gradientUnits="userSpaceOnUse">
<stop stop-color="#F36F56"/>
<stop offset="0.31" stop-color="#F99C4C"/>
<stop offset="0.55" stop-color="#FDB946"/>
<stop offset="0.68" stop-color="#FFC444"/>
<stop offset="0.8" stop-color="#FFC244"/>
<stop offset="0.87" stop-color="#FEBA46"/>
<stop offset="0.92" stop-color="#FCAD49"/>
<stop offset="0.96" stop-color="#F99A4D"/>
<stop offset="1" stop-color="#F57E53"/>
</linearGradient>
<linearGradient id="paint35_linear_154_2254" x1="24560.1" y1="19937.7" x2="45844.2" y2="19937.7" gradientUnits="userSpaceOnUse">
<stop stop-color="#FCB148"/>
<stop offset="0.05" stop-color="#FDBA46"/>
<stop offset="0.14" stop-color="#FFC244"/>
<stop offset="0.32" stop-color="#FFC444"/>
<stop offset="0.48" stop-color="#FDB946"/>
<stop offset="0.78" stop-color="#F99C4D"/>
<stop offset="0.87" stop-color="#F8924F"/>
<stop offset="1" stop-color="#F8924F"/>
</linearGradient>
<linearGradient id="paint36_linear_154_2254" x1="35300" y1="14464" x2="35319.2" y2="15700" gradientUnits="userSpaceOnUse">
<stop stop-color="#FFDB44"/>
<stop offset="1" stop-color="#FEEF06"/>
</linearGradient>
<linearGradient id="paint37_linear_154_2254" x1="35274.5" y1="8449.17" x2="35276.5" y2="8669.28" gradientUnits="userSpaceOnUse">
<stop stop-color="#FFDB44"/>
<stop offset="1" stop-color="#FEEF06"/>
</linearGradient>
<linearGradient id="paint38_linear_154_2254" x1="26536" y1="2924.86" x2="26537.4" y2="3111.11" gradientUnits="userSpaceOnUse">
<stop stop-color="#F36F56"/>
<stop offset="0.31" stop-color="#F99C4C"/>
<stop offset="0.55" stop-color="#FDB946"/>
<stop offset="0.68" stop-color="#FFC444"/>
<stop offset="0.8" stop-color="#FFC244"/>
<stop offset="0.87" stop-color="#FEBA46"/>
<stop offset="0.92" stop-color="#FCAD49"/>
<stop offset="0.96" stop-color="#F99A4D"/>
<stop offset="1" stop-color="#F57E53"/>
</linearGradient>
<linearGradient id="paint39_linear_154_2254" x1="21983.3" y1="19554.6" x2="43267.4" y2="19554.6" gradientUnits="userSpaceOnUse">
<stop stop-color="#FCB148"/>
<stop offset="0.05" stop-color="#FDBA46"/>
<stop offset="0.14" stop-color="#FFC244"/>
<stop offset="0.32" stop-color="#FFC444"/>
<stop offset="0.48" stop-color="#FDB946"/>
<stop offset="0.78" stop-color="#F99C4D"/>
<stop offset="0.87" stop-color="#F8924F"/>
<stop offset="1" stop-color="#F8924F"/>
</linearGradient>
<linearGradient id="paint40_linear_154_2254" x1="32723.9" y1="14182.1" x2="32743.1" y2="15418.4" gradientUnits="userSpaceOnUse">
<stop stop-color="#FFDB44"/>
<stop offset="1" stop-color="#FEEF06"/>
</linearGradient>
<linearGradient id="paint41_linear_154_2254" x1="32696.1" y1="8282.66" x2="32698.1" y2="8502.8" gradientUnits="userSpaceOnUse">
<stop stop-color="#FFDB44"/>
<stop offset="1" stop-color="#FEEF06"/>
</linearGradient>
<linearGradient id="paint42_linear_154_2254" x1="29067" y1="3059.12" x2="29068.5" y2="3245.43" gradientUnits="userSpaceOnUse">
<stop stop-color="#F36F56"/>
<stop offset="0.31" stop-color="#F99C4C"/>
<stop offset="0.55" stop-color="#FDB946"/>
<stop offset="0.68" stop-color="#FFC444"/>
<stop offset="0.8" stop-color="#FFC244"/>
<stop offset="0.87" stop-color="#FEBA46"/>
<stop offset="0.92" stop-color="#FCAD49"/>
<stop offset="0.96" stop-color="#F99A4D"/>
<stop offset="1" stop-color="#F57E53"/>
</linearGradient>
<linearGradient id="paint43_linear_154_2254" x1="24207.1" y1="19174.7" x2="45492" y2="19174.7" gradientUnits="userSpaceOnUse">
<stop stop-color="#FCB148"/>
<stop offset="0.05" stop-color="#FDBA46"/>
<stop offset="0.14" stop-color="#FFC244"/>
<stop offset="0.32" stop-color="#FFC444"/>
<stop offset="0.48" stop-color="#FDB946"/>
<stop offset="0.78" stop-color="#F99C4D"/>
<stop offset="0.87" stop-color="#F8924F"/>
<stop offset="1" stop-color="#F8924F"/>
</linearGradient>
<linearGradient id="paint44_linear_154_2254" x1="34947.3" y1="13898.9" x2="34966.5" y2="15135.2" gradientUnits="userSpaceOnUse">
<stop stop-color="#FFDB44"/>
<stop offset="1" stop-color="#FEEF06"/>
</linearGradient>
<linearGradient id="paint45_linear_154_2254" x1="34920.6" y1="8116.71" x2="34922.6" y2="8336.82" gradientUnits="userSpaceOnUse">
<stop stop-color="#FFDB44"/>
<stop offset="1" stop-color="#FEEF06"/>
</linearGradient>
<linearGradient id="paint46_linear_154_2254" x1="26883.2" y1="3192.08" x2="26884.6" y2="3378.4" gradientUnits="userSpaceOnUse">
<stop stop-color="#F36F56"/>
<stop offset="0.31" stop-color="#F99C4C"/>
<stop offset="0.55" stop-color="#FDB946"/>
<stop offset="0.68" stop-color="#FFC444"/>
<stop offset="0.8" stop-color="#FFC244"/>
<stop offset="0.87" stop-color="#FEBA46"/>
<stop offset="0.92" stop-color="#FCAD49"/>
<stop offset="0.96" stop-color="#F99A4D"/>
<stop offset="1" stop-color="#F57E53"/>
</linearGradient>
<linearGradient id="paint47_linear_154_2254" x1="23051.8" y1="18789.3" x2="44337.2" y2="18789.3" gradientUnits="userSpaceOnUse">
<stop stop-color="#FCB148"/>
<stop offset="0.05" stop-color="#FDBA46"/>
<stop offset="0.14" stop-color="#FFC244"/>
<stop offset="0.32" stop-color="#FFC444"/>
<stop offset="0.48" stop-color="#FDB946"/>
<stop offset="0.78" stop-color="#F99C4D"/>
<stop offset="0.87" stop-color="#F8924F"/>
<stop offset="1" stop-color="#F8924F"/>
</linearGradient>
<linearGradient id="paint48_linear_154_2254" x1="33791" y1="13614.8" x2="33810.2" y2="14851.1" gradientUnits="userSpaceOnUse">
<stop stop-color="#FFDB44"/>
<stop offset="1" stop-color="#FEEF06"/>
</linearGradient>
<linearGradient id="paint49_linear_154_2254" x1="33764" y1="7950.2" x2="33766" y2="8170.31" gradientUnits="userSpaceOnUse">
<stop stop-color="#FFDB44"/>
<stop offset="1" stop-color="#FEEF06"/>
</linearGradient>
<linearGradient id="paint50_linear_154_2254" x1="28018.7" y1="3325.49" x2="28020.1" y2="3511.8" gradientUnits="userSpaceOnUse">
<stop stop-color="#F36F56"/>
<stop offset="0.31" stop-color="#F99C4C"/>
<stop offset="0.55" stop-color="#FDB946"/>
<stop offset="0.68" stop-color="#FFC444"/>
<stop offset="0.8" stop-color="#FFC244"/>
<stop offset="0.87" stop-color="#FEBA46"/>
<stop offset="0.92" stop-color="#FCAD49"/>
<stop offset="0.96" stop-color="#F99A4D"/>
<stop offset="1" stop-color="#F57E53"/>
</linearGradient>
<linearGradient id="paint51_linear_154_2254" x1="-42462.5" y1="88461.9" x2="-34131.6" y2="100097" gradientUnits="userSpaceOnUse">
<stop stop-color="#FCB148"/>
<stop offset="0.05" stop-color="#FDBA46"/>
<stop offset="0.14" stop-color="#FFC244"/>
<stop offset="0.32" stop-color="#FFC444"/>
<stop offset="0.48" stop-color="#FDB946"/>
<stop offset="0.78" stop-color="#F99C4D"/>
<stop offset="0.87" stop-color="#F8924F"/>
<stop offset="1" stop-color="#F8924F"/>
</linearGradient>
<linearGradient id="paint52_linear_154_2254" x1="-35711.6" y1="84054.2" x2="-41127.2" y2="89474.6" gradientUnits="userSpaceOnUse">
<stop stop-color="#FFDB44"/>
<stop offset="1" stop-color="#FEEF06"/>
</linearGradient>
<linearGradient id="paint53_linear_154_2254" x1="-35522.4" y1="83971" x2="-37188.8" y2="85638.7" gradientUnits="userSpaceOnUse">
<stop stop-color="#FFDB44"/>
<stop offset="1" stop-color="#FEEF06"/>
</linearGradient>
<linearGradient id="paint54_linear_154_2254" x1="43115.7" y1="-17705.5" x2="44741.8" y2="-19339.8" gradientUnits="userSpaceOnUse">
<stop stop-color="#F36F56"/>
<stop offset="0.31" stop-color="#F99C4C"/>
<stop offset="0.55" stop-color="#FDB946"/>
<stop offset="0.68" stop-color="#FFC444"/>
<stop offset="0.8" stop-color="#FFC244"/>
<stop offset="0.87" stop-color="#FEBA46"/>
<stop offset="0.92" stop-color="#FCAD49"/>
<stop offset="0.96" stop-color="#F99A4D"/>
<stop offset="1" stop-color="#F57E53"/>
</linearGradient>
<linearGradient id="paint55_linear_154_2254" x1="53395.2" y1="92420.3" x2="62672.4" y2="101235" gradientUnits="userSpaceOnUse">
<stop stop-color="#AA80F9"/>
<stop offset="1" stop-color="#6165D7"/>
</linearGradient>
<linearGradient id="paint56_linear_154_2254" x1="76907.1" y1="99068.7" x2="62972.9" y2="115465" gradientUnits="userSpaceOnUse">
<stop stop-color="#AA80F9"/>
<stop offset="1" stop-color="#6165D7"/>
</linearGradient>
<linearGradient id="paint57_linear_154_2254" x1="123205" y1="3850.35" x2="123203" y2="4145.94" gradientUnits="userSpaceOnUse">
<stop stop-color="#E38DDD"/>
<stop offset="1" stop-color="#9571F6"/>
</linearGradient>
<linearGradient id="paint58_linear_154_2254" x1="63660.6" y1="97541.2" x2="49711.6" y2="111299" gradientUnits="userSpaceOnUse">
<stop stop-color="#E38DDD"/>
<stop offset="1" stop-color="#9571F6"/>
</linearGradient>
<linearGradient id="paint59_linear_154_2254" x1="23069.8" y1="98137.1" x2="35917.1" y2="112717" gradientUnits="userSpaceOnUse">
<stop stop-color="#AB316D"/>
<stop offset="1" stop-color="#792D3D"/>
</linearGradient>
<linearGradient id="paint60_linear_154_2254" x1="22201.4" y1="105825" x2="24125.6" y2="105764" gradientUnits="userSpaceOnUse">
<stop stop-color="#AB316D"/>
<stop offset="1" stop-color="#792D3D"/>
</linearGradient>
<linearGradient id="paint61_linear_154_2254" x1="18930.5" y1="104513" x2="20692.3" y2="104458" gradientUnits="userSpaceOnUse">
<stop stop-color="#AB316D"/>
<stop offset="1" stop-color="#792D3D"/>
</linearGradient>
<linearGradient id="paint62_linear_154_2254" x1="74839.9" y1="3656.1" x2="76143.4" y2="-525.533" gradientUnits="userSpaceOnUse">
<stop stop-color="#AB316D"/>
<stop offset="1" stop-color="#792D3D"/>
</linearGradient>
<linearGradient id="paint63_linear_154_2254" x1="40623.1" y1="31240.9" x2="39075.7" y2="33050.6" gradientUnits="userSpaceOnUse">
<stop stop-color="#AB316D"/>
<stop offset="1" stop-color="#792D3D"/>
</linearGradient>
<linearGradient id="paint64_linear_154_2254" x1="40759" y1="15263.5" x2="40226.4" y2="16552.1" gradientUnits="userSpaceOnUse">
<stop stop-color="#AB316D"/>
<stop offset="1" stop-color="#792D3D"/>
</linearGradient>
<linearGradient id="paint65_linear_154_2254" x1="48650" y1="40335.7" x2="54843" y2="39248.8" gradientUnits="userSpaceOnUse">
<stop stop-color="#AB316D"/>
<stop offset="1" stop-color="#792D3D"/>
</linearGradient>
<linearGradient id="paint66_linear_154_2254" x1="46340.4" y1="27409.2" x2="52057.5" y2="25987.6" gradientUnits="userSpaceOnUse">
<stop stop-color="#AB316D"/>
<stop offset="1" stop-color="#792D3D"/>
</linearGradient>
<linearGradient id="paint67_linear_154_2254" x1="40203.8" y1="1807.42" x2="40496.4" y2="683.972" gradientUnits="userSpaceOnUse">
<stop stop-color="#AB316D"/>
<stop offset="1" stop-color="#792D3D"/>
</linearGradient>
</defs>
</svg>
