<svg width="66" height="66" viewBox="0 0 66 66" fill="none" xmlns="http://www.w3.org/2000/svg">
<circle cx="33" cy="33" r="32.25" stroke="white" stroke-width="1.5"/>
<path d="M45.6114 20.3423C44.8167 19.6117 41.5997 17.2727 34.4288 17.2406C34.4288 17.2406 25.9761 16.7279 21.8556 20.5089C19.5614 22.8031 18.7539 26.1547 18.6706 30.3201C18.5873 34.4791 18.4783 42.2781 25.9954 44.3929H26.0018L25.9954 47.6163C25.9954 47.6163 25.9505 48.9236 26.8092 49.1863C27.8474 49.5068 28.4626 48.5135 29.4559 47.4433C30.0006 46.8537 30.7504 45.995 31.3207 45.3349C36.4602 45.7643 40.4142 44.7774 40.8628 44.63C41.9009 44.2903 47.7774 43.5406 48.7323 35.7416C49.7191 27.7183 48.2516 22.6365 45.6114 20.3423ZM46.4829 35.1776C45.6755 41.6885 40.914 42.0987 40.0361 42.3807C39.6644 42.5024 36.1911 43.3675 31.8206 43.0792C31.8206 43.0792 28.5651 47.0075 27.5526 48.0264C27.3924 48.1866 27.2065 48.2507 27.0848 48.2187C26.9118 48.1738 26.8605 47.9687 26.8669 47.6676C26.8669 47.2318 26.8925 42.3038 26.8925 42.3038C26.8861 42.3038 26.8861 42.3038 26.8925 42.3038C20.529 40.5414 20.9007 33.9024 20.9712 30.429C21.0417 26.9557 21.6953 24.104 23.6371 22.1879C27.1168 19.035 34.3006 19.5028 34.3006 19.5028C40.3629 19.5284 43.2659 21.3548 43.9388 21.9636C46.1753 23.8861 47.316 28.4681 46.4829 35.1776Z" fill="white"/>
<path d="M37.3829 30.5512C37.1714 30.5512 36.992 30.3845 36.9792 30.1667C36.9087 28.7889 36.2614 28.116 34.9413 28.0455C34.717 28.0327 34.544 27.8404 34.5568 27.6161C34.5696 27.3918 34.7619 27.2188 34.9862 27.2316C36.7293 27.3278 37.7033 28.3275 37.793 30.1218C37.8059 30.3461 37.6328 30.5383 37.4085 30.5448C37.3957 30.5512 37.3893 30.5512 37.3829 30.5512Z" fill="white"/>
<path d="M39.4595 31.2437H39.4531C39.2288 31.2373 39.0494 31.0514 39.0558 30.8271C39.0879 29.4429 38.6905 28.3215 37.8446 27.3987C37.0051 26.4759 35.8452 25.976 34.3136 25.8671C34.0893 25.8478 33.9227 25.6556 33.9419 25.4313C33.9612 25.207 34.1534 25.0404 34.3777 25.0596C36.108 25.1878 37.473 25.7902 38.447 26.854C39.4275 27.9242 39.9017 29.2635 39.8697 30.8464C39.8633 31.0707 39.6774 31.2437 39.4595 31.2437Z" fill="white"/>
<path d="M41.587 32.0768C41.3628 32.0768 41.1833 31.8973 41.1833 31.673C41.1641 29.193 40.4528 27.3025 39.0045 25.8863C37.5754 24.4892 35.7618 23.7779 33.6278 23.7587C33.4036 23.7587 33.2241 23.5728 33.2241 23.3486C33.2241 23.1243 33.41 22.9448 33.6278 22.9448C35.9797 22.964 37.9791 23.7523 39.562 25.3031C41.1513 26.8539 41.9651 28.9943 41.9908 31.6602C41.9972 31.8909 41.8177 32.0768 41.587 32.0768C41.5935 32.0768 41.5935 32.0768 41.587 32.0768Z" fill="white"/>
<path d="M35.0377 35.5688C35.0377 35.5688 35.608 35.6201 35.9156 35.242L36.5116 34.4922C36.8 34.1205 37.4985 33.8834 38.1778 34.2615C38.5559 34.473 39.2416 34.896 39.6645 35.21C40.1195 35.5432 41.0423 36.3122 41.0487 36.3186C41.4909 36.6903 41.5934 37.235 41.2922 37.8182C41.2922 37.8182 41.2922 37.8246 41.2922 37.831C40.9846 38.3757 40.5681 38.8884 40.049 39.3626C40.0426 39.3626 40.0426 39.369 40.0362 39.369C39.6068 39.7279 39.1839 39.9329 38.7737 39.9778C38.7225 39.9906 38.6648 39.9906 38.5879 39.9906C38.4085 39.9906 38.229 39.965 38.0496 39.9073L38.0368 39.8881C37.3959 39.7086 36.3322 39.2601 34.5634 38.2796C33.4099 37.6451 32.4551 36.9979 31.6412 36.3507C31.2119 36.011 30.7761 35.6329 30.3275 35.1843C30.3147 35.1715 30.2955 35.1523 30.2827 35.1395C30.2698 35.1267 30.2506 35.1074 30.2378 35.0946C30.225 35.0818 30.2057 35.0626 30.1929 35.0498C30.1801 35.0369 30.1609 35.0177 30.1481 35.0049C29.7059 34.5563 29.3214 34.1205 28.9818 33.6912C28.3345 32.8837 27.6873 31.9225 27.0528 30.769C26.0724 28.9938 25.6238 27.9301 25.4443 27.2956L25.4251 27.2828C25.3674 27.1034 25.3418 26.9239 25.3418 26.7445C25.3418 26.6676 25.3418 26.6099 25.3546 26.5587C25.4059 26.1421 25.6109 25.7256 25.9634 25.2962C25.9634 25.2898 25.9698 25.2898 25.9698 25.2834C26.444 24.7579 26.9567 24.3478 27.5014 24.0402C27.5014 24.0402 27.5078 24.0402 27.5142 24.0402C28.091 23.739 28.6357 23.8415 29.0138 24.2837C29.0138 24.2837 29.7892 25.2129 30.1224 25.6679C30.4365 26.0973 30.8594 26.7765 31.0709 27.1546C31.449 27.8339 31.2119 28.5324 30.8402 28.8208L30.0904 29.4168C29.7123 29.7244 29.7636 30.2947 29.7636 30.2947C29.7636 30.2947 30.8722 34.5114 35.0377 35.5688Z" fill="white"/>
</svg>
