<svg width="66" height="66" viewBox="0 0 66 66" fill="none" xmlns="http://www.w3.org/2000/svg">
<circle cx="33" cy="33" r="32.25" stroke="white" stroke-width="1.5"/>
<path d="M44.4315 21.6147C41.6401 18.7645 37.7815 17.2173 33.8407 17.2173C25.4666 17.2173 18.7344 23.9763 18.8165 32.2011C18.8165 34.8069 19.5554 37.3314 20.7869 39.6115L18.6523 47.3477L26.616 45.3119C28.8327 46.5334 31.2956 47.1034 33.7586 47.1034C42.0506 47.1034 48.7828 40.3444 48.7828 32.1196C48.7828 28.1294 47.2229 24.3834 44.4315 21.6147ZM33.8407 44.579C31.624 44.579 29.4073 44.0089 27.5191 42.8689L27.0265 42.6246L22.2647 43.8461L23.4962 39.2044L23.1678 38.7158C19.5554 32.934 21.2795 25.2792 27.1907 21.6961C33.1018 18.1131 40.737 19.8232 44.3494 25.6864C47.9618 31.5496 46.2377 39.1229 40.3266 42.706C38.4383 43.9275 36.1395 44.579 33.8407 44.579ZM41.0654 35.5398L40.1624 35.1327C40.1624 35.1327 38.8488 34.5626 38.0278 34.1555C37.9457 34.1555 37.8636 34.074 37.7815 34.074C37.5352 34.074 37.371 34.1555 37.2068 34.2369C37.2068 34.2369 37.1247 34.3183 35.9753 35.6213C35.8932 35.7841 35.729 35.8656 35.5648 35.8656H35.4827C35.4006 35.8656 35.2364 35.7841 35.1543 35.7027L34.7438 35.5398C33.8407 35.1327 33.0197 34.6441 32.3629 33.9926C32.1987 33.8297 31.9524 33.6669 31.7882 33.504C31.2135 32.934 30.6388 32.2825 30.2283 31.5496L30.1462 31.3867C30.0641 31.3053 30.0641 31.2239 29.982 31.061C29.982 30.8981 29.982 30.7353 30.0641 30.6538C30.0641 30.6538 30.3925 30.2467 30.6388 30.0024C30.803 29.8395 30.8851 29.5952 31.0493 29.4323C31.2135 29.188 31.2956 28.8623 31.2135 28.618C31.1314 28.2108 30.1462 26.0121 29.8999 25.5235C29.7357 25.2792 29.5715 25.1978 29.3252 25.1163H29.079C28.9148 25.1163 28.6685 25.1163 28.4222 25.1163C28.258 25.1163 28.0938 25.1978 27.9296 25.1978L27.8475 25.2792C27.6833 25.3606 27.5191 25.5235 27.3549 25.6049C27.1907 25.7678 27.1086 25.9307 26.9444 26.0935C26.3697 26.8265 26.0413 27.7222 26.0413 28.618C26.0413 29.2695 26.2055 29.9209 26.4518 30.491L26.5339 30.7353C27.2728 32.2825 28.258 33.6669 29.5715 34.8884L29.8999 35.2141C30.1462 35.4584 30.3925 35.6213 30.5567 35.8656C32.2808 37.3314 34.2512 38.39 36.4679 38.9601C36.7142 39.0415 37.0426 39.0415 37.2889 39.1229C37.5352 39.1229 37.8636 39.1229 38.1099 39.1229C38.5204 39.1229 39.013 38.9601 39.3414 38.7972C39.5877 38.6343 39.7519 38.6343 39.9161 38.4715L40.0803 38.3086C40.2445 38.1457 40.4087 38.0643 40.5728 37.9014C40.737 37.7386 40.9012 37.5757 40.9833 37.4128C41.1475 37.0871 41.2296 36.6799 41.3117 36.2727C41.3117 36.1099 41.3117 35.8656 41.3117 35.7027C41.3117 35.7027 41.2296 35.6213 41.0654 35.5398Z" fill="white"/>
</svg>
