<svg width="66" height="66" viewBox="0 0 66 66" fill="none" xmlns="http://www.w3.org/2000/svg">
<circle cx="33" cy="33" r="32.25" stroke="white" stroke-width="1.5"/>
<path d="M44.4313 21.6147C41.6399 18.7645 37.7812 17.2173 33.8405 17.2173C25.4663 17.2173 18.7342 23.9763 18.8163 32.2011C18.8163 34.8069 19.5552 37.3314 20.7867 39.6115L18.6521 47.3477L26.6157 45.3119C28.8324 46.5334 31.2954 47.1034 33.7584 47.1034C42.0504 47.1034 48.7825 40.3444 48.7825 32.1196C48.7825 28.1294 47.2226 24.3834 44.4313 21.6147ZM33.8405 44.579C31.6238 44.579 29.4071 44.0089 27.5188 42.8689L27.0262 42.6246L22.2645 43.8461L23.496 39.2044L23.1676 38.7158C19.5552 32.934 21.2793 25.2792 27.1904 21.6961C33.1016 18.1131 40.7368 19.8232 44.3492 25.6864C47.9615 31.5496 46.2375 39.1229 40.3263 42.706C38.438 43.9275 36.1392 44.579 33.8405 44.579ZM41.0652 35.5398L40.1621 35.1327C40.1621 35.1327 38.8485 34.5626 38.0275 34.1555C37.9454 34.1555 37.8633 34.074 37.7812 34.074C37.5349 34.074 37.3707 34.1555 37.2065 34.2369C37.2065 34.2369 37.1244 34.3183 35.975 35.6213C35.8929 35.7841 35.7287 35.8656 35.5646 35.8656H35.4825C35.4004 35.8656 35.2362 35.7841 35.1541 35.7027L34.7436 35.5398C33.8405 35.1327 33.0195 34.6441 32.3627 33.9926C32.1985 33.8297 31.9522 33.6669 31.788 33.504C31.2133 32.934 30.6386 32.2825 30.2281 31.5496L30.146 31.3867C30.0639 31.3053 30.0639 31.2239 29.9818 31.061C29.9818 30.8981 29.9818 30.7353 30.0639 30.6538C30.0639 30.6538 30.3923 30.2467 30.6386 30.0024C30.8028 29.8395 30.8849 29.5952 31.0491 29.4323C31.2133 29.188 31.2954 28.8623 31.2133 28.618C31.1312 28.2108 30.146 26.0121 29.8997 25.5235C29.7355 25.2792 29.5713 25.1978 29.325 25.1163H29.0787C28.9145 25.1163 28.6682 25.1163 28.4219 25.1163C28.2577 25.1163 28.0935 25.1978 27.9293 25.1978L27.8472 25.2792C27.683 25.3606 27.5188 25.5235 27.3546 25.6049C27.1904 25.7678 27.1083 25.9307 26.9441 26.0935C26.3694 26.8265 26.041 27.7222 26.041 28.618C26.041 29.2695 26.2052 29.9209 26.4515 30.491L26.5336 30.7353C27.2725 32.2825 28.2577 33.6669 29.5713 34.8884L29.8997 35.2141C30.146 35.4584 30.3923 35.6213 30.5565 35.8656C32.2806 37.3314 34.251 38.39 36.4676 38.9601C36.7139 39.0415 37.0423 39.0415 37.2886 39.1229C37.5349 39.1229 37.8633 39.1229 38.1096 39.1229C38.5201 39.1229 39.0127 38.9601 39.3411 38.7972C39.5874 38.6343 39.7516 38.6343 39.9158 38.4715L40.08 38.3086C40.2442 38.1457 40.4084 38.0643 40.5726 37.9014C40.7368 37.7386 40.901 37.5757 40.9831 37.4128C41.1473 37.0871 41.2294 36.6799 41.3115 36.2727C41.3115 36.1099 41.3115 35.8656 41.3115 35.7027C41.3115 35.7027 41.2294 35.6213 41.0652 35.5398Z" fill="white"/>
</svg>
