<svg width="66" height="66" viewBox="0 0 66 66" fill="none" xmlns="http://www.w3.org/2000/svg">
<circle cx="33" cy="33" r="32.25" stroke="white" stroke-width="1.5"/>
<path d="M45.6111 20.3423C44.8165 19.6117 41.5995 17.2727 34.4285 17.2406C34.4285 17.2406 25.9759 16.7279 21.8553 20.5089C19.5611 22.8031 18.7537 26.1547 18.6703 30.3201C18.587 34.4791 18.4781 42.2781 25.9951 44.3929H26.0015L25.9951 47.6163C25.9951 47.6163 25.9503 48.9236 26.809 49.1863C27.8471 49.5068 28.4623 48.5135 29.4556 47.4433C30.0003 46.8537 30.7501 45.995 31.3205 45.3349C36.46 45.7643 40.4139 44.7774 40.8625 44.63C41.9007 44.2903 47.7772 43.5406 48.732 35.7416C49.7189 27.7183 48.2514 22.6365 45.6111 20.3423ZM46.4827 35.1776C45.6752 41.6885 40.9138 42.0987 40.0359 42.3807C39.6642 42.5024 36.1908 43.3675 31.8203 43.0792C31.8203 43.0792 28.5649 47.0075 27.5524 48.0264C27.3921 48.1866 27.2063 48.2507 27.0845 48.2187C26.9115 48.1738 26.8602 47.9688 26.8667 47.6676C26.8667 47.2318 26.8923 42.3038 26.8923 42.3038C26.8859 42.3038 26.8859 42.3038 26.8923 42.3038C20.5288 40.5414 20.9005 33.9024 20.971 30.429C21.0414 26.9557 21.6951 24.104 23.6368 22.1879C27.1166 19.035 34.3004 19.5028 34.3004 19.5028C40.3627 19.5284 43.2657 21.3548 43.9386 21.9636C46.1751 23.8861 47.3158 28.4681 46.4827 35.1776Z" fill="white"/>
<path d="M37.3827 30.5509C37.1712 30.5509 36.9918 30.3843 36.9789 30.1664C36.9084 28.7886 36.2612 28.1157 34.9411 28.0452C34.7168 28.0324 34.5438 27.8402 34.5566 27.6159C34.5694 27.3916 34.7616 27.2186 34.9859 27.2314C36.729 27.3275 37.7031 28.3272 37.7928 30.1216C37.8056 30.3458 37.6326 30.5381 37.4083 30.5445C37.3955 30.5509 37.3891 30.5509 37.3827 30.5509Z" fill="white"/>
<path d="M39.4593 31.2434H39.4529C39.2286 31.237 39.0492 31.0512 39.0556 30.8269C39.0876 29.4427 38.6903 28.3212 37.8444 27.3984C37.0049 26.4756 35.845 25.9758 34.3134 25.8668C34.0891 25.8476 33.9225 25.6553 33.9417 25.4311C33.9609 25.2068 34.1532 25.0401 34.3775 25.0594C36.1077 25.1875 37.4727 25.7899 38.4468 26.8537C39.4273 27.9239 39.9015 29.2633 39.8694 30.8461C39.863 31.0704 39.6772 31.2434 39.4593 31.2434Z" fill="white"/>
<path d="M41.5868 32.0765C41.3625 32.0765 41.1831 31.8971 41.1831 31.6728C41.1638 29.1927 40.4525 27.3023 39.0042 25.886C37.5752 24.489 35.7616 23.7777 33.6276 23.7584C33.4033 23.7584 33.2239 23.5726 33.2239 23.3483C33.2239 23.124 33.4097 22.9446 33.6276 22.9446C35.9795 22.9638 37.9789 23.752 39.5618 25.3029C41.151 26.8537 41.9649 28.9941 41.9905 31.66C41.9969 31.8907 41.8175 32.0765 41.5868 32.0765C41.5932 32.0765 41.5932 32.0765 41.5868 32.0765Z" fill="white"/>
<path d="M35.0374 35.5691C35.0374 35.5691 35.6078 35.6203 35.9154 35.2422L36.5113 34.4925C36.7997 34.1208 37.4982 33.8837 38.1775 34.2618C38.5556 34.4732 39.2413 34.8962 39.6643 35.2102C40.1193 35.5434 41.0421 36.3124 41.0485 36.3189C41.4906 36.6905 41.5932 37.2352 41.292 37.8184C41.292 37.8184 41.292 37.8248 41.292 37.8312C40.9844 38.3759 40.5678 38.8886 40.0488 39.3628C40.0424 39.3628 40.0424 39.3692 40.0359 39.3692C39.6066 39.7281 39.1836 39.9332 38.7735 39.978C38.7222 39.9909 38.6646 39.9909 38.5877 39.9909C38.4082 39.9909 38.2288 39.9652 38.0494 39.9075L38.0365 39.8883C37.3957 39.7089 36.3319 39.2603 34.5632 38.2798C33.4097 37.6454 32.4548 36.9981 31.641 36.3509C31.2116 36.0113 30.7759 35.6332 30.3273 35.1846C30.3144 35.1718 30.2952 35.1525 30.2824 35.1397C30.2696 35.1269 30.2504 35.1077 30.2375 35.0949C30.2247 35.082 30.2055 35.0628 30.1927 35.05C30.1799 35.0372 30.1606 35.018 30.1478 35.0051C29.7057 34.5566 29.3212 34.1208 28.9815 33.6914C28.3343 32.884 27.687 31.9227 27.0526 30.7692C26.0721 28.9941 25.6235 27.9303 25.4441 27.2959L25.4249 27.2831C25.3672 27.1036 25.3416 26.9242 25.3416 26.7447C25.3416 26.6678 25.3416 26.6102 25.3544 26.5589C25.4056 26.1424 25.6107 25.7258 25.9632 25.2965C25.9632 25.29 25.9696 25.29 25.9696 25.2836C26.4438 24.7582 26.9565 24.348 27.5012 24.0404C27.5012 24.0404 27.5076 24.0404 27.514 24.0404C28.0907 23.7392 28.6355 23.8418 29.0135 24.2839C29.0135 24.2839 29.789 25.2131 30.1222 25.6681C30.4362 26.0975 30.8592 26.7768 31.0706 27.1549C31.4487 27.8342 31.2116 28.5327 30.8399 28.8211L30.0902 29.417C29.7121 29.7246 29.7633 30.295 29.7633 30.295C29.7633 30.295 30.872 34.5117 35.0374 35.5691Z" fill="white"/>
</svg>
