<svg width="66" height="66" viewBox="0 0 66 66" fill="none" xmlns="http://www.w3.org/2000/svg">
<circle cx="33" cy="33" r="32.25" stroke="white" stroke-width="1.5"/>
<path d="M26.4478 46.9652C26.3142 46.9652 26.1797 46.9352 26.0534 46.8752C25.7399 46.7235 25.5391 46.4064 25.5391 46.0565V41.513H22.813C21.31 41.513 20.0869 40.2899 20.0869 38.7869V24.2478C20.0869 22.7448 21.31 21.5217 22.813 21.5217H44.6217C46.1247 21.5217 47.3478 22.7448 47.3478 24.2478V38.7869C47.3478 40.2899 46.1247 41.513 44.6217 41.513H33.582L27.0157 46.7662C26.8512 46.898 26.6504 46.9652 26.4478 46.9652ZM22.813 23.3391C22.3114 23.3391 21.9043 23.7471 21.9043 24.2478V38.7869C21.9043 39.2876 22.3114 39.6956 22.813 39.6956H26.4478C26.9503 39.6956 27.3565 40.1018 27.3565 40.6043V44.1664L32.6951 39.8946C32.8568 39.7656 33.0558 39.6956 33.263 39.6956H44.6217C45.1233 39.6956 45.5304 39.2876 45.5304 38.7869V24.2478C45.5304 23.7471 45.1233 23.3391 44.6217 23.3391H22.813Z" fill="white"/>
<path d="M40.9871 30.6091H26.448C25.9455 30.6091 25.5393 30.202 25.5393 29.7004C25.5393 29.1988 25.9455 28.7917 26.448 28.7917H40.9871C41.4896 28.7917 41.8958 29.1988 41.8958 29.7004C41.8958 30.202 41.4896 30.6091 40.9871 30.6091Z" fill="white"/>
<path d="M33.7176 34.2437H26.448C25.9455 34.2437 25.5393 33.8366 25.5393 33.335C25.5393 32.8334 25.9455 32.4263 26.448 32.4263H33.7176C34.2201 32.4263 34.6263 32.8334 34.6263 33.335C34.6263 33.8366 34.2201 34.2437 33.7176 34.2437Z" fill="white"/>
</svg>
